<?xml version="1.0" encoding="utf-8" standalone="no"?>
<!DOCTYPE svg PUBLIC "-//W3C//DTD SVG 1.1//EN"
  "http://www.w3.org/Graphics/SVG/1.1/DTD/svg11.dtd">
<svg xmlns:xlink="http://www.w3.org/1999/xlink" width="108pt" height="86.4pt" viewBox="0 0 108 86.4" xmlns="http://www.w3.org/2000/svg" version="1.1">
 <metadata>
  <rdf:RDF xmlns:dc="http://purl.org/dc/elements/1.1/" xmlns:cc="http://creativecommons.org/ns#" xmlns:rdf="http://www.w3.org/1999/02/22-rdf-syntax-ns#">
   <cc:Work>
    <dc:type rdf:resource="http://purl.org/dc/dcmitype/StillImage"/>
    <dc:date>2024-02-01T23:12:24.120671</dc:date>
    <dc:format>image/svg+xml</dc:format>
    <dc:creator>
     <cc:Agent>
      <dc:title>Matplotlib v3.7.2, https://matplotlib.org/</dc:title>
     </cc:Agent>
    </dc:creator>
   </cc:Work>
  </rdf:RDF>
 </metadata>
 <defs>
  <style type="text/css">*{stroke-linejoin: round; stroke-linecap: butt}</style>
 </defs>
 <g id="figure_1">
  <g id="patch_1">
   <path d="M 0 86.4 
L 108 86.4 
L 108 0 
L 0 0 
z
" style="fill: #ffffff"/>
  </g>
  <g id="axes_1">
   <g id="patch_2">
    <path d="M 13.5 76.896 
L 97.2 76.896 
L 97.2 10.368 
L 13.5 10.368 
z
" style="fill: #ffffff"/>
   </g>
   <g id="patch_3">
    <path d="M 17.304545 76.896 
L 20.348182 76.896 
L 20.348182 55.398857 
L 17.304545 55.398857 
z
" clip-path="url(#p9dde6eb4bc)" style="fill: #ff0000"/>
   </g>
   <g id="patch_4">
    <path d="M 20.348182 76.896 
L 23.391818 76.896 
L 23.391818 49.741714 
L 20.348182 49.741714 
z
" clip-path="url(#p9dde6eb4bc)" style="fill: #ff0000"/>
   </g>
   <g id="patch_5">
    <path d="M 23.391818 76.896 
L 26.435455 76.896 
L 26.435455 24.850286 
L 23.391818 24.850286 
z
" clip-path="url(#p9dde6eb4bc)" style="fill: #ff0000"/>
   </g>
   <g id="patch_6">
    <path d="M 26.435455 76.896 
L 29.479091 76.896 
L 29.479091 22.587429 
L 26.435455 22.587429 
z
" clip-path="url(#p9dde6eb4bc)" style="fill: #ff0000"/>
   </g>
   <g id="patch_7">
    <path d="M 29.479091 76.896 
L 32.522727 76.896 
L 32.522727 38.427429 
L 29.479091 38.427429 
z
" clip-path="url(#p9dde6eb4bc)" style="fill: #ff0000"/>
   </g>
   <g id="patch_8">
    <path d="M 32.522727 76.896 
L 35.566364 76.896 
L 35.566364 13.536 
L 32.522727 13.536 
z
" clip-path="url(#p9dde6eb4bc)" style="fill: #ff0000"/>
   </g>
   <g id="patch_9">
    <path d="M 35.566364 76.896 
L 38.61 76.896 
L 38.61 36.164571 
L 35.566364 36.164571 
z
" clip-path="url(#p9dde6eb4bc)" style="fill: #ff0000"/>
   </g>
   <g id="patch_10">
    <path d="M 38.61 76.896 
L 41.653636 76.896 
L 41.653636 54.267429 
L 38.61 54.267429 
z
" clip-path="url(#p9dde6eb4bc)" style="fill: #ff0000"/>
   </g>
   <g id="patch_11">
    <path d="M 41.653636 76.896 
L 44.697273 76.896 
L 44.697273 50.873143 
L 41.653636 50.873143 
z
" clip-path="url(#p9dde6eb4bc)" style="fill: #ff0000"/>
   </g>
   <g id="patch_12">
    <path d="M 44.697273 76.896 
L 47.740909 76.896 
L 47.740909 52.004571 
L 44.697273 52.004571 
z
" clip-path="url(#p9dde6eb4bc)" style="fill: #ff0000"/>
   </g>
   <g id="patch_13">
    <path d="M 47.740909 76.896 
L 50.784545 76.896 
L 50.784545 63.318857 
L 47.740909 63.318857 
z
" clip-path="url(#p9dde6eb4bc)" style="fill: #ff0000"/>
   </g>
   <g id="patch_14">
    <path d="M 50.784545 76.896 
L 53.828182 76.896 
L 53.828182 73.501714 
L 50.784545 73.501714 
z
" clip-path="url(#p9dde6eb4bc)" style="fill: #ff0000"/>
   </g>
   <g id="patch_15">
    <path d="M 53.828182 76.896 
L 56.871818 76.896 
L 56.871818 73.501714 
L 53.828182 73.501714 
z
" clip-path="url(#p9dde6eb4bc)" style="fill: #ff0000"/>
   </g>
   <g id="patch_16">
    <path d="M 56.871818 76.896 
L 59.915455 76.896 
L 59.915455 74.633143 
L 56.871818 74.633143 
z
" clip-path="url(#p9dde6eb4bc)" style="fill: #ff0000"/>
   </g>
   <g id="patch_17">
    <path d="M 59.915455 76.896 
L 62.959091 76.896 
L 62.959091 72.370286 
L 59.915455 72.370286 
z
" clip-path="url(#p9dde6eb4bc)" style="fill: #ff0000"/>
   </g>
   <g id="patch_18">
    <path d="M 62.959091 76.896 
L 66.002727 76.896 
L 66.002727 72.370286 
L 62.959091 72.370286 
z
" clip-path="url(#p9dde6eb4bc)" style="fill: #ff0000"/>
   </g>
   <g id="patch_19">
    <path d="M 66.002727 76.896 
L 69.046364 76.896 
L 69.046364 74.633143 
L 66.002727 74.633143 
z
" clip-path="url(#p9dde6eb4bc)" style="fill: #ff0000"/>
   </g>
   <g id="patch_20">
    <path d="M 69.046364 76.896 
L 72.09 76.896 
L 72.09 76.896 
L 69.046364 76.896 
z
" clip-path="url(#p9dde6eb4bc)" style="fill: #ff0000"/>
   </g>
   <g id="patch_21">
    <path d="M 72.09 76.896 
L 75.133636 76.896 
L 75.133636 75.764571 
L 72.09 75.764571 
z
" clip-path="url(#p9dde6eb4bc)" style="fill: #ff0000"/>
   </g>
   <g id="patch_22">
    <path d="M 75.133636 76.896 
L 78.177273 76.896 
L 78.177273 76.896 
L 75.133636 76.896 
z
" clip-path="url(#p9dde6eb4bc)" style="fill: #ff0000"/>
   </g>
   <g id="patch_23">
    <path d="M 78.177273 76.896 
L 81.220909 76.896 
L 81.220909 76.896 
L 78.177273 76.896 
z
" clip-path="url(#p9dde6eb4bc)" style="fill: #ff0000"/>
   </g>
   <g id="patch_24">
    <path d="M 81.220909 76.896 
L 84.264545 76.896 
L 84.264545 76.896 
L 81.220909 76.896 
z
" clip-path="url(#p9dde6eb4bc)" style="fill: #ff0000"/>
   </g>
   <g id="patch_25">
    <path d="M 84.264545 76.896 
L 87.308182 76.896 
L 87.308182 76.896 
L 84.264545 76.896 
z
" clip-path="url(#p9dde6eb4bc)" style="fill: #ff0000"/>
   </g>
   <g id="patch_26">
    <path d="M 87.308182 76.896 
L 90.351818 76.896 
L 90.351818 76.896 
L 87.308182 76.896 
z
" clip-path="url(#p9dde6eb4bc)" style="fill: #ff0000"/>
   </g>
   <g id="patch_27">
    <path d="M 90.351818 76.896 
L 93.395455 76.896 
L 93.395455 75.764571 
L 90.351818 75.764571 
z
" clip-path="url(#p9dde6eb4bc)" style="fill: #ff0000"/>
   </g>
   <g id="matplotlib.axis_1">
    <g id="xtick_1">
     <g id="line2d_1"/>
     <g id="text_1">
      <!-- 10 -->
      <g transform="translate(28.696591 87.994437) scale(0.1 -0.1)">
       <defs>
        <path id="DejaVuSans-31" d="M 794 531 
L 1825 531 
L 1825 4091 
L 703 3866 
L 703 4441 
L 1819 4666 
L 2450 4666 
L 2450 531 
L 3481 531 
L 3481 0 
L 794 0 
L 794 531 
z
" transform="scale(0.015625)"/>
        <path id="DejaVuSans-30" d="M 2034 4250 
Q 1547 4250 1301 3770 
Q 1056 3291 1056 2328 
Q 1056 1369 1301 889 
Q 1547 409 2034 409 
Q 2525 409 2770 889 
Q 3016 1369 3016 2328 
Q 3016 3291 2770 3770 
Q 2525 4250 2034 4250 
z
M 2034 4750 
Q 2819 4750 3233 4129 
Q 3647 3509 3647 2328 
Q 3647 1150 3233 529 
Q 2819 -91 2034 -91 
Q 1250 -91 836 529 
Q 422 1150 422 2328 
Q 422 3509 836 4129 
Q 1250 4750 2034 4750 
z
" transform="scale(0.015625)"/>
       </defs>
       <use xlink:href="#DejaVuSans-31"/>
       <use xlink:href="#DejaVuSans-30" x="63.623047"/>
      </g>
     </g>
    </g>
    <g id="xtick_2">
     <g id="line2d_2"/>
     <g id="text_2">
      <!-- 20 -->
      <g transform="translate(54.060227 87.994437) scale(0.1 -0.1)">
       <defs>
        <path id="DejaVuSans-32" d="M 1228 531 
L 3431 531 
L 3431 0 
L 469 0 
L 469 531 
Q 828 903 1448 1529 
Q 2069 2156 2228 2338 
Q 2531 2678 2651 2914 
Q 2772 3150 2772 3378 
Q 2772 3750 2511 3984 
Q 2250 4219 1831 4219 
Q 1534 4219 1204 4116 
Q 875 4013 500 3803 
L 500 4441 
Q 881 4594 1212 4672 
Q 1544 4750 1819 4750 
Q 2544 4750 2975 4387 
Q 3406 4025 3406 3419 
Q 3406 3131 3298 2873 
Q 3191 2616 2906 2266 
Q 2828 2175 2409 1742 
Q 1991 1309 1228 531 
z
" transform="scale(0.015625)"/>
       </defs>
       <use xlink:href="#DejaVuSans-32"/>
       <use xlink:href="#DejaVuSans-30" x="63.623047"/>
      </g>
     </g>
    </g>
    <g id="xtick_3">
     <g id="line2d_3"/>
     <g id="text_3">
      <!-- 30 -->
      <g transform="translate(79.423864 87.994437) scale(0.1 -0.1)">
       <defs>
        <path id="DejaVuSans-33" d="M 2597 2516 
Q 3050 2419 3304 2112 
Q 3559 1806 3559 1356 
Q 3559 666 3084 287 
Q 2609 -91 1734 -91 
Q 1441 -91 1130 -33 
Q 819 25 488 141 
L 488 750 
Q 750 597 1062 519 
Q 1375 441 1716 441 
Q 2309 441 2620 675 
Q 2931 909 2931 1356 
Q 2931 1769 2642 2001 
Q 2353 2234 1838 2234 
L 1294 2234 
L 1294 2753 
L 1863 2753 
Q 2328 2753 2575 2939 
Q 2822 3125 2822 3475 
Q 2822 3834 2567 4026 
Q 2313 4219 1838 4219 
Q 1578 4219 1281 4162 
Q 984 4106 628 3988 
L 628 4550 
Q 988 4650 1302 4700 
Q 1616 4750 1894 4750 
Q 2613 4750 3031 4423 
Q 3450 4097 3450 3541 
Q 3450 3153 3228 2886 
Q 3006 2619 2597 2516 
z
" transform="scale(0.015625)"/>
       </defs>
       <use xlink:href="#DejaVuSans-33"/>
       <use xlink:href="#DejaVuSans-30" x="63.623047"/>
      </g>
     </g>
    </g>
    <g id="text_4">
     <!-- # of Blocks -->
     <g transform="translate(27.034375 101.672562) scale(0.1 -0.1)">
      <defs>
       <path id="DejaVuSans-23" d="M 3272 2816 
L 2363 2816 
L 2100 1772 
L 3016 1772 
L 3272 2816 
z
M 2803 4594 
L 2478 3297 
L 3391 3297 
L 3719 4594 
L 4219 4594 
L 3897 3297 
L 4872 3297 
L 4872 2816 
L 3775 2816 
L 3519 1772 
L 4513 1772 
L 4513 1294 
L 3397 1294 
L 3072 0 
L 2572 0 
L 2894 1294 
L 1978 1294 
L 1656 0 
L 1153 0 
L 1478 1294 
L 494 1294 
L 494 1772 
L 1594 1772 
L 1856 2816 
L 850 2816 
L 850 3297 
L 1978 3297 
L 2297 4594 
L 2803 4594 
z
" transform="scale(0.015625)"/>
       <path id="DejaVuSans-20" transform="scale(0.015625)"/>
       <path id="DejaVuSans-6f" d="M 1959 3097 
Q 1497 3097 1228 2736 
Q 959 2375 959 1747 
Q 959 1119 1226 758 
Q 1494 397 1959 397 
Q 2419 397 2687 759 
Q 2956 1122 2956 1747 
Q 2956 2369 2687 2733 
Q 2419 3097 1959 3097 
z
M 1959 3584 
Q 2709 3584 3137 3096 
Q 3566 2609 3566 1747 
Q 3566 888 3137 398 
Q 2709 -91 1959 -91 
Q 1206 -91 779 398 
Q 353 888 353 1747 
Q 353 2609 779 3096 
Q 1206 3584 1959 3584 
z
" transform="scale(0.015625)"/>
       <path id="DejaVuSans-66" d="M 2375 4863 
L 2375 4384 
L 1825 4384 
Q 1516 4384 1395 4259 
Q 1275 4134 1275 3809 
L 1275 3500 
L 2222 3500 
L 2222 3053 
L 1275 3053 
L 1275 0 
L 697 0 
L 697 3053 
L 147 3053 
L 147 3500 
L 697 3500 
L 697 3744 
Q 697 4328 969 4595 
Q 1241 4863 1831 4863 
L 2375 4863 
z
" transform="scale(0.015625)"/>
       <path id="DejaVuSans-42" d="M 1259 2228 
L 1259 519 
L 2272 519 
Q 2781 519 3026 730 
Q 3272 941 3272 1375 
Q 3272 1813 3026 2020 
Q 2781 2228 2272 2228 
L 1259 2228 
z
M 1259 4147 
L 1259 2741 
L 2194 2741 
Q 2656 2741 2882 2914 
Q 3109 3088 3109 3444 
Q 3109 3797 2882 3972 
Q 2656 4147 2194 4147 
L 1259 4147 
z
M 628 4666 
L 2241 4666 
Q 2963 4666 3353 4366 
Q 3744 4066 3744 3513 
Q 3744 3084 3544 2831 
Q 3344 2578 2956 2516 
Q 3422 2416 3680 2098 
Q 3938 1781 3938 1306 
Q 3938 681 3513 340 
Q 3088 0 2303 0 
L 628 0 
L 628 4666 
z
" transform="scale(0.015625)"/>
       <path id="DejaVuSans-6c" d="M 603 4863 
L 1178 4863 
L 1178 0 
L 603 0 
L 603 4863 
z
" transform="scale(0.015625)"/>
       <path id="DejaVuSans-63" d="M 3122 3366 
L 3122 2828 
Q 2878 2963 2633 3030 
Q 2388 3097 2138 3097 
Q 1578 3097 1268 2742 
Q 959 2388 959 1747 
Q 959 1106 1268 751 
Q 1578 397 2138 397 
Q 2388 397 2633 464 
Q 2878 531 3122 666 
L 3122 134 
Q 2881 22 2623 -34 
Q 2366 -91 2075 -91 
Q 1284 -91 818 406 
Q 353 903 353 1747 
Q 353 2603 823 3093 
Q 1294 3584 2113 3584 
Q 2378 3584 2631 3529 
Q 2884 3475 3122 3366 
z
" transform="scale(0.015625)"/>
       <path id="DejaVuSans-6b" d="M 581 4863 
L 1159 4863 
L 1159 1991 
L 2875 3500 
L 3609 3500 
L 1753 1863 
L 3688 0 
L 2938 0 
L 1159 1709 
L 1159 0 
L 581 0 
L 581 4863 
z
" transform="scale(0.015625)"/>
       <path id="DejaVuSans-73" d="M 2834 3397 
L 2834 2853 
Q 2591 2978 2328 3040 
Q 2066 3103 1784 3103 
Q 1356 3103 1142 2972 
Q 928 2841 928 2578 
Q 928 2378 1081 2264 
Q 1234 2150 1697 2047 
L 1894 2003 
Q 2506 1872 2764 1633 
Q 3022 1394 3022 966 
Q 3022 478 2636 193 
Q 2250 -91 1575 -91 
Q 1294 -91 989 -36 
Q 684 19 347 128 
L 347 722 
Q 666 556 975 473 
Q 1284 391 1588 391 
Q 1994 391 2212 530 
Q 2431 669 2431 922 
Q 2431 1156 2273 1281 
Q 2116 1406 1581 1522 
L 1381 1569 
Q 847 1681 609 1914 
Q 372 2147 372 2553 
Q 372 3047 722 3315 
Q 1072 3584 1716 3584 
Q 2034 3584 2315 3537 
Q 2597 3491 2834 3397 
z
" transform="scale(0.015625)"/>
      </defs>
      <use xlink:href="#DejaVuSans-23"/>
      <use xlink:href="#DejaVuSans-20" x="83.789062"/>
      <use xlink:href="#DejaVuSans-6f" x="115.576172"/>
      <use xlink:href="#DejaVuSans-66" x="176.757812"/>
      <use xlink:href="#DejaVuSans-20" x="211.962891"/>
      <use xlink:href="#DejaVuSans-42" x="243.75"/>
      <use xlink:href="#DejaVuSans-6c" x="312.353516"/>
      <use xlink:href="#DejaVuSans-6f" x="340.136719"/>
      <use xlink:href="#DejaVuSans-63" x="401.318359"/>
      <use xlink:href="#DejaVuSans-6b" x="456.298828"/>
      <use xlink:href="#DejaVuSans-73" x="514.208984"/>
     </g>
    </g>
   </g>
   <g id="matplotlib.axis_2">
    <g id="ytick_1">
     <g id="line2d_4"/>
     <g id="text_5">
      <!-- 0 -->
      <g transform="translate(3.6375 80.695219) scale(0.1 -0.1)">
       <use xlink:href="#DejaVuSans-30"/>
      </g>
     </g>
    </g>
    <g id="ytick_2">
     <g id="line2d_5"/>
     <g id="text_6">
      <!-- 20 -->
      <g transform="translate(-2.725 58.066647) scale(0.1 -0.1)">
       <use xlink:href="#DejaVuSans-32"/>
       <use xlink:href="#DejaVuSans-30" x="63.623047"/>
      </g>
     </g>
    </g>
    <g id="ytick_3">
     <g id="line2d_6"/>
     <g id="text_7">
      <!-- 40 -->
      <g transform="translate(-2.725 35.438076) scale(0.1 -0.1)">
       <defs>
        <path id="DejaVuSans-34" d="M 2419 4116 
L 825 1625 
L 2419 1625 
L 2419 4116 
z
M 2253 4666 
L 3047 4666 
L 3047 1625 
L 3713 1625 
L 3713 1100 
L 3047 1100 
L 3047 0 
L 2419 0 
L 2419 1100 
L 313 1100 
L 313 1709 
L 2253 4666 
z
" transform="scale(0.015625)"/>
       </defs>
       <use xlink:href="#DejaVuSans-34"/>
       <use xlink:href="#DejaVuSans-30" x="63.623047"/>
      </g>
     </g>
    </g>
    <g id="text_8">
     <!-- # of Flies -->
     <g transform="translate(-8.804688 67.154656) rotate(-90) scale(0.1 -0.1)">
      <defs>
       <path id="DejaVuSans-46" d="M 628 4666 
L 3309 4666 
L 3309 4134 
L 1259 4134 
L 1259 2759 
L 3109 2759 
L 3109 2228 
L 1259 2228 
L 1259 0 
L 628 0 
L 628 4666 
z
" transform="scale(0.015625)"/>
       <path id="DejaVuSans-69" d="M 603 3500 
L 1178 3500 
L 1178 0 
L 603 0 
L 603 3500 
z
M 603 4863 
L 1178 4863 
L 1178 4134 
L 603 4134 
L 603 4863 
z
" transform="scale(0.015625)"/>
       <path id="DejaVuSans-65" d="M 3597 1894 
L 3597 1613 
L 953 1613 
Q 991 1019 1311 708 
Q 1631 397 2203 397 
Q 2534 397 2845 478 
Q 3156 559 3463 722 
L 3463 178 
Q 3153 47 2828 -22 
Q 2503 -91 2169 -91 
Q 1331 -91 842 396 
Q 353 884 353 1716 
Q 353 2575 817 3079 
Q 1281 3584 2069 3584 
Q 2775 3584 3186 3129 
Q 3597 2675 3597 1894 
z
M 3022 2063 
Q 3016 2534 2758 2815 
Q 2500 3097 2075 3097 
Q 1594 3097 1305 2825 
Q 1016 2553 972 2059 
L 3022 2063 
z
" transform="scale(0.015625)"/>
      </defs>
      <use xlink:href="#DejaVuSans-23"/>
      <use xlink:href="#DejaVuSans-20" x="83.789062"/>
      <use xlink:href="#DejaVuSans-6f" x="115.576172"/>
      <use xlink:href="#DejaVuSans-66" x="176.757812"/>
      <use xlink:href="#DejaVuSans-20" x="211.962891"/>
      <use xlink:href="#DejaVuSans-46" x="243.75"/>
      <use xlink:href="#DejaVuSans-6c" x="301.269531"/>
      <use xlink:href="#DejaVuSans-69" x="329.052734"/>
      <use xlink:href="#DejaVuSans-65" x="356.835938"/>
      <use xlink:href="#DejaVuSans-73" x="418.359375"/>
     </g>
    </g>
   </g>
   <g id="patch_28">
    <path d="M 13.5 76.896 
L 13.5 10.368 
" style="fill: none; stroke: #000000; stroke-width: 0.8; stroke-linejoin: miter; stroke-linecap: square"/>
   </g>
   <g id="patch_29">
    <path d="M 13.5 76.896 
L 97.2 76.896 
" style="fill: none; stroke: #000000; stroke-width: 0.8; stroke-linejoin: miter; stroke-linecap: square"/>
   </g>
  </g>
 </g>
 <defs>
  <clipPath id="p9dde6eb4bc">
   <rect x="13.5" y="10.368" width="83.7" height="66.528"/>
  </clipPath>
 </defs>
</svg>
