<?xml version="1.0" encoding="utf-8" standalone="no"?>
<!DOCTYPE svg PUBLIC "-//W3C//DTD SVG 1.1//EN"
  "http://www.w3.org/Graphics/SVG/1.1/DTD/svg11.dtd">
<svg xmlns:xlink="http://www.w3.org/1999/xlink" width="108pt" height="86.4pt" viewBox="0 0 108 86.4" xmlns="http://www.w3.org/2000/svg" version="1.1">
 <metadata>
  <rdf:RDF xmlns:dc="http://purl.org/dc/elements/1.1/" xmlns:cc="http://creativecommons.org/ns#" xmlns:rdf="http://www.w3.org/1999/02/22-rdf-syntax-ns#">
   <cc:Work>
    <dc:type rdf:resource="http://purl.org/dc/dcmitype/StillImage"/>
    <dc:date>2023-11-12T19:21:06.693955</dc:date>
    <dc:format>image/svg+xml</dc:format>
    <dc:creator>
     <cc:Agent>
      <dc:title>Matplotlib v3.7.2, https://matplotlib.org/</dc:title>
     </cc:Agent>
    </dc:creator>
   </cc:Work>
  </rdf:RDF>
 </metadata>
 <defs>
  <style type="text/css">*{stroke-linejoin: round; stroke-linecap: butt}</style>
 </defs>
 <g id="figure_1">
  <g id="patch_1">
   <path d="M 0 86.4 
L 108 86.4 
L 108 0 
L 0 0 
z
" style="fill: #ffffff"/>
  </g>
  <g id="axes_1">
   <g id="patch_2">
    <path d="M 13.5 76.896 
L 97.2 76.896 
L 97.2 10.368 
L 13.5 10.368 
z
" style="fill: #ffffff"/>
   </g>
   <g id="patch_3">
    <path d="M 17.304545 76.896 
L 20.348182 76.896 
L 20.348182 13.536 
L 17.304545 13.536 
z
" clip-path="url(#pca46d00c76)" style="fill: #ffa500"/>
   </g>
   <g id="patch_4">
    <path d="M 20.348182 76.896 
L 23.391818 76.896 
L 23.391818 35.785674 
L 20.348182 35.785674 
z
" clip-path="url(#pca46d00c76)" style="fill: #ffa500"/>
   </g>
   <g id="patch_5">
    <path d="M 23.391818 76.896 
L 26.435455 76.896 
L 26.435455 37.701209 
L 23.391818 37.701209 
z
" clip-path="url(#pca46d00c76)" style="fill: #ffa500"/>
   </g>
   <g id="patch_6">
    <path d="M 26.435455 76.896 
L 29.479091 76.896 
L 29.479091 47.278884 
L 26.435455 47.278884 
z
" clip-path="url(#pca46d00c76)" style="fill: #ffa500"/>
   </g>
   <g id="patch_7">
    <path d="M 29.479091 76.896 
L 32.522727 76.896 
L 32.522727 45.363349 
L 29.479091 45.363349 
z
" clip-path="url(#pca46d00c76)" style="fill: #ffa500"/>
   </g>
   <g id="patch_8">
    <path d="M 32.522727 76.896 
L 35.566364 76.896 
L 35.566364 38.585302 
L 32.522727 38.585302 
z
" clip-path="url(#pca46d00c76)" style="fill: #ffa500"/>
   </g>
   <g id="patch_9">
    <path d="M 35.566364 76.896 
L 38.61 76.896 
L 38.61 55.38307 
L 35.566364 55.38307 
z
" clip-path="url(#pca46d00c76)" style="fill: #ffa500"/>
   </g>
   <g id="patch_10">
    <path d="M 38.61 76.896 
L 41.653636 76.896 
L 41.653636 53.467535 
L 38.61 53.467535 
z
" clip-path="url(#pca46d00c76)" style="fill: #ffa500"/>
   </g>
   <g id="patch_11">
    <path d="M 41.653636 76.896 
L 44.697273 76.896 
L 44.697273 60.834977 
L 41.653636 60.834977 
z
" clip-path="url(#pca46d00c76)" style="fill: #ffa500"/>
   </g>
   <g id="patch_12">
    <path d="M 44.697273 76.896 
L 47.740909 76.896 
L 47.740909 62.750512 
L 44.697273 62.750512 
z
" clip-path="url(#pca46d00c76)" style="fill: #ffa500"/>
   </g>
   <g id="patch_13">
    <path d="M 47.740909 76.896 
L 50.784545 76.896 
L 50.784545 65.108093 
L 47.740909 65.108093 
z
" clip-path="url(#pca46d00c76)" style="fill: #ffa500"/>
   </g>
   <g id="patch_14">
    <path d="M 50.784545 76.896 
L 53.828182 76.896 
L 53.828182 65.55014 
L 50.784545 65.55014 
z
" clip-path="url(#pca46d00c76)" style="fill: #ffa500"/>
   </g>
   <g id="patch_15">
    <path d="M 53.828182 76.896 
L 56.871818 76.896 
L 56.871818 69.675907 
L 53.828182 69.675907 
z
" clip-path="url(#pca46d00c76)" style="fill: #ffa500"/>
   </g>
   <g id="patch_16">
    <path d="M 56.871818 76.896 
L 59.915455 76.896 
L 59.915455 68.05507 
L 56.871818 68.05507 
z
" clip-path="url(#pca46d00c76)" style="fill: #ffa500"/>
   </g>
   <g id="patch_17">
    <path d="M 59.915455 76.896 
L 62.959091 76.896 
L 62.959091 69.086512 
L 59.915455 69.086512 
z
" clip-path="url(#pca46d00c76)" style="fill: #ffa500"/>
   </g>
   <g id="patch_18">
    <path d="M 62.959091 76.896 
L 66.002727 76.896 
L 66.002727 71.002047 
L 62.959091 71.002047 
z
" clip-path="url(#pca46d00c76)" style="fill: #ffa500"/>
   </g>
   <g id="patch_19">
    <path d="M 66.002727 76.896 
L 69.046364 76.896 
L 69.046364 72.917581 
L 66.002727 72.917581 
z
" clip-path="url(#pca46d00c76)" style="fill: #ffa500"/>
   </g>
   <g id="patch_20">
    <path d="M 69.046364 76.896 
L 72.09 76.896 
L 72.09 72.328186 
L 69.046364 72.328186 
z
" clip-path="url(#pca46d00c76)" style="fill: #ffa500"/>
   </g>
   <g id="patch_21">
    <path d="M 72.09 76.896 
L 75.133636 76.896 
L 75.133636 72.770233 
L 72.09 72.770233 
z
" clip-path="url(#pca46d00c76)" style="fill: #ffa500"/>
   </g>
   <g id="patch_22">
    <path d="M 75.133636 76.896 
L 78.177273 76.896 
L 78.177273 71.149395 
L 75.133636 71.149395 
z
" clip-path="url(#pca46d00c76)" style="fill: #ffa500"/>
   </g>
   <g id="patch_23">
    <path d="M 78.177273 76.896 
L 81.220909 76.896 
L 81.220909 72.328186 
L 78.177273 72.328186 
z
" clip-path="url(#pca46d00c76)" style="fill: #ffa500"/>
   </g>
   <g id="patch_24">
    <path d="M 81.220909 76.896 
L 84.264545 76.896 
L 84.264545 72.770233 
L 81.220909 72.770233 
z
" clip-path="url(#pca46d00c76)" style="fill: #ffa500"/>
   </g>
   <g id="patch_25">
    <path d="M 84.264545 76.896 
L 87.308182 76.896 
L 87.308182 74.685767 
L 84.264545 74.685767 
z
" clip-path="url(#pca46d00c76)" style="fill: #ffa500"/>
   </g>
   <g id="patch_26">
    <path d="M 87.308182 76.896 
L 90.351818 76.896 
L 90.351818 76.011907 
L 87.308182 76.011907 
z
" clip-path="url(#pca46d00c76)" style="fill: #ffa500"/>
   </g>
   <g id="patch_27">
    <path d="M 90.351818 76.896 
L 93.395455 76.896 
L 93.395455 74.980465 
L 90.351818 74.980465 
z
" clip-path="url(#pca46d00c76)" style="fill: #ffa500"/>
   </g>
   <g id="matplotlib.axis_1">
    <g id="xtick_1">
     <g id="line2d_1"/>
     <g id="text_1">
      <!-- 50 -->
      <g transform="translate(28.501486 87.994437) scale(0.1 -0.1)">
       <defs>
        <path id="DejaVuSans-35" d="M 691 4666 
L 3169 4666 
L 3169 4134 
L 1269 4134 
L 1269 2991 
Q 1406 3038 1543 3061 
Q 1681 3084 1819 3084 
Q 2600 3084 3056 2656 
Q 3513 2228 3513 1497 
Q 3513 744 3044 326 
Q 2575 -91 1722 -91 
Q 1428 -91 1123 -41 
Q 819 9 494 109 
L 494 744 
Q 775 591 1075 516 
Q 1375 441 1709 441 
Q 2250 441 2565 725 
Q 2881 1009 2881 1497 
Q 2881 1984 2565 2268 
Q 2250 2553 1709 2553 
Q 1456 2553 1204 2497 
Q 953 2441 691 2322 
L 691 4666 
z
" transform="scale(0.015625)"/>
        <path id="DejaVuSans-30" d="M 2034 4250 
Q 1547 4250 1301 3770 
Q 1056 3291 1056 2328 
Q 1056 1369 1301 889 
Q 1547 409 2034 409 
Q 2525 409 2770 889 
Q 3016 1369 3016 2328 
Q 3016 3291 2770 3770 
Q 2525 4250 2034 4250 
z
M 2034 4750 
Q 2819 4750 3233 4129 
Q 3647 3509 3647 2328 
Q 3647 1150 3233 529 
Q 2819 -91 2034 -91 
Q 1250 -91 836 529 
Q 422 1150 422 2328 
Q 422 3509 836 4129 
Q 1250 4750 2034 4750 
z
" transform="scale(0.015625)"/>
       </defs>
       <use xlink:href="#DejaVuSans-35"/>
       <use xlink:href="#DejaVuSans-30" x="63.623047"/>
      </g>
     </g>
    </g>
    <g id="xtick_2">
     <g id="line2d_2"/>
     <g id="text_2">
      <!-- 100 -->
      <g transform="translate(54.58597 87.994437) scale(0.1 -0.1)">
       <defs>
        <path id="DejaVuSans-31" d="M 794 531 
L 1825 531 
L 1825 4091 
L 703 3866 
L 703 4441 
L 1819 4666 
L 2450 4666 
L 2450 531 
L 3481 531 
L 3481 0 
L 794 0 
L 794 531 
z
" transform="scale(0.015625)"/>
       </defs>
       <use xlink:href="#DejaVuSans-31"/>
       <use xlink:href="#DejaVuSans-30" x="63.623047"/>
       <use xlink:href="#DejaVuSans-30" x="127.246094"/>
      </g>
     </g>
    </g>
    <g id="xtick_3">
     <g id="line2d_3"/>
     <g id="text_3">
      <!-- 150 -->
      <g transform="translate(83.851705 87.994437) scale(0.1 -0.1)">
       <use xlink:href="#DejaVuSans-31"/>
       <use xlink:href="#DejaVuSans-35" x="63.623047"/>
       <use xlink:href="#DejaVuSans-30" x="127.246094"/>
      </g>
     </g>
    </g>
    <g id="text_4">
     <!-- Block Length -->
     <g transform="translate(22.990625 101.672562) scale(0.1 -0.1)">
      <defs>
       <path id="DejaVuSans-42" d="M 1259 2228 
L 1259 519 
L 2272 519 
Q 2781 519 3026 730 
Q 3272 941 3272 1375 
Q 3272 1813 3026 2020 
Q 2781 2228 2272 2228 
L 1259 2228 
z
M 1259 4147 
L 1259 2741 
L 2194 2741 
Q 2656 2741 2882 2914 
Q 3109 3088 3109 3444 
Q 3109 3797 2882 3972 
Q 2656 4147 2194 4147 
L 1259 4147 
z
M 628 4666 
L 2241 4666 
Q 2963 4666 3353 4366 
Q 3744 4066 3744 3513 
Q 3744 3084 3544 2831 
Q 3344 2578 2956 2516 
Q 3422 2416 3680 2098 
Q 3938 1781 3938 1306 
Q 3938 681 3513 340 
Q 3088 0 2303 0 
L 628 0 
L 628 4666 
z
" transform="scale(0.015625)"/>
       <path id="DejaVuSans-6c" d="M 603 4863 
L 1178 4863 
L 1178 0 
L 603 0 
L 603 4863 
z
" transform="scale(0.015625)"/>
       <path id="DejaVuSans-6f" d="M 1959 3097 
Q 1497 3097 1228 2736 
Q 959 2375 959 1747 
Q 959 1119 1226 758 
Q 1494 397 1959 397 
Q 2419 397 2687 759 
Q 2956 1122 2956 1747 
Q 2956 2369 2687 2733 
Q 2419 3097 1959 3097 
z
M 1959 3584 
Q 2709 3584 3137 3096 
Q 3566 2609 3566 1747 
Q 3566 888 3137 398 
Q 2709 -91 1959 -91 
Q 1206 -91 779 398 
Q 353 888 353 1747 
Q 353 2609 779 3096 
Q 1206 3584 1959 3584 
z
" transform="scale(0.015625)"/>
       <path id="DejaVuSans-63" d="M 3122 3366 
L 3122 2828 
Q 2878 2963 2633 3030 
Q 2388 3097 2138 3097 
Q 1578 3097 1268 2742 
Q 959 2388 959 1747 
Q 959 1106 1268 751 
Q 1578 397 2138 397 
Q 2388 397 2633 464 
Q 2878 531 3122 666 
L 3122 134 
Q 2881 22 2623 -34 
Q 2366 -91 2075 -91 
Q 1284 -91 818 406 
Q 353 903 353 1747 
Q 353 2603 823 3093 
Q 1294 3584 2113 3584 
Q 2378 3584 2631 3529 
Q 2884 3475 3122 3366 
z
" transform="scale(0.015625)"/>
       <path id="DejaVuSans-6b" d="M 581 4863 
L 1159 4863 
L 1159 1991 
L 2875 3500 
L 3609 3500 
L 1753 1863 
L 3688 0 
L 2938 0 
L 1159 1709 
L 1159 0 
L 581 0 
L 581 4863 
z
" transform="scale(0.015625)"/>
       <path id="DejaVuSans-20" transform="scale(0.015625)"/>
       <path id="DejaVuSans-4c" d="M 628 4666 
L 1259 4666 
L 1259 531 
L 3531 531 
L 3531 0 
L 628 0 
L 628 4666 
z
" transform="scale(0.015625)"/>
       <path id="DejaVuSans-65" d="M 3597 1894 
L 3597 1613 
L 953 1613 
Q 991 1019 1311 708 
Q 1631 397 2203 397 
Q 2534 397 2845 478 
Q 3156 559 3463 722 
L 3463 178 
Q 3153 47 2828 -22 
Q 2503 -91 2169 -91 
Q 1331 -91 842 396 
Q 353 884 353 1716 
Q 353 2575 817 3079 
Q 1281 3584 2069 3584 
Q 2775 3584 3186 3129 
Q 3597 2675 3597 1894 
z
M 3022 2063 
Q 3016 2534 2758 2815 
Q 2500 3097 2075 3097 
Q 1594 3097 1305 2825 
Q 1016 2553 972 2059 
L 3022 2063 
z
" transform="scale(0.015625)"/>
       <path id="DejaVuSans-6e" d="M 3513 2113 
L 3513 0 
L 2938 0 
L 2938 2094 
Q 2938 2591 2744 2837 
Q 2550 3084 2163 3084 
Q 1697 3084 1428 2787 
Q 1159 2491 1159 1978 
L 1159 0 
L 581 0 
L 581 3500 
L 1159 3500 
L 1159 2956 
Q 1366 3272 1645 3428 
Q 1925 3584 2291 3584 
Q 2894 3584 3203 3211 
Q 3513 2838 3513 2113 
z
" transform="scale(0.015625)"/>
       <path id="DejaVuSans-67" d="M 2906 1791 
Q 2906 2416 2648 2759 
Q 2391 3103 1925 3103 
Q 1463 3103 1205 2759 
Q 947 2416 947 1791 
Q 947 1169 1205 825 
Q 1463 481 1925 481 
Q 2391 481 2648 825 
Q 2906 1169 2906 1791 
z
M 3481 434 
Q 3481 -459 3084 -895 
Q 2688 -1331 1869 -1331 
Q 1566 -1331 1297 -1286 
Q 1028 -1241 775 -1147 
L 775 -588 
Q 1028 -725 1275 -790 
Q 1522 -856 1778 -856 
Q 2344 -856 2625 -561 
Q 2906 -266 2906 331 
L 2906 616 
Q 2728 306 2450 153 
Q 2172 0 1784 0 
Q 1141 0 747 490 
Q 353 981 353 1791 
Q 353 2603 747 3093 
Q 1141 3584 1784 3584 
Q 2172 3584 2450 3431 
Q 2728 3278 2906 2969 
L 2906 3500 
L 3481 3500 
L 3481 434 
z
" transform="scale(0.015625)"/>
       <path id="DejaVuSans-74" d="M 1172 4494 
L 1172 3500 
L 2356 3500 
L 2356 3053 
L 1172 3053 
L 1172 1153 
Q 1172 725 1289 603 
Q 1406 481 1766 481 
L 2356 481 
L 2356 0 
L 1766 0 
Q 1100 0 847 248 
Q 594 497 594 1153 
L 594 3053 
L 172 3053 
L 172 3500 
L 594 3500 
L 594 4494 
L 1172 4494 
z
" transform="scale(0.015625)"/>
       <path id="DejaVuSans-68" d="M 3513 2113 
L 3513 0 
L 2938 0 
L 2938 2094 
Q 2938 2591 2744 2837 
Q 2550 3084 2163 3084 
Q 1697 3084 1428 2787 
Q 1159 2491 1159 1978 
L 1159 0 
L 581 0 
L 581 4863 
L 1159 4863 
L 1159 2956 
Q 1366 3272 1645 3428 
Q 1925 3584 2291 3584 
Q 2894 3584 3203 3211 
Q 3513 2838 3513 2113 
z
" transform="scale(0.015625)"/>
      </defs>
      <use xlink:href="#DejaVuSans-42"/>
      <use xlink:href="#DejaVuSans-6c" x="68.603516"/>
      <use xlink:href="#DejaVuSans-6f" x="96.386719"/>
      <use xlink:href="#DejaVuSans-63" x="157.568359"/>
      <use xlink:href="#DejaVuSans-6b" x="212.548828"/>
      <use xlink:href="#DejaVuSans-20" x="270.458984"/>
      <use xlink:href="#DejaVuSans-4c" x="302.246094"/>
      <use xlink:href="#DejaVuSans-65" x="356.208984"/>
      <use xlink:href="#DejaVuSans-6e" x="417.732422"/>
      <use xlink:href="#DejaVuSans-67" x="481.111328"/>
      <use xlink:href="#DejaVuSans-74" x="544.587891"/>
      <use xlink:href="#DejaVuSans-68" x="583.796875"/>
     </g>
    </g>
   </g>
   <g id="matplotlib.axis_2">
    <g id="ytick_1">
     <g id="line2d_4"/>
     <g id="text_5">
      <!-- 0 -->
      <g transform="translate(3.6375 80.695219) scale(0.1 -0.1)">
       <use xlink:href="#DejaVuSans-30"/>
      </g>
     </g>
    </g>
    <g id="ytick_2">
     <g id="line2d_5"/>
     <g id="text_6">
      <!-- 200 -->
      <g transform="translate(-9.0875 51.225451) scale(0.1 -0.1)">
       <defs>
        <path id="DejaVuSans-32" d="M 1228 531 
L 3431 531 
L 3431 0 
L 469 0 
L 469 531 
Q 828 903 1448 1529 
Q 2069 2156 2228 2338 
Q 2531 2678 2651 2914 
Q 2772 3150 2772 3378 
Q 2772 3750 2511 3984 
Q 2250 4219 1831 4219 
Q 1534 4219 1204 4116 
Q 875 4013 500 3803 
L 500 4441 
Q 881 4594 1212 4672 
Q 1544 4750 1819 4750 
Q 2544 4750 2975 4387 
Q 3406 4025 3406 3419 
Q 3406 3131 3298 2873 
Q 3191 2616 2906 2266 
Q 2828 2175 2409 1742 
Q 1991 1309 1228 531 
z
" transform="scale(0.015625)"/>
       </defs>
       <use xlink:href="#DejaVuSans-32"/>
       <use xlink:href="#DejaVuSans-30" x="63.623047"/>
       <use xlink:href="#DejaVuSans-30" x="127.246094"/>
      </g>
     </g>
    </g>
    <g id="ytick_3">
     <g id="line2d_6"/>
     <g id="text_7">
      <!-- 400 -->
      <g transform="translate(-9.0875 21.755684) scale(0.1 -0.1)">
       <defs>
        <path id="DejaVuSans-34" d="M 2419 4116 
L 825 1625 
L 2419 1625 
L 2419 4116 
z
M 2253 4666 
L 3047 4666 
L 3047 1625 
L 3713 1625 
L 3713 1100 
L 3047 1100 
L 3047 0 
L 2419 0 
L 2419 1100 
L 313 1100 
L 313 1709 
L 2253 4666 
z
" transform="scale(0.015625)"/>
       </defs>
       <use xlink:href="#DejaVuSans-34"/>
       <use xlink:href="#DejaVuSans-30" x="63.623047"/>
       <use xlink:href="#DejaVuSans-30" x="127.246094"/>
      </g>
     </g>
    </g>
    <g id="text_8">
     <!-- # of Blocks -->
     <g transform="translate(-15.167188 71.947625) rotate(-90) scale(0.1 -0.1)">
      <defs>
       <path id="DejaVuSans-23" d="M 3272 2816 
L 2363 2816 
L 2100 1772 
L 3016 1772 
L 3272 2816 
z
M 2803 4594 
L 2478 3297 
L 3391 3297 
L 3719 4594 
L 4219 4594 
L 3897 3297 
L 4872 3297 
L 4872 2816 
L 3775 2816 
L 3519 1772 
L 4513 1772 
L 4513 1294 
L 3397 1294 
L 3072 0 
L 2572 0 
L 2894 1294 
L 1978 1294 
L 1656 0 
L 1153 0 
L 1478 1294 
L 494 1294 
L 494 1772 
L 1594 1772 
L 1856 2816 
L 850 2816 
L 850 3297 
L 1978 3297 
L 2297 4594 
L 2803 4594 
z
" transform="scale(0.015625)"/>
       <path id="DejaVuSans-66" d="M 2375 4863 
L 2375 4384 
L 1825 4384 
Q 1516 4384 1395 4259 
Q 1275 4134 1275 3809 
L 1275 3500 
L 2222 3500 
L 2222 3053 
L 1275 3053 
L 1275 0 
L 697 0 
L 697 3053 
L 147 3053 
L 147 3500 
L 697 3500 
L 697 3744 
Q 697 4328 969 4595 
Q 1241 4863 1831 4863 
L 2375 4863 
z
" transform="scale(0.015625)"/>
       <path id="DejaVuSans-73" d="M 2834 3397 
L 2834 2853 
Q 2591 2978 2328 3040 
Q 2066 3103 1784 3103 
Q 1356 3103 1142 2972 
Q 928 2841 928 2578 
Q 928 2378 1081 2264 
Q 1234 2150 1697 2047 
L 1894 2003 
Q 2506 1872 2764 1633 
Q 3022 1394 3022 966 
Q 3022 478 2636 193 
Q 2250 -91 1575 -91 
Q 1294 -91 989 -36 
Q 684 19 347 128 
L 347 722 
Q 666 556 975 473 
Q 1284 391 1588 391 
Q 1994 391 2212 530 
Q 2431 669 2431 922 
Q 2431 1156 2273 1281 
Q 2116 1406 1581 1522 
L 1381 1569 
Q 847 1681 609 1914 
Q 372 2147 372 2553 
Q 372 3047 722 3315 
Q 1072 3584 1716 3584 
Q 2034 3584 2315 3537 
Q 2597 3491 2834 3397 
z
" transform="scale(0.015625)"/>
      </defs>
      <use xlink:href="#DejaVuSans-23"/>
      <use xlink:href="#DejaVuSans-20" x="83.789062"/>
      <use xlink:href="#DejaVuSans-6f" x="115.576172"/>
      <use xlink:href="#DejaVuSans-66" x="176.757812"/>
      <use xlink:href="#DejaVuSans-20" x="211.962891"/>
      <use xlink:href="#DejaVuSans-42" x="243.75"/>
      <use xlink:href="#DejaVuSans-6c" x="312.353516"/>
      <use xlink:href="#DejaVuSans-6f" x="340.136719"/>
      <use xlink:href="#DejaVuSans-63" x="401.318359"/>
      <use xlink:href="#DejaVuSans-6b" x="456.298828"/>
      <use xlink:href="#DejaVuSans-73" x="514.208984"/>
     </g>
    </g>
   </g>
   <g id="patch_28">
    <path d="M 13.5 76.896 
L 13.5 10.368 
" style="fill: none; stroke: #000000; stroke-width: 0.8; stroke-linejoin: miter; stroke-linecap: square"/>
   </g>
   <g id="patch_29">
    <path d="M 13.5 76.896 
L 97.2 76.896 
" style="fill: none; stroke: #000000; stroke-width: 0.8; stroke-linejoin: miter; stroke-linecap: square"/>
   </g>
  </g>
 </g>
 <defs>
  <clipPath id="pca46d00c76">
   <rect x="13.5" y="10.368" width="83.7" height="66.528"/>
  </clipPath>
 </defs>
</svg>
