<?xml version="1.0" encoding="utf-8" standalone="no"?>
<!DOCTYPE svg PUBLIC "-//W3C//DTD SVG 1.1//EN"
  "http://www.w3.org/Graphics/SVG/1.1/DTD/svg11.dtd">
<svg xmlns:xlink="http://www.w3.org/1999/xlink" width="170.550705pt" height="100.19625pt" viewBox="0 0 170.550705 100.19625" xmlns="http://www.w3.org/2000/svg" version="1.1">
 <metadata>
  <rdf:RDF xmlns:dc="http://purl.org/dc/elements/1.1/" xmlns:cc="http://creativecommons.org/ns#" xmlns:rdf="http://www.w3.org/1999/02/22-rdf-syntax-ns#">
   <cc:Work>
    <dc:type rdf:resource="http://purl.org/dc/dcmitype/StillImage"/>
    <dc:date>2023-10-30T13:59:43.011752</dc:date>
    <dc:format>image/svg+xml</dc:format>
    <dc:creator>
     <cc:Agent>
      <dc:title>Matplotlib v3.7.2, https://matplotlib.org/</dc:title>
     </cc:Agent>
    </dc:creator>
   </cc:Work>
  </rdf:RDF>
 </metadata>
 <defs>
  <style type="text/css">*{stroke-linejoin: round; stroke-linecap: butt}</style>
 </defs>
 <g id="figure_1">
  <g id="patch_1">
   <path d="M 0 100.19625 
L 170.550705 100.19625 
L 170.550705 0 
L 0 0 
z
" style="fill: #ffffff"/>
  </g>
  <g id="axes_1">
   <g id="patch_2">
    <path d="M 50.14375 62.64 
L 161.74375 62.64 
L 161.74375 7.2 
L 50.14375 7.2 
z
" style="fill: #ffffff"/>
   </g>
   <g id="PolyCollection_1">
    <defs>
     <path id="m34afca7c64" d="M 55.216477 -77.246683 
L 55.216477 -63.6327 
L 58.71491 -62.035002 
L 62.213342 -61.064773 
L 65.711775 -60.295393 
L 69.210208 -56.497216 
L 72.70864 -57.027611 
L 76.207073 -62.931395 
L 79.705505 -56.337481 
L 83.203938 -68.817205 
L 86.702371 -62.609852 
L 90.200803 -54.98812 
L 93.699236 -65.653049 
L 97.197668 -59.603854 
L 100.696101 -60.193976 
L 104.194534 -55.73267 
L 107.692966 -61.456101 
L 111.191399 -69.343889 
L 114.689832 -61.255645 
L 118.188264 -76.450817 
L 121.686697 -69.538524 
L 125.185129 -70.680362 
L 128.683562 -79.562736 
L 132.181995 -72.72096 
L 135.680427 -73.401391 
L 139.17886 -72.404112 
L 142.677292 -80.671616 
L 146.175725 -75.013132 
L 149.674158 -75.355303 
L 153.17259 -78.133877 
L 156.671023 -86.114738 
L 156.671023 -90.360703 
L 156.671023 -90.360703 
L 153.17259 -89.668054 
L 149.674158 -82.967304 
L 146.175725 -78.954765 
L 142.677292 -90.47625 
L 139.17886 -74.183315 
L 135.680427 -80.072688 
L 132.181995 -86.17476 
L 128.683562 -80.811689 
L 125.185129 -72.401711 
L 121.686697 -72.018531 
L 118.188264 -81.628106 
L 114.689832 -78.336766 
L 111.191399 -70.631594 
L 107.692966 -72.375886 
L 104.194534 -67.246239 
L 100.696101 -61.043689 
L 97.197668 -65.08364 
L 93.699236 -68.207019 
L 90.200803 -58.884525 
L 86.702371 -71.024784 
L 83.203938 -69.478848 
L 79.705505 -63.6982 
L 76.207073 -65.305514 
L 72.70864 -63.037874 
L 69.210208 -64.222864 
L 65.711775 -66.414842 
L 62.213342 -67.107226 
L 58.71491 -62.931679 
L 55.216477 -77.246683 
z
" style="stroke: #6a5acd; stroke-opacity: 0.2"/>
    </defs>
    <g clip-path="url(#p39b4d44496)">
     <use xlink:href="#m34afca7c64" x="0" y="100.19625" style="fill: #6a5acd; fill-opacity: 0.2; stroke: #6a5acd; stroke-opacity: 0.2"/>
    </g>
   </g>
   <g id="PolyCollection_2">
    <defs>
     <path id="m79986d13e3" d="M 55.216477 -60.639884 
L 55.216477 -45.841287 
L 58.71491 -55.220149 
L 62.213342 -52.135253 
L 65.711775 -53.83237 
L 69.210208 -54.588633 
L 72.70864 -53.988767 
L 76.207073 -51.319008 
L 79.705505 -53.49322 
L 83.203938 -55.555683 
L 86.702371 -56.824357 
L 90.200803 -42.213738 
L 93.699236 -52.984873 
L 97.197668 -51.000859 
L 100.696101 -46.51594 
L 104.194534 -46.795119 
L 107.692966 -57.178668 
L 111.191399 -43.582365 
L 114.689832 -54.706746 
L 118.188264 -54.113826 
L 121.686697 -56.469752 
L 125.185129 -46.905771 
L 128.683562 -49.573538 
L 132.181995 -49.886425 
L 135.680427 -49.878404 
L 139.17886 -45.720432 
L 142.677292 -40.07625 
L 146.175725 -55.909913 
L 149.674158 -56.588628 
L 153.17259 -58.380448 
L 156.671023 -51.602856 
L 156.671023 -52.322368 
L 156.671023 -52.322368 
L 153.17259 -63.359586 
L 149.674158 -60.308433 
L 146.175725 -60.250856 
L 142.677292 -55.33785 
L 139.17886 -53.528084 
L 135.680427 -57.308272 
L 132.181995 -54.466128 
L 128.683562 -55.064916 
L 125.185129 -52.407487 
L 121.686697 -61.030989 
L 118.188264 -54.761584 
L 114.689832 -56.551053 
L 111.191399 -57.158077 
L 107.692966 -62.947418 
L 104.194534 -47.324728 
L 100.696101 -57.624554 
L 97.197668 -52.696581 
L 93.699236 -61.225952 
L 90.200803 -55.561139 
L 86.702371 -63.211657 
L 83.203938 -55.707712 
L 79.705505 -60.656672 
L 76.207073 -60.639705 
L 72.70864 -55.814844 
L 69.210208 -57.38028 
L 65.711775 -62.240224 
L 62.213342 -53.120616 
L 58.71491 -55.915362 
L 55.216477 -60.639884 
z
" style="stroke: #8a2be2; stroke-opacity: 0.2"/>
    </defs>
    <g clip-path="url(#p39b4d44496)">
     <use xlink:href="#m79986d13e3" x="0" y="100.19625" style="fill: #8a2be2; fill-opacity: 0.2; stroke: #8a2be2; stroke-opacity: 0.2"/>
    </g>
   </g>
   <g id="matplotlib.axis_1">
    <g id="xtick_1">
     <g id="line2d_1">
      <defs>
       <path id="m6245640ef8" d="M 0 0 
L 0 3.5 
" style="stroke: #000000; stroke-width: 0.8"/>
      </defs>
      <g>
       <use xlink:href="#m6245640ef8" x="55.216477" y="62.64" style="stroke: #000000; stroke-width: 0.8"/>
      </g>
     </g>
     <g id="text_1">
      <!-- -30 -->
      <g transform="translate(47.050071 77.238438) scale(0.1 -0.1)">
       <defs>
        <path id="DejaVuSans-2d" d="M 313 2009 
L 1997 2009 
L 1997 1497 
L 313 1497 
L 313 2009 
z
" transform="scale(0.015625)"/>
        <path id="DejaVuSans-33" d="M 2597 2516 
Q 3050 2419 3304 2112 
Q 3559 1806 3559 1356 
Q 3559 666 3084 287 
Q 2609 -91 1734 -91 
Q 1441 -91 1130 -33 
Q 819 25 488 141 
L 488 750 
Q 750 597 1062 519 
Q 1375 441 1716 441 
Q 2309 441 2620 675 
Q 2931 909 2931 1356 
Q 2931 1769 2642 2001 
Q 2353 2234 1838 2234 
L 1294 2234 
L 1294 2753 
L 1863 2753 
Q 2328 2753 2575 2939 
Q 2822 3125 2822 3475 
Q 2822 3834 2567 4026 
Q 2313 4219 1838 4219 
Q 1578 4219 1281 4162 
Q 984 4106 628 3988 
L 628 4550 
Q 988 4650 1302 4700 
Q 1616 4750 1894 4750 
Q 2613 4750 3031 4423 
Q 3450 4097 3450 3541 
Q 3450 3153 3228 2886 
Q 3006 2619 2597 2516 
z
" transform="scale(0.015625)"/>
        <path id="DejaVuSans-30" d="M 2034 4250 
Q 1547 4250 1301 3770 
Q 1056 3291 1056 2328 
Q 1056 1369 1301 889 
Q 1547 409 2034 409 
Q 2525 409 2770 889 
Q 3016 1369 3016 2328 
Q 3016 3291 2770 3770 
Q 2525 4250 2034 4250 
z
M 2034 4750 
Q 2819 4750 3233 4129 
Q 3647 3509 3647 2328 
Q 3647 1150 3233 529 
Q 2819 -91 2034 -91 
Q 1250 -91 836 529 
Q 422 1150 422 2328 
Q 422 3509 836 4129 
Q 1250 4750 2034 4750 
z
" transform="scale(0.015625)"/>
       </defs>
       <use xlink:href="#DejaVuSans-2d"/>
       <use xlink:href="#DejaVuSans-33" x="36.083984"/>
       <use xlink:href="#DejaVuSans-30" x="99.707031"/>
      </g>
     </g>
    </g>
    <g id="xtick_2">
     <g id="line2d_2">
      <g>
       <use xlink:href="#m6245640ef8" x="72.70864" y="62.64" style="stroke: #000000; stroke-width: 0.8"/>
      </g>
     </g>
     <g id="text_2">
      <!-- -25 -->
      <g transform="translate(64.542234 77.238438) scale(0.1 -0.1)">
       <defs>
        <path id="DejaVuSans-32" d="M 1228 531 
L 3431 531 
L 3431 0 
L 469 0 
L 469 531 
Q 828 903 1448 1529 
Q 2069 2156 2228 2338 
Q 2531 2678 2651 2914 
Q 2772 3150 2772 3378 
Q 2772 3750 2511 3984 
Q 2250 4219 1831 4219 
Q 1534 4219 1204 4116 
Q 875 4013 500 3803 
L 500 4441 
Q 881 4594 1212 4672 
Q 1544 4750 1819 4750 
Q 2544 4750 2975 4387 
Q 3406 4025 3406 3419 
Q 3406 3131 3298 2873 
Q 3191 2616 2906 2266 
Q 2828 2175 2409 1742 
Q 1991 1309 1228 531 
z
" transform="scale(0.015625)"/>
        <path id="DejaVuSans-35" d="M 691 4666 
L 3169 4666 
L 3169 4134 
L 1269 4134 
L 1269 2991 
Q 1406 3038 1543 3061 
Q 1681 3084 1819 3084 
Q 2600 3084 3056 2656 
Q 3513 2228 3513 1497 
Q 3513 744 3044 326 
Q 2575 -91 1722 -91 
Q 1428 -91 1123 -41 
Q 819 9 494 109 
L 494 744 
Q 775 591 1075 516 
Q 1375 441 1709 441 
Q 2250 441 2565 725 
Q 2881 1009 2881 1497 
Q 2881 1984 2565 2268 
Q 2250 2553 1709 2553 
Q 1456 2553 1204 2497 
Q 953 2441 691 2322 
L 691 4666 
z
" transform="scale(0.015625)"/>
       </defs>
       <use xlink:href="#DejaVuSans-2d"/>
       <use xlink:href="#DejaVuSans-32" x="36.083984"/>
       <use xlink:href="#DejaVuSans-35" x="99.707031"/>
      </g>
     </g>
    </g>
    <g id="xtick_3">
     <g id="line2d_3">
      <g>
       <use xlink:href="#m6245640ef8" x="90.200803" y="62.64" style="stroke: #000000; stroke-width: 0.8"/>
      </g>
     </g>
     <g id="text_3">
      <!-- -20 -->
      <g transform="translate(82.034397 77.238438) scale(0.1 -0.1)">
       <use xlink:href="#DejaVuSans-2d"/>
       <use xlink:href="#DejaVuSans-32" x="36.083984"/>
       <use xlink:href="#DejaVuSans-30" x="99.707031"/>
      </g>
     </g>
    </g>
    <g id="xtick_4">
     <g id="line2d_4">
      <g>
       <use xlink:href="#m6245640ef8" x="107.692966" y="62.64" style="stroke: #000000; stroke-width: 0.8"/>
      </g>
     </g>
     <g id="text_4">
      <!-- -15 -->
      <g transform="translate(99.52656 77.238438) scale(0.1 -0.1)">
       <defs>
        <path id="DejaVuSans-31" d="M 794 531 
L 1825 531 
L 1825 4091 
L 703 3866 
L 703 4441 
L 1819 4666 
L 2450 4666 
L 2450 531 
L 3481 531 
L 3481 0 
L 794 0 
L 794 531 
z
" transform="scale(0.015625)"/>
       </defs>
       <use xlink:href="#DejaVuSans-2d"/>
       <use xlink:href="#DejaVuSans-31" x="36.083984"/>
       <use xlink:href="#DejaVuSans-35" x="99.707031"/>
      </g>
     </g>
    </g>
    <g id="xtick_5">
     <g id="line2d_5">
      <g>
       <use xlink:href="#m6245640ef8" x="125.185129" y="62.64" style="stroke: #000000; stroke-width: 0.8"/>
      </g>
     </g>
     <g id="text_5">
      <!-- -10 -->
      <g transform="translate(117.018723 77.238438) scale(0.1 -0.1)">
       <use xlink:href="#DejaVuSans-2d"/>
       <use xlink:href="#DejaVuSans-31" x="36.083984"/>
       <use xlink:href="#DejaVuSans-30" x="99.707031"/>
      </g>
     </g>
    </g>
    <g id="xtick_6">
     <g id="line2d_6">
      <g>
       <use xlink:href="#m6245640ef8" x="142.677292" y="62.64" style="stroke: #000000; stroke-width: 0.8"/>
      </g>
     </g>
     <g id="text_6">
      <!-- -5 -->
      <g transform="translate(137.692136 77.238438) scale(0.1 -0.1)">
       <use xlink:href="#DejaVuSans-2d"/>
       <use xlink:href="#DejaVuSans-35" x="36.083984"/>
      </g>
     </g>
    </g>
    <g id="xtick_7">
     <g id="line2d_7">
      <g>
       <use xlink:href="#m6245640ef8" x="160.169455" y="62.64" style="stroke: #000000; stroke-width: 0.8"/>
      </g>
     </g>
     <g id="text_7">
      <!-- 0 -->
      <g transform="translate(156.988205 77.238438) scale(0.1 -0.1)">
       <use xlink:href="#DejaVuSans-30"/>
      </g>
     </g>
    </g>
    <g id="text_8">
     <!-- Past Trials -->
     <g transform="translate(81.117188 90.916562) scale(0.1 -0.1)">
      <defs>
       <path id="DejaVuSans-50" d="M 1259 4147 
L 1259 2394 
L 2053 2394 
Q 2494 2394 2734 2622 
Q 2975 2850 2975 3272 
Q 2975 3691 2734 3919 
Q 2494 4147 2053 4147 
L 1259 4147 
z
M 628 4666 
L 2053 4666 
Q 2838 4666 3239 4311 
Q 3641 3956 3641 3272 
Q 3641 2581 3239 2228 
Q 2838 1875 2053 1875 
L 1259 1875 
L 1259 0 
L 628 0 
L 628 4666 
z
" transform="scale(0.015625)"/>
       <path id="DejaVuSans-61" d="M 2194 1759 
Q 1497 1759 1228 1600 
Q 959 1441 959 1056 
Q 959 750 1161 570 
Q 1363 391 1709 391 
Q 2188 391 2477 730 
Q 2766 1069 2766 1631 
L 2766 1759 
L 2194 1759 
z
M 3341 1997 
L 3341 0 
L 2766 0 
L 2766 531 
Q 2569 213 2275 61 
Q 1981 -91 1556 -91 
Q 1019 -91 701 211 
Q 384 513 384 1019 
Q 384 1609 779 1909 
Q 1175 2209 1959 2209 
L 2766 2209 
L 2766 2266 
Q 2766 2663 2505 2880 
Q 2244 3097 1772 3097 
Q 1472 3097 1187 3025 
Q 903 2953 641 2809 
L 641 3341 
Q 956 3463 1253 3523 
Q 1550 3584 1831 3584 
Q 2591 3584 2966 3190 
Q 3341 2797 3341 1997 
z
" transform="scale(0.015625)"/>
       <path id="DejaVuSans-73" d="M 2834 3397 
L 2834 2853 
Q 2591 2978 2328 3040 
Q 2066 3103 1784 3103 
Q 1356 3103 1142 2972 
Q 928 2841 928 2578 
Q 928 2378 1081 2264 
Q 1234 2150 1697 2047 
L 1894 2003 
Q 2506 1872 2764 1633 
Q 3022 1394 3022 966 
Q 3022 478 2636 193 
Q 2250 -91 1575 -91 
Q 1294 -91 989 -36 
Q 684 19 347 128 
L 347 722 
Q 666 556 975 473 
Q 1284 391 1588 391 
Q 1994 391 2212 530 
Q 2431 669 2431 922 
Q 2431 1156 2273 1281 
Q 2116 1406 1581 1522 
L 1381 1569 
Q 847 1681 609 1914 
Q 372 2147 372 2553 
Q 372 3047 722 3315 
Q 1072 3584 1716 3584 
Q 2034 3584 2315 3537 
Q 2597 3491 2834 3397 
z
" transform="scale(0.015625)"/>
       <path id="DejaVuSans-74" d="M 1172 4494 
L 1172 3500 
L 2356 3500 
L 2356 3053 
L 1172 3053 
L 1172 1153 
Q 1172 725 1289 603 
Q 1406 481 1766 481 
L 2356 481 
L 2356 0 
L 1766 0 
Q 1100 0 847 248 
Q 594 497 594 1153 
L 594 3053 
L 172 3053 
L 172 3500 
L 594 3500 
L 594 4494 
L 1172 4494 
z
" transform="scale(0.015625)"/>
       <path id="DejaVuSans-20" transform="scale(0.015625)"/>
       <path id="DejaVuSans-54" d="M -19 4666 
L 3928 4666 
L 3928 4134 
L 2272 4134 
L 2272 0 
L 1638 0 
L 1638 4134 
L -19 4134 
L -19 4666 
z
" transform="scale(0.015625)"/>
       <path id="DejaVuSans-72" d="M 2631 2963 
Q 2534 3019 2420 3045 
Q 2306 3072 2169 3072 
Q 1681 3072 1420 2755 
Q 1159 2438 1159 1844 
L 1159 0 
L 581 0 
L 581 3500 
L 1159 3500 
L 1159 2956 
Q 1341 3275 1631 3429 
Q 1922 3584 2338 3584 
Q 2397 3584 2469 3576 
Q 2541 3569 2628 3553 
L 2631 2963 
z
" transform="scale(0.015625)"/>
       <path id="DejaVuSans-69" d="M 603 3500 
L 1178 3500 
L 1178 0 
L 603 0 
L 603 3500 
z
M 603 4863 
L 1178 4863 
L 1178 4134 
L 603 4134 
L 603 4863 
z
" transform="scale(0.015625)"/>
       <path id="DejaVuSans-6c" d="M 603 4863 
L 1178 4863 
L 1178 0 
L 603 0 
L 603 4863 
z
" transform="scale(0.015625)"/>
      </defs>
      <use xlink:href="#DejaVuSans-50"/>
      <use xlink:href="#DejaVuSans-61" x="55.802734"/>
      <use xlink:href="#DejaVuSans-73" x="117.082031"/>
      <use xlink:href="#DejaVuSans-74" x="169.181641"/>
      <use xlink:href="#DejaVuSans-20" x="208.390625"/>
      <use xlink:href="#DejaVuSans-54" x="240.177734"/>
      <use xlink:href="#DejaVuSans-72" x="286.511719"/>
      <use xlink:href="#DejaVuSans-69" x="327.625"/>
      <use xlink:href="#DejaVuSans-61" x="355.408203"/>
      <use xlink:href="#DejaVuSans-6c" x="416.6875"/>
      <use xlink:href="#DejaVuSans-73" x="444.470703"/>
     </g>
    </g>
   </g>
   <g id="matplotlib.axis_2">
    <g id="ytick_1">
     <g id="line2d_8">
      <defs>
       <path id="m2975f0022d" d="M 0 0 
L -3.5 0 
" style="stroke: #000000; stroke-width: 0.8"/>
      </defs>
      <g>
       <use xlink:href="#m2975f0022d" x="50.14375" y="46.523384" style="stroke: #000000; stroke-width: 0.8"/>
      </g>
     </g>
     <g id="text_9">
      <!-- 0.00 -->
      <g transform="translate(20.878125 50.322603) scale(0.1 -0.1)">
       <defs>
        <path id="DejaVuSans-2e" d="M 684 794 
L 1344 794 
L 1344 0 
L 684 0 
L 684 794 
z
" transform="scale(0.015625)"/>
       </defs>
       <use xlink:href="#DejaVuSans-30"/>
       <use xlink:href="#DejaVuSans-2e" x="63.623047"/>
       <use xlink:href="#DejaVuSans-30" x="95.410156"/>
       <use xlink:href="#DejaVuSans-30" x="159.033203"/>
      </g>
     </g>
    </g>
    <g id="ytick_2">
     <g id="line2d_9">
      <g>
       <use xlink:href="#m2975f0022d" x="50.14375" y="20.120187" style="stroke: #000000; stroke-width: 0.8"/>
      </g>
     </g>
     <g id="text_10">
      <!-- 0.05 -->
      <g transform="translate(20.878125 23.919406) scale(0.1 -0.1)">
       <use xlink:href="#DejaVuSans-30"/>
       <use xlink:href="#DejaVuSans-2e" x="63.623047"/>
       <use xlink:href="#DejaVuSans-30" x="95.410156"/>
       <use xlink:href="#DejaVuSans-35" x="159.033203"/>
      </g>
     </g>
    </g>
    <g id="text_11">
     <!-- Choice Coefficient -->
     <g style="fill: #6a5acd" transform="translate(14.798437 80.323906) rotate(-90) scale(0.1 -0.1)">
      <defs>
       <path id="DejaVuSans-43" d="M 4122 4306 
L 4122 3641 
Q 3803 3938 3442 4084 
Q 3081 4231 2675 4231 
Q 1875 4231 1450 3742 
Q 1025 3253 1025 2328 
Q 1025 1406 1450 917 
Q 1875 428 2675 428 
Q 3081 428 3442 575 
Q 3803 722 4122 1019 
L 4122 359 
Q 3791 134 3420 21 
Q 3050 -91 2638 -91 
Q 1578 -91 968 557 
Q 359 1206 359 2328 
Q 359 3453 968 4101 
Q 1578 4750 2638 4750 
Q 3056 4750 3426 4639 
Q 3797 4528 4122 4306 
z
" transform="scale(0.015625)"/>
       <path id="DejaVuSans-68" d="M 3513 2113 
L 3513 0 
L 2938 0 
L 2938 2094 
Q 2938 2591 2744 2837 
Q 2550 3084 2163 3084 
Q 1697 3084 1428 2787 
Q 1159 2491 1159 1978 
L 1159 0 
L 581 0 
L 581 4863 
L 1159 4863 
L 1159 2956 
Q 1366 3272 1645 3428 
Q 1925 3584 2291 3584 
Q 2894 3584 3203 3211 
Q 3513 2838 3513 2113 
z
" transform="scale(0.015625)"/>
       <path id="DejaVuSans-6f" d="M 1959 3097 
Q 1497 3097 1228 2736 
Q 959 2375 959 1747 
Q 959 1119 1226 758 
Q 1494 397 1959 397 
Q 2419 397 2687 759 
Q 2956 1122 2956 1747 
Q 2956 2369 2687 2733 
Q 2419 3097 1959 3097 
z
M 1959 3584 
Q 2709 3584 3137 3096 
Q 3566 2609 3566 1747 
Q 3566 888 3137 398 
Q 2709 -91 1959 -91 
Q 1206 -91 779 398 
Q 353 888 353 1747 
Q 353 2609 779 3096 
Q 1206 3584 1959 3584 
z
" transform="scale(0.015625)"/>
       <path id="DejaVuSans-63" d="M 3122 3366 
L 3122 2828 
Q 2878 2963 2633 3030 
Q 2388 3097 2138 3097 
Q 1578 3097 1268 2742 
Q 959 2388 959 1747 
Q 959 1106 1268 751 
Q 1578 397 2138 397 
Q 2388 397 2633 464 
Q 2878 531 3122 666 
L 3122 134 
Q 2881 22 2623 -34 
Q 2366 -91 2075 -91 
Q 1284 -91 818 406 
Q 353 903 353 1747 
Q 353 2603 823 3093 
Q 1294 3584 2113 3584 
Q 2378 3584 2631 3529 
Q 2884 3475 3122 3366 
z
" transform="scale(0.015625)"/>
       <path id="DejaVuSans-65" d="M 3597 1894 
L 3597 1613 
L 953 1613 
Q 991 1019 1311 708 
Q 1631 397 2203 397 
Q 2534 397 2845 478 
Q 3156 559 3463 722 
L 3463 178 
Q 3153 47 2828 -22 
Q 2503 -91 2169 -91 
Q 1331 -91 842 396 
Q 353 884 353 1716 
Q 353 2575 817 3079 
Q 1281 3584 2069 3584 
Q 2775 3584 3186 3129 
Q 3597 2675 3597 1894 
z
M 3022 2063 
Q 3016 2534 2758 2815 
Q 2500 3097 2075 3097 
Q 1594 3097 1305 2825 
Q 1016 2553 972 2059 
L 3022 2063 
z
" transform="scale(0.015625)"/>
       <path id="DejaVuSans-66" d="M 2375 4863 
L 2375 4384 
L 1825 4384 
Q 1516 4384 1395 4259 
Q 1275 4134 1275 3809 
L 1275 3500 
L 2222 3500 
L 2222 3053 
L 1275 3053 
L 1275 0 
L 697 0 
L 697 3053 
L 147 3053 
L 147 3500 
L 697 3500 
L 697 3744 
Q 697 4328 969 4595 
Q 1241 4863 1831 4863 
L 2375 4863 
z
" transform="scale(0.015625)"/>
       <path id="DejaVuSans-6e" d="M 3513 2113 
L 3513 0 
L 2938 0 
L 2938 2094 
Q 2938 2591 2744 2837 
Q 2550 3084 2163 3084 
Q 1697 3084 1428 2787 
Q 1159 2491 1159 1978 
L 1159 0 
L 581 0 
L 581 3500 
L 1159 3500 
L 1159 2956 
Q 1366 3272 1645 3428 
Q 1925 3584 2291 3584 
Q 2894 3584 3203 3211 
Q 3513 2838 3513 2113 
z
" transform="scale(0.015625)"/>
      </defs>
      <use xlink:href="#DejaVuSans-43"/>
      <use xlink:href="#DejaVuSans-68" x="69.824219"/>
      <use xlink:href="#DejaVuSans-6f" x="133.203125"/>
      <use xlink:href="#DejaVuSans-69" x="194.384766"/>
      <use xlink:href="#DejaVuSans-63" x="222.167969"/>
      <use xlink:href="#DejaVuSans-65" x="277.148438"/>
      <use xlink:href="#DejaVuSans-20" x="338.671875"/>
      <use xlink:href="#DejaVuSans-43" x="370.458984"/>
      <use xlink:href="#DejaVuSans-6f" x="440.283203"/>
      <use xlink:href="#DejaVuSans-65" x="501.464844"/>
      <use xlink:href="#DejaVuSans-66" x="562.988281"/>
      <use xlink:href="#DejaVuSans-66" x="598.193359"/>
      <use xlink:href="#DejaVuSans-69" x="633.398438"/>
      <use xlink:href="#DejaVuSans-63" x="661.181641"/>
      <use xlink:href="#DejaVuSans-69" x="716.162109"/>
      <use xlink:href="#DejaVuSans-65" x="743.945312"/>
      <use xlink:href="#DejaVuSans-6e" x="805.46875"/>
      <use xlink:href="#DejaVuSans-74" x="868.847656"/>
     </g>
    </g>
   </g>
   <g id="line2d_10">
    <path d="M 55.216477 29.756559 
L 58.71491 37.71291 
L 62.213342 36.11025 
L 65.711775 36.841133 
L 69.210208 39.83621 
L 72.70864 40.163508 
L 76.207073 36.077795 
L 79.705505 40.17841 
L 83.203938 31.048223 
L 86.702371 33.378932 
L 90.200803 43.259927 
L 93.699236 33.266216 
L 97.197668 37.852503 
L 100.696101 39.577418 
L 104.194534 38.706795 
L 107.692966 33.280256 
L 111.191399 30.208509 
L 114.689832 30.400044 
L 118.188264 21.156788 
L 121.686697 29.417722 
L 125.185129 28.655213 
L 128.683562 20.009037 
L 132.181995 20.74839 
L 135.680427 23.459211 
L 139.17886 26.902536 
L 142.677292 14.622317 
L 146.175725 23.212302 
L 149.674158 21.034947 
L 153.17259 16.295284 
L 156.671023 11.95853 
" clip-path="url(#p39b4d44496)" style="fill: none; stroke: #6a5acd; stroke-width: 1.5; stroke-linecap: square"/>
   </g>
   <g id="line2d_11">
    <path d="M 55.216477 46.955664 
L 58.71491 44.628494 
L 62.213342 47.568315 
L 65.711775 42.159953 
L 69.210208 44.211793 
L 72.70864 45.294445 
L 76.207073 44.216893 
L 79.705505 43.121304 
L 83.203938 44.564552 
L 86.702371 40.178243 
L 90.200803 51.308811 
L 93.699236 43.090837 
L 97.197668 48.34753 
L 100.696101 48.126003 
L 104.194534 53.136327 
L 107.692966 40.133207 
L 111.191399 49.826029 
L 114.689832 44.56735 
L 118.188264 45.758545 
L 121.686697 41.44588 
L 125.185129 50.539621 
L 128.683562 47.877023 
L 132.181995 48.019974 
L 135.680427 46.602912 
L 139.17886 50.571992 
L 142.677292 52.4892 
L 146.175725 42.115866 
L 149.674158 41.74772 
L 153.17259 39.326233 
L 156.671023 48.233638 
" clip-path="url(#p39b4d44496)" style="fill: none; stroke: #8a2be2; stroke-width: 1.5; stroke-linecap: square"/>
   </g>
   <g id="patch_3">
    <path d="M 50.14375 62.64 
L 50.14375 7.2 
" style="fill: none; stroke: #000000; stroke-width: 0.8; stroke-linejoin: miter; stroke-linecap: square"/>
   </g>
   <g id="patch_4">
    <path d="M 161.74375 62.64 
L 161.74375 7.2 
" style="fill: none; stroke: #000000; stroke-width: 0.8; stroke-linejoin: miter; stroke-linecap: square"/>
   </g>
   <g id="patch_5">
    <path d="M 50.14375 62.64 
L 161.74375 62.64 
" style="fill: none; stroke: #000000; stroke-width: 0.8; stroke-linejoin: miter; stroke-linecap: square"/>
   </g>
  </g>
 </g>
 <defs>
  <clipPath id="p39b4d44496">
   <rect x="50.14375" y="7.2" width="111.6" height="55.44"/>
  </clipPath>
 </defs>
</svg>
