<?xml version="1.0" encoding="utf-8" standalone="no"?>
<!DOCTYPE svg PUBLIC "-//W3C//DTD SVG 1.1//EN"
  "http://www.w3.org/Graphics/SVG/1.1/DTD/svg11.dtd">
<svg xmlns:xlink="http://www.w3.org/1999/xlink" width="174.40625pt" height="100.19625pt" viewBox="0 0 174.40625 100.19625" xmlns="http://www.w3.org/2000/svg" version="1.1">
 <metadata>
  <rdf:RDF xmlns:dc="http://purl.org/dc/elements/1.1/" xmlns:cc="http://creativecommons.org/ns#" xmlns:rdf="http://www.w3.org/1999/02/22-rdf-syntax-ns#">
   <cc:Work>
    <dc:type rdf:resource="http://purl.org/dc/dcmitype/StillImage"/>
    <dc:date>2023-10-30T13:47:06.030452</dc:date>
    <dc:format>image/svg+xml</dc:format>
    <dc:creator>
     <cc:Agent>
      <dc:title>Matplotlib v3.7.2, https://matplotlib.org/</dc:title>
     </cc:Agent>
    </dc:creator>
   </cc:Work>
  </rdf:RDF>
 </metadata>
 <defs>
  <style type="text/css">*{stroke-linejoin: round; stroke-linecap: butt}</style>
 </defs>
 <g id="figure_1">
  <g id="patch_1">
   <path d="M -0 100.19625 
L 174.40625 100.19625 
L 174.40625 0 
L -0 0 
z
" style="fill: #ffffff"/>
  </g>
  <g id="axes_1">
   <g id="patch_2">
    <path d="M 43.78125 62.64 
L 127.48125 62.64 
L 127.48125 7.2 
L 43.78125 7.2 
z
" style="fill: #ffffff"/>
   </g>
   <g id="PolyCollection_1">
    <defs>
     <path id="mf0661f25b1" d="M 47.585795 -67.028956 
L 47.585795 -45.085221 
L 50.20962 -42.628105 
L 52.833444 -43.276949 
L 55.457269 -40.856239 
L 58.081093 -41.681645 
L 60.704918 -40.468621 
L 63.328742 -48.49355 
L 65.952567 -42.950729 
L 68.576391 -49.089369 
L 71.200216 -43.740405 
L 73.82404 -42.273885 
L 76.447864 -56.588681 
L 79.071689 -44.718699 
L 81.695513 -54.189939 
L 84.319338 -49.50448 
L 86.943162 -42.299281 
L 89.566987 -48.914545 
L 92.190811 -48.598775 
L 94.814636 -50.163811 
L 97.43846 -51.699497 
L 100.062284 -47.257201 
L 102.686109 -54.161344 
L 105.309933 -56.305995 
L 107.933758 -56.905054 
L 110.557582 -56.799314 
L 113.181407 -56.782202 
L 115.805231 -60.948947 
L 118.429056 -60.810051 
L 121.05288 -68.034989 
L 123.676705 -74.295684 
L 123.676705 -87.114351 
L 123.676705 -87.114351 
L 121.05288 -81.928709 
L 118.429056 -75.829886 
L 115.805231 -76.660715 
L 113.181407 -69.018413 
L 110.557582 -70.736695 
L 107.933758 -72.174582 
L 105.309933 -68.864791 
L 102.686109 -68.994159 
L 100.062284 -62.218774 
L 97.43846 -68.130411 
L 94.814636 -64.683249 
L 92.190811 -64.782732 
L 89.566987 -64.406516 
L 86.943162 -57.025928 
L 84.319338 -63.982084 
L 81.695513 -70.777666 
L 79.071689 -62.034471 
L 76.447864 -73.274 
L 73.82404 -59.167144 
L 71.200216 -63.797358 
L 68.576391 -65.169381 
L 65.952567 -61.904972 
L 63.328742 -66.802953 
L 60.704918 -60.545184 
L 58.081093 -61.37757 
L 55.457269 -59.488348 
L 52.833444 -63.041221 
L 50.20962 -61.467369 
L 47.585795 -67.028956 
z
" style="stroke: #6a5acd; stroke-opacity: 0.2"/>
    </defs>
    <g clip-path="url(#p6306b1e951)">
     <use xlink:href="#mf0661f25b1" x="0" y="100.19625" style="fill: #6a5acd; fill-opacity: 0.2; stroke: #6a5acd; stroke-opacity: 0.2"/>
    </g>
   </g>
   <g id="PolyCollection_2">
    <defs>
     <path id="m59b43999ee" d="M 47.585795 -66.165138 
L 47.585795 -44.528369 
L 50.20962 -40.07625 
L 52.833444 -46.601035 
L 55.457269 -41.308934 
L 58.081093 -52.039944 
L 60.704918 -46.278574 
L 63.328742 -41.600198 
L 65.952567 -48.071029 
L 68.576391 -46.192761 
L 71.200216 -57.135012 
L 73.82404 -40.760637 
L 76.447864 -51.156227 
L 79.071689 -50.326058 
L 81.695513 -41.519374 
L 84.319338 -49.828912 
L 86.943162 -41.180001 
L 89.566987 -50.787909 
L 92.190811 -47.994022 
L 94.814636 -56.843835 
L 97.43846 -53.512074 
L 100.062284 -44.831753 
L 102.686109 -62.189916 
L 105.309933 -55.051216 
L 107.933758 -63.261935 
L 110.557582 -63.668762 
L 113.181407 -59.748813 
L 115.805231 -68.178188 
L 118.429056 -63.633145 
L 121.05288 -63.132872 
L 123.676705 -76.704549 
L 123.676705 -90.47625 
L 123.676705 -90.47625 
L 121.05288 -75.073054 
L 118.429056 -77.656747 
L 115.805231 -80.879433 
L 113.181407 -71.290158 
L 110.557582 -77.613152 
L 107.933758 -79.267971 
L 105.309933 -65.849571 
L 102.686109 -75.030181 
L 100.062284 -59.75097 
L 97.43846 -66.4889 
L 94.814636 -70.458049 
L 92.190811 -65.656171 
L 89.566987 -70.29035 
L 86.943162 -56.130097 
L 84.319338 -65.201992 
L 81.695513 -58.250308 
L 79.071689 -66.407097 
L 76.447864 -67.481261 
L 73.82404 -59.123998 
L 71.200216 -74.874099 
L 68.576391 -63.672362 
L 65.952567 -65.304494 
L 63.328742 -59.312571 
L 60.704918 -66.529276 
L 58.081093 -71.990029 
L 55.457269 -58.430398 
L 52.833444 -64.192105 
L 50.20962 -60.528896 
L 47.585795 -66.165138 
z
" style="stroke: #8a2be2; stroke-opacity: 0.2"/>
    </defs>
    <g clip-path="url(#p6306b1e951)">
     <use xlink:href="#m59b43999ee" x="0" y="100.19625" style="fill: #8a2be2; fill-opacity: 0.2; stroke: #8a2be2; stroke-opacity: 0.2"/>
    </g>
   </g>
   <g id="matplotlib.axis_1">
    <g id="xtick_1">
     <g id="line2d_1">
      <defs>
       <path id="mb52912ed24" d="M 0 0 
L 0 3.5 
" style="stroke: #000000; stroke-width: 0.8"/>
      </defs>
      <g>
       <use xlink:href="#mb52912ed24" x="47.585795" y="62.64" style="stroke: #000000; stroke-width: 0.8"/>
      </g>
     </g>
     <g id="text_1">
      <!-- -30 -->
      <g transform="translate(39.419389 77.238438) scale(0.1 -0.1)">
       <defs>
        <path id="DejaVuSans-2d" d="M 313 2009 
L 1997 2009 
L 1997 1497 
L 313 1497 
L 313 2009 
z
" transform="scale(0.015625)"/>
        <path id="DejaVuSans-33" d="M 2597 2516 
Q 3050 2419 3304 2112 
Q 3559 1806 3559 1356 
Q 3559 666 3084 287 
Q 2609 -91 1734 -91 
Q 1441 -91 1130 -33 
Q 819 25 488 141 
L 488 750 
Q 750 597 1062 519 
Q 1375 441 1716 441 
Q 2309 441 2620 675 
Q 2931 909 2931 1356 
Q 2931 1769 2642 2001 
Q 2353 2234 1838 2234 
L 1294 2234 
L 1294 2753 
L 1863 2753 
Q 2328 2753 2575 2939 
Q 2822 3125 2822 3475 
Q 2822 3834 2567 4026 
Q 2313 4219 1838 4219 
Q 1578 4219 1281 4162 
Q 984 4106 628 3988 
L 628 4550 
Q 988 4650 1302 4700 
Q 1616 4750 1894 4750 
Q 2613 4750 3031 4423 
Q 3450 4097 3450 3541 
Q 3450 3153 3228 2886 
Q 3006 2619 2597 2516 
z
" transform="scale(0.015625)"/>
        <path id="DejaVuSans-30" d="M 2034 4250 
Q 1547 4250 1301 3770 
Q 1056 3291 1056 2328 
Q 1056 1369 1301 889 
Q 1547 409 2034 409 
Q 2525 409 2770 889 
Q 3016 1369 3016 2328 
Q 3016 3291 2770 3770 
Q 2525 4250 2034 4250 
z
M 2034 4750 
Q 2819 4750 3233 4129 
Q 3647 3509 3647 2328 
Q 3647 1150 3233 529 
Q 2819 -91 2034 -91 
Q 1250 -91 836 529 
Q 422 1150 422 2328 
Q 422 3509 836 4129 
Q 1250 4750 2034 4750 
z
" transform="scale(0.015625)"/>
       </defs>
       <use xlink:href="#DejaVuSans-2d"/>
       <use xlink:href="#DejaVuSans-33" x="36.083984"/>
       <use xlink:href="#DejaVuSans-30" x="99.707031"/>
      </g>
     </g>
    </g>
    <g id="xtick_2">
     <g id="line2d_2">
      <g>
       <use xlink:href="#mb52912ed24" x="60.704918" y="62.64" style="stroke: #000000; stroke-width: 0.8"/>
      </g>
     </g>
     <g id="text_2">
      <!-- -25 -->
      <g transform="translate(52.538511 77.238438) scale(0.1 -0.1)">
       <defs>
        <path id="DejaVuSans-32" d="M 1228 531 
L 3431 531 
L 3431 0 
L 469 0 
L 469 531 
Q 828 903 1448 1529 
Q 2069 2156 2228 2338 
Q 2531 2678 2651 2914 
Q 2772 3150 2772 3378 
Q 2772 3750 2511 3984 
Q 2250 4219 1831 4219 
Q 1534 4219 1204 4116 
Q 875 4013 500 3803 
L 500 4441 
Q 881 4594 1212 4672 
Q 1544 4750 1819 4750 
Q 2544 4750 2975 4387 
Q 3406 4025 3406 3419 
Q 3406 3131 3298 2873 
Q 3191 2616 2906 2266 
Q 2828 2175 2409 1742 
Q 1991 1309 1228 531 
z
" transform="scale(0.015625)"/>
        <path id="DejaVuSans-35" d="M 691 4666 
L 3169 4666 
L 3169 4134 
L 1269 4134 
L 1269 2991 
Q 1406 3038 1543 3061 
Q 1681 3084 1819 3084 
Q 2600 3084 3056 2656 
Q 3513 2228 3513 1497 
Q 3513 744 3044 326 
Q 2575 -91 1722 -91 
Q 1428 -91 1123 -41 
Q 819 9 494 109 
L 494 744 
Q 775 591 1075 516 
Q 1375 441 1709 441 
Q 2250 441 2565 725 
Q 2881 1009 2881 1497 
Q 2881 1984 2565 2268 
Q 2250 2553 1709 2553 
Q 1456 2553 1204 2497 
Q 953 2441 691 2322 
L 691 4666 
z
" transform="scale(0.015625)"/>
       </defs>
       <use xlink:href="#DejaVuSans-2d"/>
       <use xlink:href="#DejaVuSans-32" x="36.083984"/>
       <use xlink:href="#DejaVuSans-35" x="99.707031"/>
      </g>
     </g>
    </g>
    <g id="xtick_3">
     <g id="line2d_3">
      <g>
       <use xlink:href="#mb52912ed24" x="73.82404" y="62.64" style="stroke: #000000; stroke-width: 0.8"/>
      </g>
     </g>
     <g id="text_3">
      <!-- -20 -->
      <g transform="translate(65.657634 77.238438) scale(0.1 -0.1)">
       <use xlink:href="#DejaVuSans-2d"/>
       <use xlink:href="#DejaVuSans-32" x="36.083984"/>
       <use xlink:href="#DejaVuSans-30" x="99.707031"/>
      </g>
     </g>
    </g>
    <g id="xtick_4">
     <g id="line2d_4">
      <g>
       <use xlink:href="#mb52912ed24" x="86.943162" y="62.64" style="stroke: #000000; stroke-width: 0.8"/>
      </g>
     </g>
     <g id="text_4">
      <!-- -15 -->
      <g transform="translate(78.776756 77.238438) scale(0.1 -0.1)">
       <defs>
        <path id="DejaVuSans-31" d="M 794 531 
L 1825 531 
L 1825 4091 
L 703 3866 
L 703 4441 
L 1819 4666 
L 2450 4666 
L 2450 531 
L 3481 531 
L 3481 0 
L 794 0 
L 794 531 
z
" transform="scale(0.015625)"/>
       </defs>
       <use xlink:href="#DejaVuSans-2d"/>
       <use xlink:href="#DejaVuSans-31" x="36.083984"/>
       <use xlink:href="#DejaVuSans-35" x="99.707031"/>
      </g>
     </g>
    </g>
    <g id="xtick_5">
     <g id="line2d_5">
      <g>
       <use xlink:href="#mb52912ed24" x="100.062284" y="62.64" style="stroke: #000000; stroke-width: 0.8"/>
      </g>
     </g>
     <g id="text_5">
      <!-- -10 -->
      <g transform="translate(91.895878 77.238438) scale(0.1 -0.1)">
       <use xlink:href="#DejaVuSans-2d"/>
       <use xlink:href="#DejaVuSans-31" x="36.083984"/>
       <use xlink:href="#DejaVuSans-30" x="99.707031"/>
      </g>
     </g>
    </g>
    <g id="xtick_6">
     <g id="line2d_6">
      <g>
       <use xlink:href="#mb52912ed24" x="113.181407" y="62.64" style="stroke: #000000; stroke-width: 0.8"/>
      </g>
     </g>
     <g id="text_6">
      <!-- -5 -->
      <g transform="translate(108.19625 77.238438) scale(0.1 -0.1)">
       <use xlink:href="#DejaVuSans-2d"/>
       <use xlink:href="#DejaVuSans-35" x="36.083984"/>
      </g>
     </g>
    </g>
    <g id="xtick_7">
     <g id="line2d_7">
      <g>
       <use xlink:href="#mb52912ed24" x="126.300529" y="62.64" style="stroke: #000000; stroke-width: 0.8"/>
      </g>
     </g>
     <g id="text_7">
      <!-- 0 -->
      <g transform="translate(123.119279 77.238438) scale(0.1 -0.1)">
       <use xlink:href="#DejaVuSans-30"/>
      </g>
     </g>
    </g>
    <g id="text_8">
     <!-- Past Trials -->
     <g transform="translate(60.804688 90.916562) scale(0.1 -0.1)">
      <defs>
       <path id="DejaVuSans-50" d="M 1259 4147 
L 1259 2394 
L 2053 2394 
Q 2494 2394 2734 2622 
Q 2975 2850 2975 3272 
Q 2975 3691 2734 3919 
Q 2494 4147 2053 4147 
L 1259 4147 
z
M 628 4666 
L 2053 4666 
Q 2838 4666 3239 4311 
Q 3641 3956 3641 3272 
Q 3641 2581 3239 2228 
Q 2838 1875 2053 1875 
L 1259 1875 
L 1259 0 
L 628 0 
L 628 4666 
z
" transform="scale(0.015625)"/>
       <path id="DejaVuSans-61" d="M 2194 1759 
Q 1497 1759 1228 1600 
Q 959 1441 959 1056 
Q 959 750 1161 570 
Q 1363 391 1709 391 
Q 2188 391 2477 730 
Q 2766 1069 2766 1631 
L 2766 1759 
L 2194 1759 
z
M 3341 1997 
L 3341 0 
L 2766 0 
L 2766 531 
Q 2569 213 2275 61 
Q 1981 -91 1556 -91 
Q 1019 -91 701 211 
Q 384 513 384 1019 
Q 384 1609 779 1909 
Q 1175 2209 1959 2209 
L 2766 2209 
L 2766 2266 
Q 2766 2663 2505 2880 
Q 2244 3097 1772 3097 
Q 1472 3097 1187 3025 
Q 903 2953 641 2809 
L 641 3341 
Q 956 3463 1253 3523 
Q 1550 3584 1831 3584 
Q 2591 3584 2966 3190 
Q 3341 2797 3341 1997 
z
" transform="scale(0.015625)"/>
       <path id="DejaVuSans-73" d="M 2834 3397 
L 2834 2853 
Q 2591 2978 2328 3040 
Q 2066 3103 1784 3103 
Q 1356 3103 1142 2972 
Q 928 2841 928 2578 
Q 928 2378 1081 2264 
Q 1234 2150 1697 2047 
L 1894 2003 
Q 2506 1872 2764 1633 
Q 3022 1394 3022 966 
Q 3022 478 2636 193 
Q 2250 -91 1575 -91 
Q 1294 -91 989 -36 
Q 684 19 347 128 
L 347 722 
Q 666 556 975 473 
Q 1284 391 1588 391 
Q 1994 391 2212 530 
Q 2431 669 2431 922 
Q 2431 1156 2273 1281 
Q 2116 1406 1581 1522 
L 1381 1569 
Q 847 1681 609 1914 
Q 372 2147 372 2553 
Q 372 3047 722 3315 
Q 1072 3584 1716 3584 
Q 2034 3584 2315 3537 
Q 2597 3491 2834 3397 
z
" transform="scale(0.015625)"/>
       <path id="DejaVuSans-74" d="M 1172 4494 
L 1172 3500 
L 2356 3500 
L 2356 3053 
L 1172 3053 
L 1172 1153 
Q 1172 725 1289 603 
Q 1406 481 1766 481 
L 2356 481 
L 2356 0 
L 1766 0 
Q 1100 0 847 248 
Q 594 497 594 1153 
L 594 3053 
L 172 3053 
L 172 3500 
L 594 3500 
L 594 4494 
L 1172 4494 
z
" transform="scale(0.015625)"/>
       <path id="DejaVuSans-20" transform="scale(0.015625)"/>
       <path id="DejaVuSans-54" d="M -19 4666 
L 3928 4666 
L 3928 4134 
L 2272 4134 
L 2272 0 
L 1638 0 
L 1638 4134 
L -19 4134 
L -19 4666 
z
" transform="scale(0.015625)"/>
       <path id="DejaVuSans-72" d="M 2631 2963 
Q 2534 3019 2420 3045 
Q 2306 3072 2169 3072 
Q 1681 3072 1420 2755 
Q 1159 2438 1159 1844 
L 1159 0 
L 581 0 
L 581 3500 
L 1159 3500 
L 1159 2956 
Q 1341 3275 1631 3429 
Q 1922 3584 2338 3584 
Q 2397 3584 2469 3576 
Q 2541 3569 2628 3553 
L 2631 2963 
z
" transform="scale(0.015625)"/>
       <path id="DejaVuSans-69" d="M 603 3500 
L 1178 3500 
L 1178 0 
L 603 0 
L 603 3500 
z
M 603 4863 
L 1178 4863 
L 1178 4134 
L 603 4134 
L 603 4863 
z
" transform="scale(0.015625)"/>
       <path id="DejaVuSans-6c" d="M 603 4863 
L 1178 4863 
L 1178 0 
L 603 0 
L 603 4863 
z
" transform="scale(0.015625)"/>
      </defs>
      <use xlink:href="#DejaVuSans-50"/>
      <use xlink:href="#DejaVuSans-61" x="55.802734"/>
      <use xlink:href="#DejaVuSans-73" x="117.082031"/>
      <use xlink:href="#DejaVuSans-74" x="169.181641"/>
      <use xlink:href="#DejaVuSans-20" x="208.390625"/>
      <use xlink:href="#DejaVuSans-54" x="240.177734"/>
      <use xlink:href="#DejaVuSans-72" x="286.511719"/>
      <use xlink:href="#DejaVuSans-69" x="327.625"/>
      <use xlink:href="#DejaVuSans-61" x="355.408203"/>
      <use xlink:href="#DejaVuSans-6c" x="416.6875"/>
      <use xlink:href="#DejaVuSans-73" x="444.470703"/>
     </g>
    </g>
   </g>
   <g id="matplotlib.axis_2">
    <g id="ytick_1">
     <g id="line2d_8">
      <defs>
       <path id="m5dd348a5f5" d="M 0 0 
L -3.5 0 
" style="stroke: #000000; stroke-width: 0.8"/>
      </defs>
      <g>
       <use xlink:href="#m5dd348a5f5" x="43.78125" y="58.2845" style="stroke: #000000; stroke-width: 0.8"/>
      </g>
     </g>
     <g id="text_9">
      <!-- 0.0 -->
      <g transform="translate(20.878125 62.083719) scale(0.1 -0.1)">
       <defs>
        <path id="DejaVuSans-2e" d="M 684 794 
L 1344 794 
L 1344 0 
L 684 0 
L 684 794 
z
" transform="scale(0.015625)"/>
       </defs>
       <use xlink:href="#DejaVuSans-30"/>
       <use xlink:href="#DejaVuSans-2e" x="63.623047"/>
       <use xlink:href="#DejaVuSans-30" x="95.410156"/>
      </g>
     </g>
    </g>
    <g id="ytick_2">
     <g id="line2d_9">
      <g>
       <use xlink:href="#m5dd348a5f5" x="43.78125" y="28.567438" style="stroke: #000000; stroke-width: 0.8"/>
      </g>
     </g>
     <g id="text_10">
      <!-- 0.1 -->
      <g transform="translate(20.878125 32.366657) scale(0.1 -0.1)">
       <use xlink:href="#DejaVuSans-30"/>
       <use xlink:href="#DejaVuSans-2e" x="63.623047"/>
       <use xlink:href="#DejaVuSans-31" x="95.410156"/>
      </g>
     </g>
    </g>
    <g id="text_11">
     <!-- Choice Coefficient -->
     <g style="fill: #6a5acd" transform="translate(14.798438 80.323906) rotate(-90) scale(0.1 -0.1)">
      <defs>
       <path id="DejaVuSans-43" d="M 4122 4306 
L 4122 3641 
Q 3803 3938 3442 4084 
Q 3081 4231 2675 4231 
Q 1875 4231 1450 3742 
Q 1025 3253 1025 2328 
Q 1025 1406 1450 917 
Q 1875 428 2675 428 
Q 3081 428 3442 575 
Q 3803 722 4122 1019 
L 4122 359 
Q 3791 134 3420 21 
Q 3050 -91 2638 -91 
Q 1578 -91 968 557 
Q 359 1206 359 2328 
Q 359 3453 968 4101 
Q 1578 4750 2638 4750 
Q 3056 4750 3426 4639 
Q 3797 4528 4122 4306 
z
" transform="scale(0.015625)"/>
       <path id="DejaVuSans-68" d="M 3513 2113 
L 3513 0 
L 2938 0 
L 2938 2094 
Q 2938 2591 2744 2837 
Q 2550 3084 2163 3084 
Q 1697 3084 1428 2787 
Q 1159 2491 1159 1978 
L 1159 0 
L 581 0 
L 581 4863 
L 1159 4863 
L 1159 2956 
Q 1366 3272 1645 3428 
Q 1925 3584 2291 3584 
Q 2894 3584 3203 3211 
Q 3513 2838 3513 2113 
z
" transform="scale(0.015625)"/>
       <path id="DejaVuSans-6f" d="M 1959 3097 
Q 1497 3097 1228 2736 
Q 959 2375 959 1747 
Q 959 1119 1226 758 
Q 1494 397 1959 397 
Q 2419 397 2687 759 
Q 2956 1122 2956 1747 
Q 2956 2369 2687 2733 
Q 2419 3097 1959 3097 
z
M 1959 3584 
Q 2709 3584 3137 3096 
Q 3566 2609 3566 1747 
Q 3566 888 3137 398 
Q 2709 -91 1959 -91 
Q 1206 -91 779 398 
Q 353 888 353 1747 
Q 353 2609 779 3096 
Q 1206 3584 1959 3584 
z
" transform="scale(0.015625)"/>
       <path id="DejaVuSans-63" d="M 3122 3366 
L 3122 2828 
Q 2878 2963 2633 3030 
Q 2388 3097 2138 3097 
Q 1578 3097 1268 2742 
Q 959 2388 959 1747 
Q 959 1106 1268 751 
Q 1578 397 2138 397 
Q 2388 397 2633 464 
Q 2878 531 3122 666 
L 3122 134 
Q 2881 22 2623 -34 
Q 2366 -91 2075 -91 
Q 1284 -91 818 406 
Q 353 903 353 1747 
Q 353 2603 823 3093 
Q 1294 3584 2113 3584 
Q 2378 3584 2631 3529 
Q 2884 3475 3122 3366 
z
" transform="scale(0.015625)"/>
       <path id="DejaVuSans-65" d="M 3597 1894 
L 3597 1613 
L 953 1613 
Q 991 1019 1311 708 
Q 1631 397 2203 397 
Q 2534 397 2845 478 
Q 3156 559 3463 722 
L 3463 178 
Q 3153 47 2828 -22 
Q 2503 -91 2169 -91 
Q 1331 -91 842 396 
Q 353 884 353 1716 
Q 353 2575 817 3079 
Q 1281 3584 2069 3584 
Q 2775 3584 3186 3129 
Q 3597 2675 3597 1894 
z
M 3022 2063 
Q 3016 2534 2758 2815 
Q 2500 3097 2075 3097 
Q 1594 3097 1305 2825 
Q 1016 2553 972 2059 
L 3022 2063 
z
" transform="scale(0.015625)"/>
       <path id="DejaVuSans-66" d="M 2375 4863 
L 2375 4384 
L 1825 4384 
Q 1516 4384 1395 4259 
Q 1275 4134 1275 3809 
L 1275 3500 
L 2222 3500 
L 2222 3053 
L 1275 3053 
L 1275 0 
L 697 0 
L 697 3053 
L 147 3053 
L 147 3500 
L 697 3500 
L 697 3744 
Q 697 4328 969 4595 
Q 1241 4863 1831 4863 
L 2375 4863 
z
" transform="scale(0.015625)"/>
       <path id="DejaVuSans-6e" d="M 3513 2113 
L 3513 0 
L 2938 0 
L 2938 2094 
Q 2938 2591 2744 2837 
Q 2550 3084 2163 3084 
Q 1697 3084 1428 2787 
Q 1159 2491 1159 1978 
L 1159 0 
L 581 0 
L 581 3500 
L 1159 3500 
L 1159 2956 
Q 1366 3272 1645 3428 
Q 1925 3584 2291 3584 
Q 2894 3584 3203 3211 
Q 3513 2838 3513 2113 
z
" transform="scale(0.015625)"/>
      </defs>
      <use xlink:href="#DejaVuSans-43"/>
      <use xlink:href="#DejaVuSans-68" x="69.824219"/>
      <use xlink:href="#DejaVuSans-6f" x="133.203125"/>
      <use xlink:href="#DejaVuSans-69" x="194.384766"/>
      <use xlink:href="#DejaVuSans-63" x="222.167969"/>
      <use xlink:href="#DejaVuSans-65" x="277.148438"/>
      <use xlink:href="#DejaVuSans-20" x="338.671875"/>
      <use xlink:href="#DejaVuSans-43" x="370.458984"/>
      <use xlink:href="#DejaVuSans-6f" x="440.283203"/>
      <use xlink:href="#DejaVuSans-65" x="501.464844"/>
      <use xlink:href="#DejaVuSans-66" x="562.988281"/>
      <use xlink:href="#DejaVuSans-66" x="598.193359"/>
      <use xlink:href="#DejaVuSans-69" x="633.398438"/>
      <use xlink:href="#DejaVuSans-63" x="661.181641"/>
      <use xlink:href="#DejaVuSans-69" x="716.162109"/>
      <use xlink:href="#DejaVuSans-65" x="743.945312"/>
      <use xlink:href="#DejaVuSans-6e" x="805.46875"/>
      <use xlink:href="#DejaVuSans-74" x="868.847656"/>
     </g>
    </g>
   </g>
   <g id="line2d_10">
    <path d="M 47.585795 44.717715 
L 50.20962 50.067083 
L 52.833444 46.130188 
L 55.457269 49.884753 
L 58.081093 48.388772 
L 60.704918 49.49619 
L 63.328742 42.671518 
L 65.952567 48.900949 
L 68.576391 43.276933 
L 71.200216 46.295626 
L 73.82404 48.723269 
L 76.447864 35.763673 
L 79.071689 48.232313 
L 81.695513 39.532057 
L 84.319338 43.617102 
L 86.943162 49.973013 
L 89.566987 43.418772 
L 92.190811 42.179501 
L 94.814636 43.193499 
L 97.43846 39.775522 
L 100.062284 45.715028 
L 102.686109 38.630533 
L 105.309933 37.961983 
L 107.933758 35.87859 
L 110.557582 36.23664 
L 113.181407 37.495055 
L 115.805231 31.266693 
L 118.429056 32.722951 
L 121.05288 24.897685 
L 123.676705 19.183257 
" clip-path="url(#p6306b1e951)" style="fill: none; stroke: #6a5acd; stroke-width: 1.5; stroke-linecap: square"/>
   </g>
   <g id="line2d_11">
    <path d="M 47.585795 45.192804 
L 50.20962 49.56391 
L 52.833444 45.595843 
L 55.457269 50.526638 
L 58.081093 38.799303 
L 60.704918 42.596321 
L 63.328742 49.576334 
L 65.952567 43.254501 
L 68.576391 45.288572 
L 71.200216 33.9882 
L 73.82404 50.236356 
L 76.447864 40.999677 
L 79.071689 42.143091 
L 81.695513 49.600041 
L 84.319338 42.493831 
L 86.943162 51.334583 
L 89.566987 40.246107 
L 92.190811 44.724281 
L 94.814636 37.111568 
L 97.43846 39.676762 
L 100.062284 47.477804 
L 102.686109 31.520726 
L 105.309933 39.313134 
L 107.933758 29.363182 
L 110.557582 29.517001 
L 113.181407 34.496015 
L 115.805231 25.928876 
L 118.429056 28.611021 
L 121.05288 31.079499 
L 123.676705 16.598983 
" clip-path="url(#p6306b1e951)" style="fill: none; stroke: #8a2be2; stroke-width: 1.5; stroke-linecap: square"/>
   </g>
   <g id="patch_3">
    <path d="M 43.78125 62.64 
L 43.78125 7.2 
" style="fill: none; stroke: #000000; stroke-width: 0.8; stroke-linejoin: miter; stroke-linecap: square"/>
   </g>
   <g id="patch_4">
    <path d="M 127.48125 62.64 
L 127.48125 7.2 
" style="fill: none; stroke: #000000; stroke-width: 0.8; stroke-linejoin: miter; stroke-linecap: square"/>
   </g>
   <g id="patch_5">
    <path d="M 43.78125 62.64 
L 127.48125 62.64 
" style="fill: none; stroke: #000000; stroke-width: 0.8; stroke-linejoin: miter; stroke-linecap: square"/>
   </g>
  </g>
  <g id="axes_2">
   <g id="matplotlib.axis_3">
    <g id="ytick_3">
     <g id="line2d_12">
      <defs>
       <path id="mb03742fec5" d="M 0 0 
L 3.5 0 
" style="stroke: #000000; stroke-width: 0.8"/>
      </defs>
      <g>
       <use xlink:href="#mb03742fec5" x="127.48125" y="46.8" style="stroke: #000000; stroke-width: 0.8"/>
      </g>
     </g>
     <g id="text_12">
      <!-- 0 -->
      <g transform="translate(134.48125 50.599219) scale(0.1 -0.1)">
       <use xlink:href="#DejaVuSans-30"/>
      </g>
     </g>
    </g>
    <g id="ytick_4">
     <g id="line2d_13">
      <g>
       <use xlink:href="#mb03742fec5" x="127.48125" y="20.4" style="stroke: #000000; stroke-width: 0.8"/>
      </g>
     </g>
     <g id="text_13">
      <!-- 10 -->
      <g transform="translate(134.48125 24.199219) scale(0.1 -0.1)">
       <use xlink:href="#DejaVuSans-31"/>
       <use xlink:href="#DejaVuSans-30" x="63.623047"/>
      </g>
     </g>
    </g>
    <g id="text_14">
     <!-- Effect of Previous Block -->
     <g transform="translate(159.607813 -23.783906) rotate(-270) scale(0.1 -0.1)">
      <defs>
       <path id="DejaVuSans-45" d="M 628 4666 
L 3578 4666 
L 3578 4134 
L 1259 4134 
L 1259 2753 
L 3481 2753 
L 3481 2222 
L 1259 2222 
L 1259 531 
L 3634 531 
L 3634 0 
L 628 0 
L 628 4666 
z
" transform="scale(0.015625)"/>
       <path id="DejaVuSans-76" d="M 191 3500 
L 800 3500 
L 1894 563 
L 2988 3500 
L 3597 3500 
L 2284 0 
L 1503 0 
L 191 3500 
z
" transform="scale(0.015625)"/>
       <path id="DejaVuSans-75" d="M 544 1381 
L 544 3500 
L 1119 3500 
L 1119 1403 
Q 1119 906 1312 657 
Q 1506 409 1894 409 
Q 2359 409 2629 706 
Q 2900 1003 2900 1516 
L 2900 3500 
L 3475 3500 
L 3475 0 
L 2900 0 
L 2900 538 
Q 2691 219 2414 64 
Q 2138 -91 1772 -91 
Q 1169 -91 856 284 
Q 544 659 544 1381 
z
M 1991 3584 
L 1991 3584 
z
" transform="scale(0.015625)"/>
       <path id="DejaVuSans-42" d="M 1259 2228 
L 1259 519 
L 2272 519 
Q 2781 519 3026 730 
Q 3272 941 3272 1375 
Q 3272 1813 3026 2020 
Q 2781 2228 2272 2228 
L 1259 2228 
z
M 1259 4147 
L 1259 2741 
L 2194 2741 
Q 2656 2741 2882 2914 
Q 3109 3088 3109 3444 
Q 3109 3797 2882 3972 
Q 2656 4147 2194 4147 
L 1259 4147 
z
M 628 4666 
L 2241 4666 
Q 2963 4666 3353 4366 
Q 3744 4066 3744 3513 
Q 3744 3084 3544 2831 
Q 3344 2578 2956 2516 
Q 3422 2416 3680 2098 
Q 3938 1781 3938 1306 
Q 3938 681 3513 340 
Q 3088 0 2303 0 
L 628 0 
L 628 4666 
z
" transform="scale(0.015625)"/>
       <path id="DejaVuSans-6b" d="M 581 4863 
L 1159 4863 
L 1159 1991 
L 2875 3500 
L 3609 3500 
L 1753 1863 
L 3688 0 
L 2938 0 
L 1159 1709 
L 1159 0 
L 581 0 
L 581 4863 
z
" transform="scale(0.015625)"/>
      </defs>
      <use xlink:href="#DejaVuSans-45"/>
      <use xlink:href="#DejaVuSans-66" x="63.183594"/>
      <use xlink:href="#DejaVuSans-66" x="98.388672"/>
      <use xlink:href="#DejaVuSans-65" x="133.59375"/>
      <use xlink:href="#DejaVuSans-63" x="195.117188"/>
      <use xlink:href="#DejaVuSans-74" x="250.097656"/>
      <use xlink:href="#DejaVuSans-20" x="289.306641"/>
      <use xlink:href="#DejaVuSans-6f" x="321.09375"/>
      <use xlink:href="#DejaVuSans-66" x="382.275391"/>
      <use xlink:href="#DejaVuSans-20" x="417.480469"/>
      <use xlink:href="#DejaVuSans-50" x="449.267578"/>
      <use xlink:href="#DejaVuSans-72" x="507.820312"/>
      <use xlink:href="#DejaVuSans-65" x="546.683594"/>
      <use xlink:href="#DejaVuSans-76" x="608.207031"/>
      <use xlink:href="#DejaVuSans-69" x="667.386719"/>
      <use xlink:href="#DejaVuSans-6f" x="695.169922"/>
      <use xlink:href="#DejaVuSans-75" x="756.351562"/>
      <use xlink:href="#DejaVuSans-73" x="819.730469"/>
      <use xlink:href="#DejaVuSans-20" x="871.830078"/>
      <use xlink:href="#DejaVuSans-42" x="903.617188"/>
      <use xlink:href="#DejaVuSans-6c" x="972.220703"/>
      <use xlink:href="#DejaVuSans-6f" x="1000.003906"/>
      <use xlink:href="#DejaVuSans-63" x="1061.185547"/>
      <use xlink:href="#DejaVuSans-6b" x="1116.166016"/>
     </g>
     <!-- (Long - Short) -->
     <g transform="translate(148.41 0.517656) rotate(-270) scale(0.1 -0.1)">
      <defs>
       <path id="DejaVuSans-28" d="M 1984 4856 
Q 1566 4138 1362 3434 
Q 1159 2731 1159 2009 
Q 1159 1288 1364 580 
Q 1569 -128 1984 -844 
L 1484 -844 
Q 1016 -109 783 600 
Q 550 1309 550 2009 
Q 550 2706 781 3412 
Q 1013 4119 1484 4856 
L 1984 4856 
z
" transform="scale(0.015625)"/>
       <path id="DejaVuSans-4c" d="M 628 4666 
L 1259 4666 
L 1259 531 
L 3531 531 
L 3531 0 
L 628 0 
L 628 4666 
z
" transform="scale(0.015625)"/>
       <path id="DejaVuSans-67" d="M 2906 1791 
Q 2906 2416 2648 2759 
Q 2391 3103 1925 3103 
Q 1463 3103 1205 2759 
Q 947 2416 947 1791 
Q 947 1169 1205 825 
Q 1463 481 1925 481 
Q 2391 481 2648 825 
Q 2906 1169 2906 1791 
z
M 3481 434 
Q 3481 -459 3084 -895 
Q 2688 -1331 1869 -1331 
Q 1566 -1331 1297 -1286 
Q 1028 -1241 775 -1147 
L 775 -588 
Q 1028 -725 1275 -790 
Q 1522 -856 1778 -856 
Q 2344 -856 2625 -561 
Q 2906 -266 2906 331 
L 2906 616 
Q 2728 306 2450 153 
Q 2172 0 1784 0 
Q 1141 0 747 490 
Q 353 981 353 1791 
Q 353 2603 747 3093 
Q 1141 3584 1784 3584 
Q 2172 3584 2450 3431 
Q 2728 3278 2906 2969 
L 2906 3500 
L 3481 3500 
L 3481 434 
z
" transform="scale(0.015625)"/>
       <path id="DejaVuSans-53" d="M 3425 4513 
L 3425 3897 
Q 3066 4069 2747 4153 
Q 2428 4238 2131 4238 
Q 1616 4238 1336 4038 
Q 1056 3838 1056 3469 
Q 1056 3159 1242 3001 
Q 1428 2844 1947 2747 
L 2328 2669 
Q 3034 2534 3370 2195 
Q 3706 1856 3706 1288 
Q 3706 609 3251 259 
Q 2797 -91 1919 -91 
Q 1588 -91 1214 -16 
Q 841 59 441 206 
L 441 856 
Q 825 641 1194 531 
Q 1563 422 1919 422 
Q 2459 422 2753 634 
Q 3047 847 3047 1241 
Q 3047 1584 2836 1778 
Q 2625 1972 2144 2069 
L 1759 2144 
Q 1053 2284 737 2584 
Q 422 2884 422 3419 
Q 422 4038 858 4394 
Q 1294 4750 2059 4750 
Q 2388 4750 2728 4690 
Q 3069 4631 3425 4513 
z
" transform="scale(0.015625)"/>
       <path id="DejaVuSans-29" d="M 513 4856 
L 1013 4856 
Q 1481 4119 1714 3412 
Q 1947 2706 1947 2009 
Q 1947 1309 1714 600 
Q 1481 -109 1013 -844 
L 513 -844 
Q 928 -128 1133 580 
Q 1338 1288 1338 2009 
Q 1338 2731 1133 3434 
Q 928 4138 513 4856 
z
" transform="scale(0.015625)"/>
      </defs>
      <use xlink:href="#DejaVuSans-28"/>
      <use xlink:href="#DejaVuSans-4c" x="39.013672"/>
      <use xlink:href="#DejaVuSans-6f" x="92.976562"/>
      <use xlink:href="#DejaVuSans-6e" x="154.158203"/>
      <use xlink:href="#DejaVuSans-67" x="217.537109"/>
      <use xlink:href="#DejaVuSans-20" x="281.013672"/>
      <use xlink:href="#DejaVuSans-2d" x="312.800781"/>
      <use xlink:href="#DejaVuSans-20" x="348.884766"/>
      <use xlink:href="#DejaVuSans-53" x="380.671875"/>
      <use xlink:href="#DejaVuSans-68" x="444.148438"/>
      <use xlink:href="#DejaVuSans-6f" x="507.527344"/>
      <use xlink:href="#DejaVuSans-72" x="568.708984"/>
      <use xlink:href="#DejaVuSans-74" x="609.822266"/>
      <use xlink:href="#DejaVuSans-29" x="649.03125"/>
     </g>
    </g>
   </g>
   <g id="line2d_14">
    <path d="M 47.585795 46.572551 
L 50.20962 47.045981 
L 52.833444 47.079332 
L 55.457269 46.451168 
L 58.081093 51.654316 
L 60.704918 50.179668 
L 63.328742 42.943849 
L 65.952567 50.027714 
L 68.576391 45.675992 
L 71.200216 53.540533 
L 73.82404 45.966069 
L 76.447864 43.564121 
L 79.071689 50.2689 
L 81.695513 40.789792 
L 84.319338 47.541548 
L 86.943162 45.915357 
L 89.566987 48.746197 
L 92.190811 45.238482 
L 94.814636 51.370586 
L 97.43846 46.865536 
L 100.062284 45.549637 
L 102.686109 51.991293 
L 105.309933 45.710127 
L 107.933758 51.053914 
L 110.557582 51.650377 
L 113.181407 49.254088 
L 115.805231 50.697629 
L 118.429056 49.694695 
L 121.05288 42.285105 
L 123.676705 48.736953 
" clip-path="url(#p6306b1e951)" style="fill: none; stroke: #000000; stroke-linecap: square"/>
   </g>
   <g id="patch_6">
    <path d="M 43.78125 62.64 
L 43.78125 7.2 
" style="fill: none; stroke: #000000; stroke-width: 0.8; stroke-linejoin: miter; stroke-linecap: square"/>
   </g>
   <g id="patch_7">
    <path d="M 127.48125 62.64 
L 127.48125 7.2 
" style="fill: none; stroke: #000000; stroke-width: 0.8; stroke-linejoin: miter; stroke-linecap: square"/>
   </g>
   <g id="patch_8">
    <path d="M 43.78125 62.64 
L 127.48125 62.64 
" style="fill: none; stroke: #000000; stroke-width: 0.8; stroke-linejoin: miter; stroke-linecap: square"/>
   </g>
   <g id="PathCollection_1">
    <path d="M 47.585795 46.572551 
L 47.585795 46.572551 
L 47.585795 46.572551 
L 47.585795 46.572551 
L 47.585795 46.572551 
L 47.585795 46.572551 
L 47.585795 46.572551 
L 47.585795 46.572551 
L 47.585795 46.572551 
L 47.585795 46.572551 
z
" clip-path="url(#p6306b1e951)" style="stroke: #000000"/>
    <path d="M 50.20962 47.045981 
L 50.20962 47.045981 
L 50.20962 47.045981 
L 50.20962 47.045981 
L 50.20962 47.045981 
L 50.20962 47.045981 
L 50.20962 47.045981 
L 50.20962 47.045981 
L 50.20962 47.045981 
L 50.20962 47.045981 
z
" clip-path="url(#p6306b1e951)" style="stroke: #000000"/>
    <path d="M 52.833444 47.079332 
L 52.833444 47.079332 
L 52.833444 47.079332 
L 52.833444 47.079332 
L 52.833444 47.079332 
L 52.833444 47.079332 
L 52.833444 47.079332 
L 52.833444 47.079332 
L 52.833444 47.079332 
L 52.833444 47.079332 
z
" clip-path="url(#p6306b1e951)" style="stroke: #000000"/>
    <path d="M 55.457269 46.451168 
L 55.457269 46.451168 
L 55.457269 46.451168 
L 55.457269 46.451168 
L 55.457269 46.451168 
L 55.457269 46.451168 
L 55.457269 46.451168 
L 55.457269 46.451168 
L 55.457269 46.451168 
L 55.457269 46.451168 
z
" clip-path="url(#p6306b1e951)" style="stroke: #000000"/>
    <path d="M 58.081093 51.654316 
L 58.081093 51.654316 
L 58.081093 51.654316 
L 58.081093 51.654316 
L 58.081093 51.654316 
L 58.081093 51.654316 
L 58.081093 51.654316 
L 58.081093 51.654316 
L 58.081093 51.654316 
L 58.081093 51.654316 
z
" clip-path="url(#p6306b1e951)" style="stroke: #000000"/>
    <path d="M 60.704918 50.179668 
L 60.704918 50.179668 
L 60.704918 50.179668 
L 60.704918 50.179668 
L 60.704918 50.179668 
L 60.704918 50.179668 
L 60.704918 50.179668 
L 60.704918 50.179668 
L 60.704918 50.179668 
L 60.704918 50.179668 
z
" clip-path="url(#p6306b1e951)" style="stroke: #000000"/>
    <path d="M 63.328742 42.943849 
L 63.328742 42.943849 
L 63.328742 42.943849 
L 63.328742 42.943849 
L 63.328742 42.943849 
L 63.328742 42.943849 
L 63.328742 42.943849 
L 63.328742 42.943849 
L 63.328742 42.943849 
L 63.328742 42.943849 
z
" clip-path="url(#p6306b1e951)" style="stroke: #000000"/>
    <path d="M 65.952567 50.027714 
L 65.952567 50.027714 
L 65.952567 50.027714 
L 65.952567 50.027714 
L 65.952567 50.027714 
L 65.952567 50.027714 
L 65.952567 50.027714 
L 65.952567 50.027714 
L 65.952567 50.027714 
L 65.952567 50.027714 
z
" clip-path="url(#p6306b1e951)" style="stroke: #000000"/>
    <path d="M 68.576391 45.675992 
L 68.576391 45.675992 
L 68.576391 45.675992 
L 68.576391 45.675992 
L 68.576391 45.675992 
L 68.576391 45.675992 
L 68.576391 45.675992 
L 68.576391 45.675992 
L 68.576391 45.675992 
L 68.576391 45.675992 
z
" clip-path="url(#p6306b1e951)" style="stroke: #000000"/>
    <path d="M 71.200216 51.304465 
L 70.698187 52.84955 
L 69.073588 52.84955 
L 70.387916 53.804465 
L 69.885888 55.34955 
L 71.200216 54.394635 
L 72.514543 55.34955 
L 72.012515 53.804465 
L 73.326843 52.84955 
L 71.702244 52.84955 
z
" clip-path="url(#p6306b1e951)" style="stroke: #000000"/>
    <path d="M 73.82404 45.966069 
L 73.82404 45.966069 
L 73.82404 45.966069 
L 73.82404 45.966069 
L 73.82404 45.966069 
L 73.82404 45.966069 
L 73.82404 45.966069 
L 73.82404 45.966069 
L 73.82404 45.966069 
L 73.82404 45.966069 
z
" clip-path="url(#p6306b1e951)" style="stroke: #000000"/>
    <path d="M 76.447864 43.564121 
L 76.447864 43.564121 
L 76.447864 43.564121 
L 76.447864 43.564121 
L 76.447864 43.564121 
L 76.447864 43.564121 
L 76.447864 43.564121 
L 76.447864 43.564121 
L 76.447864 43.564121 
L 76.447864 43.564121 
z
" clip-path="url(#p6306b1e951)" style="stroke: #000000"/>
    <path d="M 79.071689 50.2689 
L 79.071689 50.2689 
L 79.071689 50.2689 
L 79.071689 50.2689 
L 79.071689 50.2689 
L 79.071689 50.2689 
L 79.071689 50.2689 
L 79.071689 50.2689 
L 79.071689 50.2689 
L 79.071689 50.2689 
z
" clip-path="url(#p6306b1e951)" style="stroke: #000000"/>
    <path d="M 81.695513 38.553724 
L 81.193485 40.098809 
L 79.568886 40.098809 
L 80.883214 41.053724 
L 80.381186 42.598809 
L 81.695513 41.643894 
L 83.009841 42.598809 
L 82.507813 41.053724 
L 83.82214 40.098809 
L 82.197542 40.098809 
z
" clip-path="url(#p6306b1e951)" style="stroke: #000000"/>
    <path d="M 84.319338 47.541548 
L 84.319338 47.541548 
L 84.319338 47.541548 
L 84.319338 47.541548 
L 84.319338 47.541548 
L 84.319338 47.541548 
L 84.319338 47.541548 
L 84.319338 47.541548 
L 84.319338 47.541548 
L 84.319338 47.541548 
z
" clip-path="url(#p6306b1e951)" style="stroke: #000000"/>
    <path d="M 86.943162 45.915357 
L 86.943162 45.915357 
L 86.943162 45.915357 
L 86.943162 45.915357 
L 86.943162 45.915357 
L 86.943162 45.915357 
L 86.943162 45.915357 
L 86.943162 45.915357 
L 86.943162 45.915357 
L 86.943162 45.915357 
z
" clip-path="url(#p6306b1e951)" style="stroke: #000000"/>
    <path d="M 89.566987 48.746197 
L 89.566987 48.746197 
L 89.566987 48.746197 
L 89.566987 48.746197 
L 89.566987 48.746197 
L 89.566987 48.746197 
L 89.566987 48.746197 
L 89.566987 48.746197 
L 89.566987 48.746197 
L 89.566987 48.746197 
z
" clip-path="url(#p6306b1e951)" style="stroke: #000000"/>
    <path d="M 92.190811 45.238482 
L 92.190811 45.238482 
L 92.190811 45.238482 
L 92.190811 45.238482 
L 92.190811 45.238482 
L 92.190811 45.238482 
L 92.190811 45.238482 
L 92.190811 45.238482 
L 92.190811 45.238482 
L 92.190811 45.238482 
z
" clip-path="url(#p6306b1e951)" style="stroke: #000000"/>
    <path d="M 94.814636 51.370586 
L 94.814636 51.370586 
L 94.814636 51.370586 
L 94.814636 51.370586 
L 94.814636 51.370586 
L 94.814636 51.370586 
L 94.814636 51.370586 
L 94.814636 51.370586 
L 94.814636 51.370586 
L 94.814636 51.370586 
z
" clip-path="url(#p6306b1e951)" style="stroke: #000000"/>
    <path d="M 97.43846 46.865536 
L 97.43846 46.865536 
L 97.43846 46.865536 
L 97.43846 46.865536 
L 97.43846 46.865536 
L 97.43846 46.865536 
L 97.43846 46.865536 
L 97.43846 46.865536 
L 97.43846 46.865536 
L 97.43846 46.865536 
z
" clip-path="url(#p6306b1e951)" style="stroke: #000000"/>
    <path d="M 100.062284 45.549637 
L 100.062284 45.549637 
L 100.062284 45.549637 
L 100.062284 45.549637 
L 100.062284 45.549637 
L 100.062284 45.549637 
L 100.062284 45.549637 
L 100.062284 45.549637 
L 100.062284 45.549637 
L 100.062284 45.549637 
z
" clip-path="url(#p6306b1e951)" style="stroke: #000000"/>
    <path d="M 102.686109 51.991293 
L 102.686109 51.991293 
L 102.686109 51.991293 
L 102.686109 51.991293 
L 102.686109 51.991293 
L 102.686109 51.991293 
L 102.686109 51.991293 
L 102.686109 51.991293 
L 102.686109 51.991293 
L 102.686109 51.991293 
z
" clip-path="url(#p6306b1e951)" style="stroke: #000000"/>
    <path d="M 105.309933 45.710127 
L 105.309933 45.710127 
L 105.309933 45.710127 
L 105.309933 45.710127 
L 105.309933 45.710127 
L 105.309933 45.710127 
L 105.309933 45.710127 
L 105.309933 45.710127 
L 105.309933 45.710127 
L 105.309933 45.710127 
z
" clip-path="url(#p6306b1e951)" style="stroke: #000000"/>
    <path d="M 107.933758 51.053914 
L 107.933758 51.053914 
L 107.933758 51.053914 
L 107.933758 51.053914 
L 107.933758 51.053914 
L 107.933758 51.053914 
L 107.933758 51.053914 
L 107.933758 51.053914 
L 107.933758 51.053914 
L 107.933758 51.053914 
z
" clip-path="url(#p6306b1e951)" style="stroke: #000000"/>
    <path d="M 110.557582 51.650377 
L 110.557582 51.650377 
L 110.557582 51.650377 
L 110.557582 51.650377 
L 110.557582 51.650377 
L 110.557582 51.650377 
L 110.557582 51.650377 
L 110.557582 51.650377 
L 110.557582 51.650377 
L 110.557582 51.650377 
z
" clip-path="url(#p6306b1e951)" style="stroke: #000000"/>
    <path d="M 113.181407 49.254088 
L 113.181407 49.254088 
L 113.181407 49.254088 
L 113.181407 49.254088 
L 113.181407 49.254088 
L 113.181407 49.254088 
L 113.181407 49.254088 
L 113.181407 49.254088 
L 113.181407 49.254088 
L 113.181407 49.254088 
z
" clip-path="url(#p6306b1e951)" style="stroke: #000000"/>
    <path d="M 115.805231 50.697629 
L 115.805231 50.697629 
L 115.805231 50.697629 
L 115.805231 50.697629 
L 115.805231 50.697629 
L 115.805231 50.697629 
L 115.805231 50.697629 
L 115.805231 50.697629 
L 115.805231 50.697629 
L 115.805231 50.697629 
z
" clip-path="url(#p6306b1e951)" style="stroke: #000000"/>
    <path d="M 118.429056 49.694695 
L 118.429056 49.694695 
L 118.429056 49.694695 
L 118.429056 49.694695 
L 118.429056 49.694695 
L 118.429056 49.694695 
L 118.429056 49.694695 
L 118.429056 49.694695 
L 118.429056 49.694695 
L 118.429056 49.694695 
z
" clip-path="url(#p6306b1e951)" style="stroke: #000000"/>
    <path d="M 121.05288 42.285105 
L 121.05288 42.285105 
L 121.05288 42.285105 
L 121.05288 42.285105 
L 121.05288 42.285105 
L 121.05288 42.285105 
L 121.05288 42.285105 
L 121.05288 42.285105 
L 121.05288 42.285105 
L 121.05288 42.285105 
z
" clip-path="url(#p6306b1e951)" style="stroke: #000000"/>
    <path d="M 123.676705 48.736953 
L 123.676705 48.736953 
L 123.676705 48.736953 
L 123.676705 48.736953 
L 123.676705 48.736953 
L 123.676705 48.736953 
L 123.676705 48.736953 
L 123.676705 48.736953 
L 123.676705 48.736953 
L 123.676705 48.736953 
z
" clip-path="url(#p6306b1e951)" style="stroke: #000000"/>
   </g>
  </g>
 </g>
 <defs>
  <clipPath id="p6306b1e951">
   <rect x="43.78125" y="7.2" width="83.7" height="55.44"/>
  </clipPath>
 </defs>
</svg>
