<?xml version="1.0" encoding="utf-8" standalone="no"?>
<!DOCTYPE svg PUBLIC "-//W3C//DTD SVG 1.1//EN"
  "http://www.w3.org/Graphics/SVG/1.1/DTD/svg11.dtd">
<svg xmlns:xlink="http://www.w3.org/1999/xlink" width="179.282187pt" height="100.19625pt" viewBox="0 0 179.282187 100.19625" xmlns="http://www.w3.org/2000/svg" version="1.1">
 <metadata>
  <rdf:RDF xmlns:dc="http://purl.org/dc/elements/1.1/" xmlns:cc="http://creativecommons.org/ns#" xmlns:rdf="http://www.w3.org/1999/02/22-rdf-syntax-ns#">
   <cc:Work>
    <dc:type rdf:resource="http://purl.org/dc/dcmitype/StillImage"/>
    <dc:date>2024-02-01T22:01:36.272123</dc:date>
    <dc:format>image/svg+xml</dc:format>
    <dc:creator>
     <cc:Agent>
      <dc:title>Matplotlib v3.7.2, https://matplotlib.org/</dc:title>
     </cc:Agent>
    </dc:creator>
   </cc:Work>
  </rdf:RDF>
 </metadata>
 <defs>
  <style type="text/css">*{stroke-linejoin: round; stroke-linecap: butt}</style>
 </defs>
 <g id="figure_1">
  <g id="patch_1">
   <path d="M -0 100.19625 
L 179.282187 100.19625 
L 179.282187 0 
L -0 0 
z
" style="fill: #ffffff"/>
  </g>
  <g id="axes_1">
   <g id="patch_2">
    <path d="M 43.78125 62.64 
L 127.48125 62.64 
L 127.48125 7.2 
L 43.78125 7.2 
z
" style="fill: #ffffff"/>
   </g>
   <g id="PolyCollection_1">
    <defs>
     <path id="m54f01baaad" d="M 47.585795 -71.303006 
L 47.585795 -57.143967 
L 50.20962 -53.171377 
L 52.833444 -52.706156 
L 55.457269 -55.131752 
L 58.081093 -55.602838 
L 60.704918 -54.386757 
L 63.328742 -54.103138 
L 65.952567 -57.722062 
L 68.576391 -61.436511 
L 71.200216 -58.664713 
L 73.82404 -49.151667 
L 76.447864 -59.283618 
L 79.071689 -54.954672 
L 81.695513 -56.719121 
L 84.319338 -57.482523 
L 86.943162 -50.109381 
L 89.566987 -56.825093 
L 92.190811 -55.530684 
L 94.814636 -57.825752 
L 97.43846 -53.822163 
L 100.062284 -55.022618 
L 102.686109 -58.087867 
L 105.309933 -55.261553 
L 107.933758 -63.824632 
L 110.557582 -58.078126 
L 113.181407 -56.137925 
L 115.805231 -61.610864 
L 118.429056 -58.208952 
L 121.05288 -55.049883 
L 123.676705 -60.958389 
L 123.676705 -77.157506 
L 123.676705 -77.157506 
L 121.05288 -67.976521 
L 118.429056 -72.542076 
L 115.805231 -73.952711 
L 113.181407 -68.132762 
L 110.557582 -71.587432 
L 107.933758 -77.046724 
L 105.309933 -69.291798 
L 102.686109 -69.2584 
L 100.062284 -70.103468 
L 97.43846 -64.218342 
L 94.814636 -69.993748 
L 92.190811 -67.505551 
L 89.566987 -68.984483 
L 86.943162 -64.380868 
L 84.319338 -69.851766 
L 81.695513 -69.280897 
L 79.071689 -67.594744 
L 76.447864 -73.825434 
L 73.82404 -63.147477 
L 71.200216 -69.541764 
L 68.576391 -72.398848 
L 65.952567 -70.893296 
L 63.328742 -66.129963 
L 60.704918 -67.815165 
L 58.081093 -67.222333 
L 55.457269 -67.393419 
L 52.833444 -67.48157 
L 50.20962 -63.744176 
L 47.585795 -71.303006 
z
" style="stroke: #6a5acd; stroke-opacity: 0.2"/>
    </defs>
    <g clip-path="url(#p000c522fac)">
     <use xlink:href="#m54f01baaad" x="0" y="100.19625" style="fill: #6a5acd; fill-opacity: 0.2; stroke: #6a5acd; stroke-opacity: 0.2"/>
    </g>
   </g>
   <g id="PolyCollection_2">
    <defs>
     <path id="m598232b57b" d="M 47.585795 -74.14534 
L 47.585795 -58.293097 
L 50.20962 -45.419567 
L 52.833444 -53.688386 
L 55.457269 -40.07625 
L 58.081093 -46.309887 
L 60.704918 -51.379082 
L 63.328742 -46.566574 
L 65.952567 -45.425192 
L 68.576391 -47.659625 
L 71.200216 -63.268667 
L 73.82404 -49.565637 
L 76.447864 -52.894446 
L 79.071689 -45.163102 
L 81.695513 -47.763481 
L 84.319338 -52.628901 
L 86.943162 -45.836666 
L 89.566987 -49.607856 
L 92.190811 -44.719162 
L 94.814636 -51.163589 
L 97.43846 -55.816884 
L 100.062284 -50.010465 
L 102.686109 -62.357855 
L 105.309933 -48.319793 
L 107.933758 -52.57568 
L 110.557582 -64.37747 
L 113.181407 -51.177821 
L 115.805231 -53.048453 
L 118.429056 -50.68455 
L 121.05288 -59.111637 
L 123.676705 -69.019665 
L 123.676705 -90.47625 
L 123.676705 -90.47625 
L 121.05288 -76.492169 
L 118.429056 -64.960094 
L 115.805231 -68.078666 
L 113.181407 -66.521149 
L 110.557582 -80.582218 
L 107.933758 -66.543625 
L 105.309933 -64.457505 
L 102.686109 -78.327713 
L 100.062284 -68.194427 
L 97.43846 -74.251543 
L 94.814636 -66.983896 
L 92.190811 -61.59156 
L 89.566987 -68.518561 
L 86.943162 -63.66193 
L 84.319338 -70.098403 
L 81.695513 -64.148634 
L 79.071689 -66.862208 
L 76.447864 -69.561679 
L 73.82404 -65.965137 
L 71.200216 -78.965177 
L 68.576391 -66.91326 
L 65.952567 -65.03924 
L 63.328742 -65.500441 
L 60.704918 -73.691995 
L 58.081093 -62.990318 
L 55.457269 -58.819559 
L 52.833444 -73.521842 
L 50.20962 -66.103453 
L 47.585795 -74.14534 
z
" style="stroke: #8a2be2; stroke-opacity: 0.2"/>
    </defs>
    <g clip-path="url(#p000c522fac)">
     <use xlink:href="#m598232b57b" x="0" y="100.19625" style="fill: #8a2be2; fill-opacity: 0.2; stroke: #8a2be2; stroke-opacity: 0.2"/>
    </g>
   </g>
   <g id="matplotlib.axis_1">
    <g id="xtick_1">
     <g id="line2d_1">
      <defs>
       <path id="mf10ad749ef" d="M 0 0 
L 0 3.5 
" style="stroke: #000000; stroke-width: 0.8"/>
      </defs>
      <g>
       <use xlink:href="#mf10ad749ef" x="47.585795" y="62.64" style="stroke: #000000; stroke-width: 0.8"/>
      </g>
     </g>
     <g id="text_1">
      <!-- -30 -->
      <g transform="translate(39.419389 77.238438) scale(0.1 -0.1)">
       <defs>
        <path id="DejaVuSans-2d" d="M 313 2009 
L 1997 2009 
L 1997 1497 
L 313 1497 
L 313 2009 
z
" transform="scale(0.015625)"/>
        <path id="DejaVuSans-33" d="M 2597 2516 
Q 3050 2419 3304 2112 
Q 3559 1806 3559 1356 
Q 3559 666 3084 287 
Q 2609 -91 1734 -91 
Q 1441 -91 1130 -33 
Q 819 25 488 141 
L 488 750 
Q 750 597 1062 519 
Q 1375 441 1716 441 
Q 2309 441 2620 675 
Q 2931 909 2931 1356 
Q 2931 1769 2642 2001 
Q 2353 2234 1838 2234 
L 1294 2234 
L 1294 2753 
L 1863 2753 
Q 2328 2753 2575 2939 
Q 2822 3125 2822 3475 
Q 2822 3834 2567 4026 
Q 2313 4219 1838 4219 
Q 1578 4219 1281 4162 
Q 984 4106 628 3988 
L 628 4550 
Q 988 4650 1302 4700 
Q 1616 4750 1894 4750 
Q 2613 4750 3031 4423 
Q 3450 4097 3450 3541 
Q 3450 3153 3228 2886 
Q 3006 2619 2597 2516 
z
" transform="scale(0.015625)"/>
        <path id="DejaVuSans-30" d="M 2034 4250 
Q 1547 4250 1301 3770 
Q 1056 3291 1056 2328 
Q 1056 1369 1301 889 
Q 1547 409 2034 409 
Q 2525 409 2770 889 
Q 3016 1369 3016 2328 
Q 3016 3291 2770 3770 
Q 2525 4250 2034 4250 
z
M 2034 4750 
Q 2819 4750 3233 4129 
Q 3647 3509 3647 2328 
Q 3647 1150 3233 529 
Q 2819 -91 2034 -91 
Q 1250 -91 836 529 
Q 422 1150 422 2328 
Q 422 3509 836 4129 
Q 1250 4750 2034 4750 
z
" transform="scale(0.015625)"/>
       </defs>
       <use xlink:href="#DejaVuSans-2d"/>
       <use xlink:href="#DejaVuSans-33" x="36.083984"/>
       <use xlink:href="#DejaVuSans-30" x="99.707031"/>
      </g>
     </g>
    </g>
    <g id="xtick_2">
     <g id="line2d_2">
      <g>
       <use xlink:href="#mf10ad749ef" x="60.704918" y="62.64" style="stroke: #000000; stroke-width: 0.8"/>
      </g>
     </g>
     <g id="text_2">
      <!-- -25 -->
      <g transform="translate(52.538511 77.238438) scale(0.1 -0.1)">
       <defs>
        <path id="DejaVuSans-32" d="M 1228 531 
L 3431 531 
L 3431 0 
L 469 0 
L 469 531 
Q 828 903 1448 1529 
Q 2069 2156 2228 2338 
Q 2531 2678 2651 2914 
Q 2772 3150 2772 3378 
Q 2772 3750 2511 3984 
Q 2250 4219 1831 4219 
Q 1534 4219 1204 4116 
Q 875 4013 500 3803 
L 500 4441 
Q 881 4594 1212 4672 
Q 1544 4750 1819 4750 
Q 2544 4750 2975 4387 
Q 3406 4025 3406 3419 
Q 3406 3131 3298 2873 
Q 3191 2616 2906 2266 
Q 2828 2175 2409 1742 
Q 1991 1309 1228 531 
z
" transform="scale(0.015625)"/>
        <path id="DejaVuSans-35" d="M 691 4666 
L 3169 4666 
L 3169 4134 
L 1269 4134 
L 1269 2991 
Q 1406 3038 1543 3061 
Q 1681 3084 1819 3084 
Q 2600 3084 3056 2656 
Q 3513 2228 3513 1497 
Q 3513 744 3044 326 
Q 2575 -91 1722 -91 
Q 1428 -91 1123 -41 
Q 819 9 494 109 
L 494 744 
Q 775 591 1075 516 
Q 1375 441 1709 441 
Q 2250 441 2565 725 
Q 2881 1009 2881 1497 
Q 2881 1984 2565 2268 
Q 2250 2553 1709 2553 
Q 1456 2553 1204 2497 
Q 953 2441 691 2322 
L 691 4666 
z
" transform="scale(0.015625)"/>
       </defs>
       <use xlink:href="#DejaVuSans-2d"/>
       <use xlink:href="#DejaVuSans-32" x="36.083984"/>
       <use xlink:href="#DejaVuSans-35" x="99.707031"/>
      </g>
     </g>
    </g>
    <g id="xtick_3">
     <g id="line2d_3">
      <g>
       <use xlink:href="#mf10ad749ef" x="73.82404" y="62.64" style="stroke: #000000; stroke-width: 0.8"/>
      </g>
     </g>
     <g id="text_3">
      <!-- -20 -->
      <g transform="translate(65.657634 77.238438) scale(0.1 -0.1)">
       <use xlink:href="#DejaVuSans-2d"/>
       <use xlink:href="#DejaVuSans-32" x="36.083984"/>
       <use xlink:href="#DejaVuSans-30" x="99.707031"/>
      </g>
     </g>
    </g>
    <g id="xtick_4">
     <g id="line2d_4">
      <g>
       <use xlink:href="#mf10ad749ef" x="86.943162" y="62.64" style="stroke: #000000; stroke-width: 0.8"/>
      </g>
     </g>
     <g id="text_4">
      <!-- -15 -->
      <g transform="translate(78.776756 77.238438) scale(0.1 -0.1)">
       <defs>
        <path id="DejaVuSans-31" d="M 794 531 
L 1825 531 
L 1825 4091 
L 703 3866 
L 703 4441 
L 1819 4666 
L 2450 4666 
L 2450 531 
L 3481 531 
L 3481 0 
L 794 0 
L 794 531 
z
" transform="scale(0.015625)"/>
       </defs>
       <use xlink:href="#DejaVuSans-2d"/>
       <use xlink:href="#DejaVuSans-31" x="36.083984"/>
       <use xlink:href="#DejaVuSans-35" x="99.707031"/>
      </g>
     </g>
    </g>
    <g id="xtick_5">
     <g id="line2d_5">
      <g>
       <use xlink:href="#mf10ad749ef" x="100.062284" y="62.64" style="stroke: #000000; stroke-width: 0.8"/>
      </g>
     </g>
     <g id="text_5">
      <!-- -10 -->
      <g transform="translate(91.895878 77.238438) scale(0.1 -0.1)">
       <use xlink:href="#DejaVuSans-2d"/>
       <use xlink:href="#DejaVuSans-31" x="36.083984"/>
       <use xlink:href="#DejaVuSans-30" x="99.707031"/>
      </g>
     </g>
    </g>
    <g id="xtick_6">
     <g id="line2d_6">
      <g>
       <use xlink:href="#mf10ad749ef" x="113.181407" y="62.64" style="stroke: #000000; stroke-width: 0.8"/>
      </g>
     </g>
     <g id="text_6">
      <!-- -5 -->
      <g transform="translate(108.19625 77.238438) scale(0.1 -0.1)">
       <use xlink:href="#DejaVuSans-2d"/>
       <use xlink:href="#DejaVuSans-35" x="36.083984"/>
      </g>
     </g>
    </g>
    <g id="xtick_7">
     <g id="line2d_7">
      <g>
       <use xlink:href="#mf10ad749ef" x="126.300529" y="62.64" style="stroke: #000000; stroke-width: 0.8"/>
      </g>
     </g>
     <g id="text_7">
      <!-- 0 -->
      <g transform="translate(123.119279 77.238438) scale(0.1 -0.1)">
       <use xlink:href="#DejaVuSans-30"/>
      </g>
     </g>
    </g>
    <g id="text_8">
     <!-- Past Trials -->
     <g transform="translate(60.804688 90.916562) scale(0.1 -0.1)">
      <defs>
       <path id="DejaVuSans-50" d="M 1259 4147 
L 1259 2394 
L 2053 2394 
Q 2494 2394 2734 2622 
Q 2975 2850 2975 3272 
Q 2975 3691 2734 3919 
Q 2494 4147 2053 4147 
L 1259 4147 
z
M 628 4666 
L 2053 4666 
Q 2838 4666 3239 4311 
Q 3641 3956 3641 3272 
Q 3641 2581 3239 2228 
Q 2838 1875 2053 1875 
L 1259 1875 
L 1259 0 
L 628 0 
L 628 4666 
z
" transform="scale(0.015625)"/>
       <path id="DejaVuSans-61" d="M 2194 1759 
Q 1497 1759 1228 1600 
Q 959 1441 959 1056 
Q 959 750 1161 570 
Q 1363 391 1709 391 
Q 2188 391 2477 730 
Q 2766 1069 2766 1631 
L 2766 1759 
L 2194 1759 
z
M 3341 1997 
L 3341 0 
L 2766 0 
L 2766 531 
Q 2569 213 2275 61 
Q 1981 -91 1556 -91 
Q 1019 -91 701 211 
Q 384 513 384 1019 
Q 384 1609 779 1909 
Q 1175 2209 1959 2209 
L 2766 2209 
L 2766 2266 
Q 2766 2663 2505 2880 
Q 2244 3097 1772 3097 
Q 1472 3097 1187 3025 
Q 903 2953 641 2809 
L 641 3341 
Q 956 3463 1253 3523 
Q 1550 3584 1831 3584 
Q 2591 3584 2966 3190 
Q 3341 2797 3341 1997 
z
" transform="scale(0.015625)"/>
       <path id="DejaVuSans-73" d="M 2834 3397 
L 2834 2853 
Q 2591 2978 2328 3040 
Q 2066 3103 1784 3103 
Q 1356 3103 1142 2972 
Q 928 2841 928 2578 
Q 928 2378 1081 2264 
Q 1234 2150 1697 2047 
L 1894 2003 
Q 2506 1872 2764 1633 
Q 3022 1394 3022 966 
Q 3022 478 2636 193 
Q 2250 -91 1575 -91 
Q 1294 -91 989 -36 
Q 684 19 347 128 
L 347 722 
Q 666 556 975 473 
Q 1284 391 1588 391 
Q 1994 391 2212 530 
Q 2431 669 2431 922 
Q 2431 1156 2273 1281 
Q 2116 1406 1581 1522 
L 1381 1569 
Q 847 1681 609 1914 
Q 372 2147 372 2553 
Q 372 3047 722 3315 
Q 1072 3584 1716 3584 
Q 2034 3584 2315 3537 
Q 2597 3491 2834 3397 
z
" transform="scale(0.015625)"/>
       <path id="DejaVuSans-74" d="M 1172 4494 
L 1172 3500 
L 2356 3500 
L 2356 3053 
L 1172 3053 
L 1172 1153 
Q 1172 725 1289 603 
Q 1406 481 1766 481 
L 2356 481 
L 2356 0 
L 1766 0 
Q 1100 0 847 248 
Q 594 497 594 1153 
L 594 3053 
L 172 3053 
L 172 3500 
L 594 3500 
L 594 4494 
L 1172 4494 
z
" transform="scale(0.015625)"/>
       <path id="DejaVuSans-20" transform="scale(0.015625)"/>
       <path id="DejaVuSans-54" d="M -19 4666 
L 3928 4666 
L 3928 4134 
L 2272 4134 
L 2272 0 
L 1638 0 
L 1638 4134 
L -19 4134 
L -19 4666 
z
" transform="scale(0.015625)"/>
       <path id="DejaVuSans-72" d="M 2631 2963 
Q 2534 3019 2420 3045 
Q 2306 3072 2169 3072 
Q 1681 3072 1420 2755 
Q 1159 2438 1159 1844 
L 1159 0 
L 581 0 
L 581 3500 
L 1159 3500 
L 1159 2956 
Q 1341 3275 1631 3429 
Q 1922 3584 2338 3584 
Q 2397 3584 2469 3576 
Q 2541 3569 2628 3553 
L 2631 2963 
z
" transform="scale(0.015625)"/>
       <path id="DejaVuSans-69" d="M 603 3500 
L 1178 3500 
L 1178 0 
L 603 0 
L 603 3500 
z
M 603 4863 
L 1178 4863 
L 1178 4134 
L 603 4134 
L 603 4863 
z
" transform="scale(0.015625)"/>
       <path id="DejaVuSans-6c" d="M 603 4863 
L 1178 4863 
L 1178 0 
L 603 0 
L 603 4863 
z
" transform="scale(0.015625)"/>
      </defs>
      <use xlink:href="#DejaVuSans-50"/>
      <use xlink:href="#DejaVuSans-61" x="55.802734"/>
      <use xlink:href="#DejaVuSans-73" x="117.082031"/>
      <use xlink:href="#DejaVuSans-74" x="169.181641"/>
      <use xlink:href="#DejaVuSans-20" x="208.390625"/>
      <use xlink:href="#DejaVuSans-54" x="240.177734"/>
      <use xlink:href="#DejaVuSans-72" x="286.511719"/>
      <use xlink:href="#DejaVuSans-69" x="327.625"/>
      <use xlink:href="#DejaVuSans-61" x="355.408203"/>
      <use xlink:href="#DejaVuSans-6c" x="416.6875"/>
      <use xlink:href="#DejaVuSans-73" x="444.470703"/>
     </g>
    </g>
   </g>
   <g id="matplotlib.axis_2">
    <g id="ytick_1">
     <g id="line2d_8">
      <defs>
       <path id="m4b32bc69ff" d="M 0 0 
L -3.5 0 
" style="stroke: #000000; stroke-width: 0.8"/>
      </defs>
      <g>
       <use xlink:href="#m4b32bc69ff" x="43.78125" y="54.990506" style="stroke: #000000; stroke-width: 0.8"/>
      </g>
     </g>
     <g id="text_9">
      <!-- 0.0 -->
      <g transform="translate(20.878125 58.789725) scale(0.1 -0.1)">
       <defs>
        <path id="DejaVuSans-2e" d="M 684 794 
L 1344 794 
L 1344 0 
L 684 0 
L 684 794 
z
" transform="scale(0.015625)"/>
       </defs>
       <use xlink:href="#DejaVuSans-30"/>
       <use xlink:href="#DejaVuSans-2e" x="63.623047"/>
       <use xlink:href="#DejaVuSans-30" x="95.410156"/>
      </g>
     </g>
    </g>
    <g id="ytick_2">
     <g id="line2d_9">
      <g>
       <use xlink:href="#m4b32bc69ff" x="43.78125" y="19.881717" style="stroke: #000000; stroke-width: 0.8"/>
      </g>
     </g>
     <g id="text_10">
      <!-- 0.1 -->
      <g transform="translate(20.878125 23.680936) scale(0.1 -0.1)">
       <use xlink:href="#DejaVuSans-30"/>
       <use xlink:href="#DejaVuSans-2e" x="63.623047"/>
       <use xlink:href="#DejaVuSans-31" x="95.410156"/>
      </g>
     </g>
    </g>
    <g id="text_11">
     <!-- Choice Coefficient -->
     <g style="fill: #6a5acd" transform="translate(14.798438 80.323906) rotate(-90) scale(0.1 -0.1)">
      <defs>
       <path id="DejaVuSans-43" d="M 4122 4306 
L 4122 3641 
Q 3803 3938 3442 4084 
Q 3081 4231 2675 4231 
Q 1875 4231 1450 3742 
Q 1025 3253 1025 2328 
Q 1025 1406 1450 917 
Q 1875 428 2675 428 
Q 3081 428 3442 575 
Q 3803 722 4122 1019 
L 4122 359 
Q 3791 134 3420 21 
Q 3050 -91 2638 -91 
Q 1578 -91 968 557 
Q 359 1206 359 2328 
Q 359 3453 968 4101 
Q 1578 4750 2638 4750 
Q 3056 4750 3426 4639 
Q 3797 4528 4122 4306 
z
" transform="scale(0.015625)"/>
       <path id="DejaVuSans-68" d="M 3513 2113 
L 3513 0 
L 2938 0 
L 2938 2094 
Q 2938 2591 2744 2837 
Q 2550 3084 2163 3084 
Q 1697 3084 1428 2787 
Q 1159 2491 1159 1978 
L 1159 0 
L 581 0 
L 581 4863 
L 1159 4863 
L 1159 2956 
Q 1366 3272 1645 3428 
Q 1925 3584 2291 3584 
Q 2894 3584 3203 3211 
Q 3513 2838 3513 2113 
z
" transform="scale(0.015625)"/>
       <path id="DejaVuSans-6f" d="M 1959 3097 
Q 1497 3097 1228 2736 
Q 959 2375 959 1747 
Q 959 1119 1226 758 
Q 1494 397 1959 397 
Q 2419 397 2687 759 
Q 2956 1122 2956 1747 
Q 2956 2369 2687 2733 
Q 2419 3097 1959 3097 
z
M 1959 3584 
Q 2709 3584 3137 3096 
Q 3566 2609 3566 1747 
Q 3566 888 3137 398 
Q 2709 -91 1959 -91 
Q 1206 -91 779 398 
Q 353 888 353 1747 
Q 353 2609 779 3096 
Q 1206 3584 1959 3584 
z
" transform="scale(0.015625)"/>
       <path id="DejaVuSans-63" d="M 3122 3366 
L 3122 2828 
Q 2878 2963 2633 3030 
Q 2388 3097 2138 3097 
Q 1578 3097 1268 2742 
Q 959 2388 959 1747 
Q 959 1106 1268 751 
Q 1578 397 2138 397 
Q 2388 397 2633 464 
Q 2878 531 3122 666 
L 3122 134 
Q 2881 22 2623 -34 
Q 2366 -91 2075 -91 
Q 1284 -91 818 406 
Q 353 903 353 1747 
Q 353 2603 823 3093 
Q 1294 3584 2113 3584 
Q 2378 3584 2631 3529 
Q 2884 3475 3122 3366 
z
" transform="scale(0.015625)"/>
       <path id="DejaVuSans-65" d="M 3597 1894 
L 3597 1613 
L 953 1613 
Q 991 1019 1311 708 
Q 1631 397 2203 397 
Q 2534 397 2845 478 
Q 3156 559 3463 722 
L 3463 178 
Q 3153 47 2828 -22 
Q 2503 -91 2169 -91 
Q 1331 -91 842 396 
Q 353 884 353 1716 
Q 353 2575 817 3079 
Q 1281 3584 2069 3584 
Q 2775 3584 3186 3129 
Q 3597 2675 3597 1894 
z
M 3022 2063 
Q 3016 2534 2758 2815 
Q 2500 3097 2075 3097 
Q 1594 3097 1305 2825 
Q 1016 2553 972 2059 
L 3022 2063 
z
" transform="scale(0.015625)"/>
       <path id="DejaVuSans-66" d="M 2375 4863 
L 2375 4384 
L 1825 4384 
Q 1516 4384 1395 4259 
Q 1275 4134 1275 3809 
L 1275 3500 
L 2222 3500 
L 2222 3053 
L 1275 3053 
L 1275 0 
L 697 0 
L 697 3053 
L 147 3053 
L 147 3500 
L 697 3500 
L 697 3744 
Q 697 4328 969 4595 
Q 1241 4863 1831 4863 
L 2375 4863 
z
" transform="scale(0.015625)"/>
       <path id="DejaVuSans-6e" d="M 3513 2113 
L 3513 0 
L 2938 0 
L 2938 2094 
Q 2938 2591 2744 2837 
Q 2550 3084 2163 3084 
Q 1697 3084 1428 2787 
Q 1159 2491 1159 1978 
L 1159 0 
L 581 0 
L 581 3500 
L 1159 3500 
L 1159 2956 
Q 1366 3272 1645 3428 
Q 1925 3584 2291 3584 
Q 2894 3584 3203 3211 
Q 3513 2838 3513 2113 
z
" transform="scale(0.015625)"/>
      </defs>
      <use xlink:href="#DejaVuSans-43"/>
      <use xlink:href="#DejaVuSans-68" x="69.824219"/>
      <use xlink:href="#DejaVuSans-6f" x="133.203125"/>
      <use xlink:href="#DejaVuSans-69" x="194.384766"/>
      <use xlink:href="#DejaVuSans-63" x="222.167969"/>
      <use xlink:href="#DejaVuSans-65" x="277.148438"/>
      <use xlink:href="#DejaVuSans-20" x="338.671875"/>
      <use xlink:href="#DejaVuSans-43" x="370.458984"/>
      <use xlink:href="#DejaVuSans-6f" x="440.283203"/>
      <use xlink:href="#DejaVuSans-65" x="501.464844"/>
      <use xlink:href="#DejaVuSans-66" x="562.988281"/>
      <use xlink:href="#DejaVuSans-66" x="598.193359"/>
      <use xlink:href="#DejaVuSans-69" x="633.398438"/>
      <use xlink:href="#DejaVuSans-63" x="661.181641"/>
      <use xlink:href="#DejaVuSans-69" x="716.162109"/>
      <use xlink:href="#DejaVuSans-65" x="743.945312"/>
      <use xlink:href="#DejaVuSans-6e" x="805.46875"/>
      <use xlink:href="#DejaVuSans-74" x="868.847656"/>
     </g>
    </g>
   </g>
   <g id="line2d_10">
    <path d="M 47.585795 36.92275 
L 50.20962 41.872806 
L 52.833444 41.296157 
L 55.457269 38.971675 
L 58.081093 39.318412 
L 60.704918 39.428863 
L 63.328742 39.637359 
L 65.952567 37.04394 
L 68.576391 33.570913 
L 71.200216 36.394129 
L 73.82404 44.084675 
L 76.447864 34.288556 
L 79.071689 38.186481 
L 81.695513 36.798645 
L 84.319338 36.187508 
L 86.943162 42.695453 
L 89.566987 37.112115 
L 92.190811 39.242775 
L 94.814636 36.258761 
L 97.43846 40.390692 
L 100.062284 37.405886 
L 102.686109 36.542556 
L 105.309933 37.658552 
L 107.933758 29.691376 
L 110.557582 34.58418 
L 113.181407 38.049456 
L 115.805231 32.244472 
L 118.429056 35.966151 
L 121.05288 37.615642 
L 123.676705 30.371992 
" clip-path="url(#p000c522fac)" style="fill: none; stroke: #6a5acd; stroke-width: 1.5; stroke-linecap: square"/>
   </g>
   <g id="line2d_11">
    <path d="M 47.585795 34.340917 
L 50.20962 43.314445 
L 52.833444 35.764919 
L 55.457269 49.832856 
L 58.081093 46.170559 
L 60.704918 38.617656 
L 63.328742 44.719083 
L 65.952567 44.151209 
L 68.576391 43.643128 
L 71.200216 30.273763 
L 73.82404 43.397556 
L 76.447864 38.049033 
L 79.071689 43.502362 
L 81.695513 44.488912 
L 84.319338 38.106118 
L 86.943162 45.660713 
L 89.566987 40.46498 
L 92.190811 46.359043 
L 94.814636 41.549533 
L 97.43846 34.298656 
L 100.062284 41.095827 
L 102.686109 30.542863 
L 105.309933 44.049707 
L 107.933758 39.945693 
L 110.557582 28.658996 
L 113.181407 41.985596 
L 115.805231 39.24904 
L 118.429056 42.166584 
L 121.05288 32.008346 
L 123.676705 17.940387 
" clip-path="url(#p000c522fac)" style="fill: none; stroke: #8a2be2; stroke-width: 1.5; stroke-linecap: square"/>
   </g>
   <g id="patch_3">
    <path d="M 43.78125 62.64 
L 43.78125 7.2 
" style="fill: none; stroke: #000000; stroke-width: 0.8; stroke-linejoin: miter; stroke-linecap: square"/>
   </g>
   <g id="patch_4">
    <path d="M 127.48125 62.64 
L 127.48125 7.2 
" style="fill: none; stroke: #000000; stroke-width: 0.8; stroke-linejoin: miter; stroke-linecap: square"/>
   </g>
   <g id="patch_5">
    <path d="M 43.78125 62.64 
L 127.48125 62.64 
" style="fill: none; stroke: #000000; stroke-width: 0.8; stroke-linejoin: miter; stroke-linecap: square"/>
   </g>
  </g>
  <g id="axes_2">
   <g id="matplotlib.axis_3">
    <g id="ytick_3">
     <g id="line2d_12">
      <defs>
       <path id="m6545c85fad" d="M 0 0 
L 3.5 0 
" style="stroke: #000000; stroke-width: 0.8"/>
      </defs>
      <g>
       <use xlink:href="#m6545c85fad" x="127.48125" y="48.050526" style="stroke: #000000; stroke-width: 0.8"/>
      </g>
     </g>
     <g id="text_12">
      <!-- 0 -->
      <g transform="translate(134.48125 51.849745) scale(0.1 -0.1)">
       <use xlink:href="#DejaVuSans-30"/>
      </g>
     </g>
    </g>
    <g id="ytick_4">
     <g id="line2d_13">
      <g>
       <use xlink:href="#m6545c85fad" x="127.48125" y="18.871579" style="stroke: #000000; stroke-width: 0.8"/>
      </g>
     </g>
     <g id="text_13">
      <!-- 10 -->
      <g transform="translate(134.48125 22.670798) scale(0.1 -0.1)">
       <use xlink:href="#DejaVuSans-31"/>
       <use xlink:href="#DejaVuSans-30" x="63.623047"/>
      </g>
     </g>
    </g>
    <g id="text_14">
     <!-- Effect of Trial Rapidity -->
     <g transform="translate(158.804688 89.658281) rotate(-90) scale(0.1 -0.1)">
      <defs>
       <path id="DejaVuSans-45" d="M 628 4666 
L 3578 4666 
L 3578 4134 
L 1259 4134 
L 1259 2753 
L 3481 2753 
L 3481 2222 
L 1259 2222 
L 1259 531 
L 3634 531 
L 3634 0 
L 628 0 
L 628 4666 
z
" transform="scale(0.015625)"/>
       <path id="DejaVuSans-52" d="M 2841 2188 
Q 3044 2119 3236 1894 
Q 3428 1669 3622 1275 
L 4263 0 
L 3584 0 
L 2988 1197 
Q 2756 1666 2539 1819 
Q 2322 1972 1947 1972 
L 1259 1972 
L 1259 0 
L 628 0 
L 628 4666 
L 2053 4666 
Q 2853 4666 3247 4331 
Q 3641 3997 3641 3322 
Q 3641 2881 3436 2590 
Q 3231 2300 2841 2188 
z
M 1259 4147 
L 1259 2491 
L 2053 2491 
Q 2509 2491 2742 2702 
Q 2975 2913 2975 3322 
Q 2975 3731 2742 3939 
Q 2509 4147 2053 4147 
L 1259 4147 
z
" transform="scale(0.015625)"/>
       <path id="DejaVuSans-70" d="M 1159 525 
L 1159 -1331 
L 581 -1331 
L 581 3500 
L 1159 3500 
L 1159 2969 
Q 1341 3281 1617 3432 
Q 1894 3584 2278 3584 
Q 2916 3584 3314 3078 
Q 3713 2572 3713 1747 
Q 3713 922 3314 415 
Q 2916 -91 2278 -91 
Q 1894 -91 1617 61 
Q 1341 213 1159 525 
z
M 3116 1747 
Q 3116 2381 2855 2742 
Q 2594 3103 2138 3103 
Q 1681 3103 1420 2742 
Q 1159 2381 1159 1747 
Q 1159 1113 1420 752 
Q 1681 391 2138 391 
Q 2594 391 2855 752 
Q 3116 1113 3116 1747 
z
" transform="scale(0.015625)"/>
       <path id="DejaVuSans-64" d="M 2906 2969 
L 2906 4863 
L 3481 4863 
L 3481 0 
L 2906 0 
L 2906 525 
Q 2725 213 2448 61 
Q 2172 -91 1784 -91 
Q 1150 -91 751 415 
Q 353 922 353 1747 
Q 353 2572 751 3078 
Q 1150 3584 1784 3584 
Q 2172 3584 2448 3432 
Q 2725 3281 2906 2969 
z
M 947 1747 
Q 947 1113 1208 752 
Q 1469 391 1925 391 
Q 2381 391 2643 752 
Q 2906 1113 2906 1747 
Q 2906 2381 2643 2742 
Q 2381 3103 1925 3103 
Q 1469 3103 1208 2742 
Q 947 2381 947 1747 
z
" transform="scale(0.015625)"/>
       <path id="DejaVuSans-79" d="M 2059 -325 
Q 1816 -950 1584 -1140 
Q 1353 -1331 966 -1331 
L 506 -1331 
L 506 -850 
L 844 -850 
Q 1081 -850 1212 -737 
Q 1344 -625 1503 -206 
L 1606 56 
L 191 3500 
L 800 3500 
L 1894 763 
L 2988 3500 
L 3597 3500 
L 2059 -325 
z
" transform="scale(0.015625)"/>
      </defs>
      <use xlink:href="#DejaVuSans-45"/>
      <use xlink:href="#DejaVuSans-66" x="63.183594"/>
      <use xlink:href="#DejaVuSans-66" x="98.388672"/>
      <use xlink:href="#DejaVuSans-65" x="133.59375"/>
      <use xlink:href="#DejaVuSans-63" x="195.117188"/>
      <use xlink:href="#DejaVuSans-74" x="250.097656"/>
      <use xlink:href="#DejaVuSans-20" x="289.306641"/>
      <use xlink:href="#DejaVuSans-6f" x="321.09375"/>
      <use xlink:href="#DejaVuSans-66" x="382.275391"/>
      <use xlink:href="#DejaVuSans-20" x="417.480469"/>
      <use xlink:href="#DejaVuSans-54" x="449.267578"/>
      <use xlink:href="#DejaVuSans-72" x="495.601562"/>
      <use xlink:href="#DejaVuSans-69" x="536.714844"/>
      <use xlink:href="#DejaVuSans-61" x="564.498047"/>
      <use xlink:href="#DejaVuSans-6c" x="625.777344"/>
      <use xlink:href="#DejaVuSans-20" x="653.560547"/>
      <use xlink:href="#DejaVuSans-52" x="685.347656"/>
      <use xlink:href="#DejaVuSans-61" x="752.580078"/>
      <use xlink:href="#DejaVuSans-70" x="813.859375"/>
      <use xlink:href="#DejaVuSans-69" x="877.335938"/>
      <use xlink:href="#DejaVuSans-64" x="905.119141"/>
      <use xlink:href="#DejaVuSans-69" x="968.595703"/>
      <use xlink:href="#DejaVuSans-74" x="996.378906"/>
      <use xlink:href="#DejaVuSans-79" x="1035.587891"/>
     </g>
     <!-- (Fast - Slow) -->
     <g transform="translate(170.0025 65.56375) rotate(-90) scale(0.1 -0.1)">
      <defs>
       <path id="DejaVuSans-28" d="M 1984 4856 
Q 1566 4138 1362 3434 
Q 1159 2731 1159 2009 
Q 1159 1288 1364 580 
Q 1569 -128 1984 -844 
L 1484 -844 
Q 1016 -109 783 600 
Q 550 1309 550 2009 
Q 550 2706 781 3412 
Q 1013 4119 1484 4856 
L 1984 4856 
z
" transform="scale(0.015625)"/>
       <path id="DejaVuSans-46" d="M 628 4666 
L 3309 4666 
L 3309 4134 
L 1259 4134 
L 1259 2759 
L 3109 2759 
L 3109 2228 
L 1259 2228 
L 1259 0 
L 628 0 
L 628 4666 
z
" transform="scale(0.015625)"/>
       <path id="DejaVuSans-53" d="M 3425 4513 
L 3425 3897 
Q 3066 4069 2747 4153 
Q 2428 4238 2131 4238 
Q 1616 4238 1336 4038 
Q 1056 3838 1056 3469 
Q 1056 3159 1242 3001 
Q 1428 2844 1947 2747 
L 2328 2669 
Q 3034 2534 3370 2195 
Q 3706 1856 3706 1288 
Q 3706 609 3251 259 
Q 2797 -91 1919 -91 
Q 1588 -91 1214 -16 
Q 841 59 441 206 
L 441 856 
Q 825 641 1194 531 
Q 1563 422 1919 422 
Q 2459 422 2753 634 
Q 3047 847 3047 1241 
Q 3047 1584 2836 1778 
Q 2625 1972 2144 2069 
L 1759 2144 
Q 1053 2284 737 2584 
Q 422 2884 422 3419 
Q 422 4038 858 4394 
Q 1294 4750 2059 4750 
Q 2388 4750 2728 4690 
Q 3069 4631 3425 4513 
z
" transform="scale(0.015625)"/>
       <path id="DejaVuSans-77" d="M 269 3500 
L 844 3500 
L 1563 769 
L 2278 3500 
L 2956 3500 
L 3675 769 
L 4391 3500 
L 4966 3500 
L 4050 0 
L 3372 0 
L 2619 2869 
L 1863 0 
L 1184 0 
L 269 3500 
z
" transform="scale(0.015625)"/>
       <path id="DejaVuSans-29" d="M 513 4856 
L 1013 4856 
Q 1481 4119 1714 3412 
Q 1947 2706 1947 2009 
Q 1947 1309 1714 600 
Q 1481 -109 1013 -844 
L 513 -844 
Q 928 -128 1133 580 
Q 1338 1288 1338 2009 
Q 1338 2731 1133 3434 
Q 928 4138 513 4856 
z
" transform="scale(0.015625)"/>
      </defs>
      <use xlink:href="#DejaVuSans-28"/>
      <use xlink:href="#DejaVuSans-46" x="39.013672"/>
      <use xlink:href="#DejaVuSans-61" x="87.408203"/>
      <use xlink:href="#DejaVuSans-73" x="148.6875"/>
      <use xlink:href="#DejaVuSans-74" x="200.787109"/>
      <use xlink:href="#DejaVuSans-20" x="239.996094"/>
      <use xlink:href="#DejaVuSans-2d" x="271.783203"/>
      <use xlink:href="#DejaVuSans-20" x="307.867188"/>
      <use xlink:href="#DejaVuSans-53" x="339.654297"/>
      <use xlink:href="#DejaVuSans-6c" x="403.130859"/>
      <use xlink:href="#DejaVuSans-6f" x="430.914062"/>
      <use xlink:href="#DejaVuSans-77" x="492.095703"/>
      <use xlink:href="#DejaVuSans-29" x="573.882812"/>
     </g>
    </g>
   </g>
   <g id="line2d_14">
    <path d="M 47.585795 49.880945 
L 50.20962 47.104973 
L 52.833444 51.514874 
L 55.457269 40.554495 
L 58.081093 43.15567 
L 60.704918 48.538548 
L 63.328742 44.576011 
L 65.952567 43.23835 
L 68.576391 41.195733 
L 71.200216 52.550576 
L 73.82404 48.50622 
L 76.447864 45.352959 
L 79.071689 44.811139 
L 81.695513 42.175536 
L 84.319338 46.629389 
L 86.943162 45.949946 
L 89.566987 45.502389 
L 92.190811 42.292121 
L 94.814636 43.937952 
L 97.43846 52.555939 
L 100.062284 45.432349 
L 102.686109 52.934431 
L 105.309933 43.301197 
L 107.933758 39.754505 
L 110.557582 52.456669 
L 113.181407 44.740767 
L 115.805231 42.732375 
L 118.429056 43.240198 
L 121.05288 52.108103 
L 123.676705 55.674581 
" clip-path="url(#p000c522fac)" style="fill: none; stroke: #000000; stroke-linecap: square"/>
   </g>
   <g id="patch_6">
    <path d="M 43.78125 62.64 
L 43.78125 7.2 
" style="fill: none; stroke: #000000; stroke-width: 0.8; stroke-linejoin: miter; stroke-linecap: square"/>
   </g>
   <g id="patch_7">
    <path d="M 127.48125 62.64 
L 127.48125 7.2 
" style="fill: none; stroke: #000000; stroke-width: 0.8; stroke-linejoin: miter; stroke-linecap: square"/>
   </g>
   <g id="patch_8">
    <path d="M 43.78125 62.64 
L 127.48125 62.64 
" style="fill: none; stroke: #000000; stroke-width: 0.8; stroke-linejoin: miter; stroke-linecap: square"/>
   </g>
   <g id="PathCollection_1">
    <path d="M 47.585795 49.880945 
L 47.585795 49.880945 
L 47.585795 49.880945 
L 47.585795 49.880945 
L 47.585795 49.880945 
L 47.585795 49.880945 
L 47.585795 49.880945 
L 47.585795 49.880945 
L 47.585795 49.880945 
L 47.585795 49.880945 
z
" clip-path="url(#p000c522fac)" style="stroke: #000000"/>
    <path d="M 50.20962 47.104973 
L 50.20962 47.104973 
L 50.20962 47.104973 
L 50.20962 47.104973 
L 50.20962 47.104973 
L 50.20962 47.104973 
L 50.20962 47.104973 
L 50.20962 47.104973 
L 50.20962 47.104973 
L 50.20962 47.104973 
z
" clip-path="url(#p000c522fac)" style="stroke: #000000"/>
    <path d="M 52.833444 51.514874 
L 52.833444 51.514874 
L 52.833444 51.514874 
L 52.833444 51.514874 
L 52.833444 51.514874 
L 52.833444 51.514874 
L 52.833444 51.514874 
L 52.833444 51.514874 
L 52.833444 51.514874 
L 52.833444 51.514874 
z
" clip-path="url(#p000c522fac)" style="stroke: #000000"/>
    <path d="M 55.457269 38.318427 
L 54.95524 39.863512 
L 53.330642 39.863512 
L 54.64497 40.818427 
L 54.142941 42.363512 
L 55.457269 41.408597 
L 56.771597 42.363512 
L 56.269568 40.818427 
L 57.583896 39.863512 
L 55.959297 39.863512 
z
" clip-path="url(#p000c522fac)" style="stroke: #000000"/>
    <path d="M 58.081093 43.15567 
L 58.081093 43.15567 
L 58.081093 43.15567 
L 58.081093 43.15567 
L 58.081093 43.15567 
L 58.081093 43.15567 
L 58.081093 43.15567 
L 58.081093 43.15567 
L 58.081093 43.15567 
L 58.081093 43.15567 
z
" clip-path="url(#p000c522fac)" style="stroke: #000000"/>
    <path d="M 60.704918 48.538548 
L 60.704918 48.538548 
L 60.704918 48.538548 
L 60.704918 48.538548 
L 60.704918 48.538548 
L 60.704918 48.538548 
L 60.704918 48.538548 
L 60.704918 48.538548 
L 60.704918 48.538548 
L 60.704918 48.538548 
z
" clip-path="url(#p000c522fac)" style="stroke: #000000"/>
    <path d="M 63.328742 44.576011 
L 63.328742 44.576011 
L 63.328742 44.576011 
L 63.328742 44.576011 
L 63.328742 44.576011 
L 63.328742 44.576011 
L 63.328742 44.576011 
L 63.328742 44.576011 
L 63.328742 44.576011 
L 63.328742 44.576011 
z
" clip-path="url(#p000c522fac)" style="stroke: #000000"/>
    <path d="M 65.952567 43.23835 
L 65.952567 43.23835 
L 65.952567 43.23835 
L 65.952567 43.23835 
L 65.952567 43.23835 
L 65.952567 43.23835 
L 65.952567 43.23835 
L 65.952567 43.23835 
L 65.952567 43.23835 
L 65.952567 43.23835 
z
" clip-path="url(#p000c522fac)" style="stroke: #000000"/>
    <path d="M 68.576391 38.959665 
L 68.074363 40.50475 
L 66.449764 40.50475 
L 67.764092 41.459665 
L 67.262063 43.00475 
L 68.576391 42.049835 
L 69.890719 43.00475 
L 69.38869 41.459665 
L 70.703018 40.50475 
L 69.07842 40.50475 
z
" clip-path="url(#p000c522fac)" style="stroke: #000000"/>
    <path d="M 71.200216 52.550576 
L 71.200216 52.550576 
L 71.200216 52.550576 
L 71.200216 52.550576 
L 71.200216 52.550576 
L 71.200216 52.550576 
L 71.200216 52.550576 
L 71.200216 52.550576 
L 71.200216 52.550576 
L 71.200216 52.550576 
z
" clip-path="url(#p000c522fac)" style="stroke: #000000"/>
    <path d="M 73.82404 48.50622 
L 73.82404 48.50622 
L 73.82404 48.50622 
L 73.82404 48.50622 
L 73.82404 48.50622 
L 73.82404 48.50622 
L 73.82404 48.50622 
L 73.82404 48.50622 
L 73.82404 48.50622 
L 73.82404 48.50622 
z
" clip-path="url(#p000c522fac)" style="stroke: #000000"/>
    <path d="M 76.447864 45.352959 
L 76.447864 45.352959 
L 76.447864 45.352959 
L 76.447864 45.352959 
L 76.447864 45.352959 
L 76.447864 45.352959 
L 76.447864 45.352959 
L 76.447864 45.352959 
L 76.447864 45.352959 
L 76.447864 45.352959 
z
" clip-path="url(#p000c522fac)" style="stroke: #000000"/>
    <path d="M 79.071689 44.811139 
L 79.071689 44.811139 
L 79.071689 44.811139 
L 79.071689 44.811139 
L 79.071689 44.811139 
L 79.071689 44.811139 
L 79.071689 44.811139 
L 79.071689 44.811139 
L 79.071689 44.811139 
L 79.071689 44.811139 
z
" clip-path="url(#p000c522fac)" style="stroke: #000000"/>
    <path d="M 81.695513 39.939468 
L 81.193485 41.484553 
L 79.568886 41.484553 
L 80.883214 42.439468 
L 80.381186 43.984553 
L 81.695513 43.029638 
L 83.009841 43.984553 
L 82.507813 42.439468 
L 83.82214 41.484553 
L 82.197542 41.484553 
z
" clip-path="url(#p000c522fac)" style="stroke: #000000"/>
    <path d="M 84.319338 46.629389 
L 84.319338 46.629389 
L 84.319338 46.629389 
L 84.319338 46.629389 
L 84.319338 46.629389 
L 84.319338 46.629389 
L 84.319338 46.629389 
L 84.319338 46.629389 
L 84.319338 46.629389 
L 84.319338 46.629389 
z
" clip-path="url(#p000c522fac)" style="stroke: #000000"/>
    <path d="M 86.943162 45.949946 
L 86.943162 45.949946 
L 86.943162 45.949946 
L 86.943162 45.949946 
L 86.943162 45.949946 
L 86.943162 45.949946 
L 86.943162 45.949946 
L 86.943162 45.949946 
L 86.943162 45.949946 
L 86.943162 45.949946 
z
" clip-path="url(#p000c522fac)" style="stroke: #000000"/>
    <path d="M 89.566987 45.502389 
L 89.566987 45.502389 
L 89.566987 45.502389 
L 89.566987 45.502389 
L 89.566987 45.502389 
L 89.566987 45.502389 
L 89.566987 45.502389 
L 89.566987 45.502389 
L 89.566987 45.502389 
L 89.566987 45.502389 
z
" clip-path="url(#p000c522fac)" style="stroke: #000000"/>
    <path d="M 92.190811 42.292121 
L 92.190811 42.292121 
L 92.190811 42.292121 
L 92.190811 42.292121 
L 92.190811 42.292121 
L 92.190811 42.292121 
L 92.190811 42.292121 
L 92.190811 42.292121 
L 92.190811 42.292121 
L 92.190811 42.292121 
z
" clip-path="url(#p000c522fac)" style="stroke: #000000"/>
    <path d="M 94.814636 43.937952 
L 94.814636 43.937952 
L 94.814636 43.937952 
L 94.814636 43.937952 
L 94.814636 43.937952 
L 94.814636 43.937952 
L 94.814636 43.937952 
L 94.814636 43.937952 
L 94.814636 43.937952 
L 94.814636 43.937952 
z
" clip-path="url(#p000c522fac)" style="stroke: #000000"/>
    <path d="M 97.43846 52.555939 
L 97.43846 52.555939 
L 97.43846 52.555939 
L 97.43846 52.555939 
L 97.43846 52.555939 
L 97.43846 52.555939 
L 97.43846 52.555939 
L 97.43846 52.555939 
L 97.43846 52.555939 
L 97.43846 52.555939 
z
" clip-path="url(#p000c522fac)" style="stroke: #000000"/>
    <path d="M 100.062284 45.432349 
L 100.062284 45.432349 
L 100.062284 45.432349 
L 100.062284 45.432349 
L 100.062284 45.432349 
L 100.062284 45.432349 
L 100.062284 45.432349 
L 100.062284 45.432349 
L 100.062284 45.432349 
L 100.062284 45.432349 
z
" clip-path="url(#p000c522fac)" style="stroke: #000000"/>
    <path d="M 102.686109 52.934431 
L 102.686109 52.934431 
L 102.686109 52.934431 
L 102.686109 52.934431 
L 102.686109 52.934431 
L 102.686109 52.934431 
L 102.686109 52.934431 
L 102.686109 52.934431 
L 102.686109 52.934431 
L 102.686109 52.934431 
z
" clip-path="url(#p000c522fac)" style="stroke: #000000"/>
    <path d="M 105.309933 43.301197 
L 105.309933 43.301197 
L 105.309933 43.301197 
L 105.309933 43.301197 
L 105.309933 43.301197 
L 105.309933 43.301197 
L 105.309933 43.301197 
L 105.309933 43.301197 
L 105.309933 43.301197 
L 105.309933 43.301197 
z
" clip-path="url(#p000c522fac)" style="stroke: #000000"/>
    <path d="M 107.933758 37.518437 
L 107.431729 39.063522 
L 105.807131 39.063522 
L 107.121459 40.018437 
L 106.61943 41.563522 
L 107.933758 40.608607 
L 109.248086 41.563522 
L 108.746057 40.018437 
L 110.060385 39.063522 
L 108.435786 39.063522 
z
" clip-path="url(#p000c522fac)" style="stroke: #000000"/>
    <path d="M 110.557582 52.456669 
L 110.557582 52.456669 
L 110.557582 52.456669 
L 110.557582 52.456669 
L 110.557582 52.456669 
L 110.557582 52.456669 
L 110.557582 52.456669 
L 110.557582 52.456669 
L 110.557582 52.456669 
L 110.557582 52.456669 
z
" clip-path="url(#p000c522fac)" style="stroke: #000000"/>
    <path d="M 113.181407 44.740767 
L 113.181407 44.740767 
L 113.181407 44.740767 
L 113.181407 44.740767 
L 113.181407 44.740767 
L 113.181407 44.740767 
L 113.181407 44.740767 
L 113.181407 44.740767 
L 113.181407 44.740767 
L 113.181407 44.740767 
z
" clip-path="url(#p000c522fac)" style="stroke: #000000"/>
    <path d="M 115.805231 42.732375 
L 115.805231 42.732375 
L 115.805231 42.732375 
L 115.805231 42.732375 
L 115.805231 42.732375 
L 115.805231 42.732375 
L 115.805231 42.732375 
L 115.805231 42.732375 
L 115.805231 42.732375 
L 115.805231 42.732375 
z
" clip-path="url(#p000c522fac)" style="stroke: #000000"/>
    <path d="M 118.429056 43.240198 
L 118.429056 43.240198 
L 118.429056 43.240198 
L 118.429056 43.240198 
L 118.429056 43.240198 
L 118.429056 43.240198 
L 118.429056 43.240198 
L 118.429056 43.240198 
L 118.429056 43.240198 
L 118.429056 43.240198 
z
" clip-path="url(#p000c522fac)" style="stroke: #000000"/>
    <path d="M 121.05288 52.108103 
L 121.05288 52.108103 
L 121.05288 52.108103 
L 121.05288 52.108103 
L 121.05288 52.108103 
L 121.05288 52.108103 
L 121.05288 52.108103 
L 121.05288 52.108103 
L 121.05288 52.108103 
L 121.05288 52.108103 
z
" clip-path="url(#p000c522fac)" style="stroke: #000000"/>
    <path d="M 123.676705 53.438513 
L 123.174676 54.983598 
L 121.550078 54.983598 
L 122.864405 55.938513 
L 122.362377 57.483598 
L 123.676705 56.528683 
L 124.991032 57.483598 
L 124.489004 55.938513 
L 125.803332 54.983598 
L 124.178733 54.983598 
z
" clip-path="url(#p000c522fac)" style="stroke: #000000"/>
   </g>
  </g>
 </g>
 <defs>
  <clipPath id="p000c522fac">
   <rect x="43.78125" y="7.2" width="83.7" height="55.44"/>
  </clipPath>
 </defs>
</svg>
