<?xml version="1.0" encoding="utf-8" standalone="no"?>
<!DOCTYPE svg PUBLIC "-//W3C//DTD SVG 1.1//EN"
  "http://www.w3.org/Graphics/SVG/1.1/DTD/svg11.dtd">
<svg xmlns:xlink="http://www.w3.org/1999/xlink" width="173.245313pt" height="100.19625pt" viewBox="0 0 173.245313 100.19625" xmlns="http://www.w3.org/2000/svg" version="1.1">
 <metadata>
  <rdf:RDF xmlns:dc="http://purl.org/dc/elements/1.1/" xmlns:cc="http://creativecommons.org/ns#" xmlns:rdf="http://www.w3.org/1999/02/22-rdf-syntax-ns#">
   <cc:Work>
    <dc:type rdf:resource="http://purl.org/dc/dcmitype/StillImage"/>
    <dc:date>2024-02-17T07:34:19.001750</dc:date>
    <dc:format>image/svg+xml</dc:format>
    <dc:creator>
     <cc:Agent>
      <dc:title>Matplotlib v3.7.2, https://matplotlib.org/</dc:title>
     </cc:Agent>
    </dc:creator>
   </cc:Work>
  </rdf:RDF>
 </metadata>
 <defs>
  <style type="text/css">*{stroke-linejoin: round; stroke-linecap: butt}</style>
 </defs>
 <g id="figure_1">
  <g id="patch_1">
   <path d="M -0 100.19625 
L 173.245313 100.19625 
L 173.245313 0 
L -0 0 
L -0 100.19625 
z
" style="fill: none"/>
  </g>
  <g id="axes_1">
   <g id="patch_2">
    <path d="M 42.620313 62.64 
L 126.320313 62.64 
L 126.320313 7.2 
L 42.620313 7.2 
L 42.620313 62.64 
z
" style="fill: none"/>
   </g>
   <g id="PolyCollection_1">
    <defs>
     <path id="m80fbc6d34b" d="M 46.424858 -68.922236 
L 46.424858 -51.820838 
L 49.048682 -45.44206 
L 51.672507 -51.628982 
L 54.296331 -53.251106 
L 56.920156 -54.760596 
L 59.54398 -53.603117 
L 62.167805 -50.891127 
L 64.791629 -53.993284 
L 67.415454 -55.110795 
L 70.039278 -57.931558 
L 72.663102 -43.373826 
L 75.286927 -62.033977 
L 77.910751 -46.268812 
L 80.534576 -50.347051 
L 83.1584 -52.436858 
L 85.782225 -41.166494 
L 88.406049 -50.099836 
L 91.029874 -48.467987 
L 93.653698 -53.564623 
L 96.277523 -57.712738 
L 98.901347 -43.925179 
L 101.525171 -53.313744 
L 104.148996 -50.684082 
L 106.77282 -61.572477 
L 109.396645 -51.772711 
L 112.020469 -50.892952 
L 114.644294 -57.984282 
L 117.268118 -49.015613 
L 119.891943 -53.08802 
L 122.515767 -67.712048 
L 122.515767 -90.47625 
L 122.515767 -90.47625 
L 119.891943 -71.332899 
L 117.268118 -70.533125 
L 114.644294 -74.064758 
L 112.020469 -68.348694 
L 109.396645 -68.006481 
L 106.77282 -74.742102 
L 104.148996 -66.834777 
L 101.525171 -69.181838 
L 98.901347 -61.754681 
L 96.277523 -73.453099 
L 93.653698 -69.434925 
L 91.029874 -64.316785 
L 88.406049 -65.760049 
L 85.782225 -57.503472 
L 83.1584 -70.231261 
L 80.534576 -66.407245 
L 77.910751 -62.799361 
L 75.286927 -80.343056 
L 72.663102 -63.03599 
L 70.039278 -74.453581 
L 67.415454 -72.055784 
L 64.791629 -71.170351 
L 62.167805 -70.178387 
L 59.54398 -68.02304 
L 56.920156 -72.729352 
L 54.296331 -65.074317 
L 51.672507 -70.782134 
L 49.048682 -65.934449 
L 46.424858 -68.922236 
z
" style="stroke: #6a5acd; stroke-opacity: 0.2"/>
    </defs>
    <g clip-path="url(#pa67ae4283b)">
     <use xlink:href="#m80fbc6d34b" x="0" y="100.19625" style="fill: #6a5acd; fill-opacity: 0.2; stroke: #6a5acd; stroke-opacity: 0.2"/>
    </g>
   </g>
   <g id="PolyCollection_2">
    <defs>
     <path id="mb1b10bc5de" d="M 46.424858 -75.856746 
L 46.424858 -61.055862 
L 49.048682 -50.959468 
L 51.672507 -53.772685 
L 54.296331 -44.983506 
L 56.920156 -49.186979 
L 59.54398 -49.463313 
L 62.167805 -50.702152 
L 64.791629 -43.048851 
L 67.415454 -47.268249 
L 70.039278 -54.888059 
L 72.663102 -50.559807 
L 75.286927 -50.244512 
L 77.910751 -54.594322 
L 80.534576 -46.860797 
L 83.1584 -46.16181 
L 85.782225 -44.365696 
L 88.406049 -55.775823 
L 91.029874 -48.120173 
L 93.653698 -47.415502 
L 96.277523 -42.465261 
L 98.901347 -40.07625 
L 101.525171 -55.58113 
L 104.148996 -43.623842 
L 106.77282 -46.594211 
L 109.396645 -54.679848 
L 112.020469 -44.277637 
L 114.644294 -51.785153 
L 117.268118 -47.757112 
L 119.891943 -51.269474 
L 122.515767 -57.124453 
L 122.515767 -78.005944 
L 122.515767 -78.005944 
L 119.891943 -69.257261 
L 117.268118 -65.647324 
L 114.644294 -68.667874 
L 112.020469 -61.614395 
L 109.396645 -70.437832 
L 106.77282 -60.99559 
L 104.148996 -61.763252 
L 101.525171 -71.297213 
L 98.901347 -56.961492 
L 96.277523 -59.386275 
L 93.653698 -63.63314 
L 91.029874 -61.236374 
L 88.406049 -70.04477 
L 85.782225 -58.767364 
L 83.1584 -64.464583 
L 80.534576 -63.520613 
L 77.910751 -72.602713 
L 75.286927 -71.212222 
L 72.663102 -67.448189 
L 70.039278 -69.298402 
L 67.415454 -66.704311 
L 64.791629 -64.721342 
L 62.167805 -69.228015 
L 59.54398 -66.224803 
L 56.920156 -66.121092 
L 54.296331 -58.638914 
L 51.672507 -71.580399 
L 49.048682 -68.909755 
L 46.424858 -75.856746 
z
" style="stroke: #8a2be2; stroke-opacity: 0.2"/>
    </defs>
    <g clip-path="url(#pa67ae4283b)">
     <use xlink:href="#mb1b10bc5de" x="0" y="100.19625" style="fill: #8a2be2; fill-opacity: 0.2; stroke: #8a2be2; stroke-opacity: 0.2"/>
    </g>
   </g>
   <g id="matplotlib.axis_1">
    <g id="xtick_1">
     <g id="line2d_1">
      <defs>
       <path id="md1c0edf228" d="M 0 0 
L 0 3.5 
" style="stroke: #ffffff; stroke-width: 0.8"/>
      </defs>
      <g>
       <use xlink:href="#md1c0edf228" x="46.424858" y="62.64" style="fill: #ffffff; stroke: #ffffff; stroke-width: 0.8"/>
      </g>
     </g>
     <g id="text_1">
      <!-- -30 -->
      <g style="fill: #ffffff" transform="translate(38.258452 77.238438) scale(0.1 -0.1)">
       <defs>
        <path id="DejaVuSans-2d" d="M 313 2009 
L 1997 2009 
L 1997 1497 
L 313 1497 
L 313 2009 
z
" transform="scale(0.015625)"/>
        <path id="DejaVuSans-33" d="M 2597 2516 
Q 3050 2419 3304 2112 
Q 3559 1806 3559 1356 
Q 3559 666 3084 287 
Q 2609 -91 1734 -91 
Q 1441 -91 1130 -33 
Q 819 25 488 141 
L 488 750 
Q 750 597 1062 519 
Q 1375 441 1716 441 
Q 2309 441 2620 675 
Q 2931 909 2931 1356 
Q 2931 1769 2642 2001 
Q 2353 2234 1838 2234 
L 1294 2234 
L 1294 2753 
L 1863 2753 
Q 2328 2753 2575 2939 
Q 2822 3125 2822 3475 
Q 2822 3834 2567 4026 
Q 2313 4219 1838 4219 
Q 1578 4219 1281 4162 
Q 984 4106 628 3988 
L 628 4550 
Q 988 4650 1302 4700 
Q 1616 4750 1894 4750 
Q 2613 4750 3031 4423 
Q 3450 4097 3450 3541 
Q 3450 3153 3228 2886 
Q 3006 2619 2597 2516 
z
" transform="scale(0.015625)"/>
        <path id="DejaVuSans-30" d="M 2034 4250 
Q 1547 4250 1301 3770 
Q 1056 3291 1056 2328 
Q 1056 1369 1301 889 
Q 1547 409 2034 409 
Q 2525 409 2770 889 
Q 3016 1369 3016 2328 
Q 3016 3291 2770 3770 
Q 2525 4250 2034 4250 
z
M 2034 4750 
Q 2819 4750 3233 4129 
Q 3647 3509 3647 2328 
Q 3647 1150 3233 529 
Q 2819 -91 2034 -91 
Q 1250 -91 836 529 
Q 422 1150 422 2328 
Q 422 3509 836 4129 
Q 1250 4750 2034 4750 
z
" transform="scale(0.015625)"/>
       </defs>
       <use xlink:href="#DejaVuSans-2d"/>
       <use xlink:href="#DejaVuSans-33" x="36.083984"/>
       <use xlink:href="#DejaVuSans-30" x="99.707031"/>
      </g>
     </g>
    </g>
    <g id="xtick_2">
     <g id="line2d_2">
      <g>
       <use xlink:href="#md1c0edf228" x="59.54398" y="62.64" style="fill: #ffffff; stroke: #ffffff; stroke-width: 0.8"/>
      </g>
     </g>
     <g id="text_2">
      <!-- -25 -->
      <g style="fill: #ffffff" transform="translate(51.377574 77.238438) scale(0.1 -0.1)">
       <defs>
        <path id="DejaVuSans-32" d="M 1228 531 
L 3431 531 
L 3431 0 
L 469 0 
L 469 531 
Q 828 903 1448 1529 
Q 2069 2156 2228 2338 
Q 2531 2678 2651 2914 
Q 2772 3150 2772 3378 
Q 2772 3750 2511 3984 
Q 2250 4219 1831 4219 
Q 1534 4219 1204 4116 
Q 875 4013 500 3803 
L 500 4441 
Q 881 4594 1212 4672 
Q 1544 4750 1819 4750 
Q 2544 4750 2975 4387 
Q 3406 4025 3406 3419 
Q 3406 3131 3298 2873 
Q 3191 2616 2906 2266 
Q 2828 2175 2409 1742 
Q 1991 1309 1228 531 
z
" transform="scale(0.015625)"/>
        <path id="DejaVuSans-35" d="M 691 4666 
L 3169 4666 
L 3169 4134 
L 1269 4134 
L 1269 2991 
Q 1406 3038 1543 3061 
Q 1681 3084 1819 3084 
Q 2600 3084 3056 2656 
Q 3513 2228 3513 1497 
Q 3513 744 3044 326 
Q 2575 -91 1722 -91 
Q 1428 -91 1123 -41 
Q 819 9 494 109 
L 494 744 
Q 775 591 1075 516 
Q 1375 441 1709 441 
Q 2250 441 2565 725 
Q 2881 1009 2881 1497 
Q 2881 1984 2565 2268 
Q 2250 2553 1709 2553 
Q 1456 2553 1204 2497 
Q 953 2441 691 2322 
L 691 4666 
z
" transform="scale(0.015625)"/>
       </defs>
       <use xlink:href="#DejaVuSans-2d"/>
       <use xlink:href="#DejaVuSans-32" x="36.083984"/>
       <use xlink:href="#DejaVuSans-35" x="99.707031"/>
      </g>
     </g>
    </g>
    <g id="xtick_3">
     <g id="line2d_3">
      <g>
       <use xlink:href="#md1c0edf228" x="72.663102" y="62.64" style="fill: #ffffff; stroke: #ffffff; stroke-width: 0.8"/>
      </g>
     </g>
     <g id="text_3">
      <!-- -20 -->
      <g style="fill: #ffffff" transform="translate(64.496696 77.238438) scale(0.1 -0.1)">
       <use xlink:href="#DejaVuSans-2d"/>
       <use xlink:href="#DejaVuSans-32" x="36.083984"/>
       <use xlink:href="#DejaVuSans-30" x="99.707031"/>
      </g>
     </g>
    </g>
    <g id="xtick_4">
     <g id="line2d_4">
      <g>
       <use xlink:href="#md1c0edf228" x="85.782225" y="62.64" style="fill: #ffffff; stroke: #ffffff; stroke-width: 0.8"/>
      </g>
     </g>
     <g id="text_4">
      <!-- -15 -->
      <g style="fill: #ffffff" transform="translate(77.615818 77.238438) scale(0.1 -0.1)">
       <defs>
        <path id="DejaVuSans-31" d="M 794 531 
L 1825 531 
L 1825 4091 
L 703 3866 
L 703 4441 
L 1819 4666 
L 2450 4666 
L 2450 531 
L 3481 531 
L 3481 0 
L 794 0 
L 794 531 
z
" transform="scale(0.015625)"/>
       </defs>
       <use xlink:href="#DejaVuSans-2d"/>
       <use xlink:href="#DejaVuSans-31" x="36.083984"/>
       <use xlink:href="#DejaVuSans-35" x="99.707031"/>
      </g>
     </g>
    </g>
    <g id="xtick_5">
     <g id="line2d_5">
      <g>
       <use xlink:href="#md1c0edf228" x="98.901347" y="62.64" style="fill: #ffffff; stroke: #ffffff; stroke-width: 0.8"/>
      </g>
     </g>
     <g id="text_5">
      <!-- -10 -->
      <g style="fill: #ffffff" transform="translate(90.734941 77.238438) scale(0.1 -0.1)">
       <use xlink:href="#DejaVuSans-2d"/>
       <use xlink:href="#DejaVuSans-31" x="36.083984"/>
       <use xlink:href="#DejaVuSans-30" x="99.707031"/>
      </g>
     </g>
    </g>
    <g id="xtick_6">
     <g id="line2d_6">
      <g>
       <use xlink:href="#md1c0edf228" x="112.020469" y="62.64" style="fill: #ffffff; stroke: #ffffff; stroke-width: 0.8"/>
      </g>
     </g>
     <g id="text_6">
      <!-- -5 -->
      <g style="fill: #ffffff" transform="translate(107.035313 77.238438) scale(0.1 -0.1)">
       <use xlink:href="#DejaVuSans-2d"/>
       <use xlink:href="#DejaVuSans-35" x="36.083984"/>
      </g>
     </g>
    </g>
    <g id="xtick_7">
     <g id="line2d_7">
      <g>
       <use xlink:href="#md1c0edf228" x="125.139591" y="62.64" style="fill: #ffffff; stroke: #ffffff; stroke-width: 0.8"/>
      </g>
     </g>
     <g id="text_7">
      <!-- 0 -->
      <g style="fill: #ffffff" transform="translate(121.958341 77.238438) scale(0.1 -0.1)">
       <use xlink:href="#DejaVuSans-30"/>
      </g>
     </g>
    </g>
    <g id="text_8">
     <!-- Past Trials -->
     <g style="fill: #ffffff" transform="translate(59.64375 90.916562) scale(0.1 -0.1)">
      <defs>
       <path id="DejaVuSans-50" d="M 1259 4147 
L 1259 2394 
L 2053 2394 
Q 2494 2394 2734 2622 
Q 2975 2850 2975 3272 
Q 2975 3691 2734 3919 
Q 2494 4147 2053 4147 
L 1259 4147 
z
M 628 4666 
L 2053 4666 
Q 2838 4666 3239 4311 
Q 3641 3956 3641 3272 
Q 3641 2581 3239 2228 
Q 2838 1875 2053 1875 
L 1259 1875 
L 1259 0 
L 628 0 
L 628 4666 
z
" transform="scale(0.015625)"/>
       <path id="DejaVuSans-61" d="M 2194 1759 
Q 1497 1759 1228 1600 
Q 959 1441 959 1056 
Q 959 750 1161 570 
Q 1363 391 1709 391 
Q 2188 391 2477 730 
Q 2766 1069 2766 1631 
L 2766 1759 
L 2194 1759 
z
M 3341 1997 
L 3341 0 
L 2766 0 
L 2766 531 
Q 2569 213 2275 61 
Q 1981 -91 1556 -91 
Q 1019 -91 701 211 
Q 384 513 384 1019 
Q 384 1609 779 1909 
Q 1175 2209 1959 2209 
L 2766 2209 
L 2766 2266 
Q 2766 2663 2505 2880 
Q 2244 3097 1772 3097 
Q 1472 3097 1187 3025 
Q 903 2953 641 2809 
L 641 3341 
Q 956 3463 1253 3523 
Q 1550 3584 1831 3584 
Q 2591 3584 2966 3190 
Q 3341 2797 3341 1997 
z
" transform="scale(0.015625)"/>
       <path id="DejaVuSans-73" d="M 2834 3397 
L 2834 2853 
Q 2591 2978 2328 3040 
Q 2066 3103 1784 3103 
Q 1356 3103 1142 2972 
Q 928 2841 928 2578 
Q 928 2378 1081 2264 
Q 1234 2150 1697 2047 
L 1894 2003 
Q 2506 1872 2764 1633 
Q 3022 1394 3022 966 
Q 3022 478 2636 193 
Q 2250 -91 1575 -91 
Q 1294 -91 989 -36 
Q 684 19 347 128 
L 347 722 
Q 666 556 975 473 
Q 1284 391 1588 391 
Q 1994 391 2212 530 
Q 2431 669 2431 922 
Q 2431 1156 2273 1281 
Q 2116 1406 1581 1522 
L 1381 1569 
Q 847 1681 609 1914 
Q 372 2147 372 2553 
Q 372 3047 722 3315 
Q 1072 3584 1716 3584 
Q 2034 3584 2315 3537 
Q 2597 3491 2834 3397 
z
" transform="scale(0.015625)"/>
       <path id="DejaVuSans-74" d="M 1172 4494 
L 1172 3500 
L 2356 3500 
L 2356 3053 
L 1172 3053 
L 1172 1153 
Q 1172 725 1289 603 
Q 1406 481 1766 481 
L 2356 481 
L 2356 0 
L 1766 0 
Q 1100 0 847 248 
Q 594 497 594 1153 
L 594 3053 
L 172 3053 
L 172 3500 
L 594 3500 
L 594 4494 
L 1172 4494 
z
" transform="scale(0.015625)"/>
       <path id="DejaVuSans-20" transform="scale(0.015625)"/>
       <path id="DejaVuSans-54" d="M -19 4666 
L 3928 4666 
L 3928 4134 
L 2272 4134 
L 2272 0 
L 1638 0 
L 1638 4134 
L -19 4134 
L -19 4666 
z
" transform="scale(0.015625)"/>
       <path id="DejaVuSans-72" d="M 2631 2963 
Q 2534 3019 2420 3045 
Q 2306 3072 2169 3072 
Q 1681 3072 1420 2755 
Q 1159 2438 1159 1844 
L 1159 0 
L 581 0 
L 581 3500 
L 1159 3500 
L 1159 2956 
Q 1341 3275 1631 3429 
Q 1922 3584 2338 3584 
Q 2397 3584 2469 3576 
Q 2541 3569 2628 3553 
L 2631 2963 
z
" transform="scale(0.015625)"/>
       <path id="DejaVuSans-69" d="M 603 3500 
L 1178 3500 
L 1178 0 
L 603 0 
L 603 3500 
z
M 603 4863 
L 1178 4863 
L 1178 4134 
L 603 4134 
L 603 4863 
z
" transform="scale(0.015625)"/>
       <path id="DejaVuSans-6c" d="M 603 4863 
L 1178 4863 
L 1178 0 
L 603 0 
L 603 4863 
z
" transform="scale(0.015625)"/>
      </defs>
      <use xlink:href="#DejaVuSans-50"/>
      <use xlink:href="#DejaVuSans-61" x="55.802734"/>
      <use xlink:href="#DejaVuSans-73" x="117.082031"/>
      <use xlink:href="#DejaVuSans-74" x="169.181641"/>
      <use xlink:href="#DejaVuSans-20" x="208.390625"/>
      <use xlink:href="#DejaVuSans-54" x="240.177734"/>
      <use xlink:href="#DejaVuSans-72" x="286.511719"/>
      <use xlink:href="#DejaVuSans-69" x="327.625"/>
      <use xlink:href="#DejaVuSans-61" x="355.408203"/>
      <use xlink:href="#DejaVuSans-6c" x="416.6875"/>
      <use xlink:href="#DejaVuSans-73" x="444.470703"/>
     </g>
    </g>
   </g>
   <g id="matplotlib.axis_2">
    <g id="ytick_1">
     <g id="line2d_8">
      <defs>
       <path id="me797520655" d="M 0 0 
L -3.5 0 
" style="stroke: #ffffff; stroke-width: 0.8"/>
      </defs>
      <g>
       <use xlink:href="#me797520655" x="42.620313" y="62.121605" style="fill: #ffffff; stroke: #ffffff; stroke-width: 0.8"/>
      </g>
     </g>
     <g id="text_9">
      <!-- −5 -->
      <g style="fill: #ffffff" transform="translate(20.878125 65.920824) scale(0.1 -0.1)">
       <defs>
        <path id="DejaVuSans-2212" d="M 678 2272 
L 4684 2272 
L 4684 1741 
L 678 1741 
L 678 2272 
z
" transform="scale(0.015625)"/>
       </defs>
       <use xlink:href="#DejaVuSans-2212"/>
       <use xlink:href="#DejaVuSans-35" x="83.789062"/>
      </g>
     </g>
    </g>
    <g id="ytick_2">
     <g id="line2d_9">
      <g>
       <use xlink:href="#me797520655" x="42.620313" y="40.453598" style="fill: #ffffff; stroke: #ffffff; stroke-width: 0.8"/>
      </g>
     </g>
     <g id="text_10">
      <!-- 0 -->
      <g style="fill: #ffffff" transform="translate(29.257813 44.252817) scale(0.1 -0.1)">
       <use xlink:href="#DejaVuSans-30"/>
      </g>
     </g>
    </g>
    <g id="ytick_3">
     <g id="line2d_10">
      <g>
       <use xlink:href="#me797520655" x="42.620313" y="18.78559" style="fill: #ffffff; stroke: #ffffff; stroke-width: 0.8"/>
      </g>
     </g>
     <g id="text_11">
      <!-- 5 -->
      <g style="fill: #ffffff" transform="translate(29.257813 22.584809) scale(0.1 -0.1)">
       <use xlink:href="#DejaVuSans-35"/>
      </g>
     </g>
    </g>
    <g id="text_12">
     <!-- Choice Coefficient -->
     <g style="fill: #6a5acd" transform="translate(14.798438 80.323906) rotate(-90) scale(0.1 -0.1)">
      <defs>
       <path id="DejaVuSans-43" d="M 4122 4306 
L 4122 3641 
Q 3803 3938 3442 4084 
Q 3081 4231 2675 4231 
Q 1875 4231 1450 3742 
Q 1025 3253 1025 2328 
Q 1025 1406 1450 917 
Q 1875 428 2675 428 
Q 3081 428 3442 575 
Q 3803 722 4122 1019 
L 4122 359 
Q 3791 134 3420 21 
Q 3050 -91 2638 -91 
Q 1578 -91 968 557 
Q 359 1206 359 2328 
Q 359 3453 968 4101 
Q 1578 4750 2638 4750 
Q 3056 4750 3426 4639 
Q 3797 4528 4122 4306 
z
" transform="scale(0.015625)"/>
       <path id="DejaVuSans-68" d="M 3513 2113 
L 3513 0 
L 2938 0 
L 2938 2094 
Q 2938 2591 2744 2837 
Q 2550 3084 2163 3084 
Q 1697 3084 1428 2787 
Q 1159 2491 1159 1978 
L 1159 0 
L 581 0 
L 581 4863 
L 1159 4863 
L 1159 2956 
Q 1366 3272 1645 3428 
Q 1925 3584 2291 3584 
Q 2894 3584 3203 3211 
Q 3513 2838 3513 2113 
z
" transform="scale(0.015625)"/>
       <path id="DejaVuSans-6f" d="M 1959 3097 
Q 1497 3097 1228 2736 
Q 959 2375 959 1747 
Q 959 1119 1226 758 
Q 1494 397 1959 397 
Q 2419 397 2687 759 
Q 2956 1122 2956 1747 
Q 2956 2369 2687 2733 
Q 2419 3097 1959 3097 
z
M 1959 3584 
Q 2709 3584 3137 3096 
Q 3566 2609 3566 1747 
Q 3566 888 3137 398 
Q 2709 -91 1959 -91 
Q 1206 -91 779 398 
Q 353 888 353 1747 
Q 353 2609 779 3096 
Q 1206 3584 1959 3584 
z
" transform="scale(0.015625)"/>
       <path id="DejaVuSans-63" d="M 3122 3366 
L 3122 2828 
Q 2878 2963 2633 3030 
Q 2388 3097 2138 3097 
Q 1578 3097 1268 2742 
Q 959 2388 959 1747 
Q 959 1106 1268 751 
Q 1578 397 2138 397 
Q 2388 397 2633 464 
Q 2878 531 3122 666 
L 3122 134 
Q 2881 22 2623 -34 
Q 2366 -91 2075 -91 
Q 1284 -91 818 406 
Q 353 903 353 1747 
Q 353 2603 823 3093 
Q 1294 3584 2113 3584 
Q 2378 3584 2631 3529 
Q 2884 3475 3122 3366 
z
" transform="scale(0.015625)"/>
       <path id="DejaVuSans-65" d="M 3597 1894 
L 3597 1613 
L 953 1613 
Q 991 1019 1311 708 
Q 1631 397 2203 397 
Q 2534 397 2845 478 
Q 3156 559 3463 722 
L 3463 178 
Q 3153 47 2828 -22 
Q 2503 -91 2169 -91 
Q 1331 -91 842 396 
Q 353 884 353 1716 
Q 353 2575 817 3079 
Q 1281 3584 2069 3584 
Q 2775 3584 3186 3129 
Q 3597 2675 3597 1894 
z
M 3022 2063 
Q 3016 2534 2758 2815 
Q 2500 3097 2075 3097 
Q 1594 3097 1305 2825 
Q 1016 2553 972 2059 
L 3022 2063 
z
" transform="scale(0.015625)"/>
       <path id="DejaVuSans-66" d="M 2375 4863 
L 2375 4384 
L 1825 4384 
Q 1516 4384 1395 4259 
Q 1275 4134 1275 3809 
L 1275 3500 
L 2222 3500 
L 2222 3053 
L 1275 3053 
L 1275 0 
L 697 0 
L 697 3053 
L 147 3053 
L 147 3500 
L 697 3500 
L 697 3744 
Q 697 4328 969 4595 
Q 1241 4863 1831 4863 
L 2375 4863 
z
" transform="scale(0.015625)"/>
       <path id="DejaVuSans-6e" d="M 3513 2113 
L 3513 0 
L 2938 0 
L 2938 2094 
Q 2938 2591 2744 2837 
Q 2550 3084 2163 3084 
Q 1697 3084 1428 2787 
Q 1159 2491 1159 1978 
L 1159 0 
L 581 0 
L 581 3500 
L 1159 3500 
L 1159 2956 
Q 1366 3272 1645 3428 
Q 1925 3584 2291 3584 
Q 2894 3584 3203 3211 
Q 3513 2838 3513 2113 
z
" transform="scale(0.015625)"/>
      </defs>
      <use xlink:href="#DejaVuSans-43"/>
      <use xlink:href="#DejaVuSans-68" x="69.824219"/>
      <use xlink:href="#DejaVuSans-6f" x="133.203125"/>
      <use xlink:href="#DejaVuSans-69" x="194.384766"/>
      <use xlink:href="#DejaVuSans-63" x="222.167969"/>
      <use xlink:href="#DejaVuSans-65" x="277.148438"/>
      <use xlink:href="#DejaVuSans-20" x="338.671875"/>
      <use xlink:href="#DejaVuSans-43" x="370.458984"/>
      <use xlink:href="#DejaVuSans-6f" x="440.283203"/>
      <use xlink:href="#DejaVuSans-65" x="501.464844"/>
      <use xlink:href="#DejaVuSans-66" x="562.988281"/>
      <use xlink:href="#DejaVuSans-66" x="598.193359"/>
      <use xlink:href="#DejaVuSans-69" x="633.398438"/>
      <use xlink:href="#DejaVuSans-63" x="661.181641"/>
      <use xlink:href="#DejaVuSans-69" x="716.162109"/>
      <use xlink:href="#DejaVuSans-65" x="743.945312"/>
      <use xlink:href="#DejaVuSans-6e" x="805.46875"/>
      <use xlink:href="#DejaVuSans-74" x="868.847656"/>
     </g>
    </g>
   </g>
   <g id="line2d_11">
    <path d="M 46.424858 40.365451 
L 49.048682 45.881863 
L 51.672507 39.104158 
L 54.296331 41.10581 
L 56.920156 35.676302 
L 59.54398 38.993878 
L 62.167805 38.846943 
L 64.791629 37.424439 
L 67.415454 36.266794 
L 70.039278 34.278481 
L 72.663102 47.474659 
L 75.286927 29.87813 
L 77.910751 44.182793 
L 80.534576 40.444489 
L 83.1584 38.933608 
L 85.782225 51.046076 
L 88.406049 42.626657 
L 91.029874 42.96276 
L 93.653698 38.121997 
L 96.277523 35.10948 
L 98.901347 47.498809 
L 101.525171 38.50431 
L 104.148996 41.296094 
L 106.77282 32.043051 
L 109.396645 39.264513 
L 112.020469 41.46133 
L 114.644294 34.010215 
L 117.268118 40.64109 
L 119.891943 38.176795 
L 122.515767 21.864197 
" clip-path="url(#pa67ae4283b)" style="fill: none; stroke: #6a5acd; stroke-width: 1.5; stroke-linecap: square"/>
   </g>
   <g id="line2d_12">
    <path d="M 46.424858 31.468775 
L 49.048682 40.503248 
L 51.672507 37.959894 
L 54.296331 48.243381 
L 56.920156 41.973973 
L 59.54398 42.021783 
L 62.167805 40.349989 
L 64.791629 45.650141 
L 67.415454 43.622547 
L 70.039278 39.034474 
L 72.663102 41.575034 
L 75.286927 40.0732 
L 77.910751 36.414268 
L 80.534576 44.246577 
L 83.1584 45.148303 
L 85.782225 47.536506 
L 88.406049 37.828365 
L 91.029874 45.781562 
L 93.653698 44.596769 
L 96.277523 49.181081 
L 98.901347 52.811134 
L 101.525171 36.155761 
L 104.148996 47.654642 
L 106.77282 45.567947 
L 109.396645 37.467252 
L 112.020469 46.946414 
L 114.644294 40.687202 
L 117.268118 42.757806 
L 119.891943 39.170021 
L 122.515767 33.736774 
" clip-path="url(#pa67ae4283b)" style="fill: none; stroke: #8a2be2; stroke-width: 1.5; stroke-linecap: square"/>
   </g>
   <g id="patch_3">
    <path d="M 42.620313 62.64 
L 42.620313 7.2 
" style="fill: none; stroke: #000000; stroke-width: 0.8; stroke-linejoin: miter; stroke-linecap: square"/>
   </g>
   <g id="patch_4">
    <path d="M 126.320313 62.64 
L 126.320313 7.2 
" style="fill: none; stroke: #000000; stroke-width: 0.8; stroke-linejoin: miter; stroke-linecap: square"/>
   </g>
   <g id="patch_5">
    <path d="M 42.620313 62.64 
L 126.320313 62.64 
" style="fill: none; stroke: #000000; stroke-width: 0.8; stroke-linejoin: miter; stroke-linecap: square"/>
   </g>
  </g>
  <g id="axes_2">
   <g id="matplotlib.axis_3">
    <g id="ytick_4">
     <g id="line2d_13">
      <defs>
       <path id="m727e202c15" d="M 0 0 
L 3.5 0 
" style="stroke: #ffffff; stroke-width: 0.8"/>
      </defs>
      <g>
       <use xlink:href="#m727e202c15" x="126.320313" y="46.8" style="fill: #ffffff; stroke: #ffffff; stroke-width: 0.8"/>
      </g>
     </g>
     <g id="text_13">
      <!-- 0 -->
      <g style="fill: #ffffff" transform="translate(133.320313 50.599219) scale(0.1 -0.1)">
       <use xlink:href="#DejaVuSans-30"/>
      </g>
     </g>
    </g>
    <g id="ytick_5">
     <g id="line2d_14">
      <g>
       <use xlink:href="#m727e202c15" x="126.320313" y="20.4" style="fill: #ffffff; stroke: #ffffff; stroke-width: 0.8"/>
      </g>
     </g>
     <g id="text_14">
      <!-- 10 -->
      <g style="fill: #ffffff" transform="translate(133.320313 24.199219) scale(0.1 -0.1)">
       <use xlink:href="#DejaVuSans-31"/>
       <use xlink:href="#DejaVuSans-30" x="63.623047"/>
      </g>
     </g>
    </g>
    <g id="text_15">
     <!-- Effect of Previous Block -->
     <g style="fill: #ffffff" transform="translate(158.446875 -23.783906) rotate(-270) scale(0.1 -0.1)">
      <defs>
       <path id="DejaVuSans-45" d="M 628 4666 
L 3578 4666 
L 3578 4134 
L 1259 4134 
L 1259 2753 
L 3481 2753 
L 3481 2222 
L 1259 2222 
L 1259 531 
L 3634 531 
L 3634 0 
L 628 0 
L 628 4666 
z
" transform="scale(0.015625)"/>
       <path id="DejaVuSans-76" d="M 191 3500 
L 800 3500 
L 1894 563 
L 2988 3500 
L 3597 3500 
L 2284 0 
L 1503 0 
L 191 3500 
z
" transform="scale(0.015625)"/>
       <path id="DejaVuSans-75" d="M 544 1381 
L 544 3500 
L 1119 3500 
L 1119 1403 
Q 1119 906 1312 657 
Q 1506 409 1894 409 
Q 2359 409 2629 706 
Q 2900 1003 2900 1516 
L 2900 3500 
L 3475 3500 
L 3475 0 
L 2900 0 
L 2900 538 
Q 2691 219 2414 64 
Q 2138 -91 1772 -91 
Q 1169 -91 856 284 
Q 544 659 544 1381 
z
M 1991 3584 
L 1991 3584 
z
" transform="scale(0.015625)"/>
       <path id="DejaVuSans-42" d="M 1259 2228 
L 1259 519 
L 2272 519 
Q 2781 519 3026 730 
Q 3272 941 3272 1375 
Q 3272 1813 3026 2020 
Q 2781 2228 2272 2228 
L 1259 2228 
z
M 1259 4147 
L 1259 2741 
L 2194 2741 
Q 2656 2741 2882 2914 
Q 3109 3088 3109 3444 
Q 3109 3797 2882 3972 
Q 2656 4147 2194 4147 
L 1259 4147 
z
M 628 4666 
L 2241 4666 
Q 2963 4666 3353 4366 
Q 3744 4066 3744 3513 
Q 3744 3084 3544 2831 
Q 3344 2578 2956 2516 
Q 3422 2416 3680 2098 
Q 3938 1781 3938 1306 
Q 3938 681 3513 340 
Q 3088 0 2303 0 
L 628 0 
L 628 4666 
z
" transform="scale(0.015625)"/>
       <path id="DejaVuSans-6b" d="M 581 4863 
L 1159 4863 
L 1159 1991 
L 2875 3500 
L 3609 3500 
L 1753 1863 
L 3688 0 
L 2938 0 
L 1159 1709 
L 1159 0 
L 581 0 
L 581 4863 
z
" transform="scale(0.015625)"/>
      </defs>
      <use xlink:href="#DejaVuSans-45"/>
      <use xlink:href="#DejaVuSans-66" x="63.183594"/>
      <use xlink:href="#DejaVuSans-66" x="98.388672"/>
      <use xlink:href="#DejaVuSans-65" x="133.59375"/>
      <use xlink:href="#DejaVuSans-63" x="195.117188"/>
      <use xlink:href="#DejaVuSans-74" x="250.097656"/>
      <use xlink:href="#DejaVuSans-20" x="289.306641"/>
      <use xlink:href="#DejaVuSans-6f" x="321.09375"/>
      <use xlink:href="#DejaVuSans-66" x="382.275391"/>
      <use xlink:href="#DejaVuSans-20" x="417.480469"/>
      <use xlink:href="#DejaVuSans-50" x="449.267578"/>
      <use xlink:href="#DejaVuSans-72" x="507.820312"/>
      <use xlink:href="#DejaVuSans-65" x="546.683594"/>
      <use xlink:href="#DejaVuSans-76" x="608.207031"/>
      <use xlink:href="#DejaVuSans-69" x="667.386719"/>
      <use xlink:href="#DejaVuSans-6f" x="695.169922"/>
      <use xlink:href="#DejaVuSans-75" x="756.351562"/>
      <use xlink:href="#DejaVuSans-73" x="819.730469"/>
      <use xlink:href="#DejaVuSans-20" x="871.830078"/>
      <use xlink:href="#DejaVuSans-42" x="903.617188"/>
      <use xlink:href="#DejaVuSans-6c" x="972.220703"/>
      <use xlink:href="#DejaVuSans-6f" x="1000.003906"/>
      <use xlink:href="#DejaVuSans-63" x="1061.185547"/>
      <use xlink:href="#DejaVuSans-6b" x="1116.166016"/>
     </g>
     <!-- (Long - Short) -->
     <g style="fill: #ffffff" transform="translate(147.249063 0.517656) rotate(-270) scale(0.1 -0.1)">
      <defs>
       <path id="DejaVuSans-28" d="M 1984 4856 
Q 1566 4138 1362 3434 
Q 1159 2731 1159 2009 
Q 1159 1288 1364 580 
Q 1569 -128 1984 -844 
L 1484 -844 
Q 1016 -109 783 600 
Q 550 1309 550 2009 
Q 550 2706 781 3412 
Q 1013 4119 1484 4856 
L 1984 4856 
z
" transform="scale(0.015625)"/>
       <path id="DejaVuSans-4c" d="M 628 4666 
L 1259 4666 
L 1259 531 
L 3531 531 
L 3531 0 
L 628 0 
L 628 4666 
z
" transform="scale(0.015625)"/>
       <path id="DejaVuSans-67" d="M 2906 1791 
Q 2906 2416 2648 2759 
Q 2391 3103 1925 3103 
Q 1463 3103 1205 2759 
Q 947 2416 947 1791 
Q 947 1169 1205 825 
Q 1463 481 1925 481 
Q 2391 481 2648 825 
Q 2906 1169 2906 1791 
z
M 3481 434 
Q 3481 -459 3084 -895 
Q 2688 -1331 1869 -1331 
Q 1566 -1331 1297 -1286 
Q 1028 -1241 775 -1147 
L 775 -588 
Q 1028 -725 1275 -790 
Q 1522 -856 1778 -856 
Q 2344 -856 2625 -561 
Q 2906 -266 2906 331 
L 2906 616 
Q 2728 306 2450 153 
Q 2172 0 1784 0 
Q 1141 0 747 490 
Q 353 981 353 1791 
Q 353 2603 747 3093 
Q 1141 3584 1784 3584 
Q 2172 3584 2450 3431 
Q 2728 3278 2906 2969 
L 2906 3500 
L 3481 3500 
L 3481 434 
z
" transform="scale(0.015625)"/>
       <path id="DejaVuSans-53" d="M 3425 4513 
L 3425 3897 
Q 3066 4069 2747 4153 
Q 2428 4238 2131 4238 
Q 1616 4238 1336 4038 
Q 1056 3838 1056 3469 
Q 1056 3159 1242 3001 
Q 1428 2844 1947 2747 
L 2328 2669 
Q 3034 2534 3370 2195 
Q 3706 1856 3706 1288 
Q 3706 609 3251 259 
Q 2797 -91 1919 -91 
Q 1588 -91 1214 -16 
Q 841 59 441 206 
L 441 856 
Q 825 641 1194 531 
Q 1563 422 1919 422 
Q 2459 422 2753 634 
Q 3047 847 3047 1241 
Q 3047 1584 2836 1778 
Q 2625 1972 2144 2069 
L 1759 2144 
Q 1053 2284 737 2584 
Q 422 2884 422 3419 
Q 422 4038 858 4394 
Q 1294 4750 2059 4750 
Q 2388 4750 2728 4690 
Q 3069 4631 3425 4513 
z
" transform="scale(0.015625)"/>
       <path id="DejaVuSans-29" d="M 513 4856 
L 1013 4856 
Q 1481 4119 1714 3412 
Q 1947 2706 1947 2009 
Q 1947 1309 1714 600 
Q 1481 -109 1013 -844 
L 513 -844 
Q 928 -128 1133 580 
Q 1338 1288 1338 2009 
Q 1338 2731 1133 3434 
Q 928 4138 513 4856 
z
" transform="scale(0.015625)"/>
      </defs>
      <use xlink:href="#DejaVuSans-28"/>
      <use xlink:href="#DejaVuSans-4c" x="39.013672"/>
      <use xlink:href="#DejaVuSans-6f" x="92.976562"/>
      <use xlink:href="#DejaVuSans-6e" x="154.158203"/>
      <use xlink:href="#DejaVuSans-67" x="217.537109"/>
      <use xlink:href="#DejaVuSans-20" x="281.013672"/>
      <use xlink:href="#DejaVuSans-2d" x="312.800781"/>
      <use xlink:href="#DejaVuSans-20" x="348.884766"/>
      <use xlink:href="#DejaVuSans-53" x="380.671875"/>
      <use xlink:href="#DejaVuSans-68" x="444.148438"/>
      <use xlink:href="#DejaVuSans-6f" x="507.527344"/>
      <use xlink:href="#DejaVuSans-72" x="568.708984"/>
      <use xlink:href="#DejaVuSans-74" x="609.822266"/>
      <use xlink:href="#DejaVuSans-29" x="649.03125"/>
     </g>
    </g>
   </g>
   <g id="line2d_15">
    <path d="M 46.424858 52.350385 
L 49.048682 49.682311 
L 51.672507 47.41305 
L 54.296331 41.275297 
L 56.920156 43.151071 
L 59.54398 44.949454 
L 62.167805 46.009737 
L 64.791629 42.364473 
L 67.415454 42.776417 
L 70.039278 43.697286 
L 72.663102 50.170302 
L 75.286927 41.364667 
L 77.910751 51.445391 
L 80.534576 44.630241 
L 83.1584 43.394062 
L 85.782225 49.089755 
L 88.406049 49.894025 
L 91.029874 44.935112 
L 93.653698 42.666336 
L 96.277523 38.041385 
L 98.901347 43.671005 
L 101.525171 48.150029 
L 104.148996 43.182423 
L 106.77282 37.528135 
L 109.396645 47.922772 
L 112.020469 43.669778 
L 114.644294 42.834024 
L 117.268118 45.738873 
L 119.891943 46.303895 
L 122.515767 41.453883 
" clip-path="url(#pa67ae4283b)" style="fill: none; stroke: #ffffff; stroke-linecap: square"/>
   </g>
   <g id="patch_6">
    <path d="M 42.620313 62.64 
L 42.620313 7.2 
" style="fill: none; stroke: #000000; stroke-width: 0.8; stroke-linejoin: miter; stroke-linecap: square"/>
   </g>
   <g id="patch_7">
    <path d="M 126.320313 62.64 
L 126.320313 7.2 
" style="fill: none; stroke: #000000; stroke-width: 0.8; stroke-linejoin: miter; stroke-linecap: square"/>
   </g>
   <g id="patch_8">
    <path d="M 42.620313 62.64 
L 126.320313 62.64 
" style="fill: none; stroke: #000000; stroke-width: 0.8; stroke-linejoin: miter; stroke-linecap: square"/>
   </g>
   <g id="PathCollection_1">
    <path d="M 46.424858 50.114317 
L 45.922829 51.659402 
L 44.298231 51.659402 
L 45.612559 52.614317 
L 45.11053 54.159402 
L 46.424858 53.204487 
L 47.739186 54.159402 
L 47.237157 52.614317 
L 48.551485 51.659402 
L 46.926886 51.659402 
z
" clip-path="url(#pa67ae4283b)" style="fill: #ffffff; stroke: #ffffff"/>
    <path d="M 49.048682 49.682311 
L 49.048682 49.682311 
L 49.048682 49.682311 
L 49.048682 49.682311 
L 49.048682 49.682311 
L 49.048682 49.682311 
L 49.048682 49.682311 
L 49.048682 49.682311 
L 49.048682 49.682311 
L 49.048682 49.682311 
z
" clip-path="url(#pa67ae4283b)" style="fill: #ffffff; stroke: #ffffff"/>
    <path d="M 51.672507 47.41305 
L 51.672507 47.41305 
L 51.672507 47.41305 
L 51.672507 47.41305 
L 51.672507 47.41305 
L 51.672507 47.41305 
L 51.672507 47.41305 
L 51.672507 47.41305 
L 51.672507 47.41305 
L 51.672507 47.41305 
z
" clip-path="url(#pa67ae4283b)" style="fill: #ffffff; stroke: #ffffff"/>
    <path d="M 54.296331 39.039229 
L 53.794303 40.584314 
L 52.169704 40.584314 
L 53.484032 41.539229 
L 52.982004 43.084314 
L 54.296331 42.129399 
L 55.610659 43.084314 
L 55.108631 41.539229 
L 56.422958 40.584314 
L 54.79836 40.584314 
z
" clip-path="url(#pa67ae4283b)" style="fill: #ffffff; stroke: #ffffff"/>
    <path d="M 56.920156 43.151071 
L 56.920156 43.151071 
L 56.920156 43.151071 
L 56.920156 43.151071 
L 56.920156 43.151071 
L 56.920156 43.151071 
L 56.920156 43.151071 
L 56.920156 43.151071 
L 56.920156 43.151071 
L 56.920156 43.151071 
z
" clip-path="url(#pa67ae4283b)" style="fill: #ffffff; stroke: #ffffff"/>
    <path d="M 59.54398 44.949454 
L 59.54398 44.949454 
L 59.54398 44.949454 
L 59.54398 44.949454 
L 59.54398 44.949454 
L 59.54398 44.949454 
L 59.54398 44.949454 
L 59.54398 44.949454 
L 59.54398 44.949454 
L 59.54398 44.949454 
z
" clip-path="url(#pa67ae4283b)" style="fill: #ffffff; stroke: #ffffff"/>
    <path d="M 62.167805 46.009737 
L 62.167805 46.009737 
L 62.167805 46.009737 
L 62.167805 46.009737 
L 62.167805 46.009737 
L 62.167805 46.009737 
L 62.167805 46.009737 
L 62.167805 46.009737 
L 62.167805 46.009737 
L 62.167805 46.009737 
z
" clip-path="url(#pa67ae4283b)" style="fill: #ffffff; stroke: #ffffff"/>
    <path d="M 64.791629 42.364473 
L 64.791629 42.364473 
L 64.791629 42.364473 
L 64.791629 42.364473 
L 64.791629 42.364473 
L 64.791629 42.364473 
L 64.791629 42.364473 
L 64.791629 42.364473 
L 64.791629 42.364473 
L 64.791629 42.364473 
z
" clip-path="url(#pa67ae4283b)" style="fill: #ffffff; stroke: #ffffff"/>
    <path d="M 67.415454 42.776417 
L 67.415454 42.776417 
L 67.415454 42.776417 
L 67.415454 42.776417 
L 67.415454 42.776417 
L 67.415454 42.776417 
L 67.415454 42.776417 
L 67.415454 42.776417 
L 67.415454 42.776417 
L 67.415454 42.776417 
z
" clip-path="url(#pa67ae4283b)" style="fill: #ffffff; stroke: #ffffff"/>
    <path d="M 70.039278 43.697286 
L 70.039278 43.697286 
L 70.039278 43.697286 
L 70.039278 43.697286 
L 70.039278 43.697286 
L 70.039278 43.697286 
L 70.039278 43.697286 
L 70.039278 43.697286 
L 70.039278 43.697286 
L 70.039278 43.697286 
z
" clip-path="url(#pa67ae4283b)" style="fill: #ffffff; stroke: #ffffff"/>
    <path d="M 72.663102 50.170302 
L 72.663102 50.170302 
L 72.663102 50.170302 
L 72.663102 50.170302 
L 72.663102 50.170302 
L 72.663102 50.170302 
L 72.663102 50.170302 
L 72.663102 50.170302 
L 72.663102 50.170302 
L 72.663102 50.170302 
z
" clip-path="url(#pa67ae4283b)" style="fill: #ffffff; stroke: #ffffff"/>
    <path d="M 75.286927 39.128599 
L 74.784898 40.673684 
L 73.1603 40.673683 
L 74.474628 41.628599 
L 73.972599 43.173683 
L 75.286927 42.218768 
L 76.601255 43.173683 
L 76.099226 41.628599 
L 77.413554 40.673683 
L 75.788955 40.673684 
z
" clip-path="url(#pa67ae4283b)" style="fill: #ffffff; stroke: #ffffff"/>
    <path d="M 77.910751 51.445391 
L 77.910751 51.445391 
L 77.910751 51.445391 
L 77.910751 51.445391 
L 77.910751 51.445391 
L 77.910751 51.445391 
L 77.910751 51.445391 
L 77.910751 51.445391 
L 77.910751 51.445391 
L 77.910751 51.445391 
z
" clip-path="url(#pa67ae4283b)" style="fill: #ffffff; stroke: #ffffff"/>
    <path d="M 80.534576 44.630241 
L 80.534576 44.630241 
L 80.534576 44.630241 
L 80.534576 44.630241 
L 80.534576 44.630241 
L 80.534576 44.630241 
L 80.534576 44.630241 
L 80.534576 44.630241 
L 80.534576 44.630241 
L 80.534576 44.630241 
z
" clip-path="url(#pa67ae4283b)" style="fill: #ffffff; stroke: #ffffff"/>
    <path d="M 83.1584 43.394062 
L 83.1584 43.394062 
L 83.1584 43.394062 
L 83.1584 43.394062 
L 83.1584 43.394062 
L 83.1584 43.394062 
L 83.1584 43.394062 
L 83.1584 43.394062 
L 83.1584 43.394062 
L 83.1584 43.394062 
z
" clip-path="url(#pa67ae4283b)" style="fill: #ffffff; stroke: #ffffff"/>
    <path d="M 85.782225 49.089755 
L 85.782225 49.089755 
L 85.782225 49.089755 
L 85.782225 49.089755 
L 85.782225 49.089755 
L 85.782225 49.089755 
L 85.782225 49.089755 
L 85.782225 49.089755 
L 85.782225 49.089755 
L 85.782225 49.089755 
z
" clip-path="url(#pa67ae4283b)" style="fill: #ffffff; stroke: #ffffff"/>
    <path d="M 88.406049 49.894025 
L 88.406049 49.894025 
L 88.406049 49.894025 
L 88.406049 49.894025 
L 88.406049 49.894025 
L 88.406049 49.894025 
L 88.406049 49.894025 
L 88.406049 49.894025 
L 88.406049 49.894025 
L 88.406049 49.894025 
z
" clip-path="url(#pa67ae4283b)" style="fill: #ffffff; stroke: #ffffff"/>
    <path d="M 91.029874 44.935112 
L 91.029874 44.935112 
L 91.029874 44.935112 
L 91.029874 44.935112 
L 91.029874 44.935112 
L 91.029874 44.935112 
L 91.029874 44.935112 
L 91.029874 44.935112 
L 91.029874 44.935112 
L 91.029874 44.935112 
z
" clip-path="url(#pa67ae4283b)" style="fill: #ffffff; stroke: #ffffff"/>
    <path d="M 93.653698 42.666336 
L 93.653698 42.666336 
L 93.653698 42.666336 
L 93.653698 42.666336 
L 93.653698 42.666336 
L 93.653698 42.666336 
L 93.653698 42.666336 
L 93.653698 42.666336 
L 93.653698 42.666336 
L 93.653698 42.666336 
z
" clip-path="url(#pa67ae4283b)" style="fill: #ffffff; stroke: #ffffff"/>
    <path d="M 96.277523 35.805317 
L 95.775494 37.350402 
L 94.150896 37.350402 
L 95.465223 38.305317 
L 94.963195 39.850402 
L 96.277523 38.895487 
L 97.59185 39.850402 
L 97.089822 38.305317 
L 98.40415 37.350402 
L 96.779551 37.350402 
z
" clip-path="url(#pa67ae4283b)" style="fill: #ffffff; stroke: #ffffff"/>
    <path d="M 98.901347 43.671005 
L 98.901347 43.671005 
L 98.901347 43.671005 
L 98.901347 43.671005 
L 98.901347 43.671005 
L 98.901347 43.671005 
L 98.901347 43.671005 
L 98.901347 43.671005 
L 98.901347 43.671005 
L 98.901347 43.671005 
z
" clip-path="url(#pa67ae4283b)" style="fill: #ffffff; stroke: #ffffff"/>
    <path d="M 101.525171 48.150029 
L 101.525171 48.150029 
L 101.525171 48.150029 
L 101.525171 48.150029 
L 101.525171 48.150029 
L 101.525171 48.150029 
L 101.525171 48.150029 
L 101.525171 48.150029 
L 101.525171 48.150029 
L 101.525171 48.150029 
z
" clip-path="url(#pa67ae4283b)" style="fill: #ffffff; stroke: #ffffff"/>
    <path d="M 104.148996 43.182423 
L 104.148996 43.182423 
L 104.148996 43.182423 
L 104.148996 43.182423 
L 104.148996 43.182423 
L 104.148996 43.182423 
L 104.148996 43.182423 
L 104.148996 43.182423 
L 104.148996 43.182423 
L 104.148996 43.182423 
z
" clip-path="url(#pa67ae4283b)" style="fill: #ffffff; stroke: #ffffff"/>
    <path d="M 106.77282 35.292067 
L 106.270792 36.837152 
L 104.646193 36.837152 
L 105.960521 37.792067 
L 105.458493 39.337152 
L 106.77282 38.382237 
L 108.087148 39.337152 
L 107.58512 37.792067 
L 108.899447 36.837152 
L 107.274849 36.837152 
z
" clip-path="url(#pa67ae4283b)" style="fill: #ffffff; stroke: #ffffff"/>
    <path d="M 109.396645 47.922772 
L 109.396645 47.922772 
L 109.396645 47.922772 
L 109.396645 47.922772 
L 109.396645 47.922772 
L 109.396645 47.922772 
L 109.396645 47.922772 
L 109.396645 47.922772 
L 109.396645 47.922772 
L 109.396645 47.922772 
z
" clip-path="url(#pa67ae4283b)" style="fill: #ffffff; stroke: #ffffff"/>
    <path d="M 112.020469 43.669778 
L 112.020469 43.669778 
L 112.020469 43.669778 
L 112.020469 43.669778 
L 112.020469 43.669778 
L 112.020469 43.669778 
L 112.020469 43.669778 
L 112.020469 43.669778 
L 112.020469 43.669778 
L 112.020469 43.669778 
z
" clip-path="url(#pa67ae4283b)" style="fill: #ffffff; stroke: #ffffff"/>
    <path d="M 114.644294 42.834024 
L 114.644294 42.834024 
L 114.644294 42.834024 
L 114.644294 42.834024 
L 114.644294 42.834024 
L 114.644294 42.834024 
L 114.644294 42.834024 
L 114.644294 42.834024 
L 114.644294 42.834024 
L 114.644294 42.834024 
z
" clip-path="url(#pa67ae4283b)" style="fill: #ffffff; stroke: #ffffff"/>
    <path d="M 117.268118 45.738873 
L 117.268118 45.738873 
L 117.268118 45.738873 
L 117.268118 45.738873 
L 117.268118 45.738873 
L 117.268118 45.738873 
L 117.268118 45.738873 
L 117.268118 45.738873 
L 117.268118 45.738873 
L 117.268118 45.738873 
z
" clip-path="url(#pa67ae4283b)" style="fill: #ffffff; stroke: #ffffff"/>
    <path d="M 119.891943 46.303895 
L 119.891943 46.303895 
L 119.891943 46.303895 
L 119.891943 46.303895 
L 119.891943 46.303895 
L 119.891943 46.303895 
L 119.891943 46.303895 
L 119.891943 46.303895 
L 119.891943 46.303895 
L 119.891943 46.303895 
z
" clip-path="url(#pa67ae4283b)" style="fill: #ffffff; stroke: #ffffff"/>
    <path d="M 122.515767 39.217815 
L 122.013739 40.7629 
L 120.38914 40.7629 
L 121.703468 41.717815 
L 121.201439 43.2629 
L 122.515767 42.307985 
L 123.830095 43.2629 
L 123.328066 41.717815 
L 124.642394 40.7629 
L 123.017796 40.7629 
z
" clip-path="url(#pa67ae4283b)" style="fill: #ffffff; stroke: #ffffff"/>
   </g>
  </g>
 </g>
 <defs>
  <clipPath id="pa67ae4283b">
   <rect x="42.620313" y="7.2" width="83.7" height="55.44"/>
  </clipPath>
 </defs>
</svg>
