<?xml version="1.0" encoding="utf-8" standalone="no"?>
<!DOCTYPE svg PUBLIC "-//W3C//DTD SVG 1.1//EN"
  "http://www.w3.org/Graphics/SVG/1.1/DTD/svg11.dtd">
<svg xmlns:xlink="http://www.w3.org/1999/xlink" width="179.282187pt" height="100.19625pt" viewBox="0 0 179.282187 100.19625" xmlns="http://www.w3.org/2000/svg" version="1.1">
 <metadata>
  <rdf:RDF xmlns:dc="http://purl.org/dc/elements/1.1/" xmlns:cc="http://creativecommons.org/ns#" xmlns:rdf="http://www.w3.org/1999/02/22-rdf-syntax-ns#">
   <cc:Work>
    <dc:type rdf:resource="http://purl.org/dc/dcmitype/StillImage"/>
    <dc:date>2024-02-17T07:34:31.241211</dc:date>
    <dc:format>image/svg+xml</dc:format>
    <dc:creator>
     <cc:Agent>
      <dc:title>Matplotlib v3.7.2, https://matplotlib.org/</dc:title>
     </cc:Agent>
    </dc:creator>
   </cc:Work>
  </rdf:RDF>
 </metadata>
 <defs>
  <style type="text/css">*{stroke-linejoin: round; stroke-linecap: butt}</style>
 </defs>
 <g id="figure_1">
  <g id="patch_1">
   <path d="M -0 100.19625 
L 179.282187 100.19625 
L 179.282187 0 
L -0 0 
L -0 100.19625 
z
" style="fill: none"/>
  </g>
  <g id="axes_1">
   <g id="patch_2">
    <path d="M 43.78125 62.64 
L 127.48125 62.64 
L 127.48125 7.2 
L 43.78125 7.2 
L 43.78125 62.64 
z
" style="fill: none"/>
   </g>
   <g id="PolyCollection_1">
    <defs>
     <path id="m1ae5224b6e" d="M 47.585795 -70.207396 
L 47.585795 -56.225052 
L 50.20962 -49.132284 
L 52.833444 -53.7483 
L 55.457269 -50.008182 
L 58.081093 -52.002929 
L 60.704918 -53.267749 
L 63.328742 -53.852307 
L 65.952567 -59.212445 
L 68.576391 -59.719256 
L 71.200216 -55.696653 
L 73.82404 -52.429489 
L 76.447864 -59.293315 
L 79.071689 -58.84205 
L 81.695513 -55.65583 
L 84.319338 -59.541311 
L 86.943162 -53.785226 
L 89.566987 -58.581179 
L 92.190811 -55.660613 
L 94.814636 -54.209388 
L 97.43846 -58.709918 
L 100.062284 -49.377587 
L 102.686109 -55.68296 
L 105.309933 -53.457575 
L 107.933758 -63.842084 
L 110.557582 -62.173361 
L 113.181407 -59.963246 
L 115.805231 -65.43309 
L 118.429056 -51.902125 
L 121.05288 -56.402085 
L 123.676705 -59.628191 
L 123.676705 -81.919748 
L 123.676705 -81.919748 
L 121.05288 -71.243615 
L 118.429056 -68.754499 
L 115.805231 -82.645958 
L 113.181407 -73.348251 
L 110.557582 -77.741225 
L 107.933758 -78.820106 
L 105.309933 -71.930062 
L 102.686109 -70.198262 
L 100.062284 -66.6013 
L 97.43846 -73.547194 
L 94.814636 -71.474477 
L 92.190811 -67.544622 
L 89.566987 -72.750846 
L 86.943162 -70.180059 
L 84.319338 -74.991608 
L 81.695513 -72.681702 
L 79.071689 -73.006415 
L 76.447864 -76.015255 
L 73.82404 -67.257158 
L 71.200216 -73.696556 
L 68.576391 -75.731877 
L 65.952567 -76.372298 
L 63.328742 -68.658758 
L 60.704918 -67.084827 
L 58.081093 -70.345628 
L 55.457269 -67.367759 
L 52.833444 -74.245734 
L 50.20962 -64.463491 
L 47.585795 -70.207396 
z
" style="stroke: #6a5acd; stroke-opacity: 0.2"/>
    </defs>
    <g clip-path="url(#p6d99f388e6)">
     <use xlink:href="#m1ae5224b6e" x="0" y="100.19625" style="fill: #6a5acd; fill-opacity: 0.2; stroke: #6a5acd; stroke-opacity: 0.2"/>
    </g>
   </g>
   <g id="PolyCollection_2">
    <defs>
     <path id="mf4fb766fc9" d="M 47.585795 -76.63891 
L 47.585795 -56.106919 
L 50.20962 -48.050487 
L 52.833444 -50.537227 
L 55.457269 -49.41623 
L 58.081093 -52.564658 
L 60.704918 -52.024706 
L 63.328742 -51.08349 
L 65.952567 -53.08099 
L 68.576391 -57.850644 
L 71.200216 -53.496215 
L 73.82404 -48.268849 
L 76.447864 -59.617835 
L 79.071689 -44.246594 
L 81.695513 -52.729361 
L 84.319338 -48.015217 
L 86.943162 -40.07625 
L 89.566987 -55.529409 
L 92.190811 -55.919965 
L 94.814636 -59.662235 
L 97.43846 -47.796709 
L 100.062284 -62.962433 
L 102.686109 -63.829381 
L 105.309933 -54.903884 
L 107.933758 -67.394257 
L 110.557582 -53.178121 
L 113.181407 -47.067992 
L 115.805231 -57.182903 
L 118.429056 -59.633667 
L 121.05288 -59.718875 
L 123.676705 -68.281036 
L 123.676705 -90.47625 
L 123.676705 -90.47625 
L 121.05288 -84.554543 
L 118.429056 -80.26595 
L 115.805231 -76.87355 
L 113.181407 -72.145122 
L 110.557582 -74.346235 
L 107.933758 -88.302091 
L 105.309933 -75.116965 
L 102.686109 -86.558027 
L 100.062284 -85.9147 
L 97.43846 -69.83306 
L 94.814636 -81.499316 
L 92.190811 -75.940399 
L 89.566987 -80.582908 
L 86.943162 -66.426411 
L 84.319338 -72.824719 
L 81.695513 -74.24983 
L 79.071689 -66.322611 
L 76.447864 -78.111955 
L 73.82404 -68.368963 
L 71.200216 -74.029428 
L 68.576391 -79.584666 
L 65.952567 -74.145018 
L 63.328742 -72.703891 
L 60.704918 -70.164764 
L 58.081093 -77.301798 
L 55.457269 -70.324226 
L 52.833444 -72.492121 
L 50.20962 -73.136167 
L 47.585795 -76.63891 
z
" style="stroke: #8a2be2; stroke-opacity: 0.2"/>
    </defs>
    <g clip-path="url(#p6d99f388e6)">
     <use xlink:href="#mf4fb766fc9" x="0" y="100.19625" style="fill: #8a2be2; fill-opacity: 0.2; stroke: #8a2be2; stroke-opacity: 0.2"/>
    </g>
   </g>
   <g id="matplotlib.axis_1">
    <g id="xtick_1">
     <g id="line2d_1">
      <defs>
       <path id="m1216d604fe" d="M 0 0 
L 0 3.5 
" style="stroke: #ffffff; stroke-width: 0.8"/>
      </defs>
      <g>
       <use xlink:href="#m1216d604fe" x="47.585795" y="62.64" style="fill: #ffffff; stroke: #ffffff; stroke-width: 0.8"/>
      </g>
     </g>
     <g id="text_1">
      <!-- -30 -->
      <g style="fill: #ffffff" transform="translate(39.419389 77.238438) scale(0.1 -0.1)">
       <defs>
        <path id="DejaVuSans-2d" d="M 313 2009 
L 1997 2009 
L 1997 1497 
L 313 1497 
L 313 2009 
z
" transform="scale(0.015625)"/>
        <path id="DejaVuSans-33" d="M 2597 2516 
Q 3050 2419 3304 2112 
Q 3559 1806 3559 1356 
Q 3559 666 3084 287 
Q 2609 -91 1734 -91 
Q 1441 -91 1130 -33 
Q 819 25 488 141 
L 488 750 
Q 750 597 1062 519 
Q 1375 441 1716 441 
Q 2309 441 2620 675 
Q 2931 909 2931 1356 
Q 2931 1769 2642 2001 
Q 2353 2234 1838 2234 
L 1294 2234 
L 1294 2753 
L 1863 2753 
Q 2328 2753 2575 2939 
Q 2822 3125 2822 3475 
Q 2822 3834 2567 4026 
Q 2313 4219 1838 4219 
Q 1578 4219 1281 4162 
Q 984 4106 628 3988 
L 628 4550 
Q 988 4650 1302 4700 
Q 1616 4750 1894 4750 
Q 2613 4750 3031 4423 
Q 3450 4097 3450 3541 
Q 3450 3153 3228 2886 
Q 3006 2619 2597 2516 
z
" transform="scale(0.015625)"/>
        <path id="DejaVuSans-30" d="M 2034 4250 
Q 1547 4250 1301 3770 
Q 1056 3291 1056 2328 
Q 1056 1369 1301 889 
Q 1547 409 2034 409 
Q 2525 409 2770 889 
Q 3016 1369 3016 2328 
Q 3016 3291 2770 3770 
Q 2525 4250 2034 4250 
z
M 2034 4750 
Q 2819 4750 3233 4129 
Q 3647 3509 3647 2328 
Q 3647 1150 3233 529 
Q 2819 -91 2034 -91 
Q 1250 -91 836 529 
Q 422 1150 422 2328 
Q 422 3509 836 4129 
Q 1250 4750 2034 4750 
z
" transform="scale(0.015625)"/>
       </defs>
       <use xlink:href="#DejaVuSans-2d"/>
       <use xlink:href="#DejaVuSans-33" x="36.083984"/>
       <use xlink:href="#DejaVuSans-30" x="99.707031"/>
      </g>
     </g>
    </g>
    <g id="xtick_2">
     <g id="line2d_2">
      <g>
       <use xlink:href="#m1216d604fe" x="60.704918" y="62.64" style="fill: #ffffff; stroke: #ffffff; stroke-width: 0.8"/>
      </g>
     </g>
     <g id="text_2">
      <!-- -25 -->
      <g style="fill: #ffffff" transform="translate(52.538511 77.238438) scale(0.1 -0.1)">
       <defs>
        <path id="DejaVuSans-32" d="M 1228 531 
L 3431 531 
L 3431 0 
L 469 0 
L 469 531 
Q 828 903 1448 1529 
Q 2069 2156 2228 2338 
Q 2531 2678 2651 2914 
Q 2772 3150 2772 3378 
Q 2772 3750 2511 3984 
Q 2250 4219 1831 4219 
Q 1534 4219 1204 4116 
Q 875 4013 500 3803 
L 500 4441 
Q 881 4594 1212 4672 
Q 1544 4750 1819 4750 
Q 2544 4750 2975 4387 
Q 3406 4025 3406 3419 
Q 3406 3131 3298 2873 
Q 3191 2616 2906 2266 
Q 2828 2175 2409 1742 
Q 1991 1309 1228 531 
z
" transform="scale(0.015625)"/>
        <path id="DejaVuSans-35" d="M 691 4666 
L 3169 4666 
L 3169 4134 
L 1269 4134 
L 1269 2991 
Q 1406 3038 1543 3061 
Q 1681 3084 1819 3084 
Q 2600 3084 3056 2656 
Q 3513 2228 3513 1497 
Q 3513 744 3044 326 
Q 2575 -91 1722 -91 
Q 1428 -91 1123 -41 
Q 819 9 494 109 
L 494 744 
Q 775 591 1075 516 
Q 1375 441 1709 441 
Q 2250 441 2565 725 
Q 2881 1009 2881 1497 
Q 2881 1984 2565 2268 
Q 2250 2553 1709 2553 
Q 1456 2553 1204 2497 
Q 953 2441 691 2322 
L 691 4666 
z
" transform="scale(0.015625)"/>
       </defs>
       <use xlink:href="#DejaVuSans-2d"/>
       <use xlink:href="#DejaVuSans-32" x="36.083984"/>
       <use xlink:href="#DejaVuSans-35" x="99.707031"/>
      </g>
     </g>
    </g>
    <g id="xtick_3">
     <g id="line2d_3">
      <g>
       <use xlink:href="#m1216d604fe" x="73.82404" y="62.64" style="fill: #ffffff; stroke: #ffffff; stroke-width: 0.8"/>
      </g>
     </g>
     <g id="text_3">
      <!-- -20 -->
      <g style="fill: #ffffff" transform="translate(65.657634 77.238438) scale(0.1 -0.1)">
       <use xlink:href="#DejaVuSans-2d"/>
       <use xlink:href="#DejaVuSans-32" x="36.083984"/>
       <use xlink:href="#DejaVuSans-30" x="99.707031"/>
      </g>
     </g>
    </g>
    <g id="xtick_4">
     <g id="line2d_4">
      <g>
       <use xlink:href="#m1216d604fe" x="86.943162" y="62.64" style="fill: #ffffff; stroke: #ffffff; stroke-width: 0.8"/>
      </g>
     </g>
     <g id="text_4">
      <!-- -15 -->
      <g style="fill: #ffffff" transform="translate(78.776756 77.238438) scale(0.1 -0.1)">
       <defs>
        <path id="DejaVuSans-31" d="M 794 531 
L 1825 531 
L 1825 4091 
L 703 3866 
L 703 4441 
L 1819 4666 
L 2450 4666 
L 2450 531 
L 3481 531 
L 3481 0 
L 794 0 
L 794 531 
z
" transform="scale(0.015625)"/>
       </defs>
       <use xlink:href="#DejaVuSans-2d"/>
       <use xlink:href="#DejaVuSans-31" x="36.083984"/>
       <use xlink:href="#DejaVuSans-35" x="99.707031"/>
      </g>
     </g>
    </g>
    <g id="xtick_5">
     <g id="line2d_5">
      <g>
       <use xlink:href="#m1216d604fe" x="100.062284" y="62.64" style="fill: #ffffff; stroke: #ffffff; stroke-width: 0.8"/>
      </g>
     </g>
     <g id="text_5">
      <!-- -10 -->
      <g style="fill: #ffffff" transform="translate(91.895878 77.238438) scale(0.1 -0.1)">
       <use xlink:href="#DejaVuSans-2d"/>
       <use xlink:href="#DejaVuSans-31" x="36.083984"/>
       <use xlink:href="#DejaVuSans-30" x="99.707031"/>
      </g>
     </g>
    </g>
    <g id="xtick_6">
     <g id="line2d_6">
      <g>
       <use xlink:href="#m1216d604fe" x="113.181407" y="62.64" style="fill: #ffffff; stroke: #ffffff; stroke-width: 0.8"/>
      </g>
     </g>
     <g id="text_6">
      <!-- -5 -->
      <g style="fill: #ffffff" transform="translate(108.19625 77.238438) scale(0.1 -0.1)">
       <use xlink:href="#DejaVuSans-2d"/>
       <use xlink:href="#DejaVuSans-35" x="36.083984"/>
      </g>
     </g>
    </g>
    <g id="xtick_7">
     <g id="line2d_7">
      <g>
       <use xlink:href="#m1216d604fe" x="126.300529" y="62.64" style="fill: #ffffff; stroke: #ffffff; stroke-width: 0.8"/>
      </g>
     </g>
     <g id="text_7">
      <!-- 0 -->
      <g style="fill: #ffffff" transform="translate(123.119279 77.238438) scale(0.1 -0.1)">
       <use xlink:href="#DejaVuSans-30"/>
      </g>
     </g>
    </g>
    <g id="text_8">
     <!-- Past Trials -->
     <g style="fill: #ffffff" transform="translate(60.804688 90.916562) scale(0.1 -0.1)">
      <defs>
       <path id="DejaVuSans-50" d="M 1259 4147 
L 1259 2394 
L 2053 2394 
Q 2494 2394 2734 2622 
Q 2975 2850 2975 3272 
Q 2975 3691 2734 3919 
Q 2494 4147 2053 4147 
L 1259 4147 
z
M 628 4666 
L 2053 4666 
Q 2838 4666 3239 4311 
Q 3641 3956 3641 3272 
Q 3641 2581 3239 2228 
Q 2838 1875 2053 1875 
L 1259 1875 
L 1259 0 
L 628 0 
L 628 4666 
z
" transform="scale(0.015625)"/>
       <path id="DejaVuSans-61" d="M 2194 1759 
Q 1497 1759 1228 1600 
Q 959 1441 959 1056 
Q 959 750 1161 570 
Q 1363 391 1709 391 
Q 2188 391 2477 730 
Q 2766 1069 2766 1631 
L 2766 1759 
L 2194 1759 
z
M 3341 1997 
L 3341 0 
L 2766 0 
L 2766 531 
Q 2569 213 2275 61 
Q 1981 -91 1556 -91 
Q 1019 -91 701 211 
Q 384 513 384 1019 
Q 384 1609 779 1909 
Q 1175 2209 1959 2209 
L 2766 2209 
L 2766 2266 
Q 2766 2663 2505 2880 
Q 2244 3097 1772 3097 
Q 1472 3097 1187 3025 
Q 903 2953 641 2809 
L 641 3341 
Q 956 3463 1253 3523 
Q 1550 3584 1831 3584 
Q 2591 3584 2966 3190 
Q 3341 2797 3341 1997 
z
" transform="scale(0.015625)"/>
       <path id="DejaVuSans-73" d="M 2834 3397 
L 2834 2853 
Q 2591 2978 2328 3040 
Q 2066 3103 1784 3103 
Q 1356 3103 1142 2972 
Q 928 2841 928 2578 
Q 928 2378 1081 2264 
Q 1234 2150 1697 2047 
L 1894 2003 
Q 2506 1872 2764 1633 
Q 3022 1394 3022 966 
Q 3022 478 2636 193 
Q 2250 -91 1575 -91 
Q 1294 -91 989 -36 
Q 684 19 347 128 
L 347 722 
Q 666 556 975 473 
Q 1284 391 1588 391 
Q 1994 391 2212 530 
Q 2431 669 2431 922 
Q 2431 1156 2273 1281 
Q 2116 1406 1581 1522 
L 1381 1569 
Q 847 1681 609 1914 
Q 372 2147 372 2553 
Q 372 3047 722 3315 
Q 1072 3584 1716 3584 
Q 2034 3584 2315 3537 
Q 2597 3491 2834 3397 
z
" transform="scale(0.015625)"/>
       <path id="DejaVuSans-74" d="M 1172 4494 
L 1172 3500 
L 2356 3500 
L 2356 3053 
L 1172 3053 
L 1172 1153 
Q 1172 725 1289 603 
Q 1406 481 1766 481 
L 2356 481 
L 2356 0 
L 1766 0 
Q 1100 0 847 248 
Q 594 497 594 1153 
L 594 3053 
L 172 3053 
L 172 3500 
L 594 3500 
L 594 4494 
L 1172 4494 
z
" transform="scale(0.015625)"/>
       <path id="DejaVuSans-20" transform="scale(0.015625)"/>
       <path id="DejaVuSans-54" d="M -19 4666 
L 3928 4666 
L 3928 4134 
L 2272 4134 
L 2272 0 
L 1638 0 
L 1638 4134 
L -19 4134 
L -19 4666 
z
" transform="scale(0.015625)"/>
       <path id="DejaVuSans-72" d="M 2631 2963 
Q 2534 3019 2420 3045 
Q 2306 3072 2169 3072 
Q 1681 3072 1420 2755 
Q 1159 2438 1159 1844 
L 1159 0 
L 581 0 
L 581 3500 
L 1159 3500 
L 1159 2956 
Q 1341 3275 1631 3429 
Q 1922 3584 2338 3584 
Q 2397 3584 2469 3576 
Q 2541 3569 2628 3553 
L 2631 2963 
z
" transform="scale(0.015625)"/>
       <path id="DejaVuSans-69" d="M 603 3500 
L 1178 3500 
L 1178 0 
L 603 0 
L 603 3500 
z
M 603 4863 
L 1178 4863 
L 1178 4134 
L 603 4134 
L 603 4863 
z
" transform="scale(0.015625)"/>
       <path id="DejaVuSans-6c" d="M 603 4863 
L 1178 4863 
L 1178 0 
L 603 0 
L 603 4863 
z
" transform="scale(0.015625)"/>
      </defs>
      <use xlink:href="#DejaVuSans-50"/>
      <use xlink:href="#DejaVuSans-61" x="55.802734"/>
      <use xlink:href="#DejaVuSans-73" x="117.082031"/>
      <use xlink:href="#DejaVuSans-74" x="169.181641"/>
      <use xlink:href="#DejaVuSans-20" x="208.390625"/>
      <use xlink:href="#DejaVuSans-54" x="240.177734"/>
      <use xlink:href="#DejaVuSans-72" x="286.511719"/>
      <use xlink:href="#DejaVuSans-69" x="327.625"/>
      <use xlink:href="#DejaVuSans-61" x="355.408203"/>
      <use xlink:href="#DejaVuSans-6c" x="416.6875"/>
      <use xlink:href="#DejaVuSans-73" x="444.470703"/>
     </g>
    </g>
   </g>
   <g id="matplotlib.axis_2">
    <g id="ytick_1">
     <g id="line2d_8">
      <defs>
       <path id="m8d127d6454" d="M 0 0 
L -3.5 0 
" style="stroke: #ffffff; stroke-width: 0.8"/>
      </defs>
      <g>
       <use xlink:href="#m8d127d6454" x="43.78125" y="55.240358" style="fill: #ffffff; stroke: #ffffff; stroke-width: 0.8"/>
      </g>
     </g>
     <g id="text_9">
      <!-- 0.0 -->
      <g style="fill: #ffffff" transform="translate(20.878125 59.039577) scale(0.1 -0.1)">
       <defs>
        <path id="DejaVuSans-2e" d="M 684 794 
L 1344 794 
L 1344 0 
L 684 0 
L 684 794 
z
" transform="scale(0.015625)"/>
       </defs>
       <use xlink:href="#DejaVuSans-30"/>
       <use xlink:href="#DejaVuSans-2e" x="63.623047"/>
       <use xlink:href="#DejaVuSans-30" x="95.410156"/>
      </g>
     </g>
    </g>
    <g id="ytick_2">
     <g id="line2d_9">
      <g>
       <use xlink:href="#m8d127d6454" x="43.78125" y="15.720716" style="fill: #ffffff; stroke: #ffffff; stroke-width: 0.8"/>
      </g>
     </g>
     <g id="text_10">
      <!-- 0.1 -->
      <g style="fill: #ffffff" transform="translate(20.878125 19.519934) scale(0.1 -0.1)">
       <use xlink:href="#DejaVuSans-30"/>
       <use xlink:href="#DejaVuSans-2e" x="63.623047"/>
       <use xlink:href="#DejaVuSans-31" x="95.410156"/>
      </g>
     </g>
    </g>
    <g id="text_11">
     <!-- Choice Coefficient -->
     <g style="fill: #6a5acd" transform="translate(14.798438 80.323906) rotate(-90) scale(0.1 -0.1)">
      <defs>
       <path id="DejaVuSans-43" d="M 4122 4306 
L 4122 3641 
Q 3803 3938 3442 4084 
Q 3081 4231 2675 4231 
Q 1875 4231 1450 3742 
Q 1025 3253 1025 2328 
Q 1025 1406 1450 917 
Q 1875 428 2675 428 
Q 3081 428 3442 575 
Q 3803 722 4122 1019 
L 4122 359 
Q 3791 134 3420 21 
Q 3050 -91 2638 -91 
Q 1578 -91 968 557 
Q 359 1206 359 2328 
Q 359 3453 968 4101 
Q 1578 4750 2638 4750 
Q 3056 4750 3426 4639 
Q 3797 4528 4122 4306 
z
" transform="scale(0.015625)"/>
       <path id="DejaVuSans-68" d="M 3513 2113 
L 3513 0 
L 2938 0 
L 2938 2094 
Q 2938 2591 2744 2837 
Q 2550 3084 2163 3084 
Q 1697 3084 1428 2787 
Q 1159 2491 1159 1978 
L 1159 0 
L 581 0 
L 581 4863 
L 1159 4863 
L 1159 2956 
Q 1366 3272 1645 3428 
Q 1925 3584 2291 3584 
Q 2894 3584 3203 3211 
Q 3513 2838 3513 2113 
z
" transform="scale(0.015625)"/>
       <path id="DejaVuSans-6f" d="M 1959 3097 
Q 1497 3097 1228 2736 
Q 959 2375 959 1747 
Q 959 1119 1226 758 
Q 1494 397 1959 397 
Q 2419 397 2687 759 
Q 2956 1122 2956 1747 
Q 2956 2369 2687 2733 
Q 2419 3097 1959 3097 
z
M 1959 3584 
Q 2709 3584 3137 3096 
Q 3566 2609 3566 1747 
Q 3566 888 3137 398 
Q 2709 -91 1959 -91 
Q 1206 -91 779 398 
Q 353 888 353 1747 
Q 353 2609 779 3096 
Q 1206 3584 1959 3584 
z
" transform="scale(0.015625)"/>
       <path id="DejaVuSans-63" d="M 3122 3366 
L 3122 2828 
Q 2878 2963 2633 3030 
Q 2388 3097 2138 3097 
Q 1578 3097 1268 2742 
Q 959 2388 959 1747 
Q 959 1106 1268 751 
Q 1578 397 2138 397 
Q 2388 397 2633 464 
Q 2878 531 3122 666 
L 3122 134 
Q 2881 22 2623 -34 
Q 2366 -91 2075 -91 
Q 1284 -91 818 406 
Q 353 903 353 1747 
Q 353 2603 823 3093 
Q 1294 3584 2113 3584 
Q 2378 3584 2631 3529 
Q 2884 3475 3122 3366 
z
" transform="scale(0.015625)"/>
       <path id="DejaVuSans-65" d="M 3597 1894 
L 3597 1613 
L 953 1613 
Q 991 1019 1311 708 
Q 1631 397 2203 397 
Q 2534 397 2845 478 
Q 3156 559 3463 722 
L 3463 178 
Q 3153 47 2828 -22 
Q 2503 -91 2169 -91 
Q 1331 -91 842 396 
Q 353 884 353 1716 
Q 353 2575 817 3079 
Q 1281 3584 2069 3584 
Q 2775 3584 3186 3129 
Q 3597 2675 3597 1894 
z
M 3022 2063 
Q 3016 2534 2758 2815 
Q 2500 3097 2075 3097 
Q 1594 3097 1305 2825 
Q 1016 2553 972 2059 
L 3022 2063 
z
" transform="scale(0.015625)"/>
       <path id="DejaVuSans-66" d="M 2375 4863 
L 2375 4384 
L 1825 4384 
Q 1516 4384 1395 4259 
Q 1275 4134 1275 3809 
L 1275 3500 
L 2222 3500 
L 2222 3053 
L 1275 3053 
L 1275 0 
L 697 0 
L 697 3053 
L 147 3053 
L 147 3500 
L 697 3500 
L 697 3744 
Q 697 4328 969 4595 
Q 1241 4863 1831 4863 
L 2375 4863 
z
" transform="scale(0.015625)"/>
       <path id="DejaVuSans-6e" d="M 3513 2113 
L 3513 0 
L 2938 0 
L 2938 2094 
Q 2938 2591 2744 2837 
Q 2550 3084 2163 3084 
Q 1697 3084 1428 2787 
Q 1159 2491 1159 1978 
L 1159 0 
L 581 0 
L 581 3500 
L 1159 3500 
L 1159 2956 
Q 1366 3272 1645 3428 
Q 1925 3584 2291 3584 
Q 2894 3584 3203 3211 
Q 3513 2838 3513 2113 
z
" transform="scale(0.015625)"/>
      </defs>
      <use xlink:href="#DejaVuSans-43"/>
      <use xlink:href="#DejaVuSans-68" x="69.824219"/>
      <use xlink:href="#DejaVuSans-6f" x="133.203125"/>
      <use xlink:href="#DejaVuSans-69" x="194.384766"/>
      <use xlink:href="#DejaVuSans-63" x="222.167969"/>
      <use xlink:href="#DejaVuSans-65" x="277.148438"/>
      <use xlink:href="#DejaVuSans-20" x="338.671875"/>
      <use xlink:href="#DejaVuSans-43" x="370.458984"/>
      <use xlink:href="#DejaVuSans-6f" x="440.283203"/>
      <use xlink:href="#DejaVuSans-65" x="501.464844"/>
      <use xlink:href="#DejaVuSans-66" x="562.988281"/>
      <use xlink:href="#DejaVuSans-66" x="598.193359"/>
      <use xlink:href="#DejaVuSans-69" x="633.398438"/>
      <use xlink:href="#DejaVuSans-63" x="661.181641"/>
      <use xlink:href="#DejaVuSans-69" x="716.162109"/>
      <use xlink:href="#DejaVuSans-65" x="743.945312"/>
      <use xlink:href="#DejaVuSans-6e" x="805.46875"/>
      <use xlink:href="#DejaVuSans-74" x="868.847656"/>
     </g>
    </g>
   </g>
   <g id="line2d_10">
    <path d="M 47.585795 36.222761 
L 50.20962 43.267489 
L 52.833444 36.729159 
L 55.457269 41.367836 
L 58.081093 39.578822 
L 60.704918 39.715154 
L 63.328742 40.040118 
L 65.952567 33.163915 
L 68.576391 32.140809 
L 71.200216 35.514083 
L 73.82404 40.679203 
L 76.447864 32.686926 
L 79.071689 34.111013 
L 81.695513 35.395415 
L 84.319338 33.364059 
L 86.943162 38.453971 
L 89.566987 34.842489 
L 92.190811 39.024223 
L 94.814636 37.006638 
L 97.43846 34.372008 
L 100.062284 41.888588 
L 102.686109 36.893955 
L 105.309933 38.158173 
L 107.933758 29.395484 
L 110.557582 30.581597 
L 113.181407 33.547783 
L 115.805231 26.663944 
L 118.429056 40.19624 
L 121.05288 36.964497 
L 123.676705 28.787839 
" clip-path="url(#p6d99f388e6)" style="fill: none; stroke: #6a5acd; stroke-width: 1.5; stroke-linecap: square"/>
   </g>
   <g id="line2d_11">
    <path d="M 47.585795 34.752739 
L 50.20962 38.83575 
L 52.833444 39.168268 
L 55.457269 40.234743 
L 58.081093 36.178557 
L 60.704918 38.373272 
L 63.328742 39.335242 
L 65.952567 37.440105 
L 68.576391 32.432184 
L 71.200216 35.708885 
L 73.82404 42.210074 
L 76.447864 31.340319 
L 79.071689 45.868521 
L 81.695513 36.965386 
L 84.319338 39.522167 
L 86.943162 46.633314 
L 89.566987 32.442067 
L 92.190811 34.012961 
L 94.814636 30.470657 
L 97.43846 41.079815 
L 100.062284 27.26449 
L 102.686109 25.317798 
L 105.309933 35.450865 
L 107.933758 22.29367 
L 110.557582 35.641542 
L 113.181407 41.399933 
L 115.805231 33.599282 
L 118.429056 30.080992 
L 121.05288 27.121583 
L 123.676705 21.173891 
" clip-path="url(#p6d99f388e6)" style="fill: none; stroke: #8a2be2; stroke-width: 1.5; stroke-linecap: square"/>
   </g>
   <g id="patch_3">
    <path d="M 43.78125 62.64 
L 43.78125 7.2 
" style="fill: none; stroke: #000000; stroke-width: 0.8; stroke-linejoin: miter; stroke-linecap: square"/>
   </g>
   <g id="patch_4">
    <path d="M 127.48125 62.64 
L 127.48125 7.2 
" style="fill: none; stroke: #000000; stroke-width: 0.8; stroke-linejoin: miter; stroke-linecap: square"/>
   </g>
   <g id="patch_5">
    <path d="M 43.78125 62.64 
L 127.48125 62.64 
" style="fill: none; stroke: #000000; stroke-width: 0.8; stroke-linejoin: miter; stroke-linecap: square"/>
   </g>
  </g>
  <g id="axes_2">
   <g id="matplotlib.axis_3">
    <g id="ytick_3">
     <g id="line2d_12">
      <defs>
       <path id="mfa0061f3ba" d="M 0 0 
L 3.5 0 
" style="stroke: #ffffff; stroke-width: 0.8"/>
      </defs>
      <g>
       <use xlink:href="#mfa0061f3ba" x="127.48125" y="48.050526" style="fill: #ffffff; stroke: #ffffff; stroke-width: 0.8"/>
      </g>
     </g>
     <g id="text_12">
      <!-- 0 -->
      <g style="fill: #ffffff" transform="translate(134.48125 51.849745) scale(0.1 -0.1)">
       <use xlink:href="#DejaVuSans-30"/>
      </g>
     </g>
    </g>
    <g id="ytick_4">
     <g id="line2d_13">
      <g>
       <use xlink:href="#mfa0061f3ba" x="127.48125" y="18.871579" style="fill: #ffffff; stroke: #ffffff; stroke-width: 0.8"/>
      </g>
     </g>
     <g id="text_13">
      <!-- 10 -->
      <g style="fill: #ffffff" transform="translate(134.48125 22.670798) scale(0.1 -0.1)">
       <use xlink:href="#DejaVuSans-31"/>
       <use xlink:href="#DejaVuSans-30" x="63.623047"/>
      </g>
     </g>
    </g>
    <g id="text_14">
     <!-- Effect of # Blocks -->
     <g transform="translate(158.804688 79.290312) rotate(-90) scale(0.1 -0.1)">
      <defs>
       <path id="DejaVuSans-45" d="M 628 4666 
L 3578 4666 
L 3578 4134 
L 1259 4134 
L 1259 2753 
L 3481 2753 
L 3481 2222 
L 1259 2222 
L 1259 531 
L 3634 531 
L 3634 0 
L 628 0 
L 628 4666 
z
" transform="scale(0.015625)"/>
       <path id="DejaVuSans-23" d="M 3272 2816 
L 2363 2816 
L 2100 1772 
L 3016 1772 
L 3272 2816 
z
M 2803 4594 
L 2478 3297 
L 3391 3297 
L 3719 4594 
L 4219 4594 
L 3897 3297 
L 4872 3297 
L 4872 2816 
L 3775 2816 
L 3519 1772 
L 4513 1772 
L 4513 1294 
L 3397 1294 
L 3072 0 
L 2572 0 
L 2894 1294 
L 1978 1294 
L 1656 0 
L 1153 0 
L 1478 1294 
L 494 1294 
L 494 1772 
L 1594 1772 
L 1856 2816 
L 850 2816 
L 850 3297 
L 1978 3297 
L 2297 4594 
L 2803 4594 
z
" transform="scale(0.015625)"/>
       <path id="DejaVuSans-42" d="M 1259 2228 
L 1259 519 
L 2272 519 
Q 2781 519 3026 730 
Q 3272 941 3272 1375 
Q 3272 1813 3026 2020 
Q 2781 2228 2272 2228 
L 1259 2228 
z
M 1259 4147 
L 1259 2741 
L 2194 2741 
Q 2656 2741 2882 2914 
Q 3109 3088 3109 3444 
Q 3109 3797 2882 3972 
Q 2656 4147 2194 4147 
L 1259 4147 
z
M 628 4666 
L 2241 4666 
Q 2963 4666 3353 4366 
Q 3744 4066 3744 3513 
Q 3744 3084 3544 2831 
Q 3344 2578 2956 2516 
Q 3422 2416 3680 2098 
Q 3938 1781 3938 1306 
Q 3938 681 3513 340 
Q 3088 0 2303 0 
L 628 0 
L 628 4666 
z
" transform="scale(0.015625)"/>
       <path id="DejaVuSans-6b" d="M 581 4863 
L 1159 4863 
L 1159 1991 
L 2875 3500 
L 3609 3500 
L 1753 1863 
L 3688 0 
L 2938 0 
L 1159 1709 
L 1159 0 
L 581 0 
L 581 4863 
z
" transform="scale(0.015625)"/>
      </defs>
      <use xlink:href="#DejaVuSans-45"/>
      <use xlink:href="#DejaVuSans-66" x="63.183594"/>
      <use xlink:href="#DejaVuSans-66" x="98.388672"/>
      <use xlink:href="#DejaVuSans-65" x="133.59375"/>
      <use xlink:href="#DejaVuSans-63" x="195.117188"/>
      <use xlink:href="#DejaVuSans-74" x="250.097656"/>
      <use xlink:href="#DejaVuSans-20" x="289.306641"/>
      <use xlink:href="#DejaVuSans-6f" x="321.09375"/>
      <use xlink:href="#DejaVuSans-66" x="382.275391"/>
      <use xlink:href="#DejaVuSans-20" x="417.480469"/>
      <use xlink:href="#DejaVuSans-23" x="449.267578"/>
      <use xlink:href="#DejaVuSans-20" x="533.056641"/>
      <use xlink:href="#DejaVuSans-42" x="564.84375"/>
      <use xlink:href="#DejaVuSans-6c" x="633.447266"/>
      <use xlink:href="#DejaVuSans-6f" x="661.230469"/>
      <use xlink:href="#DejaVuSans-63" x="722.412109"/>
      <use xlink:href="#DejaVuSans-6b" x="777.392578"/>
      <use xlink:href="#DejaVuSans-73" x="835.302734"/>
     </g>
     <!-- (Many - Few) -->
     <g transform="translate(170.0025 67.07625) rotate(-90) scale(0.1 -0.1)">
      <defs>
       <path id="DejaVuSans-28" d="M 1984 4856 
Q 1566 4138 1362 3434 
Q 1159 2731 1159 2009 
Q 1159 1288 1364 580 
Q 1569 -128 1984 -844 
L 1484 -844 
Q 1016 -109 783 600 
Q 550 1309 550 2009 
Q 550 2706 781 3412 
Q 1013 4119 1484 4856 
L 1984 4856 
z
" transform="scale(0.015625)"/>
       <path id="DejaVuSans-4d" d="M 628 4666 
L 1569 4666 
L 2759 1491 
L 3956 4666 
L 4897 4666 
L 4897 0 
L 4281 0 
L 4281 4097 
L 3078 897 
L 2444 897 
L 1241 4097 
L 1241 0 
L 628 0 
L 628 4666 
z
" transform="scale(0.015625)"/>
       <path id="DejaVuSans-79" d="M 2059 -325 
Q 1816 -950 1584 -1140 
Q 1353 -1331 966 -1331 
L 506 -1331 
L 506 -850 
L 844 -850 
Q 1081 -850 1212 -737 
Q 1344 -625 1503 -206 
L 1606 56 
L 191 3500 
L 800 3500 
L 1894 763 
L 2988 3500 
L 3597 3500 
L 2059 -325 
z
" transform="scale(0.015625)"/>
       <path id="DejaVuSans-46" d="M 628 4666 
L 3309 4666 
L 3309 4134 
L 1259 4134 
L 1259 2759 
L 3109 2759 
L 3109 2228 
L 1259 2228 
L 1259 0 
L 628 0 
L 628 4666 
z
" transform="scale(0.015625)"/>
       <path id="DejaVuSans-77" d="M 269 3500 
L 844 3500 
L 1563 769 
L 2278 3500 
L 2956 3500 
L 3675 769 
L 4391 3500 
L 4966 3500 
L 4050 0 
L 3372 0 
L 2619 2869 
L 1863 0 
L 1184 0 
L 269 3500 
z
" transform="scale(0.015625)"/>
       <path id="DejaVuSans-29" d="M 513 4856 
L 1013 4856 
Q 1481 4119 1714 3412 
Q 1947 2706 1947 2009 
Q 1947 1309 1714 600 
Q 1481 -109 1013 -844 
L 513 -844 
Q 928 -128 1133 580 
Q 1338 1288 1338 2009 
Q 1338 2731 1133 3434 
Q 928 4138 513 4856 
z
" transform="scale(0.015625)"/>
      </defs>
      <use xlink:href="#DejaVuSans-28"/>
      <use xlink:href="#DejaVuSans-4d" x="39.013672"/>
      <use xlink:href="#DejaVuSans-61" x="125.292969"/>
      <use xlink:href="#DejaVuSans-6e" x="186.572266"/>
      <use xlink:href="#DejaVuSans-79" x="249.951172"/>
      <use xlink:href="#DejaVuSans-20" x="309.130859"/>
      <use xlink:href="#DejaVuSans-2d" x="340.917969"/>
      <use xlink:href="#DejaVuSans-20" x="377.001953"/>
      <use xlink:href="#DejaVuSans-46" x="408.789062"/>
      <use xlink:href="#DejaVuSans-65" x="460.808594"/>
      <use xlink:href="#DejaVuSans-77" x="522.332031"/>
      <use xlink:href="#DejaVuSans-29" x="604.119141"/>
     </g>
    </g>
   </g>
   <g id="line2d_14">
    <path d="M 47.585795 48.88078 
L 50.20962 50.524811 
L 52.833444 46.813938 
L 55.457269 48.667571 
L 58.081093 49.835058 
L 60.704918 48.958931 
L 63.328742 48.493366 
L 65.952567 45.653869 
L 68.576391 47.877977 
L 71.200216 47.937375 
L 73.82404 47.158993 
L 76.447864 48.843556 
L 79.071689 41.211663 
L 81.695513 47.124053 
L 84.319338 44.727181 
L 86.943162 43.659522 
L 89.566987 49.42402 
L 92.190811 51.314974 
L 94.814636 51.686185 
L 97.43846 44.102187 
L 100.062284 56.3036 
L 102.686109 54.63564 
L 105.309933 49.686282 
L 107.933758 52.23632 
L 110.557582 45.044479 
L 113.181407 43.627388 
L 115.805231 43.93443 
L 118.429056 53.900033 
L 121.05288 53.288938 
L 123.676705 52.097109 
" clip-path="url(#p6d99f388e6)" style="fill: none; stroke: #000000; stroke-linecap: square"/>
   </g>
   <g id="patch_6">
    <path d="M 43.78125 62.64 
L 43.78125 7.2 
" style="fill: none; stroke: #000000; stroke-width: 0.8; stroke-linejoin: miter; stroke-linecap: square"/>
   </g>
   <g id="patch_7">
    <path d="M 127.48125 62.64 
L 127.48125 7.2 
" style="fill: none; stroke: #000000; stroke-width: 0.8; stroke-linejoin: miter; stroke-linecap: square"/>
   </g>
   <g id="patch_8">
    <path d="M 43.78125 62.64 
L 127.48125 62.64 
" style="fill: none; stroke: #000000; stroke-width: 0.8; stroke-linejoin: miter; stroke-linecap: square"/>
   </g>
   <g id="PathCollection_1">
    <path d="M 47.585795 48.88078 
L 47.585795 48.88078 
L 47.585795 48.88078 
L 47.585795 48.88078 
L 47.585795 48.88078 
L 47.585795 48.88078 
L 47.585795 48.88078 
L 47.585795 48.88078 
L 47.585795 48.88078 
L 47.585795 48.88078 
z
" clip-path="url(#p6d99f388e6)" style="stroke: #000000"/>
    <path d="M 50.20962 50.524811 
L 50.20962 50.524811 
L 50.20962 50.524811 
L 50.20962 50.524811 
L 50.20962 50.524811 
L 50.20962 50.524811 
L 50.20962 50.524811 
L 50.20962 50.524811 
L 50.20962 50.524811 
L 50.20962 50.524811 
z
" clip-path="url(#p6d99f388e6)" style="stroke: #000000"/>
    <path d="M 52.833444 46.813938 
L 52.833444 46.813938 
L 52.833444 46.813938 
L 52.833444 46.813938 
L 52.833444 46.813938 
L 52.833444 46.813938 
L 52.833444 46.813938 
L 52.833444 46.813938 
L 52.833444 46.813938 
L 52.833444 46.813938 
z
" clip-path="url(#p6d99f388e6)" style="stroke: #000000"/>
    <path d="M 55.457269 48.667571 
L 55.457269 48.667571 
L 55.457269 48.667571 
L 55.457269 48.667571 
L 55.457269 48.667571 
L 55.457269 48.667571 
L 55.457269 48.667571 
L 55.457269 48.667571 
L 55.457269 48.667571 
L 55.457269 48.667571 
z
" clip-path="url(#p6d99f388e6)" style="stroke: #000000"/>
    <path d="M 58.081093 49.835058 
L 58.081093 49.835058 
L 58.081093 49.835058 
L 58.081093 49.835058 
L 58.081093 49.835058 
L 58.081093 49.835058 
L 58.081093 49.835058 
L 58.081093 49.835058 
L 58.081093 49.835058 
L 58.081093 49.835058 
z
" clip-path="url(#p6d99f388e6)" style="stroke: #000000"/>
    <path d="M 60.704918 48.958931 
L 60.704918 48.958931 
L 60.704918 48.958931 
L 60.704918 48.958931 
L 60.704918 48.958931 
L 60.704918 48.958931 
L 60.704918 48.958931 
L 60.704918 48.958931 
L 60.704918 48.958931 
L 60.704918 48.958931 
z
" clip-path="url(#p6d99f388e6)" style="stroke: #000000"/>
    <path d="M 63.328742 48.493366 
L 63.328742 48.493366 
L 63.328742 48.493366 
L 63.328742 48.493366 
L 63.328742 48.493366 
L 63.328742 48.493366 
L 63.328742 48.493366 
L 63.328742 48.493366 
L 63.328742 48.493366 
L 63.328742 48.493366 
z
" clip-path="url(#p6d99f388e6)" style="stroke: #000000"/>
    <path d="M 65.952567 45.653869 
L 65.952567 45.653869 
L 65.952567 45.653869 
L 65.952567 45.653869 
L 65.952567 45.653869 
L 65.952567 45.653869 
L 65.952567 45.653869 
L 65.952567 45.653869 
L 65.952567 45.653869 
L 65.952567 45.653869 
z
" clip-path="url(#p6d99f388e6)" style="stroke: #000000"/>
    <path d="M 68.576391 47.877977 
L 68.576391 47.877977 
L 68.576391 47.877977 
L 68.576391 47.877977 
L 68.576391 47.877977 
L 68.576391 47.877977 
L 68.576391 47.877977 
L 68.576391 47.877977 
L 68.576391 47.877977 
L 68.576391 47.877977 
z
" clip-path="url(#p6d99f388e6)" style="stroke: #000000"/>
    <path d="M 71.200216 47.937375 
L 71.200216 47.937375 
L 71.200216 47.937375 
L 71.200216 47.937375 
L 71.200216 47.937375 
L 71.200216 47.937375 
L 71.200216 47.937375 
L 71.200216 47.937375 
L 71.200216 47.937375 
L 71.200216 47.937375 
z
" clip-path="url(#p6d99f388e6)" style="stroke: #000000"/>
    <path d="M 73.82404 47.158993 
L 73.82404 47.158993 
L 73.82404 47.158993 
L 73.82404 47.158993 
L 73.82404 47.158993 
L 73.82404 47.158993 
L 73.82404 47.158993 
L 73.82404 47.158993 
L 73.82404 47.158993 
L 73.82404 47.158993 
z
" clip-path="url(#p6d99f388e6)" style="stroke: #000000"/>
    <path d="M 76.447864 48.843556 
L 76.447864 48.843556 
L 76.447864 48.843556 
L 76.447864 48.843556 
L 76.447864 48.843556 
L 76.447864 48.843556 
L 76.447864 48.843556 
L 76.447864 48.843556 
L 76.447864 48.843556 
L 76.447864 48.843556 
z
" clip-path="url(#p6d99f388e6)" style="stroke: #000000"/>
    <path d="M 79.071689 38.975595 
L 78.56966 40.52068 
L 76.945062 40.52068 
L 78.25939 41.475595 
L 77.757361 43.02068 
L 79.071689 42.065765 
L 80.386017 43.02068 
L 79.883988 41.475595 
L 81.198316 40.52068 
L 79.573717 40.52068 
z
" clip-path="url(#p6d99f388e6)" style="stroke: #000000"/>
    <path d="M 81.695513 47.124053 
L 81.695513 47.124053 
L 81.695513 47.124053 
L 81.695513 47.124053 
L 81.695513 47.124053 
L 81.695513 47.124053 
L 81.695513 47.124053 
L 81.695513 47.124053 
L 81.695513 47.124053 
L 81.695513 47.124053 
z
" clip-path="url(#p6d99f388e6)" style="stroke: #000000"/>
    <path d="M 84.319338 44.727181 
L 84.319338 44.727181 
L 84.319338 44.727181 
L 84.319338 44.727181 
L 84.319338 44.727181 
L 84.319338 44.727181 
L 84.319338 44.727181 
L 84.319338 44.727181 
L 84.319338 44.727181 
L 84.319338 44.727181 
z
" clip-path="url(#p6d99f388e6)" style="stroke: #000000"/>
    <path d="M 86.943162 43.659522 
L 86.943162 43.659522 
L 86.943162 43.659522 
L 86.943162 43.659522 
L 86.943162 43.659522 
L 86.943162 43.659522 
L 86.943162 43.659522 
L 86.943162 43.659522 
L 86.943162 43.659522 
L 86.943162 43.659522 
z
" clip-path="url(#p6d99f388e6)" style="stroke: #000000"/>
    <path d="M 89.566987 49.42402 
L 89.566987 49.42402 
L 89.566987 49.42402 
L 89.566987 49.42402 
L 89.566987 49.42402 
L 89.566987 49.42402 
L 89.566987 49.42402 
L 89.566987 49.42402 
L 89.566987 49.42402 
L 89.566987 49.42402 
z
" clip-path="url(#p6d99f388e6)" style="stroke: #000000"/>
    <path d="M 92.190811 51.314974 
L 92.190811 51.314974 
L 92.190811 51.314974 
L 92.190811 51.314974 
L 92.190811 51.314974 
L 92.190811 51.314974 
L 92.190811 51.314974 
L 92.190811 51.314974 
L 92.190811 51.314974 
L 92.190811 51.314974 
z
" clip-path="url(#p6d99f388e6)" style="stroke: #000000"/>
    <path d="M 94.814636 51.686185 
L 94.814636 51.686185 
L 94.814636 51.686185 
L 94.814636 51.686185 
L 94.814636 51.686185 
L 94.814636 51.686185 
L 94.814636 51.686185 
L 94.814636 51.686185 
L 94.814636 51.686185 
L 94.814636 51.686185 
z
" clip-path="url(#p6d99f388e6)" style="stroke: #000000"/>
    <path d="M 97.43846 44.102187 
L 97.43846 44.102187 
L 97.43846 44.102187 
L 97.43846 44.102187 
L 97.43846 44.102187 
L 97.43846 44.102187 
L 97.43846 44.102187 
L 97.43846 44.102187 
L 97.43846 44.102187 
L 97.43846 44.102187 
z
" clip-path="url(#p6d99f388e6)" style="stroke: #000000"/>
    <path d="M 100.062284 54.067532 
L 99.560256 55.612617 
L 97.935657 55.612617 
L 99.249985 56.567532 
L 98.747957 58.112617 
L 100.062284 57.157702 
L 101.376612 58.112617 
L 100.874584 56.567532 
L 102.188912 55.612617 
L 100.564313 55.612617 
z
" clip-path="url(#p6d99f388e6)" style="stroke: #000000"/>
    <path d="M 102.686109 52.399572 
L 102.18408 53.944657 
L 100.559482 53.944657 
L 101.87381 54.899572 
L 101.371781 56.444657 
L 102.686109 55.489742 
L 104.000437 56.444657 
L 103.498408 54.899572 
L 104.812736 53.944657 
L 103.188137 53.944657 
z
" clip-path="url(#p6d99f388e6)" style="stroke: #000000"/>
    <path d="M 105.309933 49.686282 
L 105.309933 49.686282 
L 105.309933 49.686282 
L 105.309933 49.686282 
L 105.309933 49.686282 
L 105.309933 49.686282 
L 105.309933 49.686282 
L 105.309933 49.686282 
L 105.309933 49.686282 
L 105.309933 49.686282 
z
" clip-path="url(#p6d99f388e6)" style="stroke: #000000"/>
    <path d="M 107.933758 52.23632 
L 107.933758 52.23632 
L 107.933758 52.23632 
L 107.933758 52.23632 
L 107.933758 52.23632 
L 107.933758 52.23632 
L 107.933758 52.23632 
L 107.933758 52.23632 
L 107.933758 52.23632 
L 107.933758 52.23632 
z
" clip-path="url(#p6d99f388e6)" style="stroke: #000000"/>
    <path d="M 110.557582 45.044479 
L 110.557582 45.044479 
L 110.557582 45.044479 
L 110.557582 45.044479 
L 110.557582 45.044479 
L 110.557582 45.044479 
L 110.557582 45.044479 
L 110.557582 45.044479 
L 110.557582 45.044479 
L 110.557582 45.044479 
z
" clip-path="url(#p6d99f388e6)" style="stroke: #000000"/>
    <path d="M 113.181407 43.627388 
L 113.181407 43.627388 
L 113.181407 43.627388 
L 113.181407 43.627388 
L 113.181407 43.627388 
L 113.181407 43.627388 
L 113.181407 43.627388 
L 113.181407 43.627388 
L 113.181407 43.627388 
L 113.181407 43.627388 
z
" clip-path="url(#p6d99f388e6)" style="stroke: #000000"/>
    <path d="M 115.805231 43.93443 
L 115.805231 43.93443 
L 115.805231 43.93443 
L 115.805231 43.93443 
L 115.805231 43.93443 
L 115.805231 43.93443 
L 115.805231 43.93443 
L 115.805231 43.93443 
L 115.805231 43.93443 
L 115.805231 43.93443 
z
" clip-path="url(#p6d99f388e6)" style="stroke: #000000"/>
    <path d="M 118.429056 51.663965 
L 117.927027 53.20905 
L 116.302429 53.20905 
L 117.616756 54.163965 
L 117.114728 55.70905 
L 118.429056 54.754135 
L 119.743383 55.70905 
L 119.241355 54.163965 
L 120.555683 53.20905 
L 118.931084 53.20905 
z
" clip-path="url(#p6d99f388e6)" style="stroke: #000000"/>
    <path d="M 121.05288 53.288938 
L 121.05288 53.288938 
L 121.05288 53.288938 
L 121.05288 53.288938 
L 121.05288 53.288938 
L 121.05288 53.288938 
L 121.05288 53.288938 
L 121.05288 53.288938 
L 121.05288 53.288938 
L 121.05288 53.288938 
z
" clip-path="url(#p6d99f388e6)" style="stroke: #000000"/>
    <path d="M 123.676705 52.097109 
L 123.676705 52.097109 
L 123.676705 52.097109 
L 123.676705 52.097109 
L 123.676705 52.097109 
L 123.676705 52.097109 
L 123.676705 52.097109 
L 123.676705 52.097109 
L 123.676705 52.097109 
L 123.676705 52.097109 
z
" clip-path="url(#p6d99f388e6)" style="stroke: #000000"/>
   </g>
  </g>
 </g>
 <defs>
  <clipPath id="p6d99f388e6">
   <rect x="43.78125" y="7.2" width="83.7" height="55.44"/>
  </clipPath>
 </defs>
</svg>
