<?xml version="1.0" encoding="utf-8" standalone="no"?>
<!DOCTYPE svg PUBLIC "-//W3C//DTD SVG 1.1//EN"
  "http://www.w3.org/Graphics/SVG/1.1/DTD/svg11.dtd">
<svg xmlns:xlink="http://www.w3.org/1999/xlink" width="182.785937pt" height="100.19625pt" viewBox="0 0 182.785937 100.19625" xmlns="http://www.w3.org/2000/svg" version="1.1">
 <metadata>
  <rdf:RDF xmlns:dc="http://purl.org/dc/elements/1.1/" xmlns:cc="http://creativecommons.org/ns#" xmlns:rdf="http://www.w3.org/1999/02/22-rdf-syntax-ns#">
   <cc:Work>
    <dc:type rdf:resource="http://purl.org/dc/dcmitype/StillImage"/>
    <dc:date>2024-02-01T23:12:37.012835</dc:date>
    <dc:format>image/svg+xml</dc:format>
    <dc:creator>
     <cc:Agent>
      <dc:title>Matplotlib v3.7.2, https://matplotlib.org/</dc:title>
     </cc:Agent>
    </dc:creator>
   </cc:Work>
  </rdf:RDF>
 </metadata>
 <defs>
  <style type="text/css">*{stroke-linejoin: round; stroke-linecap: butt}</style>
 </defs>
 <g id="figure_1">
  <g id="patch_1">
   <path d="M -0 100.19625 
L 182.785938 100.19625 
L 182.785938 0 
L -0 0 
z
" style="fill: #ffffff"/>
  </g>
  <g id="axes_1">
   <g id="patch_2">
    <path d="M 43.78125 62.64 
L 127.48125 62.64 
L 127.48125 7.2 
L 43.78125 7.2 
z
" style="fill: #ffffff"/>
   </g>
   <g id="PolyCollection_1">
    <defs>
     <path id="m64f6435ac9" d="M 47.585795 -63.341838 
L 47.585795 -46.908427 
L 50.20962 -47.440518 
L 52.833444 -47.896313 
L 55.457269 -47.086628 
L 58.081093 -40.07625 
L 60.704918 -51.52139 
L 63.328742 -50.480497 
L 65.952567 -48.486536 
L 68.576391 -52.82743 
L 71.200216 -45.562549 
L 73.82404 -50.844645 
L 76.447864 -52.367659 
L 79.071689 -50.280684 
L 81.695513 -53.980864 
L 84.319338 -54.834576 
L 86.943162 -59.924716 
L 89.566987 -52.661287 
L 92.190811 -60.3298 
L 94.814636 -62.478529 
L 97.43846 -57.698518 
L 100.062284 -59.71097 
L 102.686109 -61.977267 
L 105.309933 -59.820078 
L 107.933758 -61.275594 
L 110.557582 -68.296234 
L 113.181407 -65.870165 
L 115.805231 -68.692953 
L 118.429056 -72.152057 
L 121.05288 -79.43182 
L 123.676705 -73.579965 
L 123.676705 -84.147738 
L 123.676705 -84.147738 
L 121.05288 -90.47625 
L 118.429056 -83.952028 
L 115.805231 -78.957727 
L 113.181407 -76.045452 
L 110.557582 -80.508822 
L 107.933758 -71.732348 
L 105.309933 -69.922467 
L 102.686109 -73.788702 
L 100.062284 -71.997097 
L 97.43846 -70.696978 
L 94.814636 -73.994615 
L 92.190811 -72.35528 
L 89.566987 -64.991024 
L 86.943162 -71.269092 
L 84.319338 -67.584488 
L 81.695513 -67.288243 
L 79.071689 -63.229042 
L 76.447864 -67.072617 
L 73.82404 -65.155939 
L 71.200216 -61.011818 
L 68.576391 -67.367824 
L 65.952567 -63.735865 
L 63.328742 -66.586569 
L 60.704918 -66.595056 
L 58.081093 -58.854764 
L 55.457269 -64.528396 
L 52.833444 -65.196799 
L 50.20962 -64.41652 
L 47.585795 -63.341838 
z
" style="stroke: #6a5acd; stroke-opacity: 0.2"/>
    </defs>
    <g clip-path="url(#p3438f03514)">
     <use xlink:href="#m64f6435ac9" x="0" y="100.19625" style="fill: #6a5acd; fill-opacity: 0.2; stroke: #6a5acd; stroke-opacity: 0.2"/>
    </g>
   </g>
   <g id="PolyCollection_2">
    <defs>
     <path id="md0e745b8a0" d="M 47.585795 -74.573944 
L 47.585795 -59.096391 
L 50.20962 -54.368894 
L 52.833444 -48.068648 
L 55.457269 -51.034628 
L 58.081093 -48.440213 
L 60.704918 -50.926469 
L 63.328742 -44.7096 
L 65.952567 -53.100939 
L 68.576391 -46.128311 
L 71.200216 -50.285122 
L 73.82404 -55.663004 
L 76.447864 -54.641494 
L 79.071689 -51.213506 
L 81.695513 -54.834993 
L 84.319338 -51.764084 
L 86.943162 -54.26425 
L 89.566987 -50.855998 
L 92.190811 -55.816917 
L 94.814636 -61.368376 
L 97.43846 -60.201162 
L 100.062284 -65.384739 
L 102.686109 -60.55738 
L 105.309933 -62.195955 
L 107.933758 -69.157324 
L 110.557582 -60.993767 
L 113.181407 -71.159496 
L 115.805231 -70.28627 
L 118.429056 -65.954619 
L 121.05288 -74.954132 
L 123.676705 -77.217949 
L 123.676705 -87.202433 
L 123.676705 -87.202433 
L 121.05288 -86.613817 
L 118.429056 -77.038038 
L 115.805231 -81.430456 
L 113.181407 -83.600969 
L 110.557582 -73.549206 
L 107.933758 -79.158826 
L 105.309933 -75.006066 
L 102.686109 -71.949057 
L 100.062284 -76.699701 
L 97.43846 -74.054889 
L 94.814636 -73.376179 
L 92.190811 -67.91373 
L 89.566987 -63.469411 
L 86.943162 -69.578881 
L 84.319338 -63.58095 
L 81.695513 -67.576574 
L 79.071689 -65.051653 
L 76.447864 -70.188649 
L 73.82404 -69.066317 
L 71.200216 -65.675587 
L 68.576391 -60.130577 
L 65.952567 -66.066512 
L 63.328742 -61.50117 
L 60.704918 -67.565099 
L 58.081093 -61.295209 
L 55.457269 -70.237712 
L 52.833444 -64.312452 
L 50.20962 -72.77163 
L 47.585795 -74.573944 
z
" style="stroke: #8a2be2; stroke-opacity: 0.2"/>
    </defs>
    <g clip-path="url(#p3438f03514)">
     <use xlink:href="#md0e745b8a0" x="0" y="100.19625" style="fill: #8a2be2; fill-opacity: 0.2; stroke: #8a2be2; stroke-opacity: 0.2"/>
    </g>
   </g>
   <g id="matplotlib.axis_1">
    <g id="xtick_1">
     <g id="line2d_1">
      <defs>
       <path id="m32ecbe290e" d="M 0 0 
L 0 3.5 
" style="stroke: #000000; stroke-width: 0.8"/>
      </defs>
      <g>
       <use xlink:href="#m32ecbe290e" x="47.585795" y="62.64" style="stroke: #000000; stroke-width: 0.8"/>
      </g>
     </g>
     <g id="text_1">
      <!-- -30 -->
      <g transform="translate(39.419389 77.238438) scale(0.1 -0.1)">
       <defs>
        <path id="DejaVuSans-2d" d="M 313 2009 
L 1997 2009 
L 1997 1497 
L 313 1497 
L 313 2009 
z
" transform="scale(0.015625)"/>
        <path id="DejaVuSans-33" d="M 2597 2516 
Q 3050 2419 3304 2112 
Q 3559 1806 3559 1356 
Q 3559 666 3084 287 
Q 2609 -91 1734 -91 
Q 1441 -91 1130 -33 
Q 819 25 488 141 
L 488 750 
Q 750 597 1062 519 
Q 1375 441 1716 441 
Q 2309 441 2620 675 
Q 2931 909 2931 1356 
Q 2931 1769 2642 2001 
Q 2353 2234 1838 2234 
L 1294 2234 
L 1294 2753 
L 1863 2753 
Q 2328 2753 2575 2939 
Q 2822 3125 2822 3475 
Q 2822 3834 2567 4026 
Q 2313 4219 1838 4219 
Q 1578 4219 1281 4162 
Q 984 4106 628 3988 
L 628 4550 
Q 988 4650 1302 4700 
Q 1616 4750 1894 4750 
Q 2613 4750 3031 4423 
Q 3450 4097 3450 3541 
Q 3450 3153 3228 2886 
Q 3006 2619 2597 2516 
z
" transform="scale(0.015625)"/>
        <path id="DejaVuSans-30" d="M 2034 4250 
Q 1547 4250 1301 3770 
Q 1056 3291 1056 2328 
Q 1056 1369 1301 889 
Q 1547 409 2034 409 
Q 2525 409 2770 889 
Q 3016 1369 3016 2328 
Q 3016 3291 2770 3770 
Q 2525 4250 2034 4250 
z
M 2034 4750 
Q 2819 4750 3233 4129 
Q 3647 3509 3647 2328 
Q 3647 1150 3233 529 
Q 2819 -91 2034 -91 
Q 1250 -91 836 529 
Q 422 1150 422 2328 
Q 422 3509 836 4129 
Q 1250 4750 2034 4750 
z
" transform="scale(0.015625)"/>
       </defs>
       <use xlink:href="#DejaVuSans-2d"/>
       <use xlink:href="#DejaVuSans-33" x="36.083984"/>
       <use xlink:href="#DejaVuSans-30" x="99.707031"/>
      </g>
     </g>
    </g>
    <g id="xtick_2">
     <g id="line2d_2">
      <g>
       <use xlink:href="#m32ecbe290e" x="60.704918" y="62.64" style="stroke: #000000; stroke-width: 0.8"/>
      </g>
     </g>
     <g id="text_2">
      <!-- -25 -->
      <g transform="translate(52.538511 77.238438) scale(0.1 -0.1)">
       <defs>
        <path id="DejaVuSans-32" d="M 1228 531 
L 3431 531 
L 3431 0 
L 469 0 
L 469 531 
Q 828 903 1448 1529 
Q 2069 2156 2228 2338 
Q 2531 2678 2651 2914 
Q 2772 3150 2772 3378 
Q 2772 3750 2511 3984 
Q 2250 4219 1831 4219 
Q 1534 4219 1204 4116 
Q 875 4013 500 3803 
L 500 4441 
Q 881 4594 1212 4672 
Q 1544 4750 1819 4750 
Q 2544 4750 2975 4387 
Q 3406 4025 3406 3419 
Q 3406 3131 3298 2873 
Q 3191 2616 2906 2266 
Q 2828 2175 2409 1742 
Q 1991 1309 1228 531 
z
" transform="scale(0.015625)"/>
        <path id="DejaVuSans-35" d="M 691 4666 
L 3169 4666 
L 3169 4134 
L 1269 4134 
L 1269 2991 
Q 1406 3038 1543 3061 
Q 1681 3084 1819 3084 
Q 2600 3084 3056 2656 
Q 3513 2228 3513 1497 
Q 3513 744 3044 326 
Q 2575 -91 1722 -91 
Q 1428 -91 1123 -41 
Q 819 9 494 109 
L 494 744 
Q 775 591 1075 516 
Q 1375 441 1709 441 
Q 2250 441 2565 725 
Q 2881 1009 2881 1497 
Q 2881 1984 2565 2268 
Q 2250 2553 1709 2553 
Q 1456 2553 1204 2497 
Q 953 2441 691 2322 
L 691 4666 
z
" transform="scale(0.015625)"/>
       </defs>
       <use xlink:href="#DejaVuSans-2d"/>
       <use xlink:href="#DejaVuSans-32" x="36.083984"/>
       <use xlink:href="#DejaVuSans-35" x="99.707031"/>
      </g>
     </g>
    </g>
    <g id="xtick_3">
     <g id="line2d_3">
      <g>
       <use xlink:href="#m32ecbe290e" x="73.82404" y="62.64" style="stroke: #000000; stroke-width: 0.8"/>
      </g>
     </g>
     <g id="text_3">
      <!-- -20 -->
      <g transform="translate(65.657634 77.238438) scale(0.1 -0.1)">
       <use xlink:href="#DejaVuSans-2d"/>
       <use xlink:href="#DejaVuSans-32" x="36.083984"/>
       <use xlink:href="#DejaVuSans-30" x="99.707031"/>
      </g>
     </g>
    </g>
    <g id="xtick_4">
     <g id="line2d_4">
      <g>
       <use xlink:href="#m32ecbe290e" x="86.943162" y="62.64" style="stroke: #000000; stroke-width: 0.8"/>
      </g>
     </g>
     <g id="text_4">
      <!-- -15 -->
      <g transform="translate(78.776756 77.238438) scale(0.1 -0.1)">
       <defs>
        <path id="DejaVuSans-31" d="M 794 531 
L 1825 531 
L 1825 4091 
L 703 3866 
L 703 4441 
L 1819 4666 
L 2450 4666 
L 2450 531 
L 3481 531 
L 3481 0 
L 794 0 
L 794 531 
z
" transform="scale(0.015625)"/>
       </defs>
       <use xlink:href="#DejaVuSans-2d"/>
       <use xlink:href="#DejaVuSans-31" x="36.083984"/>
       <use xlink:href="#DejaVuSans-35" x="99.707031"/>
      </g>
     </g>
    </g>
    <g id="xtick_5">
     <g id="line2d_5">
      <g>
       <use xlink:href="#m32ecbe290e" x="100.062284" y="62.64" style="stroke: #000000; stroke-width: 0.8"/>
      </g>
     </g>
     <g id="text_5">
      <!-- -10 -->
      <g transform="translate(91.895878 77.238438) scale(0.1 -0.1)">
       <use xlink:href="#DejaVuSans-2d"/>
       <use xlink:href="#DejaVuSans-31" x="36.083984"/>
       <use xlink:href="#DejaVuSans-30" x="99.707031"/>
      </g>
     </g>
    </g>
    <g id="xtick_6">
     <g id="line2d_6">
      <g>
       <use xlink:href="#m32ecbe290e" x="113.181407" y="62.64" style="stroke: #000000; stroke-width: 0.8"/>
      </g>
     </g>
     <g id="text_6">
      <!-- -5 -->
      <g transform="translate(108.19625 77.238438) scale(0.1 -0.1)">
       <use xlink:href="#DejaVuSans-2d"/>
       <use xlink:href="#DejaVuSans-35" x="36.083984"/>
      </g>
     </g>
    </g>
    <g id="xtick_7">
     <g id="line2d_7">
      <g>
       <use xlink:href="#m32ecbe290e" x="126.300529" y="62.64" style="stroke: #000000; stroke-width: 0.8"/>
      </g>
     </g>
     <g id="text_7">
      <!-- 0 -->
      <g transform="translate(123.119279 77.238438) scale(0.1 -0.1)">
       <use xlink:href="#DejaVuSans-30"/>
      </g>
     </g>
    </g>
    <g id="text_8">
     <!-- Past Trials -->
     <g transform="translate(60.804688 90.916562) scale(0.1 -0.1)">
      <defs>
       <path id="DejaVuSans-50" d="M 1259 4147 
L 1259 2394 
L 2053 2394 
Q 2494 2394 2734 2622 
Q 2975 2850 2975 3272 
Q 2975 3691 2734 3919 
Q 2494 4147 2053 4147 
L 1259 4147 
z
M 628 4666 
L 2053 4666 
Q 2838 4666 3239 4311 
Q 3641 3956 3641 3272 
Q 3641 2581 3239 2228 
Q 2838 1875 2053 1875 
L 1259 1875 
L 1259 0 
L 628 0 
L 628 4666 
z
" transform="scale(0.015625)"/>
       <path id="DejaVuSans-61" d="M 2194 1759 
Q 1497 1759 1228 1600 
Q 959 1441 959 1056 
Q 959 750 1161 570 
Q 1363 391 1709 391 
Q 2188 391 2477 730 
Q 2766 1069 2766 1631 
L 2766 1759 
L 2194 1759 
z
M 3341 1997 
L 3341 0 
L 2766 0 
L 2766 531 
Q 2569 213 2275 61 
Q 1981 -91 1556 -91 
Q 1019 -91 701 211 
Q 384 513 384 1019 
Q 384 1609 779 1909 
Q 1175 2209 1959 2209 
L 2766 2209 
L 2766 2266 
Q 2766 2663 2505 2880 
Q 2244 3097 1772 3097 
Q 1472 3097 1187 3025 
Q 903 2953 641 2809 
L 641 3341 
Q 956 3463 1253 3523 
Q 1550 3584 1831 3584 
Q 2591 3584 2966 3190 
Q 3341 2797 3341 1997 
z
" transform="scale(0.015625)"/>
       <path id="DejaVuSans-73" d="M 2834 3397 
L 2834 2853 
Q 2591 2978 2328 3040 
Q 2066 3103 1784 3103 
Q 1356 3103 1142 2972 
Q 928 2841 928 2578 
Q 928 2378 1081 2264 
Q 1234 2150 1697 2047 
L 1894 2003 
Q 2506 1872 2764 1633 
Q 3022 1394 3022 966 
Q 3022 478 2636 193 
Q 2250 -91 1575 -91 
Q 1294 -91 989 -36 
Q 684 19 347 128 
L 347 722 
Q 666 556 975 473 
Q 1284 391 1588 391 
Q 1994 391 2212 530 
Q 2431 669 2431 922 
Q 2431 1156 2273 1281 
Q 2116 1406 1581 1522 
L 1381 1569 
Q 847 1681 609 1914 
Q 372 2147 372 2553 
Q 372 3047 722 3315 
Q 1072 3584 1716 3584 
Q 2034 3584 2315 3537 
Q 2597 3491 2834 3397 
z
" transform="scale(0.015625)"/>
       <path id="DejaVuSans-74" d="M 1172 4494 
L 1172 3500 
L 2356 3500 
L 2356 3053 
L 1172 3053 
L 1172 1153 
Q 1172 725 1289 603 
Q 1406 481 1766 481 
L 2356 481 
L 2356 0 
L 1766 0 
Q 1100 0 847 248 
Q 594 497 594 1153 
L 594 3053 
L 172 3053 
L 172 3500 
L 594 3500 
L 594 4494 
L 1172 4494 
z
" transform="scale(0.015625)"/>
       <path id="DejaVuSans-20" transform="scale(0.015625)"/>
       <path id="DejaVuSans-54" d="M -19 4666 
L 3928 4666 
L 3928 4134 
L 2272 4134 
L 2272 0 
L 1638 0 
L 1638 4134 
L -19 4134 
L -19 4666 
z
" transform="scale(0.015625)"/>
       <path id="DejaVuSans-72" d="M 2631 2963 
Q 2534 3019 2420 3045 
Q 2306 3072 2169 3072 
Q 1681 3072 1420 2755 
Q 1159 2438 1159 1844 
L 1159 0 
L 581 0 
L 581 3500 
L 1159 3500 
L 1159 2956 
Q 1341 3275 1631 3429 
Q 1922 3584 2338 3584 
Q 2397 3584 2469 3576 
Q 2541 3569 2628 3553 
L 2631 2963 
z
" transform="scale(0.015625)"/>
       <path id="DejaVuSans-69" d="M 603 3500 
L 1178 3500 
L 1178 0 
L 603 0 
L 603 3500 
z
M 603 4863 
L 1178 4863 
L 1178 4134 
L 603 4134 
L 603 4863 
z
" transform="scale(0.015625)"/>
       <path id="DejaVuSans-6c" d="M 603 4863 
L 1178 4863 
L 1178 0 
L 603 0 
L 603 4863 
z
" transform="scale(0.015625)"/>
      </defs>
      <use xlink:href="#DejaVuSans-50"/>
      <use xlink:href="#DejaVuSans-61" x="55.802734"/>
      <use xlink:href="#DejaVuSans-73" x="117.082031"/>
      <use xlink:href="#DejaVuSans-74" x="169.181641"/>
      <use xlink:href="#DejaVuSans-20" x="208.390625"/>
      <use xlink:href="#DejaVuSans-54" x="240.177734"/>
      <use xlink:href="#DejaVuSans-72" x="286.511719"/>
      <use xlink:href="#DejaVuSans-69" x="327.625"/>
      <use xlink:href="#DejaVuSans-61" x="355.408203"/>
      <use xlink:href="#DejaVuSans-6c" x="416.6875"/>
      <use xlink:href="#DejaVuSans-73" x="444.470703"/>
     </g>
    </g>
   </g>
   <g id="matplotlib.axis_2">
    <g id="ytick_1">
     <g id="line2d_8">
      <defs>
       <path id="m819d2f05cd" d="M 0 0 
L -3.5 0 
" style="stroke: #000000; stroke-width: 0.8"/>
      </defs>
      <g>
       <use xlink:href="#m819d2f05cd" x="43.78125" y="39.468922" style="stroke: #000000; stroke-width: 0.8"/>
      </g>
     </g>
     <g id="text_9">
      <!-- 0.0 -->
      <g transform="translate(20.878125 43.268141) scale(0.1 -0.1)">
       <defs>
        <path id="DejaVuSans-2e" d="M 684 794 
L 1344 794 
L 1344 0 
L 684 0 
L 684 794 
z
" transform="scale(0.015625)"/>
       </defs>
       <use xlink:href="#DejaVuSans-30"/>
       <use xlink:href="#DejaVuSans-2e" x="63.623047"/>
       <use xlink:href="#DejaVuSans-30" x="95.410156"/>
      </g>
     </g>
    </g>
    <g id="ytick_2">
     <g id="line2d_9">
      <g>
       <use xlink:href="#m819d2f05cd" x="43.78125" y="11.038001" style="stroke: #000000; stroke-width: 0.8"/>
      </g>
     </g>
     <g id="text_10">
      <!-- 0.2 -->
      <g transform="translate(20.878125 14.83722) scale(0.1 -0.1)">
       <use xlink:href="#DejaVuSans-30"/>
       <use xlink:href="#DejaVuSans-2e" x="63.623047"/>
       <use xlink:href="#DejaVuSans-32" x="95.410156"/>
      </g>
     </g>
    </g>
    <g id="text_11">
     <!-- Association Coefficient -->
     <g style="fill: #6a5acd" transform="translate(14.798438 91.858281) rotate(-90) scale(0.1 -0.1)">
      <defs>
       <path id="DejaVuSans-41" d="M 2188 4044 
L 1331 1722 
L 3047 1722 
L 2188 4044 
z
M 1831 4666 
L 2547 4666 
L 4325 0 
L 3669 0 
L 3244 1197 
L 1141 1197 
L 716 0 
L 50 0 
L 1831 4666 
z
" transform="scale(0.015625)"/>
       <path id="DejaVuSans-6f" d="M 1959 3097 
Q 1497 3097 1228 2736 
Q 959 2375 959 1747 
Q 959 1119 1226 758 
Q 1494 397 1959 397 
Q 2419 397 2687 759 
Q 2956 1122 2956 1747 
Q 2956 2369 2687 2733 
Q 2419 3097 1959 3097 
z
M 1959 3584 
Q 2709 3584 3137 3096 
Q 3566 2609 3566 1747 
Q 3566 888 3137 398 
Q 2709 -91 1959 -91 
Q 1206 -91 779 398 
Q 353 888 353 1747 
Q 353 2609 779 3096 
Q 1206 3584 1959 3584 
z
" transform="scale(0.015625)"/>
       <path id="DejaVuSans-63" d="M 3122 3366 
L 3122 2828 
Q 2878 2963 2633 3030 
Q 2388 3097 2138 3097 
Q 1578 3097 1268 2742 
Q 959 2388 959 1747 
Q 959 1106 1268 751 
Q 1578 397 2138 397 
Q 2388 397 2633 464 
Q 2878 531 3122 666 
L 3122 134 
Q 2881 22 2623 -34 
Q 2366 -91 2075 -91 
Q 1284 -91 818 406 
Q 353 903 353 1747 
Q 353 2603 823 3093 
Q 1294 3584 2113 3584 
Q 2378 3584 2631 3529 
Q 2884 3475 3122 3366 
z
" transform="scale(0.015625)"/>
       <path id="DejaVuSans-6e" d="M 3513 2113 
L 3513 0 
L 2938 0 
L 2938 2094 
Q 2938 2591 2744 2837 
Q 2550 3084 2163 3084 
Q 1697 3084 1428 2787 
Q 1159 2491 1159 1978 
L 1159 0 
L 581 0 
L 581 3500 
L 1159 3500 
L 1159 2956 
Q 1366 3272 1645 3428 
Q 1925 3584 2291 3584 
Q 2894 3584 3203 3211 
Q 3513 2838 3513 2113 
z
" transform="scale(0.015625)"/>
       <path id="DejaVuSans-43" d="M 4122 4306 
L 4122 3641 
Q 3803 3938 3442 4084 
Q 3081 4231 2675 4231 
Q 1875 4231 1450 3742 
Q 1025 3253 1025 2328 
Q 1025 1406 1450 917 
Q 1875 428 2675 428 
Q 3081 428 3442 575 
Q 3803 722 4122 1019 
L 4122 359 
Q 3791 134 3420 21 
Q 3050 -91 2638 -91 
Q 1578 -91 968 557 
Q 359 1206 359 2328 
Q 359 3453 968 4101 
Q 1578 4750 2638 4750 
Q 3056 4750 3426 4639 
Q 3797 4528 4122 4306 
z
" transform="scale(0.015625)"/>
       <path id="DejaVuSans-65" d="M 3597 1894 
L 3597 1613 
L 953 1613 
Q 991 1019 1311 708 
Q 1631 397 2203 397 
Q 2534 397 2845 478 
Q 3156 559 3463 722 
L 3463 178 
Q 3153 47 2828 -22 
Q 2503 -91 2169 -91 
Q 1331 -91 842 396 
Q 353 884 353 1716 
Q 353 2575 817 3079 
Q 1281 3584 2069 3584 
Q 2775 3584 3186 3129 
Q 3597 2675 3597 1894 
z
M 3022 2063 
Q 3016 2534 2758 2815 
Q 2500 3097 2075 3097 
Q 1594 3097 1305 2825 
Q 1016 2553 972 2059 
L 3022 2063 
z
" transform="scale(0.015625)"/>
       <path id="DejaVuSans-66" d="M 2375 4863 
L 2375 4384 
L 1825 4384 
Q 1516 4384 1395 4259 
Q 1275 4134 1275 3809 
L 1275 3500 
L 2222 3500 
L 2222 3053 
L 1275 3053 
L 1275 0 
L 697 0 
L 697 3053 
L 147 3053 
L 147 3500 
L 697 3500 
L 697 3744 
Q 697 4328 969 4595 
Q 1241 4863 1831 4863 
L 2375 4863 
z
" transform="scale(0.015625)"/>
      </defs>
      <use xlink:href="#DejaVuSans-41"/>
      <use xlink:href="#DejaVuSans-73" x="68.408203"/>
      <use xlink:href="#DejaVuSans-73" x="120.507812"/>
      <use xlink:href="#DejaVuSans-6f" x="172.607422"/>
      <use xlink:href="#DejaVuSans-63" x="233.789062"/>
      <use xlink:href="#DejaVuSans-69" x="288.769531"/>
      <use xlink:href="#DejaVuSans-61" x="316.552734"/>
      <use xlink:href="#DejaVuSans-74" x="377.832031"/>
      <use xlink:href="#DejaVuSans-69" x="417.041016"/>
      <use xlink:href="#DejaVuSans-6f" x="444.824219"/>
      <use xlink:href="#DejaVuSans-6e" x="506.005859"/>
      <use xlink:href="#DejaVuSans-20" x="569.384766"/>
      <use xlink:href="#DejaVuSans-43" x="601.171875"/>
      <use xlink:href="#DejaVuSans-6f" x="670.996094"/>
      <use xlink:href="#DejaVuSans-65" x="732.177734"/>
      <use xlink:href="#DejaVuSans-66" x="793.701172"/>
      <use xlink:href="#DejaVuSans-66" x="828.90625"/>
      <use xlink:href="#DejaVuSans-69" x="864.111328"/>
      <use xlink:href="#DejaVuSans-63" x="891.894531"/>
      <use xlink:href="#DejaVuSans-69" x="946.875"/>
      <use xlink:href="#DejaVuSans-65" x="974.658203"/>
      <use xlink:href="#DejaVuSans-6e" x="1036.181641"/>
      <use xlink:href="#DejaVuSans-74" x="1099.560547"/>
     </g>
    </g>
   </g>
   <g id="line2d_10">
    <path d="M 47.585795 45.55927 
L 50.20962 44.964032 
L 52.833444 43.431344 
L 55.457269 45.779299 
L 58.081093 50.939303 
L 60.704918 40.744027 
L 63.328742 42.158955 
L 65.952567 44.121324 
L 68.576391 39.862701 
L 71.200216 45.902547 
L 73.82404 41.961315 
L 76.447864 40.25662 
L 79.071689 43.810928 
L 81.695513 39.450647 
L 84.319338 39.4633 
L 86.943162 34.130417 
L 89.566987 41.206556 
L 92.190811 33.487248 
L 94.814636 32.267744 
L 97.43846 34.924557 
L 100.062284 34.398716 
L 102.686109 32.346264 
L 105.309933 35.322689 
L 107.933758 33.662759 
L 110.557582 26.006501 
L 113.181407 28.93397 
L 115.805231 26.370778 
L 118.429056 22.593691 
L 121.05288 15.180648 
L 123.676705 21.370664 
" clip-path="url(#p3438f03514)" style="fill: none; stroke: #6a5acd; stroke-width: 1.5; stroke-linecap: square"/>
   </g>
   <g id="line2d_11">
    <path d="M 47.585795 33.694705 
L 50.20962 35.902035 
L 52.833444 42.950954 
L 55.457269 39.881217 
L 58.081093 45.314027 
L 60.704918 40.626136 
L 63.328742 46.659755 
L 65.952567 40.978794 
L 68.576391 47.110046 
L 71.200216 42.447716 
L 73.82404 38.682255 
L 76.447864 36.971429 
L 79.071689 41.685354 
L 81.695513 39.293468 
L 84.319338 43.659617 
L 86.943162 37.802898 
L 89.566987 42.801085 
L 92.190811 38.584958 
L 94.814636 32.549723 
L 97.43846 32.796285 
L 100.062284 28.736123 
L 102.686109 33.812736 
L 105.309933 31.056582 
L 107.933758 25.624376 
L 110.557582 32.710662 
L 113.181407 23.475904 
L 115.805231 24.216319 
L 118.429056 28.998079 
L 121.05288 19.692193 
L 123.676705 18.322458 
" clip-path="url(#p3438f03514)" style="fill: none; stroke: #8a2be2; stroke-width: 1.5; stroke-linecap: square"/>
   </g>
   <g id="patch_3">
    <path d="M 43.78125 62.64 
L 43.78125 7.2 
" style="fill: none; stroke: #000000; stroke-width: 0.8; stroke-linejoin: miter; stroke-linecap: square"/>
   </g>
   <g id="patch_4">
    <path d="M 127.48125 62.64 
L 127.48125 7.2 
" style="fill: none; stroke: #000000; stroke-width: 0.8; stroke-linejoin: miter; stroke-linecap: square"/>
   </g>
   <g id="patch_5">
    <path d="M 43.78125 62.64 
L 127.48125 62.64 
" style="fill: none; stroke: #000000; stroke-width: 0.8; stroke-linejoin: miter; stroke-linecap: square"/>
   </g>
  </g>
  <g id="axes_2">
   <g id="matplotlib.axis_3">
    <g id="ytick_3">
     <g id="line2d_12">
      <defs>
       <path id="m1d95fa8542" d="M 0 0 
L 3.5 0 
" style="stroke: #000000; stroke-width: 0.8"/>
      </defs>
      <g>
       <use xlink:href="#m1d95fa8542" x="127.48125" y="56.48" style="stroke: #000000; stroke-width: 0.8"/>
      </g>
     </g>
     <g id="text_12">
      <!-- −10 -->
      <g transform="translate(134.48125 60.279219) scale(0.1 -0.1)">
       <defs>
        <path id="DejaVuSans-2212" d="M 678 2272 
L 4684 2272 
L 4684 1741 
L 678 1741 
L 678 2272 
z
" transform="scale(0.015625)"/>
       </defs>
       <use xlink:href="#DejaVuSans-2212"/>
       <use xlink:href="#DejaVuSans-31" x="83.789062"/>
       <use xlink:href="#DejaVuSans-30" x="147.412109"/>
      </g>
     </g>
    </g>
    <g id="ytick_4">
     <g id="line2d_13">
      <g>
       <use xlink:href="#m1d95fa8542" x="127.48125" y="25.68" style="stroke: #000000; stroke-width: 0.8"/>
      </g>
     </g>
     <g id="text_13">
      <!-- 0 -->
      <g transform="translate(134.48125 29.479219) scale(0.1 -0.1)">
       <use xlink:href="#DejaVuSans-30"/>
      </g>
     </g>
    </g>
    <g id="text_14">
     <!-- Effect of Current Reward -->
     <g transform="translate(167.9875 -26.53) rotate(-270) scale(0.1 -0.1)">
      <defs>
       <path id="DejaVuSans-45" d="M 628 4666 
L 3578 4666 
L 3578 4134 
L 1259 4134 
L 1259 2753 
L 3481 2753 
L 3481 2222 
L 1259 2222 
L 1259 531 
L 3634 531 
L 3634 0 
L 628 0 
L 628 4666 
z
" transform="scale(0.015625)"/>
       <path id="DejaVuSans-75" d="M 544 1381 
L 544 3500 
L 1119 3500 
L 1119 1403 
Q 1119 906 1312 657 
Q 1506 409 1894 409 
Q 2359 409 2629 706 
Q 2900 1003 2900 1516 
L 2900 3500 
L 3475 3500 
L 3475 0 
L 2900 0 
L 2900 538 
Q 2691 219 2414 64 
Q 2138 -91 1772 -91 
Q 1169 -91 856 284 
Q 544 659 544 1381 
z
M 1991 3584 
L 1991 3584 
z
" transform="scale(0.015625)"/>
       <path id="DejaVuSans-52" d="M 2841 2188 
Q 3044 2119 3236 1894 
Q 3428 1669 3622 1275 
L 4263 0 
L 3584 0 
L 2988 1197 
Q 2756 1666 2539 1819 
Q 2322 1972 1947 1972 
L 1259 1972 
L 1259 0 
L 628 0 
L 628 4666 
L 2053 4666 
Q 2853 4666 3247 4331 
Q 3641 3997 3641 3322 
Q 3641 2881 3436 2590 
Q 3231 2300 2841 2188 
z
M 1259 4147 
L 1259 2491 
L 2053 2491 
Q 2509 2491 2742 2702 
Q 2975 2913 2975 3322 
Q 2975 3731 2742 3939 
Q 2509 4147 2053 4147 
L 1259 4147 
z
" transform="scale(0.015625)"/>
       <path id="DejaVuSans-77" d="M 269 3500 
L 844 3500 
L 1563 769 
L 2278 3500 
L 2956 3500 
L 3675 769 
L 4391 3500 
L 4966 3500 
L 4050 0 
L 3372 0 
L 2619 2869 
L 1863 0 
L 1184 0 
L 269 3500 
z
" transform="scale(0.015625)"/>
       <path id="DejaVuSans-64" d="M 2906 2969 
L 2906 4863 
L 3481 4863 
L 3481 0 
L 2906 0 
L 2906 525 
Q 2725 213 2448 61 
Q 2172 -91 1784 -91 
Q 1150 -91 751 415 
Q 353 922 353 1747 
Q 353 2572 751 3078 
Q 1150 3584 1784 3584 
Q 2172 3584 2448 3432 
Q 2725 3281 2906 2969 
z
M 947 1747 
Q 947 1113 1208 752 
Q 1469 391 1925 391 
Q 2381 391 2643 752 
Q 2906 1113 2906 1747 
Q 2906 2381 2643 2742 
Q 2381 3103 1925 3103 
Q 1469 3103 1208 2742 
Q 947 2381 947 1747 
z
" transform="scale(0.015625)"/>
      </defs>
      <use xlink:href="#DejaVuSans-45"/>
      <use xlink:href="#DejaVuSans-66" x="63.183594"/>
      <use xlink:href="#DejaVuSans-66" x="98.388672"/>
      <use xlink:href="#DejaVuSans-65" x="133.59375"/>
      <use xlink:href="#DejaVuSans-63" x="195.117188"/>
      <use xlink:href="#DejaVuSans-74" x="250.097656"/>
      <use xlink:href="#DejaVuSans-20" x="289.306641"/>
      <use xlink:href="#DejaVuSans-6f" x="321.09375"/>
      <use xlink:href="#DejaVuSans-66" x="382.275391"/>
      <use xlink:href="#DejaVuSans-20" x="417.480469"/>
      <use xlink:href="#DejaVuSans-43" x="449.267578"/>
      <use xlink:href="#DejaVuSans-75" x="519.091797"/>
      <use xlink:href="#DejaVuSans-72" x="582.470703"/>
      <use xlink:href="#DejaVuSans-72" x="621.833984"/>
      <use xlink:href="#DejaVuSans-65" x="660.697266"/>
      <use xlink:href="#DejaVuSans-6e" x="722.220703"/>
      <use xlink:href="#DejaVuSans-74" x="785.599609"/>
      <use xlink:href="#DejaVuSans-20" x="824.808594"/>
      <use xlink:href="#DejaVuSans-52" x="856.595703"/>
      <use xlink:href="#DejaVuSans-65" x="921.578125"/>
      <use xlink:href="#DejaVuSans-77" x="983.101562"/>
      <use xlink:href="#DejaVuSans-61" x="1064.888672"/>
      <use xlink:href="#DejaVuSans-72" x="1126.167969"/>
      <use xlink:href="#DejaVuSans-64" x="1165.53125"/>
     </g>
     <!-- (High - Low) -->
     <g transform="translate(156.789688 4.697344) rotate(-270) scale(0.1 -0.1)">
      <defs>
       <path id="DejaVuSans-28" d="M 1984 4856 
Q 1566 4138 1362 3434 
Q 1159 2731 1159 2009 
Q 1159 1288 1364 580 
Q 1569 -128 1984 -844 
L 1484 -844 
Q 1016 -109 783 600 
Q 550 1309 550 2009 
Q 550 2706 781 3412 
Q 1013 4119 1484 4856 
L 1984 4856 
z
" transform="scale(0.015625)"/>
       <path id="DejaVuSans-48" d="M 628 4666 
L 1259 4666 
L 1259 2753 
L 3553 2753 
L 3553 4666 
L 4184 4666 
L 4184 0 
L 3553 0 
L 3553 2222 
L 1259 2222 
L 1259 0 
L 628 0 
L 628 4666 
z
" transform="scale(0.015625)"/>
       <path id="DejaVuSans-67" d="M 2906 1791 
Q 2906 2416 2648 2759 
Q 2391 3103 1925 3103 
Q 1463 3103 1205 2759 
Q 947 2416 947 1791 
Q 947 1169 1205 825 
Q 1463 481 1925 481 
Q 2391 481 2648 825 
Q 2906 1169 2906 1791 
z
M 3481 434 
Q 3481 -459 3084 -895 
Q 2688 -1331 1869 -1331 
Q 1566 -1331 1297 -1286 
Q 1028 -1241 775 -1147 
L 775 -588 
Q 1028 -725 1275 -790 
Q 1522 -856 1778 -856 
Q 2344 -856 2625 -561 
Q 2906 -266 2906 331 
L 2906 616 
Q 2728 306 2450 153 
Q 2172 0 1784 0 
Q 1141 0 747 490 
Q 353 981 353 1791 
Q 353 2603 747 3093 
Q 1141 3584 1784 3584 
Q 2172 3584 2450 3431 
Q 2728 3278 2906 2969 
L 2906 3500 
L 3481 3500 
L 3481 434 
z
" transform="scale(0.015625)"/>
       <path id="DejaVuSans-68" d="M 3513 2113 
L 3513 0 
L 2938 0 
L 2938 2094 
Q 2938 2591 2744 2837 
Q 2550 3084 2163 3084 
Q 1697 3084 1428 2787 
Q 1159 2491 1159 1978 
L 1159 0 
L 581 0 
L 581 4863 
L 1159 4863 
L 1159 2956 
Q 1366 3272 1645 3428 
Q 1925 3584 2291 3584 
Q 2894 3584 3203 3211 
Q 3513 2838 3513 2113 
z
" transform="scale(0.015625)"/>
       <path id="DejaVuSans-4c" d="M 628 4666 
L 1259 4666 
L 1259 531 
L 3531 531 
L 3531 0 
L 628 0 
L 628 4666 
z
" transform="scale(0.015625)"/>
       <path id="DejaVuSans-29" d="M 513 4856 
L 1013 4856 
Q 1481 4119 1714 3412 
Q 1947 2706 1947 2009 
Q 1947 1309 1714 600 
Q 1481 -109 1013 -844 
L 513 -844 
Q 928 -128 1133 580 
Q 1338 1288 1338 2009 
Q 1338 2731 1133 3434 
Q 928 4138 513 4856 
z
" transform="scale(0.015625)"/>
      </defs>
      <use xlink:href="#DejaVuSans-28"/>
      <use xlink:href="#DejaVuSans-48" x="39.013672"/>
      <use xlink:href="#DejaVuSans-69" x="114.208984"/>
      <use xlink:href="#DejaVuSans-67" x="141.992188"/>
      <use xlink:href="#DejaVuSans-68" x="205.46875"/>
      <use xlink:href="#DejaVuSans-20" x="268.847656"/>
      <use xlink:href="#DejaVuSans-2d" x="300.634766"/>
      <use xlink:href="#DejaVuSans-20" x="336.71875"/>
      <use xlink:href="#DejaVuSans-4c" x="368.505859"/>
      <use xlink:href="#DejaVuSans-6f" x="422.46875"/>
      <use xlink:href="#DejaVuSans-77" x="483.650391"/>
      <use xlink:href="#DejaVuSans-29" x="565.4375"/>
     </g>
    </g>
   </g>
   <g id="line2d_14">
    <path d="M 47.585795 34.453985 
L 50.20962 31.692241 
L 52.833444 26.018439 
L 55.457269 29.254493 
L 58.081093 29.70778 
L 60.704918 25.771861 
L 63.328742 22.497022 
L 65.952567 28.147922 
L 68.576391 19.694271 
L 71.200216 28.240426 
L 73.82404 28.229396 
L 76.447864 28.254656 
L 79.071689 27.405174 
L 81.695513 25.817965 
L 84.319338 21.873271 
L 86.943162 22.408869 
L 89.566987 24.195197 
L 92.190811 21.09463 
L 94.814636 25.419536 
L 97.43846 27.586942 
L 100.062284 31.434786 
L 102.686109 24.271167 
L 105.309933 29.859747 
L 107.933758 34.229284 
L 110.557582 19.655396 
L 113.181407 31.343883 
L 115.805231 27.958897 
L 118.429056 19.1424 
L 121.05288 21.015166 
L 123.676705 28.962319 
" clip-path="url(#p3438f03514)" style="fill: none; stroke: #000000; stroke-linecap: square"/>
   </g>
   <g id="patch_6">
    <path d="M 43.78125 62.64 
L 43.78125 7.2 
" style="fill: none; stroke: #000000; stroke-width: 0.8; stroke-linejoin: miter; stroke-linecap: square"/>
   </g>
   <g id="patch_7">
    <path d="M 127.48125 62.64 
L 127.48125 7.2 
" style="fill: none; stroke: #000000; stroke-width: 0.8; stroke-linejoin: miter; stroke-linecap: square"/>
   </g>
   <g id="patch_8">
    <path d="M 43.78125 62.64 
L 127.48125 62.64 
" style="fill: none; stroke: #000000; stroke-width: 0.8; stroke-linejoin: miter; stroke-linecap: square"/>
   </g>
   <g id="PathCollection_1">
    <path d="M 47.585795 32.217917 
L 47.083767 33.763002 
L 45.459168 33.763002 
L 46.773496 34.717917 
L 46.271468 36.263002 
L 47.585795 35.308087 
L 48.900123 36.263002 
L 48.398095 34.717917 
L 49.712422 33.763002 
L 48.087824 33.763002 
z
" clip-path="url(#p3438f03514)" style="stroke: #000000"/>
    <path d="M 50.20962 31.692241 
L 50.20962 31.692241 
L 50.20962 31.692241 
L 50.20962 31.692241 
L 50.20962 31.692241 
L 50.20962 31.692241 
L 50.20962 31.692241 
L 50.20962 31.692241 
L 50.20962 31.692241 
L 50.20962 31.692241 
z
" clip-path="url(#p3438f03514)" style="stroke: #000000"/>
    <path d="M 52.833444 26.018439 
L 52.833444 26.018439 
L 52.833444 26.018439 
L 52.833444 26.018439 
L 52.833444 26.018439 
L 52.833444 26.018439 
L 52.833444 26.018439 
L 52.833444 26.018439 
L 52.833444 26.018439 
L 52.833444 26.018439 
z
" clip-path="url(#p3438f03514)" style="stroke: #000000"/>
    <path d="M 55.457269 29.254493 
L 55.457269 29.254493 
L 55.457269 29.254493 
L 55.457269 29.254493 
L 55.457269 29.254493 
L 55.457269 29.254493 
L 55.457269 29.254493 
L 55.457269 29.254493 
L 55.457269 29.254493 
L 55.457269 29.254493 
z
" clip-path="url(#p3438f03514)" style="stroke: #000000"/>
    <path d="M 58.081093 29.70778 
L 58.081093 29.70778 
L 58.081093 29.70778 
L 58.081093 29.70778 
L 58.081093 29.70778 
L 58.081093 29.70778 
L 58.081093 29.70778 
L 58.081093 29.70778 
L 58.081093 29.70778 
L 58.081093 29.70778 
z
" clip-path="url(#p3438f03514)" style="stroke: #000000"/>
    <path d="M 60.704918 25.771861 
L 60.704918 25.771861 
L 60.704918 25.771861 
L 60.704918 25.771861 
L 60.704918 25.771861 
L 60.704918 25.771861 
L 60.704918 25.771861 
L 60.704918 25.771861 
L 60.704918 25.771861 
L 60.704918 25.771861 
z
" clip-path="url(#p3438f03514)" style="stroke: #000000"/>
    <path d="M 63.328742 22.497022 
L 63.328742 22.497022 
L 63.328742 22.497022 
L 63.328742 22.497022 
L 63.328742 22.497022 
L 63.328742 22.497022 
L 63.328742 22.497022 
L 63.328742 22.497022 
L 63.328742 22.497022 
L 63.328742 22.497022 
z
" clip-path="url(#p3438f03514)" style="stroke: #000000"/>
    <path d="M 65.952567 28.147922 
L 65.952567 28.147922 
L 65.952567 28.147922 
L 65.952567 28.147922 
L 65.952567 28.147922 
L 65.952567 28.147922 
L 65.952567 28.147922 
L 65.952567 28.147922 
L 65.952567 28.147922 
L 65.952567 28.147922 
z
" clip-path="url(#p3438f03514)" style="stroke: #000000"/>
    <path d="M 68.576391 19.694271 
L 68.576391 19.694271 
L 68.576391 19.694271 
L 68.576391 19.694271 
L 68.576391 19.694271 
L 68.576391 19.694271 
L 68.576391 19.694271 
L 68.576391 19.694271 
L 68.576391 19.694271 
L 68.576391 19.694271 
z
" clip-path="url(#p3438f03514)" style="stroke: #000000"/>
    <path d="M 71.200216 28.240426 
L 71.200216 28.240426 
L 71.200216 28.240426 
L 71.200216 28.240426 
L 71.200216 28.240426 
L 71.200216 28.240426 
L 71.200216 28.240426 
L 71.200216 28.240426 
L 71.200216 28.240426 
L 71.200216 28.240426 
z
" clip-path="url(#p3438f03514)" style="stroke: #000000"/>
    <path d="M 73.82404 28.229396 
L 73.82404 28.229396 
L 73.82404 28.229396 
L 73.82404 28.229396 
L 73.82404 28.229396 
L 73.82404 28.229396 
L 73.82404 28.229396 
L 73.82404 28.229396 
L 73.82404 28.229396 
L 73.82404 28.229396 
z
" clip-path="url(#p3438f03514)" style="stroke: #000000"/>
    <path d="M 76.447864 28.254656 
L 76.447864 28.254656 
L 76.447864 28.254656 
L 76.447864 28.254656 
L 76.447864 28.254656 
L 76.447864 28.254656 
L 76.447864 28.254656 
L 76.447864 28.254656 
L 76.447864 28.254656 
L 76.447864 28.254656 
z
" clip-path="url(#p3438f03514)" style="stroke: #000000"/>
    <path d="M 79.071689 27.405174 
L 79.071689 27.405174 
L 79.071689 27.405174 
L 79.071689 27.405174 
L 79.071689 27.405174 
L 79.071689 27.405174 
L 79.071689 27.405174 
L 79.071689 27.405174 
L 79.071689 27.405174 
L 79.071689 27.405174 
z
" clip-path="url(#p3438f03514)" style="stroke: #000000"/>
    <path d="M 81.695513 25.817965 
L 81.695513 25.817965 
L 81.695513 25.817965 
L 81.695513 25.817965 
L 81.695513 25.817965 
L 81.695513 25.817965 
L 81.695513 25.817965 
L 81.695513 25.817965 
L 81.695513 25.817965 
L 81.695513 25.817965 
z
" clip-path="url(#p3438f03514)" style="stroke: #000000"/>
    <path d="M 84.319338 21.873271 
L 84.319338 21.873271 
L 84.319338 21.873271 
L 84.319338 21.873271 
L 84.319338 21.873271 
L 84.319338 21.873271 
L 84.319338 21.873271 
L 84.319338 21.873271 
L 84.319338 21.873271 
L 84.319338 21.873271 
z
" clip-path="url(#p3438f03514)" style="stroke: #000000"/>
    <path d="M 86.943162 22.408869 
L 86.943162 22.408869 
L 86.943162 22.408869 
L 86.943162 22.408869 
L 86.943162 22.408869 
L 86.943162 22.408869 
L 86.943162 22.408869 
L 86.943162 22.408869 
L 86.943162 22.408869 
L 86.943162 22.408869 
z
" clip-path="url(#p3438f03514)" style="stroke: #000000"/>
    <path d="M 89.566987 24.195197 
L 89.566987 24.195197 
L 89.566987 24.195197 
L 89.566987 24.195197 
L 89.566987 24.195197 
L 89.566987 24.195197 
L 89.566987 24.195197 
L 89.566987 24.195197 
L 89.566987 24.195197 
L 89.566987 24.195197 
z
" clip-path="url(#p3438f03514)" style="stroke: #000000"/>
    <path d="M 92.190811 21.09463 
L 92.190811 21.09463 
L 92.190811 21.09463 
L 92.190811 21.09463 
L 92.190811 21.09463 
L 92.190811 21.09463 
L 92.190811 21.09463 
L 92.190811 21.09463 
L 92.190811 21.09463 
L 92.190811 21.09463 
z
" clip-path="url(#p3438f03514)" style="stroke: #000000"/>
    <path d="M 94.814636 25.419536 
L 94.814636 25.419536 
L 94.814636 25.419536 
L 94.814636 25.419536 
L 94.814636 25.419536 
L 94.814636 25.419536 
L 94.814636 25.419536 
L 94.814636 25.419536 
L 94.814636 25.419536 
L 94.814636 25.419536 
z
" clip-path="url(#p3438f03514)" style="stroke: #000000"/>
    <path d="M 97.43846 27.586942 
L 97.43846 27.586942 
L 97.43846 27.586942 
L 97.43846 27.586942 
L 97.43846 27.586942 
L 97.43846 27.586942 
L 97.43846 27.586942 
L 97.43846 27.586942 
L 97.43846 27.586942 
L 97.43846 27.586942 
z
" clip-path="url(#p3438f03514)" style="stroke: #000000"/>
    <path d="M 100.062284 31.434786 
L 100.062284 31.434786 
L 100.062284 31.434786 
L 100.062284 31.434786 
L 100.062284 31.434786 
L 100.062284 31.434786 
L 100.062284 31.434786 
L 100.062284 31.434786 
L 100.062284 31.434786 
L 100.062284 31.434786 
z
" clip-path="url(#p3438f03514)" style="stroke: #000000"/>
    <path d="M 102.686109 24.271167 
L 102.686109 24.271167 
L 102.686109 24.271167 
L 102.686109 24.271167 
L 102.686109 24.271167 
L 102.686109 24.271167 
L 102.686109 24.271167 
L 102.686109 24.271167 
L 102.686109 24.271167 
L 102.686109 24.271167 
z
" clip-path="url(#p3438f03514)" style="stroke: #000000"/>
    <path d="M 105.309933 29.859747 
L 105.309933 29.859747 
L 105.309933 29.859747 
L 105.309933 29.859747 
L 105.309933 29.859747 
L 105.309933 29.859747 
L 105.309933 29.859747 
L 105.309933 29.859747 
L 105.309933 29.859747 
L 105.309933 29.859747 
z
" clip-path="url(#p3438f03514)" style="stroke: #000000"/>
    <path d="M 107.933758 31.993216 
L 107.431729 33.538301 
L 105.807131 33.538301 
L 107.121459 34.493216 
L 106.61943 36.038301 
L 107.933758 35.083386 
L 109.248086 36.038301 
L 108.746057 34.493216 
L 110.060385 33.538301 
L 108.435786 33.538301 
z
" clip-path="url(#p3438f03514)" style="stroke: #000000"/>
    <path d="M 110.557582 19.655396 
L 110.557582 19.655396 
L 110.557582 19.655396 
L 110.557582 19.655396 
L 110.557582 19.655396 
L 110.557582 19.655396 
L 110.557582 19.655396 
L 110.557582 19.655396 
L 110.557582 19.655396 
L 110.557582 19.655396 
z
" clip-path="url(#p3438f03514)" style="stroke: #000000"/>
    <path d="M 113.181407 31.343883 
L 113.181407 31.343883 
L 113.181407 31.343883 
L 113.181407 31.343883 
L 113.181407 31.343883 
L 113.181407 31.343883 
L 113.181407 31.343883 
L 113.181407 31.343883 
L 113.181407 31.343883 
L 113.181407 31.343883 
z
" clip-path="url(#p3438f03514)" style="stroke: #000000"/>
    <path d="M 115.805231 27.958897 
L 115.805231 27.958897 
L 115.805231 27.958897 
L 115.805231 27.958897 
L 115.805231 27.958897 
L 115.805231 27.958897 
L 115.805231 27.958897 
L 115.805231 27.958897 
L 115.805231 27.958897 
L 115.805231 27.958897 
z
" clip-path="url(#p3438f03514)" style="stroke: #000000"/>
    <path d="M 118.429056 16.906332 
L 117.927027 18.451417 
L 116.302429 18.451417 
L 117.616756 19.406332 
L 117.114728 20.951417 
L 118.429056 19.996502 
L 119.743383 20.951417 
L 119.241355 19.406332 
L 120.555683 18.451417 
L 118.931084 18.451417 
z
" clip-path="url(#p3438f03514)" style="stroke: #000000"/>
    <path d="M 121.05288 21.015166 
L 121.05288 21.015166 
L 121.05288 21.015166 
L 121.05288 21.015166 
L 121.05288 21.015166 
L 121.05288 21.015166 
L 121.05288 21.015166 
L 121.05288 21.015166 
L 121.05288 21.015166 
L 121.05288 21.015166 
z
" clip-path="url(#p3438f03514)" style="stroke: #000000"/>
    <path d="M 123.676705 28.962319 
L 123.676705 28.962319 
L 123.676705 28.962319 
L 123.676705 28.962319 
L 123.676705 28.962319 
L 123.676705 28.962319 
L 123.676705 28.962319 
L 123.676705 28.962319 
L 123.676705 28.962319 
L 123.676705 28.962319 
z
" clip-path="url(#p3438f03514)" style="stroke: #000000"/>
   </g>
  </g>
 </g>
 <defs>
  <clipPath id="p3438f03514">
   <rect x="43.78125" y="7.2" width="83.7" height="55.44"/>
  </clipPath>
 </defs>
</svg>
