<?xml version="1.0" encoding="utf-8" standalone="no"?>
<!DOCTYPE svg PUBLIC "-//W3C//DTD SVG 1.1//EN"
  "http://www.w3.org/Graphics/SVG/1.1/DTD/svg11.dtd">
<svg xmlns:xlink="http://www.w3.org/1999/xlink" width="432pt" height="144pt" viewBox="0 0 432 144" xmlns="http://www.w3.org/2000/svg" version="1.1">
 <metadata>
  <rdf:RDF xmlns:dc="http://purl.org/dc/elements/1.1/" xmlns:cc="http://creativecommons.org/ns#" xmlns:rdf="http://www.w3.org/1999/02/22-rdf-syntax-ns#">
   <cc:Work>
    <dc:type rdf:resource="http://purl.org/dc/dcmitype/StillImage"/>
    <dc:date>2024-02-01T20:09:05.387892</dc:date>
    <dc:format>image/svg+xml</dc:format>
    <dc:creator>
     <cc:Agent>
      <dc:title>Matplotlib v3.7.2, https://matplotlib.org/</dc:title>
     </cc:Agent>
    </dc:creator>
   </cc:Work>
  </rdf:RDF>
 </metadata>
 <defs>
  <style type="text/css">*{stroke-linejoin: round; stroke-linecap: butt}</style>
 </defs>
 <g id="figure_1">
  <g id="patch_1">
   <path d="M 0 144 
L 432 144 
L 432 0 
L 0 0 
z
" style="fill: #ffffff"/>
  </g>
  <g id="axes_1">
   <g id="PathCollection_1">
    <path d="M 54 24.556068 
L 54 20.083932 
" clip-path="url(#p757f23f8c8)" style="fill: #fff0a5; stroke: #fff0a5; stroke-width: 1.5"/>
    <path d="M 55.494643 125.356068 
L 55.494643 120.883932 
" clip-path="url(#p757f23f8c8)" style="fill: #199750; stroke: #199750; stroke-width: 1.5"/>
    <path d="M 56.989286 24.556068 
L 56.989286 20.083932 
" clip-path="url(#p757f23f8c8)" style="fill: #fff0a5; stroke: #fff0a5; stroke-width: 1.5"/>
    <path d="M 58.483929 24.556068 
L 58.483929 20.083932 
" clip-path="url(#p757f23f8c8)" style="fill: #fdad60; stroke: #fdad60; stroke-width: 1.5"/>
    <path d="M 59.978571 125.356068 
L 59.978571 120.883932 
" clip-path="url(#p757f23f8c8)" style="fill: #199750; stroke: #199750; stroke-width: 1.5"/>
    <path d="M 61.473214 125.356068 
L 61.473214 120.883932 
" clip-path="url(#p757f23f8c8)" style="fill: #84ca66; stroke: #84ca66; stroke-width: 1.5"/>
    <path d="M 62.967857 125.356068 
L 62.967857 120.883932 
" clip-path="url(#p757f23f8c8)" style="fill: #84ca66; stroke: #84ca66; stroke-width: 1.5"/>
    <path d="M 64.4625 24.556068 
L 64.4625 20.083932 
" clip-path="url(#p757f23f8c8)" style="fill: #fff0a5; stroke: #fff0a5; stroke-width: 1.5"/>
    <path d="M 65.957143 24.556068 
L 65.957143 20.083932 
" clip-path="url(#p757f23f8c8)" style="fill: #fff0a5; stroke: #fff0a5; stroke-width: 1.5"/>
    <path d="M 67.451786 24.556068 
L 67.451786 20.083932 
" clip-path="url(#p757f23f8c8)" style="fill: #fff0a5; stroke: #fff0a5; stroke-width: 1.5"/>
    <path d="M 68.946429 125.356068 
L 68.946429 120.883932 
" clip-path="url(#p757f23f8c8)" style="fill: #84ca66; stroke: #84ca66; stroke-width: 1.5"/>
    <path d="M 70.441071 24.556068 
L 70.441071 20.083932 
" clip-path="url(#p757f23f8c8)" style="fill: #fff0a5; stroke: #fff0a5; stroke-width: 1.5"/>
    <path d="M 71.935714 24.556068 
L 71.935714 20.083932 
" clip-path="url(#p757f23f8c8)" style="fill: #fff0a5; stroke: #fff0a5; stroke-width: 1.5"/>
    <path d="M 73.430357 125.356068 
L 73.430357 120.883932 
" clip-path="url(#p757f23f8c8)" style="fill: #199750; stroke: #199750; stroke-width: 1.5"/>
    <path d="M 74.925 24.556068 
L 74.925 20.083932 
" clip-path="url(#p757f23f8c8)" style="fill: #fff0a5; stroke: #fff0a5; stroke-width: 1.5"/>
    <path d="M 76.419643 24.556068 
L 76.419643 20.083932 
" clip-path="url(#p757f23f8c8)" style="fill: #fff0a5; stroke: #fff0a5; stroke-width: 1.5"/>
    <path d="M 77.914286 24.556068 
L 77.914286 20.083932 
" clip-path="url(#p757f23f8c8)" style="fill: #fdad60; stroke: #fdad60; stroke-width: 1.5"/>
    <path d="M 79.408929 24.556068 
L 79.408929 20.083932 
" clip-path="url(#p757f23f8c8)" style="fill: #fff0a5; stroke: #fff0a5; stroke-width: 1.5"/>
    <path d="M 80.903571 125.356068 
L 80.903571 120.883932 
" clip-path="url(#p757f23f8c8)" style="fill: #84ca66; stroke: #84ca66; stroke-width: 1.5"/>
    <path d="M 82.398214 125.356068 
L 82.398214 120.883932 
" clip-path="url(#p757f23f8c8)" style="fill: #199750; stroke: #199750; stroke-width: 1.5"/>
    <path d="M 83.892857 125.356068 
L 83.892857 120.883932 
" clip-path="url(#p757f23f8c8)" style="fill: #84ca66; stroke: #84ca66; stroke-width: 1.5"/>
    <path d="M 85.3875 24.556068 
L 85.3875 20.083932 
" clip-path="url(#p757f23f8c8)" style="fill: #fdad60; stroke: #fdad60; stroke-width: 1.5"/>
    <path d="M 86.882143 24.556068 
L 86.882143 20.083932 
" clip-path="url(#p757f23f8c8)" style="fill: #fff0a5; stroke: #fff0a5; stroke-width: 1.5"/>
    <path d="M 88.376786 24.556068 
L 88.376786 20.083932 
" clip-path="url(#p757f23f8c8)" style="fill: #fff0a5; stroke: #fff0a5; stroke-width: 1.5"/>
    <path d="M 89.871429 24.556068 
L 89.871429 20.083932 
" clip-path="url(#p757f23f8c8)" style="fill: #fff0a5; stroke: #fff0a5; stroke-width: 1.5"/>
    <path d="M 91.366071 125.356068 
L 91.366071 120.883932 
" clip-path="url(#p757f23f8c8)" style="fill: #84ca66; stroke: #84ca66; stroke-width: 1.5"/>
    <path d="M 92.860714 125.356068 
L 92.860714 120.883932 
" clip-path="url(#p757f23f8c8)" style="fill: #199750; stroke: #199750; stroke-width: 1.5"/>
    <path d="M 94.355357 125.356068 
L 94.355357 120.883932 
" clip-path="url(#p757f23f8c8)" style="fill: #199750; stroke: #199750; stroke-width: 1.5"/>
    <path d="M 95.85 125.356068 
L 95.85 120.883932 
" clip-path="url(#p757f23f8c8)" style="fill: #199750; stroke: #199750; stroke-width: 1.5"/>
    <path d="M 97.344643 125.356068 
L 97.344643 120.883932 
" clip-path="url(#p757f23f8c8)" style="fill: #199750; stroke: #199750; stroke-width: 1.5"/>
    <path d="M 98.839286 125.356068 
L 98.839286 120.883932 
" clip-path="url(#p757f23f8c8)" style="fill: #199750; stroke: #199750; stroke-width: 1.5"/>
    <path d="M 100.333929 125.356068 
L 100.333929 120.883932 
" clip-path="url(#p757f23f8c8)" style="fill: #199750; stroke: #199750; stroke-width: 1.5"/>
    <path d="M 101.828571 125.356068 
L 101.828571 120.883932 
" clip-path="url(#p757f23f8c8)" style="fill: #84ca66; stroke: #84ca66; stroke-width: 1.5"/>
    <path d="M 103.323214 125.356068 
L 103.323214 120.883932 
" clip-path="url(#p757f23f8c8)" style="fill: #199750; stroke: #199750; stroke-width: 1.5"/>
    <path d="M 104.817857 125.356068 
L 104.817857 120.883932 
" clip-path="url(#p757f23f8c8)" style="fill: #84ca66; stroke: #84ca66; stroke-width: 1.5"/>
    <path d="M 106.3125 125.356068 
L 106.3125 120.883932 
" clip-path="url(#p757f23f8c8)" style="fill: #199750; stroke: #199750; stroke-width: 1.5"/>
    <path d="M 107.807143 125.356068 
L 107.807143 120.883932 
" clip-path="url(#p757f23f8c8)" style="fill: #199750; stroke: #199750; stroke-width: 1.5"/>
    <path d="M 109.301786 125.356068 
L 109.301786 120.883932 
" clip-path="url(#p757f23f8c8)" style="fill: #84ca66; stroke: #84ca66; stroke-width: 1.5"/>
    <path d="M 110.796429 125.356068 
L 110.796429 120.883932 
" clip-path="url(#p757f23f8c8)" style="fill: #84ca66; stroke: #84ca66; stroke-width: 1.5"/>
    <path d="M 112.291071 125.356068 
L 112.291071 120.883932 
" clip-path="url(#p757f23f8c8)" style="fill: #199750; stroke: #199750; stroke-width: 1.5"/>
    <path d="M 113.785714 125.356068 
L 113.785714 120.883932 
" clip-path="url(#p757f23f8c8)" style="fill: #199750; stroke: #199750; stroke-width: 1.5"/>
    <path d="M 115.280357 125.356068 
L 115.280357 120.883932 
" clip-path="url(#p757f23f8c8)" style="fill: #199750; stroke: #199750; stroke-width: 1.5"/>
    <path d="M 116.775 125.356068 
L 116.775 120.883932 
" clip-path="url(#p757f23f8c8)" style="fill: #199750; stroke: #199750; stroke-width: 1.5"/>
    <path d="M 118.269643 125.356068 
L 118.269643 120.883932 
" clip-path="url(#p757f23f8c8)" style="fill: #199750; stroke: #199750; stroke-width: 1.5"/>
    <path d="M 119.764286 125.356068 
L 119.764286 120.883932 
" clip-path="url(#p757f23f8c8)" style="fill: #199750; stroke: #199750; stroke-width: 1.5"/>
    <path d="M 121.258929 125.356068 
L 121.258929 120.883932 
" clip-path="url(#p757f23f8c8)" style="fill: #199750; stroke: #199750; stroke-width: 1.5"/>
    <path d="M 122.753571 125.356068 
L 122.753571 120.883932 
" clip-path="url(#p757f23f8c8)" style="fill: #199750; stroke: #199750; stroke-width: 1.5"/>
    <path d="M 124.248214 125.356068 
L 124.248214 120.883932 
" clip-path="url(#p757f23f8c8)" style="fill: #199750; stroke: #199750; stroke-width: 1.5"/>
    <path d="M 125.742857 125.356068 
L 125.742857 120.883932 
" clip-path="url(#p757f23f8c8)" style="fill: #199750; stroke: #199750; stroke-width: 1.5"/>
    <path d="M 127.2375 125.356068 
L 127.2375 120.883932 
" clip-path="url(#p757f23f8c8)" style="fill: #199750; stroke: #199750; stroke-width: 1.5"/>
    <path d="M 128.732143 125.356068 
L 128.732143 120.883932 
" clip-path="url(#p757f23f8c8)" style="fill: #199750; stroke: #199750; stroke-width: 1.5"/>
    <path d="M 130.226786 125.356068 
L 130.226786 120.883932 
" clip-path="url(#p757f23f8c8)" style="fill: #84ca66; stroke: #84ca66; stroke-width: 1.5"/>
    <path d="M 131.721429 125.356068 
L 131.721429 120.883932 
" clip-path="url(#p757f23f8c8)" style="fill: #199750; stroke: #199750; stroke-width: 1.5"/>
    <path d="M 133.216071 125.356068 
L 133.216071 120.883932 
" clip-path="url(#p757f23f8c8)" style="fill: #84ca66; stroke: #84ca66; stroke-width: 1.5"/>
    <path d="M 134.710714 125.356068 
L 134.710714 120.883932 
" clip-path="url(#p757f23f8c8)" style="fill: #84ca66; stroke: #84ca66; stroke-width: 1.5"/>
    <path d="M 136.205357 125.356068 
L 136.205357 120.883932 
" clip-path="url(#p757f23f8c8)" style="fill: #84ca66; stroke: #84ca66; stroke-width: 1.5"/>
    <path d="M 137.7 125.356068 
L 137.7 120.883932 
" clip-path="url(#p757f23f8c8)" style="fill: #84ca66; stroke: #84ca66; stroke-width: 1.5"/>
    <path d="M 139.194643 125.356068 
L 139.194643 120.883932 
" clip-path="url(#p757f23f8c8)" style="fill: #84ca66; stroke: #84ca66; stroke-width: 1.5"/>
    <path d="M 140.689286 125.356068 
L 140.689286 120.883932 
" clip-path="url(#p757f23f8c8)" style="fill: #84ca66; stroke: #84ca66; stroke-width: 1.5"/>
    <path d="M 142.183929 125.356068 
L 142.183929 120.883932 
" clip-path="url(#p757f23f8c8)" style="fill: #199750; stroke: #199750; stroke-width: 1.5"/>
    <path d="M 143.678571 125.356068 
L 143.678571 120.883932 
" clip-path="url(#p757f23f8c8)" style="fill: #84ca66; stroke: #84ca66; stroke-width: 1.5"/>
    <path d="M 145.173214 125.356068 
L 145.173214 120.883932 
" clip-path="url(#p757f23f8c8)" style="fill: #84ca66; stroke: #84ca66; stroke-width: 1.5"/>
    <path d="M 146.667857 125.356068 
L 146.667857 120.883932 
" clip-path="url(#p757f23f8c8)" style="fill: #84ca66; stroke: #84ca66; stroke-width: 1.5"/>
    <path d="M 148.1625 125.356068 
L 148.1625 120.883932 
" clip-path="url(#p757f23f8c8)" style="fill: #199750; stroke: #199750; stroke-width: 1.5"/>
    <path d="M 149.657143 125.356068 
L 149.657143 120.883932 
" clip-path="url(#p757f23f8c8)" style="fill: #199750; stroke: #199750; stroke-width: 1.5"/>
    <path d="M 151.151786 125.356068 
L 151.151786 120.883932 
" clip-path="url(#p757f23f8c8)" style="fill: #84ca66; stroke: #84ca66; stroke-width: 1.5"/>
    <path d="M 152.646429 125.356068 
L 152.646429 120.883932 
" clip-path="url(#p757f23f8c8)" style="fill: #84ca66; stroke: #84ca66; stroke-width: 1.5"/>
    <path d="M 154.141071 125.356068 
L 154.141071 120.883932 
" clip-path="url(#p757f23f8c8)" style="fill: #84ca66; stroke: #84ca66; stroke-width: 1.5"/>
    <path d="M 155.635714 125.356068 
L 155.635714 120.883932 
" clip-path="url(#p757f23f8c8)" style="fill: #199750; stroke: #199750; stroke-width: 1.5"/>
    <path d="M 157.130357 125.356068 
L 157.130357 120.883932 
" clip-path="url(#p757f23f8c8)" style="fill: #84ca66; stroke: #84ca66; stroke-width: 1.5"/>
    <path d="M 158.625 125.356068 
L 158.625 120.883932 
" clip-path="url(#p757f23f8c8)" style="fill: #84ca66; stroke: #84ca66; stroke-width: 1.5"/>
    <path d="M 160.119643 125.356068 
L 160.119643 120.883932 
" clip-path="url(#p757f23f8c8)" style="fill: #84ca66; stroke: #84ca66; stroke-width: 1.5"/>
    <path d="M 161.614286 125.356068 
L 161.614286 120.883932 
" clip-path="url(#p757f23f8c8)" style="fill: #84ca66; stroke: #84ca66; stroke-width: 1.5"/>
    <path d="M 163.108929 125.356068 
L 163.108929 120.883932 
" clip-path="url(#p757f23f8c8)" style="fill: #84ca66; stroke: #84ca66; stroke-width: 1.5"/>
    <path d="M 164.603571 24.556068 
L 164.603571 20.083932 
" clip-path="url(#p757f23f8c8)" style="fill: #fff0a5; stroke: #fff0a5; stroke-width: 1.5"/>
    <path d="M 166.098214 24.556068 
L 166.098214 20.083932 
" clip-path="url(#p757f23f8c8)" style="fill: #fff0a5; stroke: #fff0a5; stroke-width: 1.5"/>
    <path d="M 167.592857 125.356068 
L 167.592857 120.883932 
" clip-path="url(#p757f23f8c8)" style="fill: #84ca66; stroke: #84ca66; stroke-width: 1.5"/>
    <path d="M 169.0875 125.356068 
L 169.0875 120.883932 
" clip-path="url(#p757f23f8c8)" style="fill: #84ca66; stroke: #84ca66; stroke-width: 1.5"/>
    <path d="M 170.582143 125.356068 
L 170.582143 120.883932 
" clip-path="url(#p757f23f8c8)" style="fill: #84ca66; stroke: #84ca66; stroke-width: 1.5"/>
    <path d="M 172.076786 24.556068 
L 172.076786 20.083932 
" clip-path="url(#p757f23f8c8)" style="fill: #fdad60; stroke: #fdad60; stroke-width: 1.5"/>
    <path d="M 173.571429 24.556068 
L 173.571429 20.083932 
" clip-path="url(#p757f23f8c8)" style="fill: #fff0a5; stroke: #fff0a5; stroke-width: 1.5"/>
    <path d="M 175.066071 125.356068 
L 175.066071 120.883932 
" clip-path="url(#p757f23f8c8)" style="fill: #84ca66; stroke: #84ca66; stroke-width: 1.5"/>
    <path d="M 176.560714 125.356068 
L 176.560714 120.883932 
" clip-path="url(#p757f23f8c8)" style="fill: #199750; stroke: #199750; stroke-width: 1.5"/>
    <path d="M 178.055357 125.356068 
L 178.055357 120.883932 
" clip-path="url(#p757f23f8c8)" style="fill: #199750; stroke: #199750; stroke-width: 1.5"/>
    <path d="M 179.55 24.556068 
L 179.55 20.083932 
" clip-path="url(#p757f23f8c8)" style="fill: #fdad60; stroke: #fdad60; stroke-width: 1.5"/>
    <path d="M 181.044643 125.356068 
L 181.044643 120.883932 
" clip-path="url(#p757f23f8c8)" style="fill: #199750; stroke: #199750; stroke-width: 1.5"/>
    <path d="M 182.539286 24.556068 
L 182.539286 20.083932 
" clip-path="url(#p757f23f8c8)" style="fill: #fdad60; stroke: #fdad60; stroke-width: 1.5"/>
    <path d="M 184.033929 24.556068 
L 184.033929 20.083932 
" clip-path="url(#p757f23f8c8)" style="fill: #fdad60; stroke: #fdad60; stroke-width: 1.5"/>
    <path d="M 185.528571 125.356068 
L 185.528571 120.883932 
" clip-path="url(#p757f23f8c8)" style="fill: #199750; stroke: #199750; stroke-width: 1.5"/>
    <path d="M 187.023214 24.556068 
L 187.023214 20.083932 
" clip-path="url(#p757f23f8c8)" style="fill: #fdad60; stroke: #fdad60; stroke-width: 1.5"/>
    <path d="M 188.517857 24.556068 
L 188.517857 20.083932 
" clip-path="url(#p757f23f8c8)" style="fill: #fdad60; stroke: #fdad60; stroke-width: 1.5"/>
    <path d="M 190.0125 24.556068 
L 190.0125 20.083932 
" clip-path="url(#p757f23f8c8)" style="fill: #fdad60; stroke: #fdad60; stroke-width: 1.5"/>
    <path d="M 191.507143 24.556068 
L 191.507143 20.083932 
" clip-path="url(#p757f23f8c8)" style="fill: #fdad60; stroke: #fdad60; stroke-width: 1.5"/>
    <path d="M 193.001786 24.556068 
L 193.001786 20.083932 
" clip-path="url(#p757f23f8c8)" style="fill: #fff0a5; stroke: #fff0a5; stroke-width: 1.5"/>
    <path d="M 194.496429 24.556068 
L 194.496429 20.083932 
" clip-path="url(#p757f23f8c8)" style="fill: #fdad60; stroke: #fdad60; stroke-width: 1.5"/>
    <path d="M 195.991071 24.556068 
L 195.991071 20.083932 
" clip-path="url(#p757f23f8c8)" style="fill: #fdad60; stroke: #fdad60; stroke-width: 1.5"/>
    <path d="M 197.485714 24.556068 
L 197.485714 20.083932 
" clip-path="url(#p757f23f8c8)" style="fill: #fdad60; stroke: #fdad60; stroke-width: 1.5"/>
    <path d="M 198.980357 24.556068 
L 198.980357 20.083932 
" clip-path="url(#p757f23f8c8)" style="fill: #fdad60; stroke: #fdad60; stroke-width: 1.5"/>
    <path d="M 200.475 125.356068 
L 200.475 120.883932 
" clip-path="url(#p757f23f8c8)" style="fill: #199750; stroke: #199750; stroke-width: 1.5"/>
    <path d="M 201.969643 24.556068 
L 201.969643 20.083932 
" clip-path="url(#p757f23f8c8)" style="fill: #fdad60; stroke: #fdad60; stroke-width: 1.5"/>
    <path d="M 203.464286 24.556068 
L 203.464286 20.083932 
" clip-path="url(#p757f23f8c8)" style="fill: #fdad60; stroke: #fdad60; stroke-width: 1.5"/>
    <path d="M 204.958929 24.556068 
L 204.958929 20.083932 
" clip-path="url(#p757f23f8c8)" style="fill: #fdad60; stroke: #fdad60; stroke-width: 1.5"/>
    <path d="M 206.453571 125.356068 
L 206.453571 120.883932 
" clip-path="url(#p757f23f8c8)" style="fill: #199750; stroke: #199750; stroke-width: 1.5"/>
    <path d="M 207.948214 24.556068 
L 207.948214 20.083932 
" clip-path="url(#p757f23f8c8)" style="fill: #fdad60; stroke: #fdad60; stroke-width: 1.5"/>
    <path d="M 209.442857 125.356068 
L 209.442857 120.883932 
" clip-path="url(#p757f23f8c8)" style="fill: #199750; stroke: #199750; stroke-width: 1.5"/>
    <path d="M 210.9375 24.556068 
L 210.9375 20.083932 
" clip-path="url(#p757f23f8c8)" style="fill: #fdad60; stroke: #fdad60; stroke-width: 1.5"/>
    <path d="M 212.432143 24.556068 
L 212.432143 20.083932 
" clip-path="url(#p757f23f8c8)" style="fill: #fdad60; stroke: #fdad60; stroke-width: 1.5"/>
    <path d="M 213.926786 24.556068 
L 213.926786 20.083932 
" clip-path="url(#p757f23f8c8)" style="fill: #fdad60; stroke: #fdad60; stroke-width: 1.5"/>
    <path d="M 215.421429 24.556068 
L 215.421429 20.083932 
" clip-path="url(#p757f23f8c8)" style="fill: #fdad60; stroke: #fdad60; stroke-width: 1.5"/>
    <path d="M 216.916071 125.356068 
L 216.916071 120.883932 
" clip-path="url(#p757f23f8c8)" style="fill: #84ca66; stroke: #84ca66; stroke-width: 1.5"/>
    <path d="M 218.410714 24.556068 
L 218.410714 20.083932 
" clip-path="url(#p757f23f8c8)" style="fill: #fdad60; stroke: #fdad60; stroke-width: 1.5"/>
    <path d="M 219.905357 24.556068 
L 219.905357 20.083932 
" clip-path="url(#p757f23f8c8)" style="fill: #fdad60; stroke: #fdad60; stroke-width: 1.5"/>
    <path d="M 221.4 24.556068 
L 221.4 20.083932 
" clip-path="url(#p757f23f8c8)" style="fill: #fdad60; stroke: #fdad60; stroke-width: 1.5"/>
    <path d="M 222.894643 24.556068 
L 222.894643 20.083932 
" clip-path="url(#p757f23f8c8)" style="fill: #fdad60; stroke: #fdad60; stroke-width: 1.5"/>
    <path d="M 224.389286 24.556068 
L 224.389286 20.083932 
" clip-path="url(#p757f23f8c8)" style="fill: #fdad60; stroke: #fdad60; stroke-width: 1.5"/>
    <path d="M 225.883929 24.556068 
L 225.883929 20.083932 
" clip-path="url(#p757f23f8c8)" style="fill: #fdad60; stroke: #fdad60; stroke-width: 1.5"/>
    <path d="M 227.378571 24.556068 
L 227.378571 20.083932 
" clip-path="url(#p757f23f8c8)" style="fill: #fdad60; stroke: #fdad60; stroke-width: 1.5"/>
    <path d="M 228.873214 125.356068 
L 228.873214 120.883932 
" clip-path="url(#p757f23f8c8)" style="fill: #84ca66; stroke: #84ca66; stroke-width: 1.5"/>
    <path d="M 230.367857 125.356068 
L 230.367857 120.883932 
" clip-path="url(#p757f23f8c8)" style="fill: #199750; stroke: #199750; stroke-width: 1.5"/>
    <path d="M 231.8625 24.556068 
L 231.8625 20.083932 
" clip-path="url(#p757f23f8c8)" style="fill: #fdad60; stroke: #fdad60; stroke-width: 1.5"/>
    <path d="M 233.357143 24.556068 
L 233.357143 20.083932 
" clip-path="url(#p757f23f8c8)" style="fill: #fff0a5; stroke: #fff0a5; stroke-width: 1.5"/>
    <path d="M 234.851786 24.556068 
L 234.851786 20.083932 
" clip-path="url(#p757f23f8c8)" style="fill: #fdad60; stroke: #fdad60; stroke-width: 1.5"/>
    <path d="M 236.346429 125.356068 
L 236.346429 120.883932 
" clip-path="url(#p757f23f8c8)" style="fill: #199750; stroke: #199750; stroke-width: 1.5"/>
    <path d="M 237.841071 24.556068 
L 237.841071 20.083932 
" clip-path="url(#p757f23f8c8)" style="fill: #fdad60; stroke: #fdad60; stroke-width: 1.5"/>
    <path d="M 239.335714 125.356068 
L 239.335714 120.883932 
" clip-path="url(#p757f23f8c8)" style="fill: #199750; stroke: #199750; stroke-width: 1.5"/>
    <path d="M 240.830357 24.556068 
L 240.830357 20.083932 
" clip-path="url(#p757f23f8c8)" style="fill: #fdad60; stroke: #fdad60; stroke-width: 1.5"/>
    <path d="M 242.325 24.556068 
L 242.325 20.083932 
" clip-path="url(#p757f23f8c8)" style="fill: #fdad60; stroke: #fdad60; stroke-width: 1.5"/>
    <path d="M 243.819643 24.556068 
L 243.819643 20.083932 
" clip-path="url(#p757f23f8c8)" style="fill: #fdad60; stroke: #fdad60; stroke-width: 1.5"/>
    <path d="M 245.314286 24.556068 
L 245.314286 20.083932 
" clip-path="url(#p757f23f8c8)" style="fill: #fdad60; stroke: #fdad60; stroke-width: 1.5"/>
    <path d="M 246.808929 24.556068 
L 246.808929 20.083932 
" clip-path="url(#p757f23f8c8)" style="fill: #fdad60; stroke: #fdad60; stroke-width: 1.5"/>
    <path d="M 248.303571 24.556068 
L 248.303571 20.083932 
" clip-path="url(#p757f23f8c8)" style="fill: #fdad60; stroke: #fdad60; stroke-width: 1.5"/>
    <path d="M 249.798214 24.556068 
L 249.798214 20.083932 
" clip-path="url(#p757f23f8c8)" style="fill: #fdad60; stroke: #fdad60; stroke-width: 1.5"/>
    <path d="M 251.292857 24.556068 
L 251.292857 20.083932 
" clip-path="url(#p757f23f8c8)" style="fill: #fdad60; stroke: #fdad60; stroke-width: 1.5"/>
    <path d="M 252.7875 24.556068 
L 252.7875 20.083932 
" clip-path="url(#p757f23f8c8)" style="fill: #fdad60; stroke: #fdad60; stroke-width: 1.5"/>
    <path d="M 254.282143 24.556068 
L 254.282143 20.083932 
" clip-path="url(#p757f23f8c8)" style="fill: #fdad60; stroke: #fdad60; stroke-width: 1.5"/>
    <path d="M 255.776786 24.556068 
L 255.776786 20.083932 
" clip-path="url(#p757f23f8c8)" style="fill: #fdad60; stroke: #fdad60; stroke-width: 1.5"/>
    <path d="M 257.271429 24.556068 
L 257.271429 20.083932 
" clip-path="url(#p757f23f8c8)" style="fill: #fdad60; stroke: #fdad60; stroke-width: 1.5"/>
    <path d="M 258.766071 24.556068 
L 258.766071 20.083932 
" clip-path="url(#p757f23f8c8)" style="fill: #fdad60; stroke: #fdad60; stroke-width: 1.5"/>
    <path d="M 260.260714 24.556068 
L 260.260714 20.083932 
" clip-path="url(#p757f23f8c8)" style="fill: #fdad60; stroke: #fdad60; stroke-width: 1.5"/>
    <path d="M 261.755357 24.556068 
L 261.755357 20.083932 
" clip-path="url(#p757f23f8c8)" style="fill: #fdad60; stroke: #fdad60; stroke-width: 1.5"/>
    <path d="M 263.25 24.556068 
L 263.25 20.083932 
" clip-path="url(#p757f23f8c8)" style="fill: #fdad60; stroke: #fdad60; stroke-width: 1.5"/>
    <path d="M 264.744643 24.556068 
L 264.744643 20.083932 
" clip-path="url(#p757f23f8c8)" style="fill: #fff0a5; stroke: #fff0a5; stroke-width: 1.5"/>
    <path d="M 266.239286 24.556068 
L 266.239286 20.083932 
" clip-path="url(#p757f23f8c8)" style="fill: #fdad60; stroke: #fdad60; stroke-width: 1.5"/>
    <path d="M 267.733929 24.556068 
L 267.733929 20.083932 
" clip-path="url(#p757f23f8c8)" style="fill: #fdad60; stroke: #fdad60; stroke-width: 1.5"/>
    <path d="M 269.228571 125.356068 
L 269.228571 120.883932 
" clip-path="url(#p757f23f8c8)" style="fill: #199750; stroke: #199750; stroke-width: 1.5"/>
    <path d="M 270.723214 24.556068 
L 270.723214 20.083932 
" clip-path="url(#p757f23f8c8)" style="fill: #fdad60; stroke: #fdad60; stroke-width: 1.5"/>
    <path d="M 272.217857 125.356068 
L 272.217857 120.883932 
" clip-path="url(#p757f23f8c8)" style="fill: #199750; stroke: #199750; stroke-width: 1.5"/>
    <path d="M 273.7125 24.556068 
L 273.7125 20.083932 
" clip-path="url(#p757f23f8c8)" style="fill: #fdad60; stroke: #fdad60; stroke-width: 1.5"/>
    <path d="M 275.207143 24.556068 
L 275.207143 20.083932 
" clip-path="url(#p757f23f8c8)" style="fill: #fff0a5; stroke: #fff0a5; stroke-width: 1.5"/>
    <path d="M 276.701786 125.356068 
L 276.701786 120.883932 
" clip-path="url(#p757f23f8c8)" style="fill: #199750; stroke: #199750; stroke-width: 1.5"/>
    <path d="M 278.196429 125.356068 
L 278.196429 120.883932 
" clip-path="url(#p757f23f8c8)" style="fill: #199750; stroke: #199750; stroke-width: 1.5"/>
    <path d="M 279.691071 24.556068 
L 279.691071 20.083932 
" clip-path="url(#p757f23f8c8)" style="fill: #fff0a5; stroke: #fff0a5; stroke-width: 1.5"/>
    <path d="M 281.185714 125.356068 
L 281.185714 120.883932 
" clip-path="url(#p757f23f8c8)" style="fill: #84ca66; stroke: #84ca66; stroke-width: 1.5"/>
    <path d="M 282.680357 24.556068 
L 282.680357 20.083932 
" clip-path="url(#p757f23f8c8)" style="fill: #fff0a5; stroke: #fff0a5; stroke-width: 1.5"/>
    <path d="M 284.175 24.556068 
L 284.175 20.083932 
" clip-path="url(#p757f23f8c8)" style="fill: #fff0a5; stroke: #fff0a5; stroke-width: 1.5"/>
    <path d="M 285.669643 24.556068 
L 285.669643 20.083932 
" clip-path="url(#p757f23f8c8)" style="fill: #fff0a5; stroke: #fff0a5; stroke-width: 1.5"/>
    <path d="M 287.164286 125.356068 
L 287.164286 120.883932 
" clip-path="url(#p757f23f8c8)" style="fill: #199750; stroke: #199750; stroke-width: 1.5"/>
    <path d="M 288.658929 125.356068 
L 288.658929 120.883932 
" clip-path="url(#p757f23f8c8)" style="fill: #199750; stroke: #199750; stroke-width: 1.5"/>
    <path d="M 290.153571 24.556068 
L 290.153571 20.083932 
" clip-path="url(#p757f23f8c8)" style="fill: #fff0a5; stroke: #fff0a5; stroke-width: 1.5"/>
    <path d="M 291.648214 24.556068 
L 291.648214 20.083932 
" clip-path="url(#p757f23f8c8)" style="fill: #fff0a5; stroke: #fff0a5; stroke-width: 1.5"/>
    <path d="M 293.142857 125.356068 
L 293.142857 120.883932 
" clip-path="url(#p757f23f8c8)" style="fill: #199750; stroke: #199750; stroke-width: 1.5"/>
    <path d="M 294.6375 125.356068 
L 294.6375 120.883932 
" clip-path="url(#p757f23f8c8)" style="fill: #199750; stroke: #199750; stroke-width: 1.5"/>
    <path d="M 296.132143 24.556068 
L 296.132143 20.083932 
" clip-path="url(#p757f23f8c8)" style="fill: #fff0a5; stroke: #fff0a5; stroke-width: 1.5"/>
    <path d="M 297.626786 24.556068 
L 297.626786 20.083932 
" clip-path="url(#p757f23f8c8)" style="fill: #fff0a5; stroke: #fff0a5; stroke-width: 1.5"/>
    <path d="M 299.121429 24.556068 
L 299.121429 20.083932 
" clip-path="url(#p757f23f8c8)" style="fill: #fff0a5; stroke: #fff0a5; stroke-width: 1.5"/>
    <path d="M 300.616071 24.556068 
L 300.616071 20.083932 
" clip-path="url(#p757f23f8c8)" style="fill: #fff0a5; stroke: #fff0a5; stroke-width: 1.5"/>
    <path d="M 302.110714 125.356068 
L 302.110714 120.883932 
" clip-path="url(#p757f23f8c8)" style="fill: #199750; stroke: #199750; stroke-width: 1.5"/>
    <path d="M 303.605357 125.356068 
L 303.605357 120.883932 
" clip-path="url(#p757f23f8c8)" style="fill: #199750; stroke: #199750; stroke-width: 1.5"/>
    <path d="M 305.1 24.556068 
L 305.1 20.083932 
" clip-path="url(#p757f23f8c8)" style="fill: #fdad60; stroke: #fdad60; stroke-width: 1.5"/>
    <path d="M 306.594643 24.556068 
L 306.594643 20.083932 
" clip-path="url(#p757f23f8c8)" style="fill: #fff0a5; stroke: #fff0a5; stroke-width: 1.5"/>
    <path d="M 308.089286 24.556068 
L 308.089286 20.083932 
" clip-path="url(#p757f23f8c8)" style="fill: #fff0a5; stroke: #fff0a5; stroke-width: 1.5"/>
    <path d="M 309.583929 24.556068 
L 309.583929 20.083932 
" clip-path="url(#p757f23f8c8)" style="fill: #fff0a5; stroke: #fff0a5; stroke-width: 1.5"/>
    <path d="M 311.078571 125.356068 
L 311.078571 120.883932 
" clip-path="url(#p757f23f8c8)" style="fill: #199750; stroke: #199750; stroke-width: 1.5"/>
    <path d="M 312.573214 125.356068 
L 312.573214 120.883932 
" clip-path="url(#p757f23f8c8)" style="fill: #199750; stroke: #199750; stroke-width: 1.5"/>
    <path d="M 314.067857 125.356068 
L 314.067857 120.883932 
" clip-path="url(#p757f23f8c8)" style="fill: #199750; stroke: #199750; stroke-width: 1.5"/>
    <path d="M 315.5625 125.356068 
L 315.5625 120.883932 
" clip-path="url(#p757f23f8c8)" style="fill: #199750; stroke: #199750; stroke-width: 1.5"/>
    <path d="M 317.057143 24.556068 
L 317.057143 20.083932 
" clip-path="url(#p757f23f8c8)" style="fill: #fdad60; stroke: #fdad60; stroke-width: 1.5"/>
    <path d="M 318.551786 125.356068 
L 318.551786 120.883932 
" clip-path="url(#p757f23f8c8)" style="fill: #199750; stroke: #199750; stroke-width: 1.5"/>
    <path d="M 320.046429 24.556068 
L 320.046429 20.083932 
" clip-path="url(#p757f23f8c8)" style="fill: #fff0a5; stroke: #fff0a5; stroke-width: 1.5"/>
    <path d="M 321.541071 24.556068 
L 321.541071 20.083932 
" clip-path="url(#p757f23f8c8)" style="fill: #fff0a5; stroke: #fff0a5; stroke-width: 1.5"/>
    <path d="M 323.035714 125.356068 
L 323.035714 120.883932 
" clip-path="url(#p757f23f8c8)" style="fill: #199750; stroke: #199750; stroke-width: 1.5"/>
    <path d="M 324.530357 125.356068 
L 324.530357 120.883932 
" clip-path="url(#p757f23f8c8)" style="fill: #199750; stroke: #199750; stroke-width: 1.5"/>
    <path d="M 326.025 24.556068 
L 326.025 20.083932 
" clip-path="url(#p757f23f8c8)" style="fill: #fff0a5; stroke: #fff0a5; stroke-width: 1.5"/>
    <path d="M 327.519643 125.356068 
L 327.519643 120.883932 
" clip-path="url(#p757f23f8c8)" style="fill: #199750; stroke: #199750; stroke-width: 1.5"/>
    <path d="M 329.014286 125.356068 
L 329.014286 120.883932 
" clip-path="url(#p757f23f8c8)" style="fill: #84ca66; stroke: #84ca66; stroke-width: 1.5"/>
    <path d="M 330.508929 125.356068 
L 330.508929 120.883932 
" clip-path="url(#p757f23f8c8)" style="fill: #84ca66; stroke: #84ca66; stroke-width: 1.5"/>
    <path d="M 332.003571 24.556068 
L 332.003571 20.083932 
" clip-path="url(#p757f23f8c8)" style="fill: #fff0a5; stroke: #fff0a5; stroke-width: 1.5"/>
    <path d="M 333.498214 125.356068 
L 333.498214 120.883932 
" clip-path="url(#p757f23f8c8)" style="fill: #199750; stroke: #199750; stroke-width: 1.5"/>
    <path d="M 334.992857 125.356068 
L 334.992857 120.883932 
" clip-path="url(#p757f23f8c8)" style="fill: #199750; stroke: #199750; stroke-width: 1.5"/>
    <path d="M 336.4875 24.556068 
L 336.4875 20.083932 
" clip-path="url(#p757f23f8c8)" style="fill: #fff0a5; stroke: #fff0a5; stroke-width: 1.5"/>
    <path d="M 337.982143 125.356068 
L 337.982143 120.883932 
" clip-path="url(#p757f23f8c8)" style="fill: #199750; stroke: #199750; stroke-width: 1.5"/>
    <path d="M 339.476786 125.356068 
L 339.476786 120.883932 
" clip-path="url(#p757f23f8c8)" style="fill: #199750; stroke: #199750; stroke-width: 1.5"/>
    <path d="M 340.971429 125.356068 
L 340.971429 120.883932 
" clip-path="url(#p757f23f8c8)" style="fill: #199750; stroke: #199750; stroke-width: 1.5"/>
    <path d="M 342.466071 125.356068 
L 342.466071 120.883932 
" clip-path="url(#p757f23f8c8)" style="fill: #199750; stroke: #199750; stroke-width: 1.5"/>
    <path d="M 343.960714 125.356068 
L 343.960714 120.883932 
" clip-path="url(#p757f23f8c8)" style="fill: #199750; stroke: #199750; stroke-width: 1.5"/>
    <path d="M 345.455357 24.556068 
L 345.455357 20.083932 
" clip-path="url(#p757f23f8c8)" style="fill: #fdad60; stroke: #fdad60; stroke-width: 1.5"/>
    <path d="M 346.95 24.556068 
L 346.95 20.083932 
" clip-path="url(#p757f23f8c8)" style="fill: #fdad60; stroke: #fdad60; stroke-width: 1.5"/>
    <path d="M 348.444643 125.356068 
L 348.444643 120.883932 
" clip-path="url(#p757f23f8c8)" style="fill: #199750; stroke: #199750; stroke-width: 1.5"/>
    <path d="M 349.939286 24.556068 
L 349.939286 20.083932 
" clip-path="url(#p757f23f8c8)" style="fill: #fdad60; stroke: #fdad60; stroke-width: 1.5"/>
    <path d="M 351.433929 24.556068 
L 351.433929 20.083932 
" clip-path="url(#p757f23f8c8)" style="fill: #fdad60; stroke: #fdad60; stroke-width: 1.5"/>
    <path d="M 352.928571 125.356068 
L 352.928571 120.883932 
" clip-path="url(#p757f23f8c8)" style="fill: #199750; stroke: #199750; stroke-width: 1.5"/>
    <path d="M 354.423214 24.556068 
L 354.423214 20.083932 
" clip-path="url(#p757f23f8c8)" style="fill: #fdad60; stroke: #fdad60; stroke-width: 1.5"/>
    <path d="M 355.917857 125.356068 
L 355.917857 120.883932 
" clip-path="url(#p757f23f8c8)" style="fill: #199750; stroke: #199750; stroke-width: 1.5"/>
    <path d="M 357.4125 125.356068 
L 357.4125 120.883932 
" clip-path="url(#p757f23f8c8)" style="fill: #199750; stroke: #199750; stroke-width: 1.5"/>
    <path d="M 358.907143 24.556068 
L 358.907143 20.083932 
" clip-path="url(#p757f23f8c8)" style="fill: #fdad60; stroke: #fdad60; stroke-width: 1.5"/>
    <path d="M 360.401786 24.556068 
L 360.401786 20.083932 
" clip-path="url(#p757f23f8c8)" style="fill: #fdad60; stroke: #fdad60; stroke-width: 1.5"/>
    <path d="M 361.896429 125.356068 
L 361.896429 120.883932 
" clip-path="url(#p757f23f8c8)" style="fill: #199750; stroke: #199750; stroke-width: 1.5"/>
    <path d="M 363.391071 125.356068 
L 363.391071 120.883932 
" clip-path="url(#p757f23f8c8)" style="fill: #199750; stroke: #199750; stroke-width: 1.5"/>
    <path d="M 364.885714 125.356068 
L 364.885714 120.883932 
" clip-path="url(#p757f23f8c8)" style="fill: #199750; stroke: #199750; stroke-width: 1.5"/>
    <path d="M 366.380357 24.556068 
L 366.380357 20.083932 
" clip-path="url(#p757f23f8c8)" style="fill: #fdad60; stroke: #fdad60; stroke-width: 1.5"/>
    <path d="M 367.875 125.356068 
L 367.875 120.883932 
" clip-path="url(#p757f23f8c8)" style="fill: #199750; stroke: #199750; stroke-width: 1.5"/>
    <path d="M 369.369643 24.556068 
L 369.369643 20.083932 
" clip-path="url(#p757f23f8c8)" style="fill: #fdad60; stroke: #fdad60; stroke-width: 1.5"/>
    <path d="M 370.864286 125.356068 
L 370.864286 120.883932 
" clip-path="url(#p757f23f8c8)" style="fill: #199750; stroke: #199750; stroke-width: 1.5"/>
    <path d="M 372.358929 24.556068 
L 372.358929 20.083932 
" clip-path="url(#p757f23f8c8)" style="fill: #fdad60; stroke: #fdad60; stroke-width: 1.5"/>
    <path d="M 373.853571 125.356068 
L 373.853571 120.883932 
" clip-path="url(#p757f23f8c8)" style="fill: #199750; stroke: #199750; stroke-width: 1.5"/>
    <path d="M 375.348214 125.356068 
L 375.348214 120.883932 
" clip-path="url(#p757f23f8c8)" style="fill: #199750; stroke: #199750; stroke-width: 1.5"/>
    <path d="M 376.842857 24.556068 
L 376.842857 20.083932 
" clip-path="url(#p757f23f8c8)" style="fill: #fdad60; stroke: #fdad60; stroke-width: 1.5"/>
    <path d="M 378.3375 24.556068 
L 378.3375 20.083932 
" clip-path="url(#p757f23f8c8)" style="fill: #fdad60; stroke: #fdad60; stroke-width: 1.5"/>
    <path d="M 379.832143 24.556068 
L 379.832143 20.083932 
" clip-path="url(#p757f23f8c8)" style="fill: #fdad60; stroke: #fdad60; stroke-width: 1.5"/>
    <path d="M 381.326786 24.556068 
L 381.326786 20.083932 
" clip-path="url(#p757f23f8c8)" style="fill: #fdad60; stroke: #fdad60; stroke-width: 1.5"/>
    <path d="M 382.821429 125.356068 
L 382.821429 120.883932 
" clip-path="url(#p757f23f8c8)" style="fill: #199750; stroke: #199750; stroke-width: 1.5"/>
    <path d="M 384.316071 24.556068 
L 384.316071 20.083932 
" clip-path="url(#p757f23f8c8)" style="fill: #fdad60; stroke: #fdad60; stroke-width: 1.5"/>
    <path d="M 385.810714 24.556068 
L 385.810714 20.083932 
" clip-path="url(#p757f23f8c8)" style="fill: #fdad60; stroke: #fdad60; stroke-width: 1.5"/>
    <path d="M 387.305357 125.356068 
L 387.305357 120.883932 
" clip-path="url(#p757f23f8c8)" style="fill: #199750; stroke: #199750; stroke-width: 1.5"/>
   </g>
   <g id="matplotlib.axis_1">
    <g id="text_1">
     <!-- Trial# -->
     <g transform="translate(206.996094 139.758438) scale(0.1 -0.1)">
      <defs>
       <path id="DejaVuSans-54" d="M -19 4666 
L 3928 4666 
L 3928 4134 
L 2272 4134 
L 2272 0 
L 1638 0 
L 1638 4134 
L -19 4134 
L -19 4666 
z
" transform="scale(0.015625)"/>
       <path id="DejaVuSans-72" d="M 2631 2963 
Q 2534 3019 2420 3045 
Q 2306 3072 2169 3072 
Q 1681 3072 1420 2755 
Q 1159 2438 1159 1844 
L 1159 0 
L 581 0 
L 581 3500 
L 1159 3500 
L 1159 2956 
Q 1341 3275 1631 3429 
Q 1922 3584 2338 3584 
Q 2397 3584 2469 3576 
Q 2541 3569 2628 3553 
L 2631 2963 
z
" transform="scale(0.015625)"/>
       <path id="DejaVuSans-69" d="M 603 3500 
L 1178 3500 
L 1178 0 
L 603 0 
L 603 3500 
z
M 603 4863 
L 1178 4863 
L 1178 4134 
L 603 4134 
L 603 4863 
z
" transform="scale(0.015625)"/>
       <path id="DejaVuSans-61" d="M 2194 1759 
Q 1497 1759 1228 1600 
Q 959 1441 959 1056 
Q 959 750 1161 570 
Q 1363 391 1709 391 
Q 2188 391 2477 730 
Q 2766 1069 2766 1631 
L 2766 1759 
L 2194 1759 
z
M 3341 1997 
L 3341 0 
L 2766 0 
L 2766 531 
Q 2569 213 2275 61 
Q 1981 -91 1556 -91 
Q 1019 -91 701 211 
Q 384 513 384 1019 
Q 384 1609 779 1909 
Q 1175 2209 1959 2209 
L 2766 2209 
L 2766 2266 
Q 2766 2663 2505 2880 
Q 2244 3097 1772 3097 
Q 1472 3097 1187 3025 
Q 903 2953 641 2809 
L 641 3341 
Q 956 3463 1253 3523 
Q 1550 3584 1831 3584 
Q 2591 3584 2966 3190 
Q 3341 2797 3341 1997 
z
" transform="scale(0.015625)"/>
       <path id="DejaVuSans-6c" d="M 603 4863 
L 1178 4863 
L 1178 0 
L 603 0 
L 603 4863 
z
" transform="scale(0.015625)"/>
       <path id="DejaVuSans-23" d="M 3272 2816 
L 2363 2816 
L 2100 1772 
L 3016 1772 
L 3272 2816 
z
M 2803 4594 
L 2478 3297 
L 3391 3297 
L 3719 4594 
L 4219 4594 
L 3897 3297 
L 4872 3297 
L 4872 2816 
L 3775 2816 
L 3519 1772 
L 4513 1772 
L 4513 1294 
L 3397 1294 
L 3072 0 
L 2572 0 
L 2894 1294 
L 1978 1294 
L 1656 0 
L 1153 0 
L 1478 1294 
L 494 1294 
L 494 1772 
L 1594 1772 
L 1856 2816 
L 850 2816 
L 850 3297 
L 1978 3297 
L 2297 4594 
L 2803 4594 
z
" transform="scale(0.015625)"/>
      </defs>
      <use xlink:href="#DejaVuSans-54"/>
      <use xlink:href="#DejaVuSans-72" x="46.333984"/>
      <use xlink:href="#DejaVuSans-69" x="87.447266"/>
      <use xlink:href="#DejaVuSans-61" x="115.230469"/>
      <use xlink:href="#DejaVuSans-6c" x="176.509766"/>
      <use xlink:href="#DejaVuSans-23" x="204.292969"/>
     </g>
    </g>
   </g>
   <g id="matplotlib.axis_2"/>
   <g id="line2d_1">
    <path d="M 54 69.36 
L 55.494643 72.72 
L 58.483929 66 
L 62.967857 76.08 
L 67.451786 66 
L 68.946429 69.36 
L 71.935714 62.64 
L 73.430357 66 
L 74.925 62.64 
L 76.419643 62.64 
L 77.914286 55.92 
L 79.408929 55.92 
L 80.903571 62.64 
L 83.892857 62.64 
L 85.3875 55.92 
L 91.366071 55.92 
L 94.355357 69.36 
L 95.85 69.36 
L 101.828571 96.24 
L 106.3125 96.24 
L 112.291071 123.12 
L 163.108929 123.12 
L 166.098214 109.68 
L 170.582143 109.68 
L 173.571429 96.24 
L 178.055357 96.24 
L 179.55 89.52 
L 181.044643 89.52 
L 184.033929 76.08 
L 188.517857 76.08 
L 193.001786 55.92 
L 195.991071 55.92 
L 198.980357 42.48 
L 201.969643 42.48 
L 203.464286 35.76 
L 204.958929 35.76 
L 206.453571 42.48 
L 207.948214 35.76 
L 209.442857 42.48 
L 215.421429 42.48 
L 216.916071 49.2 
L 221.4 49.2 
L 222.894643 42.48 
L 228.873214 42.48 
L 230.367857 49.2 
L 231.8625 42.48 
L 234.851786 42.48 
L 236.346429 49.2 
L 249.798214 49.2 
L 252.7875 35.76 
L 257.271429 35.76 
L 258.766071 29.04 
L 260.260714 29.04 
L 261.755357 22.32 
L 267.733929 22.32 
L 269.228571 29.04 
L 270.723214 29.04 
L 272.217857 35.76 
L 275.207143 35.76 
L 278.196429 49.2 
L 279.691071 49.2 
L 281.185714 55.92 
L 285.669643 55.92 
L 288.658929 69.36 
L 290.153571 69.36 
L 291.648214 62.64 
L 293.142857 69.36 
L 297.626786 69.36 
L 300.616071 55.92 
L 302.110714 62.64 
L 308.089286 62.64 
L 309.583929 55.92 
L 311.078571 55.92 
L 314.067857 69.36 
L 315.5625 69.36 
L 317.057143 62.64 
L 318.551786 69.36 
L 321.541071 69.36 
L 323.035714 76.08 
L 324.530357 76.08 
L 326.025 69.36 
L 330.508929 89.52 
L 334.992857 89.52 
L 336.4875 82.8 
L 337.982143 82.8 
L 339.476786 89.52 
L 340.971429 89.52 
L 343.960714 102.96 
L 346.95 89.52 
L 348.444643 96.24 
L 351.433929 82.8 
L 358.907143 82.8 
L 360.401786 76.08 
L 364.885714 76.08 
L 366.380357 69.36 
L 367.875 76.08 
L 372.358929 76.08 
L 373.853571 82.8 
L 376.842857 82.8 
L 379.832143 69.36 
L 381.326786 69.36 
L 382.821429 76.08 
L 385.810714 62.64 
L 387.305357 62.64 
L 387.305357 62.64 
" clip-path="url(#p757f23f8c8)" style="fill: none; stroke: #da70d6; stroke-width: 1.5; stroke-linecap: square"/>
   </g>
   <g id="line2d_2">
    <path d="M 55.494643 123.12 
L 56.989286 123.12 
L 58.483929 72.72 
L 59.978571 89.52 
L 71.935714 89.52 
L 73.430357 97.92 
L 76.419643 97.92 
L 77.914286 72.72 
L 79.408929 72.72 
L 80.903571 89.52 
L 83.892857 89.52 
L 85.3875 72.72 
L 91.366071 72.72 
L 92.860714 82.8 
L 94.355357 89.52 
L 95.85 89.52 
L 97.344643 94.32 
L 98.839286 97.92 
L 100.333929 110.52 
L 101.828571 110.52 
L 103.323214 111.92 
L 104.817857 110.52 
L 106.3125 111.92 
L 107.807143 123.12 
L 170.582143 123.12 
L 172.076786 72.72 
L 175.066071 72.72 
L 176.560714 89.52 
L 178.055357 89.52 
L 179.55 72.72 
L 181.044643 82.8 
L 182.539286 72.72 
L 184.033929 65.52 
L 185.528571 72.72 
L 187.023214 67.12 
L 188.517857 62.64 
L 190.0125 58.974545 
L 191.507143 55.92 
L 194.496429 55.92 
L 195.991071 53.335385 
L 197.485714 51.12 
L 198.980357 43.92 
L 201.969643 43.92 
L 203.464286 36.72 
L 204.958929 36.72 
L 206.453571 43.92 
L 207.948214 36.72 
L 209.442857 43.92 
L 213.926786 43.92 
L 215.421429 42.48 
L 216.916071 43.92 
L 221.4 43.92 
L 222.894643 36.72 
L 227.378571 36.72 
L 228.873214 30.073846 
L 230.367857 37.827692 
L 231.8625 30.073846 
L 233.357143 30.72 
L 234.851786 30.72 
L 236.346429 39.12 
L 237.841071 39.12 
L 239.335714 45.581538 
L 249.798214 45.581538 
L 251.292857 43.92 
L 252.7875 36.72 
L 254.282143 36.72 
L 255.776786 35.76 
L 257.271429 35.76 
L 258.766071 29.04 
L 260.260714 29.04 
L 261.755357 22.32 
L 267.733929 22.32 
L 269.228571 29.52 
L 270.723214 29.52 
L 272.217857 36.72 
L 273.7125 36.72 
L 275.207143 37.827692 
L 278.196429 53.335385 
L 279.691071 55.92 
L 281.185714 58.974545 
L 282.680357 62.64 
L 284.175 67.12 
L 287.164286 78.32 
L 288.658929 89.52 
L 290.153571 97.92 
L 291.648214 94.32 
L 293.142857 108.72 
L 294.6375 108.72 
L 296.132143 123.12 
L 303.605357 123.12 
L 305.1 108.72 
L 308.089286 108.72 
L 309.583929 106.32 
L 311.078571 106.32 
L 312.573214 108.72 
L 314.067857 110.52 
L 315.5625 110.52 
L 317.057143 97.92 
L 318.551786 100.72 
L 321.541071 100.72 
L 323.035714 102.96 
L 324.530357 102.96 
L 326.025 100.72 
L 327.519643 111.92 
L 334.992857 111.92 
L 336.4875 110.52 
L 337.982143 110.52 
L 339.476786 123.12 
L 343.960714 123.12 
L 346.95 102.96 
L 348.444643 104.792727 
L 349.939286 95.629091 
L 351.433929 89.52 
L 352.928571 92.104615 
L 354.423214 87.12 
L 357.4125 87.12 
L 358.907143 82.8 
L 360.401786 76.08 
L 364.885714 76.08 
L 366.380357 69.36 
L 367.875 76.08 
L 372.358929 76.08 
L 373.853571 82.8 
L 376.842857 82.8 
L 379.832143 69.36 
L 381.326786 69.36 
L 382.821429 76.08 
L 385.810714 62.64 
L 387.305357 62.64 
L 387.305357 62.64 
" clip-path="url(#p757f23f8c8)" style="fill: none; stroke: #6495ed; stroke-width: 1.5; stroke-linecap: square"/>
   </g>
  </g>
 </g>
 <defs>
  <clipPath id="p757f23f8c8">
   <rect x="54" y="17.28" width="334.8" height="110.88"/>
  </clipPath>
 </defs>
</svg>
