<?xml version="1.0" encoding="utf-8" standalone="no"?>
<!DOCTYPE svg PUBLIC "-//W3C//DTD SVG 1.1//EN"
  "http://www.w3.org/Graphics/SVG/1.1/DTD/svg11.dtd">
<svg xmlns:xlink="http://www.w3.org/1999/xlink" width="279.320312pt" height="155.63625pt" viewBox="0 0 279.320312 155.63625" xmlns="http://www.w3.org/2000/svg" version="1.1">
 <metadata>
  <rdf:RDF xmlns:dc="http://purl.org/dc/elements/1.1/" xmlns:cc="http://creativecommons.org/ns#" xmlns:rdf="http://www.w3.org/1999/02/22-rdf-syntax-ns#">
   <cc:Work>
    <dc:type rdf:resource="http://purl.org/dc/dcmitype/StillImage"/>
    <dc:date>2024-03-01T11:53:26.070824</dc:date>
    <dc:format>image/svg+xml</dc:format>
    <dc:creator>
     <cc:Agent>
      <dc:title>Matplotlib v3.7.2, https://matplotlib.org/</dc:title>
     </cc:Agent>
    </dc:creator>
   </cc:Work>
  </rdf:RDF>
 </metadata>
 <defs>
  <style type="text/css">*{stroke-linejoin: round; stroke-linecap: butt}</style>
 </defs>
 <g id="figure_1">
  <g id="patch_1">
   <path d="M -0 155.63625 
L 279.320312 155.63625 
L 279.320312 0 
L -0 0 
L -0 155.63625 
z
" style="fill: none"/>
  </g>
  <g id="axes_1">
   <g id="patch_2">
    <path d="M 42.620313 118.08 
L 210.020313 118.08 
L 210.020313 7.2 
L 42.620313 7.2 
L 42.620313 118.08 
z
" style="fill: none"/>
   </g>
   <g id="PolyCollection_1">
    <defs>
     <path id="mc9d7aebeeb" d="M 50.229403 -78.983447 
L 50.229403 -71.662235 
L 55.477052 -61.597312 
L 60.724701 -69.183379 
L 65.97235 -62.247457 
L 71.219999 -59.073337 
L 76.467648 -52.619655 
L 81.715297 -63.738272 
L 86.962946 -69.951288 
L 92.210595 -69.260014 
L 97.458244 -69.991768 
L 102.705892 -54.007027 
L 107.953541 -67.231315 
L 113.20119 -66.523973 
L 118.448839 -65.043365 
L 123.696488 -63.007704 
L 128.944137 -57.739582 
L 134.191786 -70.048491 
L 139.439435 -64.006425 
L 144.687084 -60.14517 
L 149.934733 -69.769829 
L 155.182381 -64.91367 
L 160.43003 -72.966288 
L 165.677679 -59.687323 
L 170.925328 -75.29369 
L 176.172977 -77.794081 
L 181.420626 -66.30695 
L 186.668275 -70.321015 
L 191.915924 -65.709219 
L 197.163573 -72.209324 
L 202.411222 -90.499874 
L 202.411222 -91.281733 
L 202.411222 -91.281733 
L 197.163573 -72.344062 
L 191.915924 -67.666734 
L 186.668275 -74.371118 
L 181.420626 -66.754409 
L 176.172977 -79.913906 
L 170.925328 -81.617976 
L 165.677679 -70.841305 
L 160.43003 -78.327362 
L 155.182381 -73.338428 
L 149.934733 -71.174487 
L 144.687084 -83.912291 
L 139.439435 -66.069999 
L 134.191786 -71.970027 
L 128.944137 -65.016615 
L 123.696488 -80.725021 
L 118.448839 -72.396509 
L 113.20119 -69.432583 
L 107.953541 -82.88841 
L 102.705892 -69.487965 
L 97.458244 -83.025011 
L 92.210595 -80.323426 
L 86.962946 -76.621044 
L 81.715297 -67.642797 
L 76.467648 -87.707203 
L 71.219999 -79.925245 
L 65.97235 -62.580418 
L 60.724701 -75.255083 
L 55.477052 -70.925642 
L 50.229403 -78.983447 
z
" style="stroke: #2ca02c; stroke-opacity: 0.2"/>
    </defs>
    <g clip-path="url(#p4350196634)">
     <use xlink:href="#mc9d7aebeeb" x="0" y="155.63625" style="fill: #2ca02c; fill-opacity: 0.2; stroke: #2ca02c; stroke-opacity: 0.2"/>
    </g>
   </g>
   <g id="PolyCollection_2">
    <defs>
     <path id="m750904bf6a" d="M 50.229403 -84.107563 
L 50.229403 -75.600725 
L 55.477052 -65.533909 
L 60.724701 -61.83512 
L 65.97235 -76.563022 
L 71.219999 -74.946317 
L 76.467648 -65.074608 
L 81.715297 -70.679645 
L 86.962946 -69.144339 
L 92.210595 -60.300845 
L 97.458244 -62.95725 
L 102.705892 -76.511901 
L 107.953541 -69.071011 
L 113.20119 -65.804337 
L 118.448839 -73.893537 
L 123.696488 -78.926334 
L 128.944137 -68.922638 
L 134.191786 -65.654594 
L 139.439435 -61.024162 
L 144.687084 -59.937196 
L 149.934733 -67.778978 
L 155.182381 -70.302783 
L 160.43003 -71.119333 
L 165.677679 -63.497366 
L 170.925328 -58.719972 
L 176.172977 -66.600042 
L 181.420626 -67.261844 
L 186.668275 -60.368803 
L 191.915924 -59.217425 
L 197.163573 -43.933207 
L 202.411222 -71.544878 
L 202.411222 -71.802723 
L 202.411222 -71.802723 
L 197.163573 -76.991999 
L 191.915924 -69.356413 
L 186.668275 -66.397215 
L 181.420626 -78.511231 
L 176.172977 -78.013024 
L 170.925328 -61.19868 
L 165.677679 -78.260035 
L 160.43003 -75.117457 
L 155.182381 -75.249048 
L 149.934733 -83.540141 
L 144.687084 -81.744357 
L 139.439435 -67.491982 
L 134.191786 -83.559779 
L 128.944137 -73.302366 
L 123.696488 -85.889914 
L 118.448839 -78.36394 
L 113.20119 -80.427302 
L 107.953541 -79.559602 
L 102.705892 -80.336129 
L 97.458244 -78.658451 
L 92.210595 -74.604365 
L 86.962946 -82.236786 
L 81.715297 -80.350503 
L 76.467648 -85.635692 
L 71.219999 -77.414993 
L 65.97235 -77.772424 
L 60.724701 -91.904489 
L 55.477052 -75.394482 
L 50.229403 -84.107563 
z
" style="stroke: #ff7f0e; stroke-opacity: 0.2"/>
    </defs>
    <g clip-path="url(#p4350196634)">
     <use xlink:href="#m750904bf6a" x="0" y="155.63625" style="fill: #ff7f0e; fill-opacity: 0.2; stroke: #ff7f0e; stroke-opacity: 0.2"/>
    </g>
   </g>
   <g id="PolyCollection_3">
    <defs>
     <path id="m5e58d2f954" d="M 50.229403 -67.425742 
L 50.229403 -55.140613 
L 55.477052 -52.065192 
L 60.724701 -48.610731 
L 65.97235 -61.832899 
L 71.219999 -42.59625 
L 76.467648 -61.214666 
L 81.715297 -53.910334 
L 86.962946 -59.686116 
L 92.210595 -58.075328 
L 97.458244 -55.24809 
L 102.705892 -67.940008 
L 107.953541 -58.990107 
L 113.20119 -62.406396 
L 118.448839 -69.349279 
L 123.696488 -69.817267 
L 128.944137 -85.633526 
L 134.191786 -71.630008 
L 139.439435 -87.360681 
L 144.687084 -94.778731 
L 149.934733 -89.799565 
L 155.182381 -87.001484 
L 160.43003 -90.988652 
L 165.677679 -95.727427 
L 170.925328 -102.440086 
L 176.172977 -103.98692 
L 181.420626 -111.307188 
L 186.668275 -115.749611 
L 191.915924 -113.881815 
L 197.163573 -137.67484 
L 202.411222 -135.504583 
L 202.411222 -141.649818 
L 202.411222 -141.649818 
L 197.163573 -143.39625 
L 191.915924 -125.836303 
L 186.668275 -124.086654 
L 181.420626 -122.469969 
L 176.172977 -104.853874 
L 170.925328 -117.278454 
L 165.677679 -102.11478 
L 160.43003 -99.76303 
L 155.182381 -95.466211 
L 149.934733 -95.81035 
L 144.687084 -99.635668 
L 139.439435 -96.226258 
L 134.191786 -77.164855 
L 128.944137 -87.629477 
L 123.696488 -76.227877 
L 118.448839 -80.462266 
L 113.20119 -74.181623 
L 107.953541 -83.926049 
L 102.705892 -90.869654 
L 97.458244 -75.017551 
L 92.210595 -63.973667 
L 86.962946 -66.165799 
L 81.715297 -63.740793 
L 76.467648 -74.772817 
L 71.219999 -58.563454 
L 65.97235 -67.19909 
L 60.724701 -66.722479 
L 55.477052 -71.081871 
L 50.229403 -67.425742 
z
" style="stroke: #6a5acd; stroke-opacity: 0.2"/>
    </defs>
    <g clip-path="url(#p4350196634)">
     <use xlink:href="#m5e58d2f954" x="0" y="155.63625" style="fill: #6a5acd; fill-opacity: 0.2; stroke: #6a5acd; stroke-opacity: 0.2"/>
    </g>
   </g>
   <g id="matplotlib.axis_1">
    <g id="xtick_1">
     <g id="line2d_1">
      <defs>
       <path id="m4079d21451" d="M 0 0 
L 0 3.5 
" style="stroke: #ffffff; stroke-width: 0.8"/>
      </defs>
      <g>
       <use xlink:href="#m4079d21451" x="50.229403" y="118.08" style="fill: #ffffff; stroke: #ffffff; stroke-width: 0.8"/>
      </g>
     </g>
     <g id="text_1">
      <!-- -30 -->
      <g style="fill: #ffffff" transform="translate(42.062997 132.678438) scale(0.1 -0.1)">
       <defs>
        <path id="DejaVuSans-2d" d="M 313 2009 
L 1997 2009 
L 1997 1497 
L 313 1497 
L 313 2009 
z
" transform="scale(0.015625)"/>
        <path id="DejaVuSans-33" d="M 2597 2516 
Q 3050 2419 3304 2112 
Q 3559 1806 3559 1356 
Q 3559 666 3084 287 
Q 2609 -91 1734 -91 
Q 1441 -91 1130 -33 
Q 819 25 488 141 
L 488 750 
Q 750 597 1062 519 
Q 1375 441 1716 441 
Q 2309 441 2620 675 
Q 2931 909 2931 1356 
Q 2931 1769 2642 2001 
Q 2353 2234 1838 2234 
L 1294 2234 
L 1294 2753 
L 1863 2753 
Q 2328 2753 2575 2939 
Q 2822 3125 2822 3475 
Q 2822 3834 2567 4026 
Q 2313 4219 1838 4219 
Q 1578 4219 1281 4162 
Q 984 4106 628 3988 
L 628 4550 
Q 988 4650 1302 4700 
Q 1616 4750 1894 4750 
Q 2613 4750 3031 4423 
Q 3450 4097 3450 3541 
Q 3450 3153 3228 2886 
Q 3006 2619 2597 2516 
z
" transform="scale(0.015625)"/>
        <path id="DejaVuSans-30" d="M 2034 4250 
Q 1547 4250 1301 3770 
Q 1056 3291 1056 2328 
Q 1056 1369 1301 889 
Q 1547 409 2034 409 
Q 2525 409 2770 889 
Q 3016 1369 3016 2328 
Q 3016 3291 2770 3770 
Q 2525 4250 2034 4250 
z
M 2034 4750 
Q 2819 4750 3233 4129 
Q 3647 3509 3647 2328 
Q 3647 1150 3233 529 
Q 2819 -91 2034 -91 
Q 1250 -91 836 529 
Q 422 1150 422 2328 
Q 422 3509 836 4129 
Q 1250 4750 2034 4750 
z
" transform="scale(0.015625)"/>
       </defs>
       <use xlink:href="#DejaVuSans-2d"/>
       <use xlink:href="#DejaVuSans-33" x="36.083984"/>
       <use xlink:href="#DejaVuSans-30" x="99.707031"/>
      </g>
     </g>
    </g>
    <g id="xtick_2">
     <g id="line2d_2">
      <g>
       <use xlink:href="#m4079d21451" x="76.467648" y="118.08" style="fill: #ffffff; stroke: #ffffff; stroke-width: 0.8"/>
      </g>
     </g>
     <g id="text_2">
      <!-- -25 -->
      <g style="fill: #ffffff" transform="translate(68.301242 132.678438) scale(0.1 -0.1)">
       <defs>
        <path id="DejaVuSans-32" d="M 1228 531 
L 3431 531 
L 3431 0 
L 469 0 
L 469 531 
Q 828 903 1448 1529 
Q 2069 2156 2228 2338 
Q 2531 2678 2651 2914 
Q 2772 3150 2772 3378 
Q 2772 3750 2511 3984 
Q 2250 4219 1831 4219 
Q 1534 4219 1204 4116 
Q 875 4013 500 3803 
L 500 4441 
Q 881 4594 1212 4672 
Q 1544 4750 1819 4750 
Q 2544 4750 2975 4387 
Q 3406 4025 3406 3419 
Q 3406 3131 3298 2873 
Q 3191 2616 2906 2266 
Q 2828 2175 2409 1742 
Q 1991 1309 1228 531 
z
" transform="scale(0.015625)"/>
        <path id="DejaVuSans-35" d="M 691 4666 
L 3169 4666 
L 3169 4134 
L 1269 4134 
L 1269 2991 
Q 1406 3038 1543 3061 
Q 1681 3084 1819 3084 
Q 2600 3084 3056 2656 
Q 3513 2228 3513 1497 
Q 3513 744 3044 326 
Q 2575 -91 1722 -91 
Q 1428 -91 1123 -41 
Q 819 9 494 109 
L 494 744 
Q 775 591 1075 516 
Q 1375 441 1709 441 
Q 2250 441 2565 725 
Q 2881 1009 2881 1497 
Q 2881 1984 2565 2268 
Q 2250 2553 1709 2553 
Q 1456 2553 1204 2497 
Q 953 2441 691 2322 
L 691 4666 
z
" transform="scale(0.015625)"/>
       </defs>
       <use xlink:href="#DejaVuSans-2d"/>
       <use xlink:href="#DejaVuSans-32" x="36.083984"/>
       <use xlink:href="#DejaVuSans-35" x="99.707031"/>
      </g>
     </g>
    </g>
    <g id="xtick_3">
     <g id="line2d_3">
      <g>
       <use xlink:href="#m4079d21451" x="102.705892" y="118.08" style="fill: #ffffff; stroke: #ffffff; stroke-width: 0.8"/>
      </g>
     </g>
     <g id="text_3">
      <!-- -20 -->
      <g style="fill: #ffffff" transform="translate(94.539486 132.678438) scale(0.1 -0.1)">
       <use xlink:href="#DejaVuSans-2d"/>
       <use xlink:href="#DejaVuSans-32" x="36.083984"/>
       <use xlink:href="#DejaVuSans-30" x="99.707031"/>
      </g>
     </g>
    </g>
    <g id="xtick_4">
     <g id="line2d_4">
      <g>
       <use xlink:href="#m4079d21451" x="128.944137" y="118.08" style="fill: #ffffff; stroke: #ffffff; stroke-width: 0.8"/>
      </g>
     </g>
     <g id="text_4">
      <!-- -15 -->
      <g style="fill: #ffffff" transform="translate(120.777731 132.678438) scale(0.1 -0.1)">
       <defs>
        <path id="DejaVuSans-31" d="M 794 531 
L 1825 531 
L 1825 4091 
L 703 3866 
L 703 4441 
L 1819 4666 
L 2450 4666 
L 2450 531 
L 3481 531 
L 3481 0 
L 794 0 
L 794 531 
z
" transform="scale(0.015625)"/>
       </defs>
       <use xlink:href="#DejaVuSans-2d"/>
       <use xlink:href="#DejaVuSans-31" x="36.083984"/>
       <use xlink:href="#DejaVuSans-35" x="99.707031"/>
      </g>
     </g>
    </g>
    <g id="xtick_5">
     <g id="line2d_5">
      <g>
       <use xlink:href="#m4079d21451" x="155.182381" y="118.08" style="fill: #ffffff; stroke: #ffffff; stroke-width: 0.8"/>
      </g>
     </g>
     <g id="text_5">
      <!-- -10 -->
      <g style="fill: #ffffff" transform="translate(147.015975 132.678438) scale(0.1 -0.1)">
       <use xlink:href="#DejaVuSans-2d"/>
       <use xlink:href="#DejaVuSans-31" x="36.083984"/>
       <use xlink:href="#DejaVuSans-30" x="99.707031"/>
      </g>
     </g>
    </g>
    <g id="xtick_6">
     <g id="line2d_6">
      <g>
       <use xlink:href="#m4079d21451" x="181.420626" y="118.08" style="fill: #ffffff; stroke: #ffffff; stroke-width: 0.8"/>
      </g>
     </g>
     <g id="text_6">
      <!-- -5 -->
      <g style="fill: #ffffff" transform="translate(176.43547 132.678438) scale(0.1 -0.1)">
       <use xlink:href="#DejaVuSans-2d"/>
       <use xlink:href="#DejaVuSans-35" x="36.083984"/>
      </g>
     </g>
    </g>
    <g id="xtick_7">
     <g id="line2d_7">
      <g>
       <use xlink:href="#m4079d21451" x="207.65887" y="118.08" style="fill: #ffffff; stroke: #ffffff; stroke-width: 0.8"/>
      </g>
     </g>
     <g id="text_7">
      <!-- 0 -->
      <g style="fill: #ffffff" transform="translate(204.47762 132.678438) scale(0.1 -0.1)">
       <use xlink:href="#DejaVuSans-30"/>
      </g>
     </g>
    </g>
    <g id="text_8">
     <!-- Past Trials -->
     <g style="fill: #ffffff" transform="translate(101.49375 146.356562) scale(0.1 -0.1)">
      <defs>
       <path id="DejaVuSans-50" d="M 1259 4147 
L 1259 2394 
L 2053 2394 
Q 2494 2394 2734 2622 
Q 2975 2850 2975 3272 
Q 2975 3691 2734 3919 
Q 2494 4147 2053 4147 
L 1259 4147 
z
M 628 4666 
L 2053 4666 
Q 2838 4666 3239 4311 
Q 3641 3956 3641 3272 
Q 3641 2581 3239 2228 
Q 2838 1875 2053 1875 
L 1259 1875 
L 1259 0 
L 628 0 
L 628 4666 
z
" transform="scale(0.015625)"/>
       <path id="DejaVuSans-61" d="M 2194 1759 
Q 1497 1759 1228 1600 
Q 959 1441 959 1056 
Q 959 750 1161 570 
Q 1363 391 1709 391 
Q 2188 391 2477 730 
Q 2766 1069 2766 1631 
L 2766 1759 
L 2194 1759 
z
M 3341 1997 
L 3341 0 
L 2766 0 
L 2766 531 
Q 2569 213 2275 61 
Q 1981 -91 1556 -91 
Q 1019 -91 701 211 
Q 384 513 384 1019 
Q 384 1609 779 1909 
Q 1175 2209 1959 2209 
L 2766 2209 
L 2766 2266 
Q 2766 2663 2505 2880 
Q 2244 3097 1772 3097 
Q 1472 3097 1187 3025 
Q 903 2953 641 2809 
L 641 3341 
Q 956 3463 1253 3523 
Q 1550 3584 1831 3584 
Q 2591 3584 2966 3190 
Q 3341 2797 3341 1997 
z
" transform="scale(0.015625)"/>
       <path id="DejaVuSans-73" d="M 2834 3397 
L 2834 2853 
Q 2591 2978 2328 3040 
Q 2066 3103 1784 3103 
Q 1356 3103 1142 2972 
Q 928 2841 928 2578 
Q 928 2378 1081 2264 
Q 1234 2150 1697 2047 
L 1894 2003 
Q 2506 1872 2764 1633 
Q 3022 1394 3022 966 
Q 3022 478 2636 193 
Q 2250 -91 1575 -91 
Q 1294 -91 989 -36 
Q 684 19 347 128 
L 347 722 
Q 666 556 975 473 
Q 1284 391 1588 391 
Q 1994 391 2212 530 
Q 2431 669 2431 922 
Q 2431 1156 2273 1281 
Q 2116 1406 1581 1522 
L 1381 1569 
Q 847 1681 609 1914 
Q 372 2147 372 2553 
Q 372 3047 722 3315 
Q 1072 3584 1716 3584 
Q 2034 3584 2315 3537 
Q 2597 3491 2834 3397 
z
" transform="scale(0.015625)"/>
       <path id="DejaVuSans-74" d="M 1172 4494 
L 1172 3500 
L 2356 3500 
L 2356 3053 
L 1172 3053 
L 1172 1153 
Q 1172 725 1289 603 
Q 1406 481 1766 481 
L 2356 481 
L 2356 0 
L 1766 0 
Q 1100 0 847 248 
Q 594 497 594 1153 
L 594 3053 
L 172 3053 
L 172 3500 
L 594 3500 
L 594 4494 
L 1172 4494 
z
" transform="scale(0.015625)"/>
       <path id="DejaVuSans-20" transform="scale(0.015625)"/>
       <path id="DejaVuSans-54" d="M -19 4666 
L 3928 4666 
L 3928 4134 
L 2272 4134 
L 2272 0 
L 1638 0 
L 1638 4134 
L -19 4134 
L -19 4666 
z
" transform="scale(0.015625)"/>
       <path id="DejaVuSans-72" d="M 2631 2963 
Q 2534 3019 2420 3045 
Q 2306 3072 2169 3072 
Q 1681 3072 1420 2755 
Q 1159 2438 1159 1844 
L 1159 0 
L 581 0 
L 581 3500 
L 1159 3500 
L 1159 2956 
Q 1341 3275 1631 3429 
Q 1922 3584 2338 3584 
Q 2397 3584 2469 3576 
Q 2541 3569 2628 3553 
L 2631 2963 
z
" transform="scale(0.015625)"/>
       <path id="DejaVuSans-69" d="M 603 3500 
L 1178 3500 
L 1178 0 
L 603 0 
L 603 3500 
z
M 603 4863 
L 1178 4863 
L 1178 4134 
L 603 4134 
L 603 4863 
z
" transform="scale(0.015625)"/>
       <path id="DejaVuSans-6c" d="M 603 4863 
L 1178 4863 
L 1178 0 
L 603 0 
L 603 4863 
z
" transform="scale(0.015625)"/>
      </defs>
      <use xlink:href="#DejaVuSans-50"/>
      <use xlink:href="#DejaVuSans-61" x="55.802734"/>
      <use xlink:href="#DejaVuSans-73" x="117.082031"/>
      <use xlink:href="#DejaVuSans-74" x="169.181641"/>
      <use xlink:href="#DejaVuSans-20" x="208.390625"/>
      <use xlink:href="#DejaVuSans-54" x="240.177734"/>
      <use xlink:href="#DejaVuSans-72" x="286.511719"/>
      <use xlink:href="#DejaVuSans-69" x="327.625"/>
      <use xlink:href="#DejaVuSans-61" x="355.408203"/>
      <use xlink:href="#DejaVuSans-6c" x="416.6875"/>
      <use xlink:href="#DejaVuSans-73" x="444.470703"/>
     </g>
    </g>
   </g>
   <g id="matplotlib.axis_2">
    <g id="ytick_1">
     <g id="line2d_8">
      <defs>
       <path id="mb6801e5a50" d="M 0 0 
L -3.5 0 
" style="stroke: #ffffff; stroke-width: 0.8"/>
      </defs>
      <g>
       <use xlink:href="#mb6801e5a50" x="42.620313" y="106.326679" style="fill: #ffffff; stroke: #ffffff; stroke-width: 0.8"/>
      </g>
     </g>
     <g id="text_9">
      <!-- −5 -->
      <g style="fill: #ffffff" transform="translate(20.878125 110.125898) scale(0.1 -0.1)">
       <defs>
        <path id="DejaVuSans-2212" d="M 678 2272 
L 4684 2272 
L 4684 1741 
L 678 1741 
L 678 2272 
z
" transform="scale(0.015625)"/>
       </defs>
       <use xlink:href="#DejaVuSans-2212"/>
       <use xlink:href="#DejaVuSans-35" x="83.789062"/>
      </g>
     </g>
    </g>
    <g id="ytick_2">
     <g id="line2d_9">
      <g>
       <use xlink:href="#mb6801e5a50" x="42.620313" y="83.266441" style="fill: #ffffff; stroke: #ffffff; stroke-width: 0.8"/>
      </g>
     </g>
     <g id="text_10">
      <!-- 0 -->
      <g style="fill: #ffffff" transform="translate(29.257813 87.06566) scale(0.1 -0.1)">
       <use xlink:href="#DejaVuSans-30"/>
      </g>
     </g>
    </g>
    <g id="ytick_3">
     <g id="line2d_10">
      <g>
       <use xlink:href="#mb6801e5a50" x="42.620313" y="60.206204" style="fill: #ffffff; stroke: #ffffff; stroke-width: 0.8"/>
      </g>
     </g>
     <g id="text_11">
      <!-- 5 -->
      <g style="fill: #ffffff" transform="translate(29.257813 64.005423) scale(0.1 -0.1)">
       <use xlink:href="#DejaVuSans-35"/>
      </g>
     </g>
    </g>
    <g id="ytick_4">
     <g id="line2d_11">
      <g>
       <use xlink:href="#mb6801e5a50" x="42.620313" y="37.145966" style="fill: #ffffff; stroke: #ffffff; stroke-width: 0.8"/>
      </g>
     </g>
     <g id="text_12">
      <!-- 10 -->
      <g style="fill: #ffffff" transform="translate(22.895313 40.945185) scale(0.1 -0.1)">
       <use xlink:href="#DejaVuSans-31"/>
       <use xlink:href="#DejaVuSans-30" x="63.623047"/>
      </g>
     </g>
    </g>
    <g id="ytick_5">
     <g id="line2d_12">
      <g>
       <use xlink:href="#mb6801e5a50" x="42.620313" y="14.085729" style="fill: #ffffff; stroke: #ffffff; stroke-width: 0.8"/>
      </g>
     </g>
     <g id="text_13">
      <!-- 15 -->
      <g style="fill: #ffffff" transform="translate(22.895313 17.884947) scale(0.1 -0.1)">
       <use xlink:href="#DejaVuSans-31"/>
       <use xlink:href="#DejaVuSans-35" x="63.623047"/>
      </g>
     </g>
    </g>
    <g id="text_14">
     <!-- Coefficient (Z-Score) -->
     <g style="fill: #ffffff" transform="translate(14.798438 114.154844) rotate(-90) scale(0.1 -0.1)">
      <defs>
       <path id="DejaVuSans-43" d="M 4122 4306 
L 4122 3641 
Q 3803 3938 3442 4084 
Q 3081 4231 2675 4231 
Q 1875 4231 1450 3742 
Q 1025 3253 1025 2328 
Q 1025 1406 1450 917 
Q 1875 428 2675 428 
Q 3081 428 3442 575 
Q 3803 722 4122 1019 
L 4122 359 
Q 3791 134 3420 21 
Q 3050 -91 2638 -91 
Q 1578 -91 968 557 
Q 359 1206 359 2328 
Q 359 3453 968 4101 
Q 1578 4750 2638 4750 
Q 3056 4750 3426 4639 
Q 3797 4528 4122 4306 
z
" transform="scale(0.015625)"/>
       <path id="DejaVuSans-6f" d="M 1959 3097 
Q 1497 3097 1228 2736 
Q 959 2375 959 1747 
Q 959 1119 1226 758 
Q 1494 397 1959 397 
Q 2419 397 2687 759 
Q 2956 1122 2956 1747 
Q 2956 2369 2687 2733 
Q 2419 3097 1959 3097 
z
M 1959 3584 
Q 2709 3584 3137 3096 
Q 3566 2609 3566 1747 
Q 3566 888 3137 398 
Q 2709 -91 1959 -91 
Q 1206 -91 779 398 
Q 353 888 353 1747 
Q 353 2609 779 3096 
Q 1206 3584 1959 3584 
z
" transform="scale(0.015625)"/>
       <path id="DejaVuSans-65" d="M 3597 1894 
L 3597 1613 
L 953 1613 
Q 991 1019 1311 708 
Q 1631 397 2203 397 
Q 2534 397 2845 478 
Q 3156 559 3463 722 
L 3463 178 
Q 3153 47 2828 -22 
Q 2503 -91 2169 -91 
Q 1331 -91 842 396 
Q 353 884 353 1716 
Q 353 2575 817 3079 
Q 1281 3584 2069 3584 
Q 2775 3584 3186 3129 
Q 3597 2675 3597 1894 
z
M 3022 2063 
Q 3016 2534 2758 2815 
Q 2500 3097 2075 3097 
Q 1594 3097 1305 2825 
Q 1016 2553 972 2059 
L 3022 2063 
z
" transform="scale(0.015625)"/>
       <path id="DejaVuSans-66" d="M 2375 4863 
L 2375 4384 
L 1825 4384 
Q 1516 4384 1395 4259 
Q 1275 4134 1275 3809 
L 1275 3500 
L 2222 3500 
L 2222 3053 
L 1275 3053 
L 1275 0 
L 697 0 
L 697 3053 
L 147 3053 
L 147 3500 
L 697 3500 
L 697 3744 
Q 697 4328 969 4595 
Q 1241 4863 1831 4863 
L 2375 4863 
z
" transform="scale(0.015625)"/>
       <path id="DejaVuSans-63" d="M 3122 3366 
L 3122 2828 
Q 2878 2963 2633 3030 
Q 2388 3097 2138 3097 
Q 1578 3097 1268 2742 
Q 959 2388 959 1747 
Q 959 1106 1268 751 
Q 1578 397 2138 397 
Q 2388 397 2633 464 
Q 2878 531 3122 666 
L 3122 134 
Q 2881 22 2623 -34 
Q 2366 -91 2075 -91 
Q 1284 -91 818 406 
Q 353 903 353 1747 
Q 353 2603 823 3093 
Q 1294 3584 2113 3584 
Q 2378 3584 2631 3529 
Q 2884 3475 3122 3366 
z
" transform="scale(0.015625)"/>
       <path id="DejaVuSans-6e" d="M 3513 2113 
L 3513 0 
L 2938 0 
L 2938 2094 
Q 2938 2591 2744 2837 
Q 2550 3084 2163 3084 
Q 1697 3084 1428 2787 
Q 1159 2491 1159 1978 
L 1159 0 
L 581 0 
L 581 3500 
L 1159 3500 
L 1159 2956 
Q 1366 3272 1645 3428 
Q 1925 3584 2291 3584 
Q 2894 3584 3203 3211 
Q 3513 2838 3513 2113 
z
" transform="scale(0.015625)"/>
       <path id="DejaVuSans-28" d="M 1984 4856 
Q 1566 4138 1362 3434 
Q 1159 2731 1159 2009 
Q 1159 1288 1364 580 
Q 1569 -128 1984 -844 
L 1484 -844 
Q 1016 -109 783 600 
Q 550 1309 550 2009 
Q 550 2706 781 3412 
Q 1013 4119 1484 4856 
L 1984 4856 
z
" transform="scale(0.015625)"/>
       <path id="DejaVuSans-5a" d="M 359 4666 
L 4025 4666 
L 4025 4184 
L 1075 531 
L 4097 531 
L 4097 0 
L 288 0 
L 288 481 
L 3238 4134 
L 359 4134 
L 359 4666 
z
" transform="scale(0.015625)"/>
       <path id="DejaVuSans-53" d="M 3425 4513 
L 3425 3897 
Q 3066 4069 2747 4153 
Q 2428 4238 2131 4238 
Q 1616 4238 1336 4038 
Q 1056 3838 1056 3469 
Q 1056 3159 1242 3001 
Q 1428 2844 1947 2747 
L 2328 2669 
Q 3034 2534 3370 2195 
Q 3706 1856 3706 1288 
Q 3706 609 3251 259 
Q 2797 -91 1919 -91 
Q 1588 -91 1214 -16 
Q 841 59 441 206 
L 441 856 
Q 825 641 1194 531 
Q 1563 422 1919 422 
Q 2459 422 2753 634 
Q 3047 847 3047 1241 
Q 3047 1584 2836 1778 
Q 2625 1972 2144 2069 
L 1759 2144 
Q 1053 2284 737 2584 
Q 422 2884 422 3419 
Q 422 4038 858 4394 
Q 1294 4750 2059 4750 
Q 2388 4750 2728 4690 
Q 3069 4631 3425 4513 
z
" transform="scale(0.015625)"/>
       <path id="DejaVuSans-29" d="M 513 4856 
L 1013 4856 
Q 1481 4119 1714 3412 
Q 1947 2706 1947 2009 
Q 1947 1309 1714 600 
Q 1481 -109 1013 -844 
L 513 -844 
Q 928 -128 1133 580 
Q 1338 1288 1338 2009 
Q 1338 2731 1133 3434 
Q 928 4138 513 4856 
z
" transform="scale(0.015625)"/>
      </defs>
      <use xlink:href="#DejaVuSans-43"/>
      <use xlink:href="#DejaVuSans-6f" x="69.824219"/>
      <use xlink:href="#DejaVuSans-65" x="131.005859"/>
      <use xlink:href="#DejaVuSans-66" x="192.529297"/>
      <use xlink:href="#DejaVuSans-66" x="227.734375"/>
      <use xlink:href="#DejaVuSans-69" x="262.939453"/>
      <use xlink:href="#DejaVuSans-63" x="290.722656"/>
      <use xlink:href="#DejaVuSans-69" x="345.703125"/>
      <use xlink:href="#DejaVuSans-65" x="373.486328"/>
      <use xlink:href="#DejaVuSans-6e" x="435.009766"/>
      <use xlink:href="#DejaVuSans-74" x="498.388672"/>
      <use xlink:href="#DejaVuSans-20" x="537.597656"/>
      <use xlink:href="#DejaVuSans-28" x="569.384766"/>
      <use xlink:href="#DejaVuSans-5a" x="608.398438"/>
      <use xlink:href="#DejaVuSans-2d" x="675.154297"/>
      <use xlink:href="#DejaVuSans-53" x="711.238281"/>
      <use xlink:href="#DejaVuSans-63" x="774.714844"/>
      <use xlink:href="#DejaVuSans-6f" x="829.695312"/>
      <use xlink:href="#DejaVuSans-72" x="890.876953"/>
      <use xlink:href="#DejaVuSans-65" x="929.740234"/>
      <use xlink:href="#DejaVuSans-29" x="991.263672"/>
     </g>
    </g>
   </g>
   <g id="line2d_13">
    <path d="M 50.229403 80.313409 
L 55.477052 89.374773 
L 60.724701 83.417019 
L 65.97235 93.222313 
L 71.219999 86.136959 
L 76.467648 85.472821 
L 81.715297 89.945715 
L 86.962946 82.350084 
L 92.210595 80.84453 
L 97.458244 79.127861 
L 102.705892 93.888754 
L 107.953541 80.576387 
L 113.20119 87.657972 
L 118.448839 86.916313 
L 123.696488 83.769888 
L 128.944137 94.258152 
L 134.191786 84.626991 
L 139.439435 90.598038 
L 144.687084 83.607519 
L 149.934733 85.164092 
L 155.182381 86.510201 
L 160.43003 79.989425 
L 165.677679 90.371936 
L 170.925328 77.180417 
L 176.172977 76.782257 
L 181.420626 89.105571 
L 186.668275 83.290184 
L 191.915924 88.948273 
L 197.163573 83.359557 
L 202.411222 64.745446 
" clip-path="url(#p4350196634)" style="fill: none; stroke: #2ca02c; stroke-width: 1.5; stroke-linecap: square"/>
   </g>
   <g id="line2d_14">
    <path d="M 50.229403 75.782106 
L 55.477052 85.172054 
L 60.724701 78.766445 
L 65.97235 78.468527 
L 71.219999 79.455595 
L 76.467648 80.2811 
L 81.715297 80.121176 
L 86.962946 79.945687 
L 92.210595 88.183645 
L 97.458244 84.828399 
L 102.705892 77.212235 
L 107.953541 81.320944 
L 113.20119 82.520431 
L 118.448839 79.507511 
L 123.696488 73.228126 
L 128.944137 84.523748 
L 134.191786 81.029064 
L 139.439435 91.378178 
L 144.687084 84.795474 
L 149.934733 79.97669 
L 155.182381 82.860334 
L 160.43003 82.517855 
L 165.677679 84.757549 
L 170.925328 95.676924 
L 176.172977 83.329717 
L 181.420626 82.749712 
L 186.668275 92.253241 
L 191.915924 91.349331 
L 197.163573 95.173647 
L 202.411222 83.96245 
" clip-path="url(#p4350196634)" style="fill: none; stroke: #ff7f0e; stroke-width: 1.5; stroke-linecap: square"/>
   </g>
   <g id="line2d_15">
    <path d="M 50.229403 94.353072 
L 55.477052 94.062719 
L 60.724701 97.969645 
L 65.97235 91.120256 
L 71.219999 105.056398 
L 76.467648 87.642509 
L 81.715297 96.810687 
L 86.962946 92.710292 
L 92.210595 94.611753 
L 97.458244 90.50343 
L 102.705892 76.231419 
L 107.953541 84.178172 
L 113.20119 87.342241 
L 118.448839 80.730477 
L 123.696488 82.613678 
L 128.944137 69.004749 
L 134.191786 81.238818 
L 139.439435 63.842781 
L 144.687084 58.42905 
L 149.934733 62.831292 
L 155.182381 64.402403 
L 160.43003 60.260409 
L 165.677679 56.715146 
L 170.925328 45.77698 
L 176.172977 51.215853 
L 181.420626 38.747672 
L 186.668275 35.718117 
L 191.915924 35.777191 
L 197.163573 15.100705 
L 202.411222 17.059049 
" clip-path="url(#p4350196634)" style="fill: none; stroke: #6a5acd; stroke-width: 1.5; stroke-linecap: square"/>
   </g>
   <g id="line2d_16">
    <path d="M 42.620313 83.266441 
L 210.020313 83.266441 
" clip-path="url(#p4350196634)" style="fill: none; stroke-dasharray: 7.4,3.2; stroke-dashoffset: 0; stroke: #ffffff; stroke-width: 2"/>
   </g>
   <g id="patch_3">
    <path d="M 42.620313 118.08 
L 42.620313 7.2 
" style="fill: none; stroke: #000000; stroke-width: 0.8; stroke-linejoin: miter; stroke-linecap: square"/>
   </g>
   <g id="patch_4">
    <path d="M 42.620313 118.08 
L 210.020313 118.08 
" style="fill: none; stroke: #000000; stroke-width: 0.8; stroke-linejoin: miter; stroke-linecap: square"/>
   </g>
   <g id="legend_1">
    <g id="line2d_17">
     <path d="M 219.020313 47.22125 
L 229.020313 47.22125 
L 239.020313 47.22125 
" style="fill: none; stroke: #2ca02c; stroke-width: 1.5; stroke-linecap: square"/>
    </g>
    <g id="text_15">
     <!-- $C$ -->
     <g style="fill: #ffffff" transform="translate(247.020313 50.72125) scale(0.1 -0.1)">
      <defs>
       <path id="DejaVuSans-Oblique-43" d="M 4447 4306 
L 4319 3641 
Q 4019 3944 3683 4091 
Q 3347 4238 2956 4238 
Q 2422 4238 2017 3981 
Q 1613 3725 1319 3200 
Q 1131 2863 1032 2486 
Q 934 2109 934 1728 
Q 934 1091 1264 756 
Q 1594 422 2222 422 
Q 2656 422 3056 561 
Q 3456 700 3834 978 
L 3688 231 
Q 3316 72 2936 -9 
Q 2556 -91 2175 -91 
Q 1278 -91 773 396 
Q 269 884 269 1753 
Q 269 2309 461 2846 
Q 653 3384 1013 3828 
Q 1394 4300 1883 4525 
Q 2372 4750 3022 4750 
Q 3422 4750 3780 4639 
Q 4138 4528 4447 4306 
z
" transform="scale(0.015625)"/>
      </defs>
      <use xlink:href="#DejaVuSans-Oblique-43" transform="translate(0 0.78125)"/>
     </g>
    </g>
    <g id="line2d_18">
     <path d="M 219.020313 61.899375 
L 229.020313 61.899375 
L 239.020313 61.899375 
" style="fill: none; stroke: #ff7f0e; stroke-width: 1.5; stroke-linecap: square"/>
    </g>
    <g id="text_16">
     <!-- $R$ -->
     <g style="fill: #ffffff" transform="translate(247.020313 65.399375) scale(0.1 -0.1)">
      <defs>
       <path id="DejaVuSans-Oblique-52" d="M 1613 4147 
L 1294 2491 
L 2106 2491 
Q 2584 2491 2879 2755 
Q 3175 3019 3175 3444 
Q 3175 3784 2976 3965 
Q 2778 4147 2406 4147 
L 1613 4147 
z
M 2772 2241 
Q 2972 2194 3105 2009 
Q 3238 1825 3413 1275 
L 3809 0 
L 3144 0 
L 2778 1197 
Q 2638 1659 2453 1815 
Q 2269 1972 1888 1972 
L 1191 1972 
L 806 0 
L 172 0 
L 1081 4666 
L 2503 4666 
Q 3150 4666 3495 4373 
Q 3841 4081 3841 3531 
Q 3841 3044 3547 2687 
Q 3253 2331 2772 2241 
z
" transform="scale(0.015625)"/>
      </defs>
      <use xlink:href="#DejaVuSans-Oblique-52" transform="translate(0 0.09375)"/>
     </g>
    </g>
    <g id="line2d_19">
     <path d="M 219.020313 76.5775 
L 229.020313 76.5775 
L 239.020313 76.5775 
" style="fill: none; stroke: #6a5acd; stroke-width: 1.5; stroke-linecap: square"/>
    </g>
    <g id="text_17">
     <!-- $C \cdot R$ -->
     <g style="fill: #ffffff" transform="translate(247.020313 80.0775) scale(0.1 -0.1)">
      <defs>
       <path id="DejaVuSans-22c5" d="M 684 2619 
L 1344 2619 
L 1344 1825 
L 684 1825 
L 684 2619 
z
" transform="scale(0.015625)"/>
      </defs>
      <use xlink:href="#DejaVuSans-Oblique-43" transform="translate(0 0.78125)"/>
      <use xlink:href="#DejaVuSans-22c5" transform="translate(89.306641 0.78125)"/>
      <use xlink:href="#DejaVuSans-Oblique-52" transform="translate(140.576172 0.78125)"/>
     </g>
    </g>
   </g>
  </g>
 </g>
 <defs>
  <clipPath id="p4350196634">
   <rect x="42.620313" y="7.2" width="167.4" height="110.88"/>
  </clipPath>
 </defs>
</svg>
