<?xml version="1.0" encoding="utf-8" standalone="no"?>
<!DOCTYPE svg PUBLIC "-//W3C//DTD SVG 1.1//EN"
  "http://www.w3.org/Graphics/SVG/1.1/DTD/svg11.dtd">
<svg xmlns:xlink="http://www.w3.org/1999/xlink" width="280.48125pt" height="155.63625pt" viewBox="0 0 280.48125 155.63625" xmlns="http://www.w3.org/2000/svg" version="1.1">
 <metadata>
  <rdf:RDF xmlns:dc="http://purl.org/dc/elements/1.1/" xmlns:cc="http://creativecommons.org/ns#" xmlns:rdf="http://www.w3.org/1999/02/22-rdf-syntax-ns#">
   <cc:Work>
    <dc:type rdf:resource="http://purl.org/dc/dcmitype/StillImage"/>
    <dc:date>2024-02-04T17:40:19.238064</dc:date>
    <dc:format>image/svg+xml</dc:format>
    <dc:creator>
     <cc:Agent>
      <dc:title>Matplotlib v3.7.2, https://matplotlib.org/</dc:title>
     </cc:Agent>
    </dc:creator>
   </cc:Work>
  </rdf:RDF>
 </metadata>
 <defs>
  <style type="text/css">*{stroke-linejoin: round; stroke-linecap: butt}</style>
 </defs>
 <g id="figure_1">
  <g id="patch_1">
   <path d="M 0 155.63625 
L 280.48125 155.63625 
L 280.48125 0 
L 0 0 
L 0 155.63625 
z
" style="fill: none"/>
  </g>
  <g id="axes_1">
   <g id="patch_2">
    <path d="M 43.78125 118.08 
L 211.18125 118.08 
L 211.18125 7.2 
L 43.78125 7.2 
L 43.78125 118.08 
z
" style="fill: none"/>
   </g>
   <g id="PolyCollection_1">
    <defs>
     <path id="m3c6befae30" d="M 51.390341 -60.743356 
L 51.390341 -60.346306 
L 56.63799 -54.556715 
L 61.885639 -50.559977 
L 67.133288 -61.172849 
L 72.380937 -60.120072 
L 77.628585 -61.899935 
L 82.876234 -60.179164 
L 88.123883 -57.86097 
L 93.371532 -55.781561 
L 98.619181 -53.540185 
L 103.86683 -55.861475 
L 109.114479 -58.665842 
L 114.362128 -61.033683 
L 119.609777 -53.060498 
L 124.857426 -58.384357 
L 130.105074 -57.047542 
L 135.352723 -62.745719 
L 140.600372 -60.329272 
L 145.848021 -53.246141 
L 151.09567 -54.836485 
L 156.343319 -56.698189 
L 161.590968 -54.919868 
L 166.838617 -59.154606 
L 172.086266 -52.808805 
L 177.333915 -53.655781 
L 182.581563 -55.484876 
L 187.829212 -59.112998 
L 193.076861 -59.547755 
L 198.32451 -59.293026 
L 203.572159 -54.870912 
L 203.572159 -58.315332 
L 203.572159 -58.315332 
L 198.32451 -60.278081 
L 193.076861 -60.804483 
L 187.829212 -61.174593 
L 182.581563 -56.612375 
L 177.333915 -60.18251 
L 172.086266 -56.036205 
L 166.838617 -68.058902 
L 161.590968 -58.144289 
L 156.343319 -61.470925 
L 151.09567 -55.799543 
L 145.848021 -56.712383 
L 140.600372 -61.201986 
L 135.352723 -65.495973 
L 130.105074 -62.135109 
L 124.857426 -65.643528 
L 119.609777 -60.777107 
L 114.362128 -62.92062 
L 109.114479 -60.319883 
L 103.86683 -64.612391 
L 98.619181 -62.433734 
L 93.371532 -66.729484 
L 88.123883 -62.467812 
L 82.876234 -61.084363 
L 77.628585 -65.150609 
L 72.380937 -62.048804 
L 67.133288 -68.265702 
L 61.885639 -56.119672 
L 56.63799 -57.036555 
L 51.390341 -60.743356 
z
" style="stroke: #2ca02c; stroke-opacity: 0.2"/>
    </defs>
    <g clip-path="url(#pdb53c555aa)">
     <use xlink:href="#m3c6befae30" x="0" y="155.63625" style="fill: #2ca02c; fill-opacity: 0.2; stroke: #2ca02c; stroke-opacity: 0.2"/>
    </g>
   </g>
   <g id="PolyCollection_2">
    <defs>
     <path id="mcfc992013a" d="M 51.390341 -60.025114 
L 51.390341 -50.202661 
L 56.63799 -55.526292 
L 61.885639 -51.588846 
L 67.133288 -55.508727 
L 72.380937 -53.716965 
L 77.628585 -52.790526 
L 82.876234 -52.185924 
L 88.123883 -50.379482 
L 93.371532 -50.763495 
L 98.619181 -59.785864 
L 103.86683 -63.150108 
L 109.114479 -65.407765 
L 114.362128 -49.788984 
L 119.609777 -59.329879 
L 124.857426 -52.049238 
L 130.105074 -59.878213 
L 135.352723 -51.035555 
L 140.600372 -42.59625 
L 145.848021 -54.223338 
L 151.09567 -68.062697 
L 156.343319 -48.693554 
L 161.590968 -56.400365 
L 166.838617 -48.827827 
L 172.086266 -55.910193 
L 177.333915 -51.310205 
L 182.581563 -51.74993 
L 187.829212 -52.170786 
L 193.076861 -53.417976 
L 198.32451 -53.302144 
L 203.572159 -63.399238 
L 203.572159 -69.676464 
L 203.572159 -69.676464 
L 198.32451 -55.631181 
L 193.076861 -68.886258 
L 187.829212 -58.812083 
L 182.581563 -53.241124 
L 177.333915 -60.650361 
L 172.086266 -68.145434 
L 166.838617 -64.5451 
L 161.590968 -57.09976 
L 156.343319 -55.062114 
L 151.09567 -75.023111 
L 145.848021 -74.787226 
L 140.600372 -65.176468 
L 135.352723 -53.800254 
L 130.105074 -64.625468 
L 124.857426 -61.736462 
L 119.609777 -63.844248 
L 114.362128 -78.03625 
L 109.114479 -68.332928 
L 103.86683 -67.242559 
L 98.619181 -66.045864 
L 93.371532 -54.698621 
L 88.123883 -67.199925 
L 82.876234 -61.870057 
L 77.628585 -55.66641 
L 72.380937 -62.6009 
L 67.133288 -71.899248 
L 61.885639 -58.918438 
L 56.63799 -60.989012 
L 51.390341 -60.025114 
z
" style="stroke: #ff7f0e; stroke-opacity: 0.2"/>
    </defs>
    <g clip-path="url(#pdb53c555aa)">
     <use xlink:href="#mcfc992013a" x="0" y="155.63625" style="fill: #ff7f0e; fill-opacity: 0.2; stroke: #ff7f0e; stroke-opacity: 0.2"/>
    </g>
   </g>
   <g id="PolyCollection_3">
    <defs>
     <path id="m52b4caa5f2" d="M 51.390341 -56.019891 
L 51.390341 -52.976205 
L 56.63799 -60.221929 
L 61.885639 -59.060833 
L 67.133288 -49.730645 
L 72.380937 -52.077209 
L 77.628585 -57.826963 
L 82.876234 -60.637002 
L 88.123883 -58.392353 
L 93.371532 -49.709466 
L 98.619181 -54.037902 
L 103.86683 -52.038283 
L 109.114479 -52.069174 
L 114.362128 -52.429658 
L 119.609777 -64.3142 
L 124.857426 -59.064909 
L 130.105074 -59.538659 
L 135.352723 -46.672856 
L 140.600372 -59.361773 
L 145.848021 -73.579796 
L 151.09567 -60.821962 
L 156.343319 -64.372048 
L 161.590968 -67.133515 
L 166.838617 -61.395086 
L 172.086266 -81.006761 
L 177.333915 -83.189794 
L 182.581563 -86.035503 
L 187.829212 -94.437023 
L 193.076861 -107.85726 
L 198.32451 -118.86827 
L 203.572159 -142.190858 
L 203.572159 -143.39625 
L 203.572159 -143.39625 
L 198.32451 -122.503223 
L 193.076861 -108.195272 
L 187.829212 -100.088263 
L 182.581563 -86.041711 
L 177.333915 -83.553924 
L 172.086266 -87.232718 
L 166.838617 -68.990611 
L 161.590968 -67.419018 
L 156.343319 -70.451406 
L 151.09567 -66.68719 
L 145.848021 -74.947219 
L 140.600372 -61.466225 
L 135.352723 -60.057117 
L 130.105074 -61.076072 
L 124.857426 -60.698778 
L 119.609777 -68.424292 
L 114.362128 -68.252721 
L 109.114479 -58.755558 
L 103.86683 -65.111769 
L 98.619181 -64.741217 
L 93.371532 -55.486216 
L 88.123883 -65.510512 
L 82.876234 -63.588792 
L 77.628585 -62.840923 
L 72.380937 -63.158764 
L 67.133288 -49.868521 
L 61.885639 -71.527435 
L 56.63799 -74.351477 
L 51.390341 -56.019891 
z
" style="stroke: #6a5acd; stroke-opacity: 0.2"/>
    </defs>
    <g clip-path="url(#pdb53c555aa)">
     <use xlink:href="#m52b4caa5f2" x="0" y="155.63625" style="fill: #6a5acd; fill-opacity: 0.2; stroke: #6a5acd; stroke-opacity: 0.2"/>
    </g>
   </g>
   <g id="matplotlib.axis_1">
    <g id="xtick_1">
     <g id="line2d_1">
      <defs>
       <path id="mcf89ce7c17" d="M 0 0 
L 0 3.5 
" style="stroke: #ffffff; stroke-width: 0.8"/>
      </defs>
      <g>
       <use xlink:href="#mcf89ce7c17" x="51.390341" y="118.08" style="fill: #ffffff; stroke: #ffffff; stroke-width: 0.8"/>
      </g>
     </g>
     <g id="text_1">
      <!-- -30 -->
      <g style="fill: #ffffff" transform="translate(43.223935 132.678438) scale(0.1 -0.1)">
       <defs>
        <path id="DejaVuSans-2d" d="M 313 2009 
L 1997 2009 
L 1997 1497 
L 313 1497 
L 313 2009 
z
" transform="scale(0.015625)"/>
        <path id="DejaVuSans-33" d="M 2597 2516 
Q 3050 2419 3304 2112 
Q 3559 1806 3559 1356 
Q 3559 666 3084 287 
Q 2609 -91 1734 -91 
Q 1441 -91 1130 -33 
Q 819 25 488 141 
L 488 750 
Q 750 597 1062 519 
Q 1375 441 1716 441 
Q 2309 441 2620 675 
Q 2931 909 2931 1356 
Q 2931 1769 2642 2001 
Q 2353 2234 1838 2234 
L 1294 2234 
L 1294 2753 
L 1863 2753 
Q 2328 2753 2575 2939 
Q 2822 3125 2822 3475 
Q 2822 3834 2567 4026 
Q 2313 4219 1838 4219 
Q 1578 4219 1281 4162 
Q 984 4106 628 3988 
L 628 4550 
Q 988 4650 1302 4700 
Q 1616 4750 1894 4750 
Q 2613 4750 3031 4423 
Q 3450 4097 3450 3541 
Q 3450 3153 3228 2886 
Q 3006 2619 2597 2516 
z
" transform="scale(0.015625)"/>
        <path id="DejaVuSans-30" d="M 2034 4250 
Q 1547 4250 1301 3770 
Q 1056 3291 1056 2328 
Q 1056 1369 1301 889 
Q 1547 409 2034 409 
Q 2525 409 2770 889 
Q 3016 1369 3016 2328 
Q 3016 3291 2770 3770 
Q 2525 4250 2034 4250 
z
M 2034 4750 
Q 2819 4750 3233 4129 
Q 3647 3509 3647 2328 
Q 3647 1150 3233 529 
Q 2819 -91 2034 -91 
Q 1250 -91 836 529 
Q 422 1150 422 2328 
Q 422 3509 836 4129 
Q 1250 4750 2034 4750 
z
" transform="scale(0.015625)"/>
       </defs>
       <use xlink:href="#DejaVuSans-2d"/>
       <use xlink:href="#DejaVuSans-33" x="36.083984"/>
       <use xlink:href="#DejaVuSans-30" x="99.707031"/>
      </g>
     </g>
    </g>
    <g id="xtick_2">
     <g id="line2d_2">
      <g>
       <use xlink:href="#mcf89ce7c17" x="77.628585" y="118.08" style="fill: #ffffff; stroke: #ffffff; stroke-width: 0.8"/>
      </g>
     </g>
     <g id="text_2">
      <!-- -25 -->
      <g style="fill: #ffffff" transform="translate(69.462179 132.678438) scale(0.1 -0.1)">
       <defs>
        <path id="DejaVuSans-32" d="M 1228 531 
L 3431 531 
L 3431 0 
L 469 0 
L 469 531 
Q 828 903 1448 1529 
Q 2069 2156 2228 2338 
Q 2531 2678 2651 2914 
Q 2772 3150 2772 3378 
Q 2772 3750 2511 3984 
Q 2250 4219 1831 4219 
Q 1534 4219 1204 4116 
Q 875 4013 500 3803 
L 500 4441 
Q 881 4594 1212 4672 
Q 1544 4750 1819 4750 
Q 2544 4750 2975 4387 
Q 3406 4025 3406 3419 
Q 3406 3131 3298 2873 
Q 3191 2616 2906 2266 
Q 2828 2175 2409 1742 
Q 1991 1309 1228 531 
z
" transform="scale(0.015625)"/>
        <path id="DejaVuSans-35" d="M 691 4666 
L 3169 4666 
L 3169 4134 
L 1269 4134 
L 1269 2991 
Q 1406 3038 1543 3061 
Q 1681 3084 1819 3084 
Q 2600 3084 3056 2656 
Q 3513 2228 3513 1497 
Q 3513 744 3044 326 
Q 2575 -91 1722 -91 
Q 1428 -91 1123 -41 
Q 819 9 494 109 
L 494 744 
Q 775 591 1075 516 
Q 1375 441 1709 441 
Q 2250 441 2565 725 
Q 2881 1009 2881 1497 
Q 2881 1984 2565 2268 
Q 2250 2553 1709 2553 
Q 1456 2553 1204 2497 
Q 953 2441 691 2322 
L 691 4666 
z
" transform="scale(0.015625)"/>
       </defs>
       <use xlink:href="#DejaVuSans-2d"/>
       <use xlink:href="#DejaVuSans-32" x="36.083984"/>
       <use xlink:href="#DejaVuSans-35" x="99.707031"/>
      </g>
     </g>
    </g>
    <g id="xtick_3">
     <g id="line2d_3">
      <g>
       <use xlink:href="#mcf89ce7c17" x="103.86683" y="118.08" style="fill: #ffffff; stroke: #ffffff; stroke-width: 0.8"/>
      </g>
     </g>
     <g id="text_3">
      <!-- -20 -->
      <g style="fill: #ffffff" transform="translate(95.700424 132.678438) scale(0.1 -0.1)">
       <use xlink:href="#DejaVuSans-2d"/>
       <use xlink:href="#DejaVuSans-32" x="36.083984"/>
       <use xlink:href="#DejaVuSans-30" x="99.707031"/>
      </g>
     </g>
    </g>
    <g id="xtick_4">
     <g id="line2d_4">
      <g>
       <use xlink:href="#mcf89ce7c17" x="130.105074" y="118.08" style="fill: #ffffff; stroke: #ffffff; stroke-width: 0.8"/>
      </g>
     </g>
     <g id="text_4">
      <!-- -15 -->
      <g style="fill: #ffffff" transform="translate(121.938668 132.678438) scale(0.1 -0.1)">
       <defs>
        <path id="DejaVuSans-31" d="M 794 531 
L 1825 531 
L 1825 4091 
L 703 3866 
L 703 4441 
L 1819 4666 
L 2450 4666 
L 2450 531 
L 3481 531 
L 3481 0 
L 794 0 
L 794 531 
z
" transform="scale(0.015625)"/>
       </defs>
       <use xlink:href="#DejaVuSans-2d"/>
       <use xlink:href="#DejaVuSans-31" x="36.083984"/>
       <use xlink:href="#DejaVuSans-35" x="99.707031"/>
      </g>
     </g>
    </g>
    <g id="xtick_5">
     <g id="line2d_5">
      <g>
       <use xlink:href="#mcf89ce7c17" x="156.343319" y="118.08" style="fill: #ffffff; stroke: #ffffff; stroke-width: 0.8"/>
      </g>
     </g>
     <g id="text_5">
      <!-- -10 -->
      <g style="fill: #ffffff" transform="translate(148.176913 132.678438) scale(0.1 -0.1)">
       <use xlink:href="#DejaVuSans-2d"/>
       <use xlink:href="#DejaVuSans-31" x="36.083984"/>
       <use xlink:href="#DejaVuSans-30" x="99.707031"/>
      </g>
     </g>
    </g>
    <g id="xtick_6">
     <g id="line2d_6">
      <g>
       <use xlink:href="#mcf89ce7c17" x="182.581563" y="118.08" style="fill: #ffffff; stroke: #ffffff; stroke-width: 0.8"/>
      </g>
     </g>
     <g id="text_6">
      <!-- -5 -->
      <g style="fill: #ffffff" transform="translate(177.596407 132.678438) scale(0.1 -0.1)">
       <use xlink:href="#DejaVuSans-2d"/>
       <use xlink:href="#DejaVuSans-35" x="36.083984"/>
      </g>
     </g>
    </g>
    <g id="xtick_7">
     <g id="line2d_7">
      <g>
       <use xlink:href="#mcf89ce7c17" x="208.819808" y="118.08" style="fill: #ffffff; stroke: #ffffff; stroke-width: 0.8"/>
      </g>
     </g>
     <g id="text_7">
      <!-- 0 -->
      <g style="fill: #ffffff" transform="translate(205.638558 132.678438) scale(0.1 -0.1)">
       <use xlink:href="#DejaVuSans-30"/>
      </g>
     </g>
    </g>
    <g id="text_8">
     <!-- Past Trials -->
     <g style="fill: #ffffff" transform="translate(102.654687 146.356562) scale(0.1 -0.1)">
      <defs>
       <path id="DejaVuSans-50" d="M 1259 4147 
L 1259 2394 
L 2053 2394 
Q 2494 2394 2734 2622 
Q 2975 2850 2975 3272 
Q 2975 3691 2734 3919 
Q 2494 4147 2053 4147 
L 1259 4147 
z
M 628 4666 
L 2053 4666 
Q 2838 4666 3239 4311 
Q 3641 3956 3641 3272 
Q 3641 2581 3239 2228 
Q 2838 1875 2053 1875 
L 1259 1875 
L 1259 0 
L 628 0 
L 628 4666 
z
" transform="scale(0.015625)"/>
       <path id="DejaVuSans-61" d="M 2194 1759 
Q 1497 1759 1228 1600 
Q 959 1441 959 1056 
Q 959 750 1161 570 
Q 1363 391 1709 391 
Q 2188 391 2477 730 
Q 2766 1069 2766 1631 
L 2766 1759 
L 2194 1759 
z
M 3341 1997 
L 3341 0 
L 2766 0 
L 2766 531 
Q 2569 213 2275 61 
Q 1981 -91 1556 -91 
Q 1019 -91 701 211 
Q 384 513 384 1019 
Q 384 1609 779 1909 
Q 1175 2209 1959 2209 
L 2766 2209 
L 2766 2266 
Q 2766 2663 2505 2880 
Q 2244 3097 1772 3097 
Q 1472 3097 1187 3025 
Q 903 2953 641 2809 
L 641 3341 
Q 956 3463 1253 3523 
Q 1550 3584 1831 3584 
Q 2591 3584 2966 3190 
Q 3341 2797 3341 1997 
z
" transform="scale(0.015625)"/>
       <path id="DejaVuSans-73" d="M 2834 3397 
L 2834 2853 
Q 2591 2978 2328 3040 
Q 2066 3103 1784 3103 
Q 1356 3103 1142 2972 
Q 928 2841 928 2578 
Q 928 2378 1081 2264 
Q 1234 2150 1697 2047 
L 1894 2003 
Q 2506 1872 2764 1633 
Q 3022 1394 3022 966 
Q 3022 478 2636 193 
Q 2250 -91 1575 -91 
Q 1294 -91 989 -36 
Q 684 19 347 128 
L 347 722 
Q 666 556 975 473 
Q 1284 391 1588 391 
Q 1994 391 2212 530 
Q 2431 669 2431 922 
Q 2431 1156 2273 1281 
Q 2116 1406 1581 1522 
L 1381 1569 
Q 847 1681 609 1914 
Q 372 2147 372 2553 
Q 372 3047 722 3315 
Q 1072 3584 1716 3584 
Q 2034 3584 2315 3537 
Q 2597 3491 2834 3397 
z
" transform="scale(0.015625)"/>
       <path id="DejaVuSans-74" d="M 1172 4494 
L 1172 3500 
L 2356 3500 
L 2356 3053 
L 1172 3053 
L 1172 1153 
Q 1172 725 1289 603 
Q 1406 481 1766 481 
L 2356 481 
L 2356 0 
L 1766 0 
Q 1100 0 847 248 
Q 594 497 594 1153 
L 594 3053 
L 172 3053 
L 172 3500 
L 594 3500 
L 594 4494 
L 1172 4494 
z
" transform="scale(0.015625)"/>
       <path id="DejaVuSans-20" transform="scale(0.015625)"/>
       <path id="DejaVuSans-54" d="M -19 4666 
L 3928 4666 
L 3928 4134 
L 2272 4134 
L 2272 0 
L 1638 0 
L 1638 4134 
L -19 4134 
L -19 4666 
z
" transform="scale(0.015625)"/>
       <path id="DejaVuSans-72" d="M 2631 2963 
Q 2534 3019 2420 3045 
Q 2306 3072 2169 3072 
Q 1681 3072 1420 2755 
Q 1159 2438 1159 1844 
L 1159 0 
L 581 0 
L 581 3500 
L 1159 3500 
L 1159 2956 
Q 1341 3275 1631 3429 
Q 1922 3584 2338 3584 
Q 2397 3584 2469 3576 
Q 2541 3569 2628 3553 
L 2631 2963 
z
" transform="scale(0.015625)"/>
       <path id="DejaVuSans-69" d="M 603 3500 
L 1178 3500 
L 1178 0 
L 603 0 
L 603 3500 
z
M 603 4863 
L 1178 4863 
L 1178 4134 
L 603 4134 
L 603 4863 
z
" transform="scale(0.015625)"/>
       <path id="DejaVuSans-6c" d="M 603 4863 
L 1178 4863 
L 1178 0 
L 603 0 
L 603 4863 
z
" transform="scale(0.015625)"/>
      </defs>
      <use xlink:href="#DejaVuSans-50"/>
      <use xlink:href="#DejaVuSans-61" x="55.802734"/>
      <use xlink:href="#DejaVuSans-73" x="117.082031"/>
      <use xlink:href="#DejaVuSans-74" x="169.181641"/>
      <use xlink:href="#DejaVuSans-20" x="208.390625"/>
      <use xlink:href="#DejaVuSans-54" x="240.177734"/>
      <use xlink:href="#DejaVuSans-72" x="286.511719"/>
      <use xlink:href="#DejaVuSans-69" x="327.625"/>
      <use xlink:href="#DejaVuSans-61" x="355.408203"/>
      <use xlink:href="#DejaVuSans-6c" x="416.6875"/>
      <use xlink:href="#DejaVuSans-73" x="444.470703"/>
     </g>
    </g>
   </g>
   <g id="matplotlib.axis_2">
    <g id="ytick_1">
     <g id="line2d_8">
      <defs>
       <path id="mb0b8fe3644" d="M 0 0 
L -3.5 0 
" style="stroke: #ffffff; stroke-width: 0.8"/>
      </defs>
      <g>
       <use xlink:href="#mb0b8fe3644" x="43.78125" y="96.577744" style="fill: #ffffff; stroke: #ffffff; stroke-width: 0.8"/>
      </g>
     </g>
     <g id="text_9">
      <!-- 0.0 -->
      <g style="fill: #ffffff" transform="translate(20.878125 100.376962) scale(0.1 -0.1)">
       <defs>
        <path id="DejaVuSans-2e" d="M 684 794 
L 1344 794 
L 1344 0 
L 684 0 
L 684 794 
z
" transform="scale(0.015625)"/>
       </defs>
       <use xlink:href="#DejaVuSans-30"/>
       <use xlink:href="#DejaVuSans-2e" x="63.623047"/>
       <use xlink:href="#DejaVuSans-30" x="95.410156"/>
      </g>
     </g>
    </g>
    <g id="ytick_2">
     <g id="line2d_9">
      <g>
       <use xlink:href="#mb0b8fe3644" x="43.78125" y="57.071834" style="fill: #ffffff; stroke: #ffffff; stroke-width: 0.8"/>
      </g>
     </g>
     <g id="text_10">
      <!-- 0.1 -->
      <g style="fill: #ffffff" transform="translate(20.878125 60.871053) scale(0.1 -0.1)">
       <use xlink:href="#DejaVuSans-30"/>
       <use xlink:href="#DejaVuSans-2e" x="63.623047"/>
       <use xlink:href="#DejaVuSans-31" x="95.410156"/>
      </g>
     </g>
    </g>
    <g id="ytick_3">
     <g id="line2d_10">
      <g>
       <use xlink:href="#mb0b8fe3644" x="43.78125" y="17.565925" style="fill: #ffffff; stroke: #ffffff; stroke-width: 0.8"/>
      </g>
     </g>
     <g id="text_11">
      <!-- 0.2 -->
      <g style="fill: #ffffff" transform="translate(20.878125 21.365144) scale(0.1 -0.1)">
       <use xlink:href="#DejaVuSans-30"/>
       <use xlink:href="#DejaVuSans-2e" x="63.623047"/>
       <use xlink:href="#DejaVuSans-32" x="95.410156"/>
      </g>
     </g>
    </g>
    <g id="text_12">
     <!-- Coefficient -->
     <g style="fill: #ffffff" transform="translate(14.798437 89.520469) rotate(-90) scale(0.1 -0.1)">
      <defs>
       <path id="DejaVuSans-43" d="M 4122 4306 
L 4122 3641 
Q 3803 3938 3442 4084 
Q 3081 4231 2675 4231 
Q 1875 4231 1450 3742 
Q 1025 3253 1025 2328 
Q 1025 1406 1450 917 
Q 1875 428 2675 428 
Q 3081 428 3442 575 
Q 3803 722 4122 1019 
L 4122 359 
Q 3791 134 3420 21 
Q 3050 -91 2638 -91 
Q 1578 -91 968 557 
Q 359 1206 359 2328 
Q 359 3453 968 4101 
Q 1578 4750 2638 4750 
Q 3056 4750 3426 4639 
Q 3797 4528 4122 4306 
z
" transform="scale(0.015625)"/>
       <path id="DejaVuSans-6f" d="M 1959 3097 
Q 1497 3097 1228 2736 
Q 959 2375 959 1747 
Q 959 1119 1226 758 
Q 1494 397 1959 397 
Q 2419 397 2687 759 
Q 2956 1122 2956 1747 
Q 2956 2369 2687 2733 
Q 2419 3097 1959 3097 
z
M 1959 3584 
Q 2709 3584 3137 3096 
Q 3566 2609 3566 1747 
Q 3566 888 3137 398 
Q 2709 -91 1959 -91 
Q 1206 -91 779 398 
Q 353 888 353 1747 
Q 353 2609 779 3096 
Q 1206 3584 1959 3584 
z
" transform="scale(0.015625)"/>
       <path id="DejaVuSans-65" d="M 3597 1894 
L 3597 1613 
L 953 1613 
Q 991 1019 1311 708 
Q 1631 397 2203 397 
Q 2534 397 2845 478 
Q 3156 559 3463 722 
L 3463 178 
Q 3153 47 2828 -22 
Q 2503 -91 2169 -91 
Q 1331 -91 842 396 
Q 353 884 353 1716 
Q 353 2575 817 3079 
Q 1281 3584 2069 3584 
Q 2775 3584 3186 3129 
Q 3597 2675 3597 1894 
z
M 3022 2063 
Q 3016 2534 2758 2815 
Q 2500 3097 2075 3097 
Q 1594 3097 1305 2825 
Q 1016 2553 972 2059 
L 3022 2063 
z
" transform="scale(0.015625)"/>
       <path id="DejaVuSans-66" d="M 2375 4863 
L 2375 4384 
L 1825 4384 
Q 1516 4384 1395 4259 
Q 1275 4134 1275 3809 
L 1275 3500 
L 2222 3500 
L 2222 3053 
L 1275 3053 
L 1275 0 
L 697 0 
L 697 3053 
L 147 3053 
L 147 3500 
L 697 3500 
L 697 3744 
Q 697 4328 969 4595 
Q 1241 4863 1831 4863 
L 2375 4863 
z
" transform="scale(0.015625)"/>
       <path id="DejaVuSans-63" d="M 3122 3366 
L 3122 2828 
Q 2878 2963 2633 3030 
Q 2388 3097 2138 3097 
Q 1578 3097 1268 2742 
Q 959 2388 959 1747 
Q 959 1106 1268 751 
Q 1578 397 2138 397 
Q 2388 397 2633 464 
Q 2878 531 3122 666 
L 3122 134 
Q 2881 22 2623 -34 
Q 2366 -91 2075 -91 
Q 1284 -91 818 406 
Q 353 903 353 1747 
Q 353 2603 823 3093 
Q 1294 3584 2113 3584 
Q 2378 3584 2631 3529 
Q 2884 3475 3122 3366 
z
" transform="scale(0.015625)"/>
       <path id="DejaVuSans-6e" d="M 3513 2113 
L 3513 0 
L 2938 0 
L 2938 2094 
Q 2938 2591 2744 2837 
Q 2550 3084 2163 3084 
Q 1697 3084 1428 2787 
Q 1159 2491 1159 1978 
L 1159 0 
L 581 0 
L 581 3500 
L 1159 3500 
L 1159 2956 
Q 1366 3272 1645 3428 
Q 1925 3584 2291 3584 
Q 2894 3584 3203 3211 
Q 3513 2838 3513 2113 
z
" transform="scale(0.015625)"/>
      </defs>
      <use xlink:href="#DejaVuSans-43"/>
      <use xlink:href="#DejaVuSans-6f" x="69.824219"/>
      <use xlink:href="#DejaVuSans-65" x="131.005859"/>
      <use xlink:href="#DejaVuSans-66" x="192.529297"/>
      <use xlink:href="#DejaVuSans-66" x="227.734375"/>
      <use xlink:href="#DejaVuSans-69" x="262.939453"/>
      <use xlink:href="#DejaVuSans-63" x="290.722656"/>
      <use xlink:href="#DejaVuSans-69" x="345.703125"/>
      <use xlink:href="#DejaVuSans-65" x="373.486328"/>
      <use xlink:href="#DejaVuSans-6e" x="435.009766"/>
      <use xlink:href="#DejaVuSans-74" x="498.388672"/>
     </g>
    </g>
   </g>
   <g id="line2d_11">
    <path d="M 51.390341 95.091419 
L 56.63799 99.839615 
L 61.885639 102.296426 
L 67.133288 90.916975 
L 72.380937 94.551812 
L 77.628585 92.110978 
L 82.876234 95.004486 
L 88.123883 95.471859 
L 93.371532 94.380728 
L 98.619181 97.649291 
L 103.86683 95.399317 
L 109.114479 96.143387 
L 114.362128 93.659098 
L 119.609777 98.717448 
L 124.857426 93.622307 
L 130.105074 96.044925 
L 135.352723 91.515404 
L 140.600372 94.870621 
L 145.848021 100.656988 
L 151.09567 100.318236 
L 156.343319 96.551693 
L 161.590968 99.104171 
L 166.838617 92.029496 
L 172.086266 101.213745 
L 177.333915 98.717105 
L 182.581563 99.587624 
L 187.829212 95.492454 
L 193.076861 95.460131 
L 198.32451 95.850697 
L 203.572159 99.043128 
" clip-path="url(#pdb53c555aa)" style="fill: none; stroke: #2ca02c; stroke-width: 1.5; stroke-linecap: square"/>
   </g>
   <g id="line2d_12">
    <path d="M 51.390341 100.522362 
L 56.63799 97.378598 
L 61.885639 100.382608 
L 67.133288 91.932263 
L 72.380937 97.477318 
L 77.628585 101.407782 
L 82.876234 98.60826 
L 88.123883 96.846547 
L 93.371532 102.905192 
L 98.619181 92.720386 
L 103.86683 90.439917 
L 109.114479 88.765903 
L 114.362128 91.723633 
L 119.609777 94.049187 
L 124.857426 98.7434 
L 130.105074 93.38441 
L 135.352723 103.218346 
L 140.600372 101.749891 
L 145.848021 91.130968 
L 151.09567 84.093346 
L 156.343319 103.758416 
L 161.590968 98.886187 
L 166.838617 98.949786 
L 172.086266 93.608437 
L 177.333915 99.655967 
L 182.581563 103.140723 
L 187.829212 100.144816 
L 193.076861 94.484133 
L 198.32451 101.169587 
L 203.572159 89.098399 
" clip-path="url(#pdb53c555aa)" style="fill: none; stroke: #ff7f0e; stroke-width: 1.5; stroke-linecap: square"/>
   </g>
   <g id="line2d_13">
    <path d="M 51.390341 101.138202 
L 56.63799 88.349547 
L 61.885639 90.342116 
L 67.133288 105.836667 
L 72.380937 98.018264 
L 77.628585 95.302307 
L 82.876234 93.523353 
L 88.123883 93.684817 
L 93.371532 103.038409 
L 98.619181 96.246691 
L 103.86683 97.061224 
L 109.114479 100.223884 
L 114.362128 95.295061 
L 119.609777 89.267004 
L 124.857426 95.754406 
L 130.105074 95.328884 
L 135.352723 102.271264 
L 140.600372 95.222251 
L 145.848021 81.372743 
L 151.09567 91.881674 
L 156.343319 88.224523 
L 161.590968 88.359984 
L 166.838617 90.443401 
L 172.086266 71.516511 
L 177.333915 72.264391 
L 182.581563 69.597643 
L 187.829212 58.373607 
L 193.076861 47.609984 
L 198.32451 34.950504 
L 203.572159 12.842696 
" clip-path="url(#pdb53c555aa)" style="fill: none; stroke: #6a5acd; stroke-width: 1.5; stroke-linecap: square"/>
   </g>
   <g id="patch_3">
    <path d="M 43.78125 118.08 
L 43.78125 7.2 
" style="fill: none; stroke: #000000; stroke-width: 0.8; stroke-linejoin: miter; stroke-linecap: square"/>
   </g>
   <g id="patch_4">
    <path d="M 43.78125 118.08 
L 211.18125 118.08 
" style="fill: none; stroke: #000000; stroke-width: 0.8; stroke-linejoin: miter; stroke-linecap: square"/>
   </g>
   <g id="legend_1">
    <g id="line2d_14">
     <path d="M 220.18125 47.22125 
L 230.18125 47.22125 
L 240.18125 47.22125 
" style="fill: none; stroke: #2ca02c; stroke-width: 1.5; stroke-linecap: square"/>
    </g>
    <g id="text_13">
     <!-- $C$ -->
     <g style="fill: #ffffff" transform="translate(248.18125 50.72125) scale(0.1 -0.1)">
      <defs>
       <path id="DejaVuSans-Oblique-43" d="M 4447 4306 
L 4319 3641 
Q 4019 3944 3683 4091 
Q 3347 4238 2956 4238 
Q 2422 4238 2017 3981 
Q 1613 3725 1319 3200 
Q 1131 2863 1032 2486 
Q 934 2109 934 1728 
Q 934 1091 1264 756 
Q 1594 422 2222 422 
Q 2656 422 3056 561 
Q 3456 700 3834 978 
L 3688 231 
Q 3316 72 2936 -9 
Q 2556 -91 2175 -91 
Q 1278 -91 773 396 
Q 269 884 269 1753 
Q 269 2309 461 2846 
Q 653 3384 1013 3828 
Q 1394 4300 1883 4525 
Q 2372 4750 3022 4750 
Q 3422 4750 3780 4639 
Q 4138 4528 4447 4306 
z
" transform="scale(0.015625)"/>
      </defs>
      <use xlink:href="#DejaVuSans-Oblique-43" transform="translate(0 0.78125)"/>
     </g>
    </g>
    <g id="line2d_15">
     <path d="M 220.18125 61.899375 
L 230.18125 61.899375 
L 240.18125 61.899375 
" style="fill: none; stroke: #ff7f0e; stroke-width: 1.5; stroke-linecap: square"/>
    </g>
    <g id="text_14">
     <!-- $R$ -->
     <g style="fill: #ffffff" transform="translate(248.18125 65.399375) scale(0.1 -0.1)">
      <defs>
       <path id="DejaVuSans-Oblique-52" d="M 1613 4147 
L 1294 2491 
L 2106 2491 
Q 2584 2491 2879 2755 
Q 3175 3019 3175 3444 
Q 3175 3784 2976 3965 
Q 2778 4147 2406 4147 
L 1613 4147 
z
M 2772 2241 
Q 2972 2194 3105 2009 
Q 3238 1825 3413 1275 
L 3809 0 
L 3144 0 
L 2778 1197 
Q 2638 1659 2453 1815 
Q 2269 1972 1888 1972 
L 1191 1972 
L 806 0 
L 172 0 
L 1081 4666 
L 2503 4666 
Q 3150 4666 3495 4373 
Q 3841 4081 3841 3531 
Q 3841 3044 3547 2687 
Q 3253 2331 2772 2241 
z
" transform="scale(0.015625)"/>
      </defs>
      <use xlink:href="#DejaVuSans-Oblique-52" transform="translate(0 0.09375)"/>
     </g>
    </g>
    <g id="line2d_16">
     <path d="M 220.18125 76.5775 
L 230.18125 76.5775 
L 240.18125 76.5775 
" style="fill: none; stroke: #6a5acd; stroke-width: 1.5; stroke-linecap: square"/>
    </g>
    <g id="text_15">
     <!-- $C \cdot R$ -->
     <g style="fill: #ffffff" transform="translate(248.18125 80.0775) scale(0.1 -0.1)">
      <defs>
       <path id="DejaVuSans-22c5" d="M 684 2619 
L 1344 2619 
L 1344 1825 
L 684 1825 
L 684 2619 
z
" transform="scale(0.015625)"/>
      </defs>
      <use xlink:href="#DejaVuSans-Oblique-43" transform="translate(0 0.78125)"/>
      <use xlink:href="#DejaVuSans-22c5" transform="translate(89.306641 0.78125)"/>
      <use xlink:href="#DejaVuSans-Oblique-52" transform="translate(140.576172 0.78125)"/>
     </g>
    </g>
   </g>
  </g>
 </g>
 <defs>
  <clipPath id="pdb53c555aa">
   <rect x="43.78125" y="7.2" width="167.4" height="110.88"/>
  </clipPath>
 </defs>
</svg>
